

<svg version="1.1" id="Layer_1" xmlns="http://www.w3.org/2000/svg" xmlns:xlink="http://www.w3.org/1999/xlink" x="0px" y="0px"
	 viewBox="0 0 1080 1080" style="enable-background:new 0 0 1080 1080;" xml:space="preserve">
<style type="text/css">
	.st0{fill:#FFD700;}
	.st1{font-family:'Poppins-Light';}
	.st2{font-size:33.3464px;}
	.st3{letter-spacing:2.7;}
	.st4{fill:#FFFFFF;stroke:#FFFFFF;stroke-miterlimit:10;}
	.st5{font-family:'BrushScriptMT';}
	.st6{font-size:56.1156px;}
	.st7{letter-spacing:5.15;}
</style>
<g>
	<g>
		<path class="st0" d="M636.4,655.19c-1.99,11.03-6.84,20.48-14.54,28.38c-10.39,10.67-23.55,16-39.48,16
			c-22.86,0-41.84-11.6-56.94-34.82c-1.87-2.93-3.69-6.13-5.44-9.56h-20.43l-0.32,43.56h4.78c2.49-6.65,7.06-9.98,13.71-9.98
			c2.08,0,3.95,0.28,5.61,0.83c1.66,0.55,6.79,2.7,15.38,6.45c16.48,7.06,33.66,10.59,51.53,10.59c19.53,0,36.5-4.39,50.91-13.16
			c14.41-8.77,25.21-21.25,32.42-37.41c0.13-0.29,0.26-0.58,0.37-0.87H636.4z M663.62,414.27h-4.78c-1.66,7.07-4.91,10.6-9.77,10.6
			c-1.94,0-4.16-0.38-6.65-1.15c-2.49-0.76-7.2-2.53-14.13-5.3c-9.28-3.87-16.7-6.47-22.23-7.79c-5.54-1.32-11.57-1.98-18.08-1.98
			c-20.09,0-37.47,6.79-52.16,20.37c-8.31,7.62-14.79,16.77-19.43,27.43c-4.64,10.67-6.96,21.75-6.96,33.25
			c0,18.7,5.95,34.56,17.87,47.58c4.29,4.72,9.93,9.35,16.93,13.92c0.93,0.61,1.9,1.23,2.94,1.87h100.57
			c-8.73-6.76-19.47-13.16-32.24-19.21l-29.25-14.14c-29.74-14.14-44.61-32.8-44.61-55.95c0-5.82,1.07-11.65,3.22-17.47
			c2.14-5.82,5.08-10.89,8.81-15.19c8.99-10.54,21.22-15.81,36.72-15.81c10.65,0,20.05,2.6,28.21,7.8
			c8.16,5.19,15.63,13.19,22.41,24c3.73,5.96,6.95,12.44,9.65,19.43c2.69,7,5.91,17.08,9.65,30.24h4.78L663.62,414.27z"/>
		<path class="st0" d="M944.47,655.19c-2.37,4.31-5.09,8.3-8.16,11.97c-7.07,8.87-16.21,15.42-27.43,19.64
			c-11.22,4.23-25.14,6.34-41.77,6.34c-15.79,0-28.5-2.32-38.13-6.96c-9.63-4.64-16.8-11.95-21.51-21.92
			c-1.3-2.71-2.38-5.73-3.28-9.06h-50.09c-0.38,4.19-0.91,7.73-1.58,10.62c-1.59,6.86-4.54,12.5-8.83,16.94
			c-3.87,4.02-8.27,6.92-13.19,8.73c-4.91,1.8-11.32,2.9-19.22,3.32v4.78h247.9l1.45-44.38H944.47z M934.64,415.94H711.26v4.78
			c8.04,0.42,14.51,1.52,19.43,3.32c4.91,1.8,9.24,4.72,12.98,8.73c4.29,4.44,7.24,10.08,8.83,16.94
			c1.59,6.85,2.39,17.35,2.39,31.48v71.9h119.69l0.42-55.69l-4.78-0.21c-1.24,10.67-2.81,18.74-4.67,24.21
			c-1.87,5.47-4.75,10.21-8.63,14.23c-4.02,4.3-9.21,7.27-15.58,8.93c-6.37,1.67-15.86,2.49-28.47,2.49h-12.47V422.38h47.58
			c14.68,0,26.46,1.01,35.33,3.01c8.86,2.01,16.55,5.44,23.06,10.29c7.9,5.82,13.92,12.54,18.08,20.15
			c4.16,7.62,7.13,17.25,8.93,28.88l4.78-0.2L934.64,415.94z"/>
		<g>
			<path class="st0" d="M339.11,747.85c-5.99-2.28-11.26-5.78-15.81-10.5c-5.23-5.39-8.82-12.27-10.75-20.62
				c-1.94-8.35-2.91-21.13-2.91-38.32v-24.23h-55.4v24.23c0,17.37-0.93,30.19-2.78,38.45c-1.86,8.27-5.48,15.1-10.87,20.49
				c-4.56,4.72-9.83,8.22-15.81,10.5c-5.99,2.27-13.88,3.66-23.66,4.17v5.82h161.65v-5.82C352.98,751.51,345.1,750.13,339.11,747.85
				z M447.26,432.77c-10.46-8.09-22.01-13.49-34.66-16.19c-12.65-2.69-32.29-4.04-58.94-4.04H201.12v5.82h1.77
				c10.79,0.67,19.56,2.65,26.31,5.94c6.74,3.28,12.31,8.3,16.69,15.05c3.04,4.89,5.19,11.25,6.45,19.1
				c1.27,7.84,1.9,19.01,1.9,33.52v61.11h55.4v-132.7h21.25c13.82,0,22.68,0.17,26.56,0.5c14.16,1.52,26.39,6.58,36.68,15.18
				c8.94,7.26,15.81,16.66,20.62,28.21c4.81,11.56,7.21,24.24,7.21,38.07c0,20.15-5.39,37.07-16.18,50.74h63.7
				c9.13-12.71,13.69-28.53,13.69-47.45C483.18,475.28,471.2,450.99,447.26,432.77z"/>
		</g>
		<line class="st0" x1="469.48" y1="553.08" x2="405.78" y2="553.08"/>
		<line class="st0" x1="309.64" y1="553.08" x2="254.24" y2="553.08"/>
		<line class="st0" x1="309.64" y1="654.17" x2="254.24" y2="654.17"/>
	</g>
	<text transform="matrix(1.1109 0 0 1 332.3989 614.8771)" class="st0 st1 st2 st3">PROMPT SUPPLIES ENTERPRISE</text>
	<line class="st4" x1="201.12" y1="553.08" x2="960.61" y2="553.08"/>
	<line class="st4" x1="207.52" y1="654.17" x2="967.01" y2="654.17"/>
	<text transform="matrix(0.9714 0 0 1 494.7095 773.0731)" class="st0 st5 st6 st7">Amplify Your Reach</text>
</g>
</svg>
