<?xml version="1.0" encoding="utf-8"?>
<!-- Generator: Adobe Illustrator 27.0.0, SVG Export Plug-In . SVG Version: 6.00 Build 0)  -->
<svg version="1.1" id="Layer_1" xmlns="http://www.w3.org/2000/svg" xmlns:xlink="http://www.w3.org/1999/xlink" x="0px" y="0px"
	 viewBox="0 0 1080 1080" style="enable-background:new 0 0 1080 1080;" xml:space="preserve">
<g>
	<path d="M394.99,623.71c6.08,6.06,12.05,12.1,18.16,17.98c0.61,0.59,2.28,0.64,3.18,0.27c3.67-1.5,7.3-4.7,10.81-4.53
		c3.36,0.17,6.5,3.82,9.83,5.79c12.14,7.21,25.17,12.12,39.07,14.56c2.8,0.49,4.15,1.67,5.03,4.43c3.11,9.82,3.23,9.78,13.47,9.78
		c4.75,0,9.5-0.09,14.25,0.04c2.03,0.06,3.45-0.32,3.73-2.56c1.07-8.6,6.04-11.95,14.55-13.44c14.4-2.52,27.37-9.23,39.37-17.59
		c1.87-1.31,3.31-1.53,5.36-0.39c3.14,1.75,6.75,4.68,9.69,4.2c2.95-0.48,5.34-4.5,7.92-7.03c3.13-3.06,6.19-6.18,9.29-9.27
		c0.53-0.53,1.15-1.01,1.56-1.62c1.41-2.1-3.73-12.29-6.25-12.32c-4.62-0.07-9.26-0.19-13.87,0.09c-1.37,0.08-2.91,1.2-3.95,2.26
		c-22.25,22.68-49.22,34.04-81,33.57c-51.13-0.75-96.08-40.13-103.76-90.7c-8.04-52.91,21.96-102.67,72.38-119.62
		c22.71-7.64,45.63-7.51,68.54-0.55c1.99,0.6,4.15,0.89,6.23,0.89c44.87,0.05,89.75,0.04,134.62,0.04c1.47,0,2.94,0,4.6,0
		c0,4.03,0,7.73,0,11.78c-1.01,0.07-2.08,0.21-3.15,0.21c-46.37,0.01-92.75,0.02-139.12-0.02c-1.58,0-3.24-0.26-4.74-0.78
		c-37.53-12.94-79.35-2.25-105.07,27.92c-23.89,28.02-30.33,60.35-17.94,94.97c12.42,34.71,37.86,55.82,74.27,62.39
		c28.67,5.17,54.43-2.43,77.09-20.64c0.47-0.37,1.07-0.57,1.61-0.85c-0.17-0.32-0.34-0.65-0.52-0.97c-1.31,0-2.61,0-3.92,0
		c-29.37,0-58.75,0.12-88.12-0.04c-24.27-0.13-42.91-19.59-42.15-43.65c0.67-21.12,17.86-38.79,39.14-40.23
		c0.87-0.06,1.73-0.11,2.92-0.19c0.43-2.43,0.82-4.85,1.27-7.26c9.57-50.98,68.37-75.33,111.18-45.98c2.28,1.56,4.1,1.87,6.8,1.12
		c26.9-7.56,54.86,10.04,59.77,37.54c0.38,2.14,0.96,3.15,3.31,3.6c7.78,1.47,14.61,5.04,20.3,10.58c1.49,1.46,2.76,1.81,4.9,1.41
		c27.3-5.12,51.4,15.64,50.29,43.17c-0.87,21.53-18.9,39.5-40.65,39.81c-23.87,0.34-47.75,0.1-71.62,0.11c-1.24,0-2.48,0-4.4,0
		c1.78,4.1,3.26,7.86,5.05,11.48c1.01,2.04,0.67,3.3-0.92,4.86c-9.18,9.03-18.27,18.14-27.32,27.3c-1.45,1.47-2.55,1.83-4.48,0.79
		c-3.72-2.01-7.64-5.12-11.44-5.08c-3.62,0.04-7.04,3.91-10.83,5.41c-10.18,4.04-20.47,7.8-30.79,11.46
		c-2.16,0.77-3.65,1.47-4.31,3.9c-1.08,3.96-2.57,7.8-3.96,11.87c-14.34,0-28.58,0.04-42.82-0.09c-0.84-0.01-2.08-1.15-2.43-2.05
		c-1.32-3.36-2.16-6.93-3.6-10.23c-0.58-1.33-2.11-2.84-3.47-3.16c-14.1-3.33-27.27-8.8-39.63-16.35c-1.19-0.73-3.34-0.73-4.68-0.19
		c-3.91,1.6-7.64,3.64-11.18,5.39c-10.55-10.6-20.93-21.04-31.73-31.89c1.57-3.18,3.63-6.86,5.2-10.75
		c0.59-1.45,0.67-3.75-0.09-5.01c-7.49-12.39-13.01-25.54-16.33-39.65c-0.32-1.36-1.89-2.6-3.16-3.5c-1.07-0.76-2.56-0.94-3.85-1.39
		c-8.5-2.94-8.5-2.94-8.5-12.12c0-11.74,0-23.48,0-35.3c4.21-1.42,8.3-2.59,12.2-4.21c1.35-0.56,2.94-2.04,3.26-3.37
		c3.35-14.23,8.88-27.51,16.51-39.97c0.68-1.11,0.69-3.1,0.2-4.36c-1.27-3.24-2.86-6.38-4.6-9.41c-1.09-1.91-0.66-3.03,0.8-4.47
		c9.25-9.13,18.45-18.32,27.58-27.58c1.46-1.48,2.56-1.81,4.48-0.78c3.73,2,7.64,5.12,11.45,5.08c3.61-0.04,7.03-3.93,10.81-5.43
		c10.18-4.04,20.47-7.8,30.8-11.43c2.2-0.77,3.62-1.55,4.28-3.93c1.1-3.95,2.58-7.8,3.92-11.75c14.88,0,29.62,0,44.63,0
		c1.38,4.08,2.6,8.26,4.25,12.27c0.56,1.36,2.05,2.97,3.39,3.27c4.69,1.06,9.48,2.19,14.25,2.25c21.12,0.23,42.25,0.06,63.37,0.16
		c2.44,0.01,3.84-0.73,5.1-2.78c2.75-4.46,5.71-8.8,8.74-13.08c0.69-0.97,2.02-2.09,3.07-2.1c10.35-0.16,20.7-0.09,31.29-0.09
		c0,4.05,0,7.83,0,12c-7.84,0-15.55,0.1-23.26-0.06c-2.4-0.05-3.86,0.63-5.14,2.72c-2.73,4.47-5.64,8.85-8.77,13.06
		c-0.85,1.15-2.72,2.18-4.13,2.19c-26,0.07-52,0.22-77.99-0.29c-5.82-0.11-11.62-2.6-17.37-4.2c-0.77-0.21-1.37-1.6-1.74-2.56
		c-1.35-3.47-1.6-8.41-4.1-10.11c-2.68-1.83-7.43-0.68-11.27-0.73c-4.37-0.06-8.75,0.08-13.12-0.06c-1.97-0.06-3.12,0.54-3.37,2.52
		c-1.1,8.55-5.98,11.98-14.53,13.48c-14.39,2.52-27.38,9.19-39.37,17.58c-1.88,1.31-3.31,1.57-5.35,0.4
		c-3.12-1.79-6.45-3.23-9.93-4.93c-6.05,6.06-12.09,12.02-17.98,18.13c-0.59,0.61-0.67,2.28-0.3,3.17c1.51,3.67,4.72,7.3,4.55,10.81
		c-0.16,3.36-3.82,6.5-5.8,9.82c-7.22,12.13-12.15,25.15-14.57,39.07c-0.48,2.77-1.56,4.34-4.4,5.07c-3.23,0.83-7.59,1.37-9.11,3.62
		c-1.65,2.44-0.64,6.71-0.68,10.18c-0.06,4.75,0.08,9.5-0.06,14.25c-0.06,1.98,0.56,3.12,2.53,3.37
		c8.59,1.08,11.96,6.03,13.46,14.55c2.53,14.4,9.21,27.38,17.59,39.37c1.32,1.88,1.56,3.31,0.39,5.35
		C398.14,616.9,396.7,620.23,394.99,623.71z M624.15,576.07c4.07,0,7.78,0,11.62,0c0,4.07,0,7.86,0,11.65c-12.02,0-23.81,0-35.59,0
		c0-3.98,0-7.68,0-11.79c3.97,0,7.78,0,11.53,0c0-18.2,0-35.99,0-54.06c-3.99,0-7.69,0-11.47,0c0-4.07,0-7.86,0-11.88
		c11.21,0,22.17,0,33.67,0c-0.82-1.83-1.39-3.32-2.12-4.71c-8.67-16.52-28.03-23.62-45.48-16.36c-3.51,1.46-5.61,1.06-8.5-1.31
		c-34.77-28.5-87.18-9.97-96.41,34.13c-1.29,6.16-1.33,12.58-1.98,19.23c-2.43-0.23-5.02-0.37-7.58-0.73
		c-19.65-2.74-36.96,15.18-33.39,34.61c2.8,15.27,14.82,25.13,30.81,25.14c66.75,0.02,133.49,0.01,200.24,0.01
		c5.25,0,10.5,0.12,15.75-0.06c17.18-0.6,30.67-16.32,28.59-33.19c-2.16-17.56-18.31-29.51-35.42-26.1
		c-3.27,0.65-6.42,1.87-9.95,2.92c-7.33-12-18.5-16.69-32.54-15.52c0-2.25,0-3.96,0-5.83c-4.05,0-7.84,0-11.79,0
		C624.15,540.13,624.15,557.83,624.15,576.07z"/>
	<path d="M535.84,682.34c2.93-2.94,5.56-5.58,9.15-9.18c1.6,2.05,2.95,4.18,4.68,5.95c6.55,6.7,13.3,13.2,19.8,19.94
		c2.06,2.14,4.11,3.05,7.13,3.03c22.23-0.13,44.46-0.07,66.69-0.07c1.37,0,2.74,0,4.41,0c0,3.91,0,7.7,0,11.83
		c-1.1,0.05-2.3,0.16-3.5,0.16c-24.48,0.01-48.96,0.06-73.44-0.09c-1.84-0.01-4.12-0.96-5.44-2.25
		C555.48,702.08,545.83,692.32,535.84,682.34z"/>
	<path d="M389.99,371.85c0.07,9.96-8.08,18.16-18.03,18.14c-9.79-0.02-17.88-8.06-17.95-17.84c-0.07-9.96,8.07-18.15,18.02-18.13
		C381.84,354.03,389.92,362.05,389.99,371.85z M371.94,377.97c3.24,0.04,6-2.67,6.03-5.91c0.03-3.25-2.66-5.99-5.91-6.03
		c-3.25-0.03-5.99,2.65-6.03,5.91C366,375.18,368.69,377.93,371.94,377.97z"/>
	<path d="M419.95,354.01c9.96-0.02,18.1,8.15,18.04,18.12c-0.06,9.79-8.14,17.83-17.94,17.86c-9.95,0.02-18.1-8.17-18.04-18.13
		C402.07,362.07,410.15,354.04,419.95,354.01z M425.97,372.04c0.02-3.25-2.68-5.99-5.93-6.01c-3.25-0.02-5.98,2.67-6.01,5.93
		c-0.03,3.25,2.68,5.99,5.92,6.01C423.19,377.99,425.94,375.28,425.97,372.04z"/>
	<path d="M485.99,371.98c0.01,9.94-8.21,18.09-18.16,18c-9.78-0.08-17.8-8.18-17.81-17.98c-0.01-9.95,8.2-18.08,18.16-18
		C477.97,354.09,485.98,362.18,485.99,371.98z M467.89,366.03c-3.25,0.06-5.92,2.83-5.86,6.08c0.06,3.25,2.83,5.93,6.07,5.87
		c3.24-0.06,5.93-2.84,5.86-6.08C473.9,368.64,471.14,365.97,467.89,366.03z"/>
	<path d="M533.99,371.9c0.05,9.95-8.13,18.13-18.08,18.09c-9.79-0.04-17.85-8.11-17.89-17.9c-0.04-9.96,8.12-18.12,18.08-18.08
		C525.89,354.05,533.94,362.1,533.99,371.9z M521.97,371.9c-0.06-3.25-2.83-5.93-6.07-5.87c-3.25,0.06-5.92,2.82-5.87,6.07
		c0.06,3.25,2.83,5.93,6.07,5.87C519.34,377.91,522.03,375.13,521.97,371.9z"/>
	<path d="M684.08,419.99c-9.95,0.04-18.12-8.14-18.07-18.1c0.05-9.79,8.11-17.84,17.9-17.88c9.96-0.04,18.12,8.13,18.07,18.09
		C701.94,411.89,693.87,419.95,684.08,419.99z M689.97,402.08c0.05-3.25-2.63-6.01-5.88-6.06c-3.25-0.05-6,2.63-6.05,5.88
		c-0.05,3.24,2.63,6.01,5.88,6.06C687.15,408.02,689.92,405.33,689.97,402.08z"/>
	<path d="M725.99,443.99c0.01,9.94-8.21,18.09-18.17,18c-9.78-0.08-17.8-8.18-17.81-17.98c0-9.95,8.2-18.08,18.17-17.99
		C717.97,426.09,725.98,434.18,725.99,443.99z M713.97,444.08c0.05-3.25-2.63-6.01-5.88-6.06c-3.25-0.05-6,2.63-6.05,5.88
		c-0.05,3.24,2.63,6.01,5.88,6.06C711.15,450.02,713.92,447.33,713.97,444.08z"/>
	<path d="M707.88,648.01c9.96-0.05,18.14,8.09,18.1,18.05c-0.03,9.79-8.08,17.87-17.87,17.92c-9.95,0.06-18.13-8.11-18.1-18.06
		C690.04,656.13,698.09,648.06,707.88,648.01z M713.97,666.08c0.05-3.25-2.63-6.01-5.88-6.05c-3.25-0.05-6,2.63-6.05,5.88
		c-0.05,3.24,2.63,6.01,5.88,6.06C711.15,672.02,713.92,669.33,713.97,666.08z"/>
	<path d="M677.92,725.99c-9.94-0.04-18.03-8.28-17.91-18.25c0.12-9.78,8.25-17.76,18.06-17.72c9.95,0.03,18.04,8.27,17.91,18.25
		C695.87,718.03,687.72,726.02,677.92,725.99z M678.13,713.97c3.24-0.07,5.92-2.87,5.84-6.1c-0.07-3.25-2.86-5.91-6.1-5.84
		c-3.25,0.07-5.91,2.85-5.84,6.1C672.1,711.37,674.89,714.04,678.13,713.97z"/>
	<path d="M677.83,660.26c0,3.97,0,7.66,0,11.55c-23.86,0-47.54,0-71.52,0c0-3.71,0-7.5,0-11.55
		C629.98,660.26,653.76,660.26,677.83,660.26z"/>
	<path d="M539.8,587.91c-3.96,0-7.57,0-11.6,0c0-7.8,0-15.6,0-23.65c-8.2,0-15.99,0-24.06,0c0,7.73,0,15.44,0,23.44
		c-4.06,0-7.85,0-11.88,0c-0.08-0.47-0.25-1.05-0.25-1.63c-0.01-17.5-0.12-35,0.03-52.49c0.1-11.91,8.92-21.63,20.8-23.39
		c11.2-1.66,22.42,5.4,25.91,16.48c0.7,2.23,1.16,4.64,1.18,6.97c0.1,17.5,0.06,34.99,0.05,52.49
		C539.99,586.61,539.89,587.08,539.8,587.91z M527.95,551.82c0-6.48,0.23-12.71-0.07-18.91c-0.29-5.95-5.49-10.65-11.39-10.89
		c-6.08-0.24-11.85,4.2-12.29,10.27c-0.46,6.42-0.1,12.9-0.1,19.53C512.06,551.82,519.76,551.82,527.95,551.82z"/>
	<path d="M552.27,510.07c8.74,0,17.24-0.37,25.69,0.09c12.6,0.67,22.28,11.72,22.02,24.46c-0.25,12.44-10.39,22.84-22.88,23.33
		c-4.22,0.16-8.44,0.03-13.07,0.03c0,10.1,0,19.89,0,29.85c-4.1,0-7.8,0-11.77,0C552.27,562.03,552.27,536.25,552.27,510.07z
		 M564.14,546c3.76,0,7.12,0,10.48,0c0.75,0,1.5,0.02,2.25-0.04c5.96-0.49,10.75-5.35,11.1-11.24c0.35-5.91-3.75-11.65-9.67-12.4
		c-4.61-0.58-9.36-0.12-14.16-0.12C564.14,530.17,564.14,537.86,564.14,546z"/>
</g>
</svg>
