<?xml version="1.0" encoding="utf-8"?>
<!-- Generator: Adobe Illustrator 27.0.0, SVG Export Plug-In . SVG Version: 6.00 Build 0)  -->
<svg version="1.1" id="Layer_1" xmlns="http://www.w3.org/2000/svg" xmlns:xlink="http://www.w3.org/1999/xlink" x="0px" y="0px"
	 viewBox="0 0 1080 1080" style="enable-background:new 0 0 1080 1080;" xml:space="preserve">
<style type="text/css">
	.st0{fill:#FDB715;}
	.st1{fill:none;stroke:#FDB715;stroke-width:4;}
</style>
<g>
	<g>
		<path class="st0" d="M611.9,765.91H352.84l0.15-2.32c-0.42-0.11-0.89-0.25-1.37-0.49c-6.56-3.26-10.2-9.44-9.73-16.51l0.19-2.8
			l104.66,0.1l0.23,2.75c0.22,2.71,1.31,4.02,6.9,4.1c19.23,0.31,38.91,0.32,60.16,0.03c5.96-0.08,7.42-2.39,8.05-4.64l0.62-2.18
			l2.27,0c21.43,0.02,42.87,0.03,64.32,0.04L623,744l-0.25,3.23c-0.34,4.31-1.03,13.09-9.87,16.5c-0.05,0.15-0.11,0.29-0.17,0.41
			L611.9,765.91z M358.26,759.91h249.7c0.38-0.61,0.96-1.19,1.89-1.48c4.21-1.28,5.81-4.01,6.53-8.43l-27.1-0.01
			c-20.75-0.01-41.51-0.02-62.25-0.04c-2.12,4.44-6.46,6.73-12.93,6.82c-21.3,0.29-41.04,0.28-60.33-0.03
			c-2.65-0.04-10.13-0.15-12.27-6.85l-93.48-0.08c0.61,3.4,2.81,6.21,6.28,7.94c0.11,0.04,0.27,0.07,0.43,0.11
			C356.38,758.23,357.55,758.92,358.26,759.91z"/>
	</g>
	<g>
		<path class="st0" d="M599.12,726.84c-0.07,0-0.14,0-0.21,0c-75.57-0.03-152.22-0.03-227.81,0c-3.6,0-6.35-0.45-8.92-1.46
			l-0.45-0.18l-0.37-0.31c-3.63-3.01-5.32-6.98-5.31-12.49c0.05-31.69,0.04-63.9,0.04-95.06c0-17.25,0-34.49,0.01-51.74
			c0-10.09,4.32-14.4,14.45-14.4c48.77,0.02,97.54,0.05,146.32,0.08l3.29,0l-0.3,3.27c-0.21,2.23,0.28,4.53,0.79,6.97l0.84,3.99
			l-37.58,0.02c-36.72,0.02-74.7,0.05-112.04-0.04c-1.38-0.02-1.88,0.12-2.08,0.19c-0.07,0.19-0.19,0.71-0.19,1.99
			c0.13,33.65,0.12,67.84,0.11,100.92l-0.01,27.94c0,0.46,0,0.9,0.01,1.33l0.02,0l46.38,0.02c60.57,0.03,123.2,0.05,184.8,0.16
			c0.28,0,0.5-0.01,0.66-0.03c0.02-0.24,0.04-0.61,0.04-1.16c-0.07-29.8-0.09-60.09-0.11-89.39l-0.02-23.14l1.33-0.89
			c1.49-1,2.98-2.02,4.47-3.03l6.36-4.32l0.04,5.62c0.02,3.69,0.05,7.38,0.08,11.07c0.06,7.33,0.12,14.91,0.13,22.38
			c0.01,11.6,0.01,23.21,0.01,34.81c0,20.49-0.01,41.68,0.06,62.51c0.01,3.57-0.54,8.75-5.38,12.48l-0.31,0.24l-0.36,0.15
			C604.86,726.65,601.77,726.84,599.12,726.84z M485.02,720.82c38.06,0,76.12,0.01,113.91,0.02c2.08,0,4.25-0.1,6.28-0.87
			c1.95-1.65,2.75-3.85,2.74-7.48c-0.07-20.84-0.07-42.03-0.06-62.53c0-11.6,0-23.2-0.01-34.8c-0.01-7.45-0.07-15.01-0.13-22.33
			c-0.01-1.82-0.03-3.64-0.04-5.46c-0.08,0.05-0.15,0.1-0.23,0.15l0.01,19.94c0.02,29.3,0.04,59.59,0.11,89.39
			c0,1.54,0,3.85-1.67,5.52c-1.52,1.51-3.6,1.64-5.04,1.68c-61.59-0.1-124.22-0.13-184.79-0.16l-46.58-0.02
			c-0.18,0-0.35-0.01-0.5-0.03c-1.34,0.18-2.48-0.07-3.41-0.72c-0.7-0.49-1.57-1.44-1.77-3.15c-0.14-1.21-0.13-2.34-0.13-3.44
			l0.01-27.93c0.01-33.07,0.02-67.26-0.11-100.89c-0.01-2.14,0.21-4.55,1.92-6.27c1.71-1.71,4.14-1.9,6.35-1.93
			c37.34,0.09,75.31,0.07,112.03,0.04l30.24-0.02c-0.12-0.74-0.22-1.48-0.28-2.24c-47.78-0.03-95.55-0.06-143.32-0.08
			c-6.79,0-8.45,1.65-8.45,8.4c-0.01,17.25-0.01,34.5-0.01,51.74c0,31.16,0,63.38-0.04,95.07c-0.01,3.47,0.83,5.76,2.77,7.54
			c1.72,0.6,3.68,0.87,6.27,0.87C408.9,720.83,446.96,720.82,485.02,720.82z"/>
	</g>
	<g>
		<path class="st0" d="M563.33,469.64c-6.64,0-11.33-3.89-13.47-11.33c-5.38-18.79-10.82-38.22-16.16-57.75
			c-2.28-8.35,1.83-15.56,10.23-17.95c33.86-9.58,67.52-19.03,100.04-28.07c8.06-2.25,15.13,1.48,17.58,9.27
			c1.64,5.22,3.03,10.58,4.38,15.76c0.6,2.32,1.21,4.65,1.83,6.96l1.29,4.76l-4.82-1.05c-1.95-0.42-3.25-1.53-4.3-2.42
			c-0.42-0.35-0.81-0.69-1.15-0.89c-1.91-1.17-3.6-2.55-5.23-3.89c-2.8-2.3-5.46-4.47-8.78-5.13l-1.11-0.22l-0.24,0.3
			c-0.48,0.59-0.97,1.17-1.46,1.75c-1,1.19-1.94,2.31-2.81,3.49c-2.24,3.02-4.46,6.06-6.68,9.09c-6.74,9.24-13.72,18.8-21.35,27.68
			l-0.78,0.9l-1.19,0.12c-0.12,0.01-0.24,0.02-0.37,0.03l-0.63,2.19c-1.06,3.57-3.32,6.22-5.32,8.55c-0.92,1.08-1.79,2.09-2.53,3.16
			c-3.31,4.82-3.12,6.17,1.37,9.63c0.66,0.5,1.22,1.06,1.71,1.55c0.21,0.21,0.41,0.41,0.63,0.61l2.04,1.89l-1.73,2.17
			c-1.95,2.44-3.91,4.9-5.88,7.36l-2.67,3.33l-7.67,2.1c-6.32,1.73-12.85,3.53-19.3,5.24C566.86,469.39,565.03,469.64,563.33,469.64
			z M597.87,423.69c-0.24,0-0.44,0.02-0.6,0.07c-1.04,0.31-2.61,2.23-4.98,5.14c-3.5,4.29-7,8.59-10.5,12.89
			c-5.02,6.17-10.04,12.33-15.07,18.48c-0.14,0.17-0.29,0.38-0.44,0.6c-0.62,0.88-1.47,2.11-2.84,2.76c1.15,0,2.42-0.2,3.83-0.57
			c6.42-1.71,12.94-3.5,19.25-5.23l5.8-1.59l1.45-1.81c1.38-1.73,2.77-3.45,4.14-5.17c-6.89-5.36-7.6-10.33-2.53-17.69
			c0.91-1.32,1.93-2.51,2.91-3.66c1.03-1.21,2.03-2.38,2.82-3.61C599.7,423.93,598.61,423.69,597.87,423.69z M539.13,397.09
			c0.07,0.61,0.19,1.25,0.37,1.9c5.33,19.51,10.77,38.91,16.14,57.68c0.13,0.44,0.26,0.86,0.41,1.26c0.31-1.7,1.57-2.83,2.37-3.54
			c0.17-0.15,0.41-0.37,0.49-0.46c8.23-10.28,17.81-22.22,27.45-33.78c0.58-0.7,0.92-1.16,1.13-1.47c-0.29-0.17-0.74-0.4-1.42-0.68
			c-14.52-5.95-28.99-12.44-41.76-18.17c-0.07-0.02-0.43-0.09-0.67-0.14C542.34,399.45,540.2,399.04,539.13,397.09z M593.57,417.05
			c0.01,0.05,0.03,0.09,0.04,0.14c0.14,0.57,0.17,1.12,0.12,1.66c0.64-0.41,1.28-0.7,1.95-0.88
			C594.97,417.66,594.27,417.35,593.57,417.05z M543.71,389.22c1.63,0,3.02,0.88,4,1.5c0.27,0.17,0.63,0.4,0.78,0.47
			c17.67,7.49,35.12,14.98,51.89,22.28c2.62,1.14,4.8,1.67,6.88,1.67c0.04,0,0.09,0,0.13,0c7.16-8.44,13.8-17.54,20.23-26.35
			c2.23-3.05,4.45-6.1,6.7-9.13c0.98-1.32,2.02-2.56,3.03-3.77c0.38-0.45,0.76-0.91,1.14-1.36c1.38-3.15,3.38-5.71,5.33-8.2
			c1-1.28,1.94-2.48,2.78-3.74c0.96-1.43,2.08-2.29,3.36-2.57c-1.32-0.23-2.79-0.13-4.38,0.31c-32.51,9.04-66.16,18.49-100.01,28.07
			c-0.79,0.23-1.52,0.5-2.17,0.83C543.51,389.22,543.61,389.22,543.71,389.22z M650.06,373.42c2.82,1.33,5.15,3.25,7.29,5
			c0.89,0.73,1.75,1.44,2.62,2.08c-1.28-4.92-2.61-10-4.14-14.88c-0.12-0.39-0.26-0.76-0.42-1.11c-0.07,0.82-0.42,1.78-1.23,2.85
			c-0.06,0.08-0.13,0.17-0.18,0.25C652.69,369.55,651.37,371.48,650.06,373.42z"/>
	</g>
	<g>
		<path class="st0" d="M766.97,551.88c-3.21,0-6.7-1.3-10.6-3.88c-3.58-2.38-7.16-4.77-10.73-7.17l-5.4-3.62l0.9-2.25
			c1.82-4.57,0.78-6.46-1.36-7.88c-2.17-1.45-4.32-1.7-7.74,1.76l-1.75,1.77l-22.91-15.4l1.45-2.44c1.43-2.4,3.26-5.34,5.52-8.22
			l-0.13-0.04l0.81-0.81c0.53-0.64,1.08-1.28,1.65-1.91l0.91-1l0.33,0.01l5.1-5.1l-0.04,3.9c0.28-0.1,0.57-0.2,0.85-0.29
			c2.57-0.79,5.14-1.57,7.71-2.36c8.73-2.66,17.75-5.41,26.57-8.26c1.14-0.37,3.83-1.24,5.92,0.27c0.36,0.26,0.67,0.56,0.92,0.88
			c0.7-2.45,2.44-4.09,5.43-5.23c7.54-2.89,7.54-3.04,7.23-10.68c-0.12-2.95,0.58-5.09,2.26-6.67c-0.37-0.11-0.73-0.27-1.08-0.49
			c-2.18-1.33-2.58-3.89-2.78-6.18c-0.89-10.3-1.92-20.77-2.92-30.89c-0.4-4.1-0.81-8.2-1.2-12.3l-0.22-2.32l2.19-0.79
			c5.86-2.11,10.47-3.4,14.95-4.16l1.18-0.2l9.25,6.23c10.06,6.78,20.13,13.55,30.2,20.32c10.52,7.07,11.89,13.93,4.91,24.45
			l-54.65,82.26C775.87,549.01,771.73,551.88,766.97,551.88z M747.5,534.85l1.49,1c3.56,2.39,7.12,4.78,10.7,7.15
			c0.88,0.58,1.7,1.07,2.47,1.48c-0.64-1.24-0.54-2.58-0.48-3.46c0.01-0.2,0.04-0.39,0.03-0.56c-0.19-4.74-0.33-9.54-0.47-14.19
			c-0.08-2.59-0.16-5.18-0.24-7.77c-0.09-2.71-0.2-5.42-0.3-8.13c-0.21-5.2-0.42-10.57-0.49-15.87c0-0.06,0-0.11,0-0.16
			c-0.07,0.02-0.14,0.04-0.21,0.07c-8.87,2.86-17.91,5.62-26.66,8.29c-2.33,0.71-4.66,1.42-6.99,2.13c0.79,0.85,1.29,1.98,1.45,3.32
			l0.05,0.43l-0.07,0.42c-0.55,3.31-3,5.21-6.4,4.95c-2.05-0.17-3.66-1.14-4.53-2.61c-0.48,0.71-0.94,1.41-1.37,2.09l14.16,9.52
			c5.49-4.37,10.29-2.97,13.47-0.85C746.24,524.17,749.34,528.04,747.5,534.85z M832.52,451.33c-0.95,1.24-2.39,1.74-3.33,2.06
			c-0.18,0.06-0.35,0.12-0.51,0.18l-5.05,2.04c-12.45,5.03-25.32,10.23-38.06,15.18c-1.8,0.7-2,0.99-1.92,2.9
			c0.41,10.28-1.25,12.75-11.08,16.52c-1.81,0.69-2.01,0.99-1.94,2.89c0.41,10.94,0.67,22.05,0.91,32.79
			c0.08,3.72,0.17,7.43,0.26,11.15l0.03,0.93c0.03,0.71,0.06,1.42,0.06,2.14c0,0.18,0,0.35,0.01,0.51c0.03,1.33-0.15,2.45-0.53,3.36
			c1.1-0.98,2.2-2.34,3.37-4.1l54.65-82.26C831.05,455.11,832.1,453.09,832.52,451.33z M721.66,509.08L721.66,509.08L721.66,509.08z
			 M721.88,508.84c0.01,0.02,0.03,0.04,0.05,0.05c0.02-0.02,0.04-0.04,0.06-0.07L721.88,508.84z M778.13,419.16
			c0.32,3.32,0.65,6.63,0.97,9.95c1,10.14,2.03,20.63,2.92,30.96c0.05,0.56,0.1,0.97,0.15,1.26c0.26-0.08,0.62-0.2,1.07-0.38
			c11.79-4.81,23.88-9.4,35.57-13.84l6.36-2.42c0.11-0.05,0.25-0.14,0.39-0.23c0.68-0.4,1.82-1.08,3.22-1.06
			c-0.77-0.62-1.65-1.26-2.66-1.94c-10.07-6.77-20.14-13.54-30.2-20.32l-7.25-4.88C785.49,416.87,782.13,417.79,778.13,419.16z"/>
	</g>
	<g>
		<path class="st0" d="M624.66,749.02l-285.31-0.21l3.02-4.63c2.99-4.6,6.55-8.72,9.99-12.72c2.4-2.79,4.89-5.67,7.1-8.63
			c0.22-0.3,0.46-0.65,0.7-0.99c0.23-0.33,0.46-0.66,0.7-0.99l1.36-1.9l2.17,0.85c1.83,0.72,3.91,1.04,6.72,1.04
			c75.58-0.03,152.23-0.03,227.82,0c2.21,0,4.54-0.12,6.64-1.01l2.76-1.17l1.17,2.76c1.97,4.62,4.54,8.87,7.27,13.36
			c1.93,3.17,3.92,6.46,5.66,9.87L624.66,749.02z M350.71,742.83l174.25,0.14l89.73,0.05c-1-1.73-2.04-3.44-3.06-5.12
			c-2.26-3.72-4.58-7.55-6.53-11.63c-2.12,0.49-4.2,0.58-6.18,0.58c-75.58-0.03-152.23-0.03-227.82,0c-2.56,0-4.69-0.23-6.63-0.72
			c-0.06,0.08-0.12,0.17-0.18,0.26c-2.36,3.17-4.92,6.13-7.39,9C354.74,737.9,352.65,740.32,350.71,742.83z"/>
	</g>
	<g>
		<path class="st0" d="M750.85,426.02c-6.26,0-8.77-2.88-11.04-10.91l-2.03-7.18c-2.59-9.14-5.26-18.6-7.82-27.92
			c-2.17-7.94,0.49-12.68,8.34-14.92c22.1-6.31,44.09-12.52,65.34-18.47c7.87-2.2,12.78,0.53,15.01,8.36
			c3.32,11.65,6.68,23.6,10.26,36.54c2.34,8.48-0.23,13.14-8.6,15.6c-5.53,1.62-11.06,3.25-16.59,4.87l-13.89,4.05
			c-4.11,0.7-8.41,1.9-13.91,3.88l-0.69,0.25l-0.72-0.09c-0.13-0.02-0.35-0.05-0.82,0.31l-0.57,0.43l-0.7,0.13
			c-5.18,0.97-10.36,2.43-15.84,4.47l-0.29,0.11l-0.3,0.05C754.04,425.86,752.34,426.02,750.85,426.02z M774.45,394.89
			c-0.59,0-1.15,0.46-2.26,1.87c-4.97,6.35-10.33,12.95-17.35,21.41c-0.09,0.11-0.28,0.42-0.43,0.66c-0.19,0.31-0.4,0.65-0.65,1.01
			c0.33-0.05,0.68-0.1,1.04-0.15c5.47-2.01,10.68-3.49,15.89-4.51c1.19-0.75,2.48-1.11,3.79-1.11c5.5-1.96,9.91-3.18,14.18-3.91
			l13.38-3.92c5.53-1.62,11.06-3.24,16.59-4.87c0.4-0.12,0.78-0.23,1.13-0.35c-0.7-0.19-1.28-0.46-1.69-0.65
			c-0.25-0.11-0.49-0.23-0.73-0.31c-8.81-2.93-17.44-5.83-26.04-8.95c-2.34-0.85-2.51-0.56-3.16,0.48c-2.8,4.52-7.59,5.93-12.5,3.69
			C775.16,395.06,774.8,394.89,774.45,394.89z M735.77,378.49c2.54,9.28,5.21,18.7,7.79,27.81l2.03,7.18
			c0.14,0.48,0.26,0.93,0.39,1.35c0.44-0.58,0.94-1.06,1.35-1.45c0.19-0.18,0.46-0.44,0.54-0.54c6.08-7.7,11.59-14.63,17.33-21.44
			c0.1-0.11,0.18-0.22,0.25-0.31c-0.14-0.07-0.31-0.14-0.51-0.22c-7.95-3.26-16.29-6.86-26.22-11.33c-0.13-0.06-0.51-0.17-0.76-0.24
			C737.32,379.12,736.53,378.89,735.77,378.49z M794.3,382.96c0.69,0.27,1.59,0.59,2.42,0.89c2.62,0.93,5.25,1.86,7.88,2.79
			c5.45,1.92,11.08,3.91,16.6,5.93c0.13,0.05,0.28,0.07,0.43,0.1c0.35,0.08,0.9,0.19,1.49,0.43c-3.57-12.92-6.92-24.85-10.24-36.48
			c-0.02-0.07-0.04-0.15-0.06-0.22l-0.31,0.46c-1.01,1.48-1.92,2.8-2.84,4.13c-1.8,2.57-3.61,5.14-5.41,7.71
			c-2.88,4.11-5.77,8.21-8.64,12.33C795.17,381.68,794.68,382.39,794.3,382.96z M740.44,370.73c0.31,0.15,0.59,0.31,0.86,0.45
			c0.27,0.15,0.52,0.29,0.75,0.39c8.26,3.5,16.61,7.11,24.69,10.6l6.99,3.02c2.68,1.16,5.17,2.17,6.22,1.86
			c1.09-0.31,2.78-2.56,4.56-5.02l2.91-4.02c5.57-7.71,11.34-15.68,17.07-23.49c0.1-0.13,0.19-0.3,0.29-0.47
			c0.29-0.5,0.71-1.21,1.35-1.87c-0.27,0.06-0.55,0.14-0.85,0.22C784.18,358.3,762.37,364.47,740.44,370.73z"/>
	</g>
	<g>
		<path class="st0" d="M647.61,616.04c-4.45,0-8.08-2.72-9.48-7.4c-3.87-12.94-7.66-26.31-11.57-40.88
			c-1.57-5.83,1.68-10.88,8.28-12.86c6.85-2.05,13.82-4.08,20.56-6.04c3.04-0.88,6.09-1.77,9.13-2.66l0.47-0.1
			c3.23-0.4,6.51-1.33,10.02-2.85l0.58-0.25l0.63,0c0.91,0,1.12-0.11,1.25-0.22l0.7-0.61l0.92-0.11c4.01-0.46,7.84-1.82,11.9-3.25
			l0.42-0.14c1.11-0.28,2.21-0.58,3.32-0.87c2.41-0.63,4.9-1.29,7.38-1.87c6.39-1.49,11.25,1.14,13.01,7.02
			c3.84,12.84,7.58,26.05,11.44,40.39c1.62,6.01-1.37,11.23-7.45,12.97c-22.78,6.52-45.73,12.99-68.23,19.24
			C649.77,615.89,648.67,616.04,647.61,616.04z M671.43,584.56c-0.45,0-0.89,0.36-1.79,1.49c-5.52,6.94-11.23,13.9-16.75,20.64
			l-1.54,1.88c-0.12,0.14-0.22,0.32-0.34,0.49c-0.07,0.1-0.13,0.2-0.21,0.31c21.85-6.07,44.12-12.35,66.22-18.68
			c-0.2-0.06-0.41-0.14-0.62-0.22c-0.15-0.06-0.29-0.11-0.42-0.16c-2.42-0.82-4.84-1.63-7.25-2.45c-6.63-2.23-13.48-4.54-20.2-6.92
			c-2.5-0.88-2.6-0.72-3.27,0.33c-3,4.69-7.85,6.03-12.95,3.58C671.96,584.68,671.7,584.56,671.43,584.56z M632.89,568.16
			c3.46,12.83,6.83,24.73,10.25,36.26c0.32-0.37,0.65-0.68,0.92-0.94c0.14-0.13,0.27-0.25,0.37-0.37l1.88-2.37
			c5.1-6.42,10.37-13.06,15.78-19.42c0.16-0.19,0.29-0.35,0.4-0.49c-0.19-0.09-0.43-0.2-0.73-0.32c-7.75-3.2-15.53-6.65-23.05-9.98
			l-3.58-1.58c-0.11-0.05-0.42-0.14-0.62-0.19C634.06,568.61,633.48,568.44,632.89,568.16z M691.33,572.66
			c0.01,0,0.02,0.01,0.03,0.01c7.97,2.73,16.41,5.73,27.33,9.72c0.08,0.02,0.22,0.05,0.36,0.08c0.31,0.07,0.71,0.15,1.14,0.29
			c-3.5-12.95-6.92-24.99-10.41-36.71c-3.02,5.59-6.93,10.57-10.73,15.4l-0.48,0.61c-0.71,1.04-1.41,2.09-2.1,3.14
			C694.84,567.67,693.15,570.22,691.33,572.66z M637.3,560.42c0.21,0.11,0.41,0.21,0.59,0.3c0.19,0.1,0.36,0.2,0.53,0.26
			c7.22,3.05,14.43,6.14,21.65,9.23c3.96,1.69,7.91,3.39,11.87,5.08c2.02,0.86,4.23,1.76,5.07,1.52c0.88-0.25,2.42-2.24,3.79-4.09
			c2.22-2.99,4.43-5.99,6.65-8.98c1.63-2.21,3.26-4.41,4.89-6.62l2.78-3.98c2.62-3.75,5.24-7.5,7.87-11.24
			c-2.24,0.53-4.52,1.13-6.72,1.71c-1.07,0.28-2.15,0.57-3.22,0.84l-0.04,0.02c-3.95,1.4-8.03,2.84-12.41,3.45
			c-1.29,0.81-2.65,1.02-3.75,1.07c-3.75,1.57-7.31,2.56-10.86,3.03c-2.97,0.87-5.94,1.73-8.91,2.59
			C650.59,556.51,643.89,558.45,637.3,560.42z"/>
	</g>
	<g>
		<path class="st0" d="M677.41,548.31l-0.79-2.27c-1.29-3.7-2.57-7.4-3.86-11.1c-3.54-10.2-7.21-20.75-10.91-31.09
			c-0.67-1.88-1.59-4.46-0.17-6.65c-1.99,0.09-3.98,0.18-5.96,0.26c-8.08,0.32-11.66-2.29-14.09-10.37
			c-0.95-3.14-1.91-6.27-2.87-9.41c-0.55-1.77-1.09-3.55-1.63-5.32l-0.47-1.55l1.97-2.35c0.75-0.89,1.49-1.78,2.22-2.67
			c2.44-2.99,4.76-6.2,7.01-9.3c3.61-4.97,7.35-10.12,11.75-14.73l1.78-1.86l2.11,1.48c16.41,11.54,32.82,23.08,49.25,34.6
			c1.13,0.79,2.34,1.51,3.61,2.27c0.57,0.34,1.14,0.68,1.71,1.03l0.25,0.17c2.93,2.23,11.83,9.02,6.63,20.39
			c-0.16,0.34-0.34,0.65-0.53,0.94l1.79,0.33l-6.54,6.46c-2.31,2.83-4.19,5.84-5.64,8.27l-0.13,0.2
			c-6.43,9.1-12.84,18.19-19.25,27.29l-0.55,0.78l-1.07,0.38c-4.19,1.48-8.52,3.01-13.22,3.55L677.41,548.31z M667.12,500.7
			c0.09,0.31,0.22,0.68,0.38,1.13c3.71,10.36,7.38,20.93,10.93,31.14c1.01,2.91,2.02,5.82,3.03,8.73c2.94-0.58,5.83-1.56,8.82-2.62
			c6.21-8.81,12.41-17.61,18.63-26.42c1.82-3.05,4.28-6.94,7.44-10.48c0.21-0.43,0.46-0.78,0.75-1.08c0.38-1.37,1.22-2.36,1.8-3.04
			c0.21-0.25,0.51-0.59,0.58-0.74c0.16-0.34,0.3-0.68,0.42-1.01c-0.77,0.57-1.77,0.89-2.99,0.97c-2.12,0.14-4.24,0.25-6.35,0.37
			l-2.05,0.11c-3.74,0.27-7.54,0.57-11.33,0.86c-9.59,0.74-19.51,1.5-29.3,2.01C667.57,500.65,667.32,500.67,667.12,500.7z
			 M643.33,472.16c0.38,1.25,0.77,2.5,1.15,3.76c0.97,3.14,1.94,6.29,2.88,9.44c1.65,5.47,2.78,6.32,8.1,6.11
			c9.93-0.41,20.03-0.94,29.8-1.46c5.48-0.29,10.97-0.58,16.46-0.85c1.79-0.09,3.59-0.08,5.32-0.08c0.71,0,1.42,0,2.13,0l1.94-0.2
			c1.76-0.18,3.52-0.37,5.28-0.53c1.08-0.09,2.09,0.14,2.93,0.62c-0.94-1.53-2.45-3.04-4.54-4.66c-0.5-0.31-1-0.61-1.51-0.91
			c-1.31-0.78-2.66-1.59-3.98-2.51c-15.72-11.02-31.41-22.06-47.11-33.09c-3.42,3.85-6.5,8.09-9.49,12.21
			c-2.3,3.17-4.68,6.44-7.21,9.56C644.77,470.43,644.05,471.3,643.33,472.16z"/>
	</g>
	<g>
		<path class="st0" d="M637.04,475.2l-0.34,0c-3.89-0.02-6.77-1.83-8.59-3.2c-7.08-5.32-14.33-10.66-21.34-15.82l-6.8-5.03
			c-0.26-0.24-0.51-0.49-0.76-0.74c-0.41-0.4-0.8-0.79-1.17-1.07c-7-5.39-7.74-10.38-2.64-17.78c0.91-1.33,1.93-2.52,2.92-3.67
			c1.76-2.06,3.42-4,4.12-6.34l0.37-1.25l1.17-0.58c1.46-0.72,1.79-1.53,1.92-2.23l0.15-0.78l0.52-0.61
			c7.48-8.71,14.39-18.18,21.07-27.33c2.22-3.04,4.44-6.09,6.69-9.12c1.02-1.37,2.1-2.66,3.15-3.91c0.43-0.52,0.86-1.03,1.29-1.55
			l0.62-0.75l5.87-1.53l0.68,0.14c4.78,0.96,8.29,3.83,11.38,6.37c1.55,1.27,3.01,2.46,4.57,3.41c0.75,0.46,1.37,0.99,1.92,1.45
			c0.65,0.55,1.21,1.03,1.69,1.13l0.92,0.2l0.64,0.69c2.26,2.44,4.98,4.39,7.85,6.46c2.52,1.82,5.13,3.69,7.49,5.97l2.94,2.84
			l-3.59,1.95c-1.21,0.66-2.42,1.33-3.64,1.99c-2.89,1.59-5.89,3.24-8.89,4.79c-2.05,1.06-2.5,1.78-2.63,2.73l-0.11,0.85l0.14,0.26
			c0.32,0.59,0.62,1.2,0.91,1.8c0.56,1.14,1.08,2.21,1.72,3.09c7.55,10.39,3.46,17.85-1.29,22.28l-0.08,0.08
			c-1.76,1.52-2.86,2.7-3.28,4.24l-0.2,0.73l-0.53,0.55c-4.13,4.32-7.74,9.29-11.24,14.1c-2.3,3.17-4.68,6.44-7.22,9.56
			c-0.75,0.92-1.51,1.83-2.28,2.75l-1.57,1.88L637.04,475.2z M603.95,446.64l6.39,4.71c7.02,5.17,14.27,10.51,21.36,15.84
			c-0.01-0.06-0.02-0.13-0.03-0.2c-0.53-3.55-0.12-6.93,0.28-10.2c0.09-0.75,0.18-1.5,0.26-2.25c-0.01-1.56-0.03-3.13-0.04-4.69
			c-0.05-4.29-0.09-8.72-0.01-13.09c0-0.11,0-0.21,0-0.3c-0.1,0.02-0.21,0.04-0.33,0.07c-2.08,0.48-4.21,1.07-6.27,1.65
			c-4.68,1.31-9.52,2.65-14.65,2.97c-2,1.27-4.11,1.65-6,1.99c-0.93,0.17-1.8,0.32-2.57,0.57c-0.46,0.15-0.92,0.24-1.36,0.28
			c0.24,0.19,0.49,0.39,0.76,0.6c0.66,0.51,1.21,1.06,1.71,1.55C603.61,446.31,603.78,446.48,603.95,446.64z M640.49,460.52
			l0.03,1.26c0.04,1.42,0.08,2.84,0.09,4.25c0.06-0.08,0.13-0.16,0.19-0.24c2.44-2.99,4.76-6.2,7.02-9.3
			c3.48-4.79,7.07-9.73,11.27-14.21c1.01-2.87,3.02-4.8,4.86-6.39c4.54-4.26,4.69-8.54,0.49-14.33c-0.87-1.2-1.5-2.45-2.1-3.67
			c-3.36,0.69-6.94,1.89-10.88,3.64c-0.29,0.13-0.58,0.25-0.89,0.37c0.37,0.83,0.53,1.94,0.28,3.43c-0.02,0.11-0.04,0.22-0.05,0.32
			c-0.3,2.48-1.72,6.68-7.84,7.47c-0.72,0.45-1,1.14-1.31,3.41c-0.54,3.97-0.57,7.94-0.61,12.14
			C640.99,452.53,640.95,456.53,640.49,460.52z M607.79,424.45c-1.16,2.97-3.13,5.27-4.9,7.34c-0.93,1.08-1.8,2.11-2.54,3.18
			c-0.07,0.1-0.14,0.2-0.21,0.3c2.58-0.55,5.17-1.1,7.76-1.65l1.3-0.27c10.11-3.15,20.3-5.49,30.72-7.78
			c1.34-0.8,1.89-1.37,2.1-2.14c0.31-1.14,0.76-1.97,1.27-2.56c-1.36-1.78-1.32-4.35-1.29-6c0.12-6.82,0.02-13.42-0.14-21.35
			c-0.03-1.32-0.15-2.65-0.27-4.06c-0.14-1.59-0.29-3.23-0.3-4.91c0-0.24-0.05-0.58-0.09-0.94c-0.09-0.7-0.23-1.73-0.07-2.84
			c-0.68,0.83-1.34,1.64-1.96,2.48c-2.24,3.01-4.45,6.04-6.66,9.07c-6.61,9.06-13.44,18.42-20.89,27.15
			C611.14,421.07,610.08,422.97,607.79,424.45z M649.65,380.06c0.26,1.09,0.19,2.11,0.14,2.78c-0.02,0.25-0.04,0.5-0.03,0.74
			l0.2,4.63c0.34,7.81,0.69,15.89,0.75,23.88c0,0.08,0,0.16,0,0.24c0.14-0.05,0.31-0.1,0.49-0.16c2.71-0.93,5.46-1.7,8.13-2.44
			c0.62-0.17,1.24-0.34,1.85-0.52c1.06-2.72,3.32-4.22,5.3-5.24c2.89-1.5,5.79-3.1,8.61-4.65c-1.17-0.91-2.4-1.8-3.67-2.71
			c-2.78-2-5.64-4.06-8.18-6.65c-1.41-0.52-2.44-1.4-3.3-2.13c-0.42-0.35-0.81-0.69-1.16-0.9c-1.91-1.17-3.61-2.55-5.25-3.89
			C652.24,381.97,650.97,380.93,649.65,380.06z"/>
	</g>
	<g>
		<path class="st0" d="M534.93,607.21c-1.15,0-2.33-0.12-3.54-0.39l-0.64-0.14l-0.52-0.4c-3.47-2.65-4.88-6.37-5.89-9.99
			c-1.85-6.53-3.72-13.06-5.6-19.59c-1.28-4.45-2.55-8.89-3.82-13.34l-0.13-0.57c-0.58-2.77-1.18-5.63-0.89-8.77l0.05-0.57
			l0.26-0.51c1.76-3.49,4.6-5.72,8.67-6.83c8.66-2.36,17.45-4.83,25.95-7.22c3.28-0.92,6.55-1.84,9.83-2.76l3.44-0.96l0.36,3.55
			c0.14,1.37,0.46,4.59,1.2,5.27c0.74,0.68,3.99,0.76,5.38,0.79c2.89,0.07,5.79,0.14,8.69,0.22l6.79,0.18l3.34-0.05
			c5.35-0.08,10.88-0.17,16.4,0.57l2.17,0.29l0.38,2.16c0.39,2.18,0.75,3.98,1.66,5.5l0.33,0.56l0.07,0.65
			c0.62,5.73,2.54,11.2,4.63,16.77l0.11,0.34c0.63,2.61,1.31,6.56-0.07,10.68l-0.32,0.96l-8.18,5.57l-1.36-0.39
			c-0.46-0.13-1.1,0.06-2.11,0.39c-0.35,0.12-0.71,0.23-1.06,0.33l-12.06,3.4c-15.17,4.27-30.87,8.69-46.29,13.08
			C539.89,606.66,537.48,607.21,534.93,607.21z M558.88,575.94c-0.42,0-0.83,0.38-1.76,1.54c-5.05,6.32-10.24,12.68-15.27,18.83
			l-3.29,4.03c-0.11,0.13-0.2,0.28-0.3,0.42c-0.01,0.02-0.02,0.03-0.03,0.05c0.73-0.16,1.49-0.36,2.29-0.58
			c15.43-4.4,31.13-8.82,46.31-13.09l12.05-3.39c0.27-0.08,0.55-0.17,0.83-0.26c1.09-0.36,2.49-0.82,4.11-0.72l0.82-0.56
			l-17.67-6.36c-1.06-0.33-2.12-0.66-3.19-0.98c-2.71-0.82-5.51-1.67-8.25-2.68c-1.86-0.68-1.98-0.5-2.51,0.28
			c-3.27,4.85-8.25,6.26-13.32,3.75C559.36,576.06,559.12,575.94,558.88,575.94z M520.73,561.82c1.26,4.41,2.52,8.82,3.79,13.22
			c1.88,6.54,3.75,13.08,5.61,19.63c0.12,0.45,0.25,0.88,0.38,1.29c0.34-0.39,0.69-0.71,0.96-0.95c0.12-0.11,0.25-0.21,0.34-0.32
			c5.64-7.09,11.72-14.69,17.91-22.12c0.13-0.15,0.23-0.29,0.33-0.41c-0.09-0.04-0.19-0.08-0.29-0.12
			c-3.41-1.33-6.73-2.92-9.94-4.46c-1.32-0.63-2.63-1.26-3.95-1.88c-3.79-0.91-7.21-2.51-10.52-4.05c-1.26-0.59-2.56-1.2-3.84-1.74
			l-0.17-0.07c-0.42-0.18-0.79-0.37-1.12-0.57c0.14,0.74,0.29,1.5,0.45,2.26L520.73,561.82z M608.35,577.41l-1.12,3.03l0.88-0.6
			C608.29,579.08,608.37,578.28,608.35,577.41z M590.43,569c5.64,0.95,11.48,2.42,16.47,6.23l1.39,1.06
			c-0.08-0.84-0.24-1.75-0.47-2.73c-2.13-5.69-4.09-11.32-4.84-17.44c-0.81-1.53-1.29-3.1-1.64-4.72
			c-4.37-0.42-8.77-0.35-13.38-0.28l-0.13,0c-1.01,1.84-2.22,3.64-4.02,5.1c-1.04,2.68-2.66,5.14-5.13,7.78
			c0.12,0.05,0.24,0.1,0.35,0.14c1.02,0.41,2.11,0.74,3.27,1.1C584.93,566.06,587.87,566.96,590.43,569z M541.8,559.48
			c2.12,0.87,4.25,1.74,6.38,2.61c3.69,1.5,7.38,3.01,11.07,4.54c5.48,2.27,5.48,2.27,9.02-2.35c0.78-1.02,1.62-1.94,2.42-2.83
			c0.21-0.23,0.41-0.45,0.61-0.68c1.28-3.05,3.32-5.87,6.21-8.61c0.22-0.38,0.44-0.75,0.66-1.13l-0.59-0.01
			c-2.89-0.08-5.78-0.16-8.67-0.22c-7.85-0.18-10.68-1.78-11.91-7.95c-2.18,0.61-4.35,1.22-6.53,1.83
			c-8.39,2.36-17.07,4.8-25.63,7.14c0.1,0.05,0.2,0.09,0.29,0.13c4.21,1.89,8.32,3.76,12.44,5.62L541.8,559.48z"/>
	</g>
	<g>
		<path class="st0" d="M664.52,552.21l-0.97-0.74c-11.83-8.96-23.89-17.34-38.35-27.17l-1.3-0.89l-0.01-1.58
			c-0.01-1.13-0.02-2.25-0.03-3.38c-0.02-1.87-0.04-3.73-0.04-5.6c0.01-4.24-0.53-4.79-4.76-4.94c-1.81-0.07-3.69-0.05-5.51-0.04
			c-4.01,0.03-8.14,0.05-12.32-0.71l-0.68-0.12l-5.03-3.69c-3.69-2.72-7.39-5.43-11.11-8.11c-8.08-5.82-9.45-13.29-3.97-21.6
			c2.54-3.86,5.19-7.74,7.75-11.49c1.12-1.65,2.25-3.29,3.37-4.94l0.15-0.2l9.79-12.18l2.32,1.71c2.51,1.86,5.03,3.71,7.55,5.56
			c6.69,4.93,13.6,10.02,20.36,15.1c1.85,1.39,3.34,1.99,5,1.99h2.6l0.37,2.58c0.05,0.36,0.09,0.72,0.13,1.08
			c0.07,0.59,0.13,1.16,0.24,1.64c0.81,3.6,1.3,5.76-0.17,7.6c-0.15,0.19-0.3,0.35-0.46,0.5c2.28,0.88,3.79,2.7,4.82,5.66
			c2.54,7.38,2.84,7.59,10.54,7.5c0.06,0,0.12,0,0.17,0c5.43,0,7.27,3.08,8.34,6.1c3.68,10.33,7.52,20.81,11.24,30.94
			c1.49,4.06,2.98,8.12,4.46,12.19l0.97,2.66l-2.6,1.12c-4.04,1.74-7.85,2.82-11.66,3.29L664.52,552.21z M629.88,520.22
			c13.56,9.23,25.04,17.23,36.29,25.71c2.03-0.33,4.08-0.87,6.21-1.64c-1.15-3.15-2.3-6.29-3.46-9.44
			c-3.72-10.14-7.57-20.63-11.26-30.99c-0.69-1.92-0.98-2.14-2.8-2.12c-10.29,0.1-12.89-1.72-16.28-11.54
			c-0.71-2.04-1-2.29-3.16-2.25c-11.94,0.12-24.07,0.08-35.79,0.03c-3.4-0.01-6.81-0.03-10.21-0.03c-0.23,0.01-0.49,0.02-0.74,0.04
			c-1.06,0.08-2.55,0.18-3.92-0.53c0.77,0.98,1.82,1.95,3.16,2.91c3.74,2.69,7.44,5.42,11.15,8.15l3.9,2.86
			c3.41,0.54,6.88,0.52,10.54,0.5c1.88-0.01,3.82-0.03,5.76,0.04c7.4,0.27,10.55,3.54,10.54,10.94c0,1.84,0.02,3.69,0.04,5.53
			C629.87,519.01,629.87,519.62,629.88,520.22z M596.46,460.67c-1.1,1.62-2.2,3.24-3.31,4.86c-2.54,3.73-5.17,7.59-7.69,11.41
			c-0.31,0.47-0.59,0.93-0.84,1.37c1.45-0.77,3.04-0.55,4.06-0.41c0.21,0.03,0.53,0.07,0.64,0.07c10.9-0.07,21.98-0.07,32.68-0.07
			l10.8,0c0.63,0,1.3,0,1.87-0.01c-0.12-0.6-0.29-1.34-0.45-2.06c-0.07-0.32-0.13-0.63-0.18-0.94c-2.57-0.57-4.55-1.87-5.93-2.9
			c-6.73-5.06-13.64-10.15-20.31-15.06c-1.75-1.29-3.49-2.57-5.24-3.86L596.46,460.67z"/>
	</g>
	<g>
		<path class="st0" d="M716.66,503.45l2.79-6.1c2.31-5.04,0.96-8.73-4.81-13.13l-2.23-1.7l1.54-2.34
			c9.43-14.29,18.86-28.57,28.28-42.86l11.34-17.19l0.92-0.34c5.82-2.15,11.32-3.7,16.83-4.73l3.26-0.61l0.28,3.31
			c0.19,2.18,0.38,4.36,0.57,6.54c0.37,4.27,0.75,8.54,1.08,12.82l0.38,4.79c0.81,10.14,1.65,20.63,2.38,30.97
			c0.5,7.17-2.1,11.71-7.75,13.5c-11.81,3.74-23.85,7.47-35.49,11.07c-4.33,1.34-8.65,2.68-12.98,4.02L716.66,503.45z
			 M720.46,481.21c2.81,2.5,6.48,6.79,6,12.9c2.6-0.81,5.21-1.61,7.81-2.42c11.63-3.6,23.66-7.33,35.45-11.06
			c2.4-0.76,3.93-2.3,3.57-7.36c-0.73-10.31-1.56-20.78-2.37-30.91l-0.38-4.79c-0.34-4.26-0.71-8.51-1.08-12.77
			c-0.09-1.06-0.19-2.12-0.28-3.18c-3.81,0.87-7.67,2.01-11.68,3.45l-10.25,15.54C738.32,454.15,729.39,467.68,720.46,481.21z"/>
	</g>
	<g>
		<path class="st0" d="M618.8,551.76c-0.01,0-0.03,0-0.04,0c-4.74-0.01-9.46-0.04-14.2-0.07l-1.1-0.03
			c-5.08-0.68-10.15-0.6-15.51-0.52l-1.92,0.03l-2.75-0.03c-4.82-0.13-9.61-0.26-14.38-0.37c-9.17-0.21-11.49-2.36-12.4-11.46
			l-0.02-0.19l0.17-6.72c0.17-6.78,0.34-13.55,0.54-20.32c0.26-8.52,3.25-11.35,11.8-11.23c7.81,0.11,15.62,0.19,23.44,0.27
			l9.89,0.15c3.62,0.67,7.3,0.64,11.2,0.61c1.88-0.01,3.83-0.03,5.77,0.04c3.24,0.12,5.65,0.78,7.34,2.1l4.12-1.52l-2.16,3.92
			c0.84,1.64,1.23,3.76,1.23,6.44c0,2.39,0.03,4.77,0.05,7.16l0.02,1.85l-0.21,5.35c-0.19,4.86-0.38,9.73-0.58,14.58
			C628.82,548.68,625.64,551.76,618.8,551.76z M604.07,545.69l0.52,0c4.31,0.03,8.61,0.05,12.92,0.06
			c-5.42-3.71-11.02-7.68-16.28-12.04c-0.46-0.25-0.86-0.59-1.17-1.01c-0.03-0.02-0.06-0.05-0.09-0.07
			c-0.16-0.04-0.34-0.08-0.51-0.12c-0.23-0.05-0.48-0.11-0.74-0.17c-2.82,2.87-7.72,2.21-10.32,0.54c-1.15-0.74-1.34-0.77-3.08,0.62
			c-2,1.6-4.15,2.52-6.24,3.38l0.02,0.73l-1.61,0.22c-2.84,3.29-6.4,5.23-9.99,6.89c0.46,0.02,0.97,0.03,1.53,0.04
			c4.78,0.11,9.58,0.24,14.36,0.37l2.62,0.03l1.83-0.03C593.14,545.06,598.6,544.97,604.07,545.69z M606.18,527.76l17,12.22
			c0.18-4.33,0.35-8.66,0.52-13l0.2-5.2l-0.02-1.69c-0.02-2.17-0.05-4.33-0.05-6.5c-1.55,1.49-3.17,2.44-4.69,3.3
			c-2.19,2.12-4.6,3.9-6.93,5.62c-2.24,1.65-4.38,3.22-6.25,5.03C606.04,527.6,606.11,527.68,606.18,527.76z M562.48,538.9
			c0.04,0.35,0.07,0.69,0.1,1c0.41-0.37,0.83-0.74,1.25-1.13c2.64-2.41,5.59-5.1,9.67-6.27c0.83-1.93,2.57-2.89,3.64-3.47
			c0.35-0.19,0.69-0.38,0.89-0.53c0.93-0.71,1.73-1.26,2.4-1.71c-0.58-0.52-1.3-1.14-2.04-1.78l-0.27-0.23
			c-1.75-1.5-3.51-2.99-5.26-4.48c-2.76-2.34-5.62-4.76-8.38-7.2c-0.12-0.1-0.26-0.18-0.4-0.27c-0.22-0.14-0.54-0.35-0.89-0.64
			c0,0.03,0,0.07,0,0.1c-0.21,6.76-0.38,13.53-0.54,20.29L562.48,538.9z M569.46,506.86c3.6,2.47,6.77,5.43,9.86,8.32
			c4.93,4.6,9.62,8.98,15.65,11.19c0.45-0.89,1.34-1.8,2.91-2.66c0.13-0.07,0.27-0.15,0.39-0.22l15.72-12.14
			c1.27-1.21,2.57-2.39,4.13-3.46c-1.51-0.03-3.06-0.02-4.56-0.01c-3.92,0.03-7.97,0.06-12.07-0.66l-9.13-0.1
			C584.73,507.04,577.1,506.96,569.46,506.86z"/>
	</g>
	<g>
		<path class="st0" d="M682.09,446.9c-0.75,0-1.51-0.11-2.26-0.37c-1.1-0.37-2.01-0.99-2.78-1.74l-0.14,0.03l0.03-0.13
			c-1.22-1.23-2.07-2.79-2.72-4.18c-0.61-1.28-1-1.94-1.25-2.28c-0.24,0.15-0.63,0.43-1.18,0.96c-1.24,1.2-2.89,1.46-4.09,1.64
			c-0.37,0.06-0.72,0.11-0.96,0.18l-2.82-5.1c4.58-4.26,4.74-8.56,0.53-14.36c-0.94-1.29-1.61-2.66-2.26-3.98
			c-0.26-0.54-0.52-1.07-0.81-1.6l-0.27-0.5l-0.48-3.87l0.03-0.26l-1.75-0.81l1.94-0.25c0.82-3.42,3.41-5.17,5.64-6.33
			c2.83-1.47,5.7-3.05,8.47-4.57c1.31-0.72,2.63-1.44,3.95-2.16c9.69-4.93,19.31-9.82,28.93-14.7c2-1.01,3.74-1.64,5.28-1.86
			l1.2-2.77l1.14,2.77c2.66,0.44,4.73,2.5,6.75,6.34c3.6,6.84,7.83,14.93,11.93,23.04c3.06,6.05,1.74,10.16-4.29,13.32
			c-14.11,7.39-28.25,14.73-42.03,21.82C686.2,446.04,684.2,446.9,682.09,446.9z M707.62,416.58c-2.07,1.6-4.43,2.53-6.56,3.37
			c-2.45,0.96-4.56,1.8-5.78,3.35c-2.23,2.85-3.84,6.27-5.54,9.89c-0.84,1.79-1.71,3.65-2.67,5.44c-0.05,0.08-0.09,0.17-0.13,0.27
			c12.74-6.56,25.77-13.33,38.78-20.14c-0.15-0.04-0.29-0.08-0.41-0.11c-5.7-0.65-11.39-1.3-17.09-1.96
			C708.02,416.66,707.82,416.63,707.62,416.58z M673.18,432.08c0.3,0,0.61,0.03,0.92,0.08c2.56,0.47,4.01,2.7,4.99,4.64
			c0.75-1.8,1.67-3.42,2.51-4.92c0.73-1.29,1.41-2.5,1.95-3.73c0.3-0.68,0.63-1.29,0.95-1.87c0.17-0.31,0.34-0.61,0.5-0.92
			c1.05-2.08,2.14-4.22,2.46-5.27c-0.97-0.43-3.16-0.99-5.33-1.54c-5.65-0.7-9.92-1.83-13.83-3.64l-0.96-0.45
			c0.08,0.16,0.16,0.32,0.24,0.48c0.56,1.14,1.09,2.21,1.72,3.09c4.01,5.52,4.74,10.21,3.83,14.06
			C673.14,432.08,673.16,432.08,673.18,432.08z M708.73,415.63c0,0-0.01,0.01-0.01,0.01C708.73,415.63,708.73,415.63,708.73,415.63z
			 M683.69,411.25c0.73,0.11,1.45,0.21,2.18,0.31c1.82,0.26,3.7,0.52,5.58,0.9c3.28,0.65,5.81,1.16,6.55,0.8
			c0.74-0.36,1.91-2.62,3.39-5.49l8.46-19.52c-9.38,4.76-18.76,9.53-28.14,14.3c-1.24,0.67-2.54,1.39-3.85,2.11
			c-2.72,1.5-5.54,3.04-8.35,4.51C674.49,408.59,679.06,409.81,683.69,411.25z M709.41,409.08c2.43,0.47,4.94,0.69,7.56,0.91
			c3.04,0.26,6.17,0.53,9.3,1.23c0.09-0.01,0.18-0.02,0.26-0.02c0.36-0.03,0.87-0.08,1.45-0.04c-3.68-7.26-7.44-14.44-10.71-20.66
			c-0.19,0.53-0.42,0.99-0.6,1.38c-0.11,0.23-0.23,0.46-0.31,0.69c-0.94,2.63-2.13,5.15-3.28,7.59
			C711.65,403.17,710.28,406.07,709.41,409.08z"/>
	</g>
	<path class="st0" d="M536.98,477.79c-0.03,7.46-5.85,13.27-13.31,13.28c-7.44,0.01-13.44-5.87-13.46-13.21
		c-0.03-7.46,6.35-13.85,13.67-13.67C531.22,464.36,537.02,470.38,536.98,477.79z"/>
	<path class="st0" d="M744.96,554.95c0.03,7.43-5.76,13.34-13.18,13.46c-7.29,0.12-13.43-5.79-13.61-13.11
		c-0.19-7.38,6.17-13.9,13.51-13.84C738.9,541.53,744.93,547.65,744.96,554.95z"/>
	<path class="st0" d="M729.91,526.73c3.34-3.4,7.15-5.09,11.53-2.16c4.37,2.92,4.23,7.1,2.48,11.49c-3.46,3.24-7.29,4.82-11.59,1.78
		C728.28,534.98,728.28,530.97,729.91,526.73z"/>
	<path class="st0" d="M539.93,511.12c-0.05,4.58-3.82,8.15-8.42,7.99c-4.4-0.15-7.68-3.69-7.63-8.2c0.05-4.54,3.37-7.9,7.84-7.95
		C536.41,502.92,539.98,506.47,539.93,511.12z"/>
	<path class="st0" d="M709.76,534.31c0.14-3.59,1.97-5.78,5.48-5.79c3.44-0.01,5.62,2.05,5.59,5.61c-0.02,3.27-2.02,5.35-5.22,5.51
		C712.13,539.8,710.12,537.8,709.76,534.31z"/>
	<path class="st0" d="M507.08,494.31c-0.16,3.92-2.14,6.1-5.53,6.17c-3.11,0.06-5.36-1.81-5.55-5.17c-0.2-3.54,1.71-5.81,5.16-6.04
		C504.69,489.03,506.49,491.33,507.08,494.31z"/>
	<path class="st1" d="M610.67,572.71c-2.13-5.69-4.13-11.41-4.8-17.5c4.1,1.72,5.2,5.11,5.07,9.17
		C610.86,567.15,610.77,569.93,610.67,572.71z"/>
	<path class="st0" d="M488.5,481.55c-1.81-0.34-2.86-1.28-2.74-3.02c0.12-1.69,1.15-2.68,2.92-2.58c1.77,0.1,2.64,1.22,2.58,2.91
		C491.2,480.63,489.96,481.33,488.5,481.55z"/>
	<path class="st0" d="M724.82,508.49c-0.32,1.92-1.53,2.58-3.21,2.45c-1.49-0.12-2.57-0.95-2.47-2.52c0.12-1.84,1.47-2.46,3.15-2.35
		C723.81,506.17,724.65,507.06,724.82,508.49z"/>
	<path class="st1" d="M718.91,503.82c0.17-0.52,0.42-0.93,1.07-0.81C719.97,503.75,719.48,503.84,718.91,503.82z"/>
	<path class="st1" d="M602.38,530.74c-0.32-0.28-0.64-0.55-0.96-0.83c0.29-0.41,0.57-0.83,0.86-1.25c0.39,0.28,0.78,0.55,1.17,0.83
		C603.1,529.91,602.74,530.33,602.38,530.74z"/>
	<path class="st1" d="M604.06,529.93c-0.41,0.4-0.83,0.8-1.24,1.2c-0.22-0.05-0.37-0.18-0.44-0.39c0.36-0.41,0.72-0.83,1.08-1.24
		C603.73,529.55,603.93,529.69,604.06,529.93z"/>
	<g>
		<path class="st0" d="M727.68,419.03c-1.02,0-1.91-0.25-2.47-0.41l-2.4-0.68l0.26-6.76l2.93,0.05c0.17,0,0.35-0.02,0.52-0.03
			c1.13-0.1,3.77-0.34,5.47,2.31l1.17,1.83l-1.37,1.69C730.52,418.61,729,419.03,727.68,419.03z"/>
	</g>
	<g>
		<path class="st0" d="M503.71,661.85c-7.34,0-9.34-1.98-10.82-9.82c-0.25-1.35-0.56-2.68-0.88-4.08l-0.36-1.58
			c-0.11-0.48-0.24-0.99-0.38-1.51l-0.05-0.24l-2.57-14.92c-0.32-2.22-0.47-4.07-0.4-5.63l-1.49-0.84l1.67-0.81
			c0.76-4.12,3.77-5.77,10.52-7.03c3.72-0.68,7.43-1.39,11.14-2.09l4.44-0.84l9.92-1.74c6.03-1.06,12.06-2.11,18.1-3.18
			c7.33-1.29,10.86,1.13,12.19,8.36c1.1,6.01,2.16,12.04,3.23,18.06l1.24,7.01c1.31,7.41-0.98,10.82-8.18,12.17
			c-8.65,1.63-17.45,3.24-25.96,4.79c-5.25,0.96-10.51,1.92-15.76,2.89c-0.73,0.13-1.48,0.34-2.27,0.56
			c-0.46,0.13-0.92,0.25-1.38,0.37l-0.32,0.08l-0.33,0.01C504.55,661.84,504.12,661.85,503.71,661.85z M512.99,647.57
			c-2.57,2.69-5.14,5.38-7.71,8.06c0.05-0.01,0.1-0.03,0.15-0.04c0.88-0.24,1.8-0.5,2.78-0.68c5.26-0.97,10.52-1.93,15.77-2.89
			c8.01-1.46,16.28-2.97,24.43-4.5c-1.03-0.45-2.05-0.9-3.08-1.35c-3.41-1.49-6.93-3.03-10.35-4.71c-3.97-1.95-4.97-2.19-6.59-0.3
			c-1.3,1.51-4.27,2.33-6.16,1.13c-2.32-1.48-3-1.05-5.76,2.04c-0.48,0.54-0.97,1.08-1.46,1.58c-0.54,0.55-1.1,0.97-1.6,1.35
			C513.27,647.35,513.13,647.46,512.99,647.57z M497.12,643.47c0.13,0.51,0.26,1.02,0.38,1.54l0.36,1.59
			c0.32,1.4,0.66,2.85,0.93,4.32c0.01,0.03,0.01,0.06,0.02,0.09l9.95-9.85c1.17-1.48,2.35-2.98,2.83-3.82
			c-0.79-0.61-2.57-1.58-4.29-2.54c-3.56-1.96-6.99-3.91-10.63-5.98c-0.74-0.42-1.49-0.85-2.25-1.28c0.06,0.48,0.12,0.89,0.17,1.2
			L497.12,643.47z M535.91,633.06c0.1,0.05,0.21,0.09,0.33,0.14c4.55,1.93,8.91,4.02,13.52,6.24c1.11,0.54,2.24,1.08,3.37,1.62
			l-1.07-6.08c-1.01-5.75-2.03-11.51-3.08-17.25c-0.17,0.14-0.34,0.27-0.49,0.39c0,0-0.01,0-0.01,0.01
			c-1.27,2.1-2.73,3.84-4.57,5.39l-1.44,1.74c-0.61,0.74-1.2,1.48-1.8,2.23c-1.42,1.78-2.89,3.62-4.54,5.34
			C536.06,632.91,535.98,632.99,535.91,633.06z M499.55,621.37c0.01,0,0.01,0.01,0.02,0.01c0.16,0.11,0.31,0.23,0.47,0.31
			c5.86,3.09,13.54,7.2,21.12,11.54c2.25,1.29,3.31,1.1,4.96-0.84c2.47-2.93,5.08-5.78,7.6-8.54c1.05-1.14,2.09-2.29,3.13-3.44
			l1.52-1.69c1.19-2.09,2.79-3.49,4.15-4.69c0.19-0.17,0.38-0.34,0.57-0.51c-5.87,1.04-11.74,2.07-17.61,3.09l-9.9,1.74l-4.38,0.83
			c-3.72,0.71-7.44,1.42-11.17,2.1C499.89,621.31,499.73,621.34,499.55,621.37z"/>
	</g>
	<g>
		<path class="st0" d="M495.5,677c-1.62,0-3.45-0.45-5.57-1.31c-7.7-3.17-15.38-6.36-23.06-9.54c-5.5-2.28-10.99-4.56-16.49-6.84
			c-1.03-0.42-2.09-0.8-3.21-1.19c-0.6-0.21-1.2-0.42-1.8-0.64l-0.38-0.14l-0.33-0.23c-1.42-1.01-2.83-2.4-3.67-4.24l-3.27-0.17
			l2.62-1.94c-0.3-1.79-0.07-3.91,1.02-6.39c2.09-4.77,4.1-9.68,6.04-14.43c1.29-3.14,2.57-6.29,3.89-9.42
			c2.7-6.42,6.8-8.13,13.29-5.55c6.41,2.55,12.88,5.21,19.13,7.77c3.01,1.23,6.02,2.47,9.03,3.7l1.54,0.63l2.69,15.58l0.53,2.44
			c0.13,0.59,0.27,1.19,0.4,1.78c0.3,1.32,0.61,2.69,0.87,4.07c0.21,1.09,0.76,4.01,1.38,4.52c0.62,0.5,3.56,0.42,4.67,0.4
			l4.54-0.12l-1.67,4.22c-0.38,0.97-0.76,1.95-1.14,2.92c-0.93,2.4-1.9,4.88-2.94,7.31C501.6,674.8,499.1,677,495.5,677z
			 M450.63,652.97c0.68,0.25,1.36,0.5,2.04,0.78c5.51,2.28,11.01,4.56,16.51,6.84c7.37,3.06,14.73,6.12,22.11,9.15l-0.58-0.89
			c-2.39-3.67-4.85-7.47-7.32-11.16c-0.4-0.6-0.76-1.22-1.11-1.82c-1.79-3.07-2.13-3.28-4.09-2.49c-1.98,0.79-4.98-0.32-5.97-2.2
			c-1.35-2.62-2.39-2.63-6.66-1.5c-0.69,0.18-1.38,0.36-2.06,0.51c-0.99,0.21-1.95,0.35-2.88,0.49c-0.32,0.05-0.64,0.09-0.96,0.14
			C457.13,651.69,454.03,652.59,450.63,652.97z M488.9,650.92c0.35,1.13,1.96,3.75,3.53,6.29c1.53,2.48,3.1,4.94,4.66,7.4
			c0.47,0.74,0.94,1.48,1.41,2.22c0.71-1.7,1.4-3.44,2.06-5.15c-4.83-0.62-6.44-3.06-7.69-9.65c-0.15-0.82-0.33-1.64-0.51-2.47
			C490.81,650.06,489.51,650.54,488.9,650.92z M456.88,622.71c-0.02,0.04-0.03,0.08-0.05,0.12c-1.31,3.11-2.59,6.24-3.87,9.36
			c-1.87,4.57-3.79,9.28-5.81,13.9c2.92-1.4,6-1.9,8.79-2.35c0.8-0.13,1.61-0.26,2.41-0.41c0.76-0.2,1.52-0.41,2.29-0.62
			c1.77-0.49,3.6-1,5.48-1.4C462.93,635.94,459.48,629.67,456.88,622.71z M472.86,637.98c1.02,1.55,1.82,2.88,2.47,3.96
			c1.03,1.71,1.92,3.19,2.38,3.27c1.11,0.21,4.37-0.76,8.51-1.98c1.51-0.45,3.03-0.87,4.55-1.29l-1.83-10.6
			c-2.5-1.02-5-2.05-7.5-3.07c-5.89-2.42-11.97-4.91-18-7.32C466.93,626.29,470.37,631.85,472.86,637.98z"/>
	</g>
	<g>
		<path class="st0" d="M546.24,620.05l-1.96-1.58c-0.39-0.32-0.72-0.62-1.02-0.93l-1.78-1.85l1.54-2.03
			c0.07-0.11,0.14-0.24,0.21-0.37c0.46-0.84,1.32-2.41,3.15-2.74c1.1-0.2,2.2,0.12,3.1,0.89c0.92,0.78,1.4,1.83,1.38,2.96
			c-0.05,1.93-1.51,3.05-2.39,3.72c-0.12,0.09-0.24,0.18-0.34,0.27L546.24,620.05z M544.9,614.67c0.1,0.62,0.41,1.08,0.7,1.33
			c0.25,0.21,0.66,0.42,1.16,0.47l-0.54-0.41l-0.05,0.07l-0.28-0.32l-0.46-0.35l0.08-0.08L544.9,614.67z"/>
	</g>
</g>
</svg>
