<?xml version="1.0" encoding="utf-8"?>
<!-- Generator: Adobe Illustrator 27.0.0, SVG Export Plug-In . SVG Version: 6.00 Build 0)  -->
<svg version="1.1" id="Layer_1" xmlns="http://www.w3.org/2000/svg" xmlns:xlink="http://www.w3.org/1999/xlink" x="0px" y="0px"
	 viewBox="0 0 1080 1080" style="enable-background:new 0 0 1080 1080;" xml:space="preserve">
<style type="text/css">
	.st0{fill:#FDB715;stroke:#FFFFFF;}
</style>
<g>
	<path class="st0" d="M528.57,531.85c-3.89,3.47-7.74,1.57-11.59-0.1c-0.1-2.95-1.34-5.95,0.39-8.81c0.06-0.34,0.13-0.69,0.19-1.03
		h-0.08c2.85-0.77,5.39-3.15,8.7-1.37C530.14,522.67,531,526.5,528.57,531.85z"/>
	<path class="st0" d="M542.81,539.96c-1.05,2.79-2.91,4.56-5.94,3.29c-3.43-1.44-3.69-4.18-2-7.25
		C540.05,533.75,541.75,534.6,542.81,539.96z"/>
	<path class="st0" d="M544.48,507.05c1.48,3.16,1.25,6.15-0.87,8.96c-3.65,2.68-7.42,3.22-10.53-0.51
		c-3.12-3.74-1.87-7.35,1.38-10.48l0.2-0.09c0.45-0.28,0.9-0.56,1.35-0.84c2.79-0.34,5.35,0.14,7.55,2.01
		C543.87,506.4,544.17,506.72,544.48,507.05z"/>
	<path class="st0" d="M694.4,310.23c1.03,0.67,2.07,1.34,3.1,2c3.48,5.97,2.57,8.74-3.99,12.16c-8.4-1.49-10.39-6.58-5.14-13.13
		C690.32,310.62,692.27,309.9,694.4,310.23z"/>
	<path class="st0" d="M547.44,477.49c0.34,3.06-1.37,4.89-3.81,6.26c-3.88-0.56-5.93-2.49-5-6.66c1-0.82,2-1.65,3-2.47
		C544.24,474.22,545.96,475.63,547.44,477.49z"/>
	<path class="st0" d="M753.45,346.25c-0.43-1.67-0.87-3.35-1.3-5.02c0.46-1.24,0.93-2.48,1.39-3.73c5.79-4.2,9.24-3.2,12.94,3.76
		C764.33,349.45,759.89,351.15,753.45,346.25z"/>
	<path class="st0" d="M679.46,670.7c-0.56-0.89-1.12-1.79-1.69-2.68c0.2-1.57,0.74-3.02,1.69-4.3c5.71-2.06,7.9-0.19,6.93,5.91
		C684.35,671.67,682.08,672.32,679.46,670.7z"/>
	<path class="st0" d="M614.97,430.18c0.86-0.98,1.72-1.95,2.58-2.93c3.21-0.55,5.29,0.74,6.3,3.81c-0.14,3.43-1.99,5.1-5.37,5.17
		C616,434.98,614.24,433.3,614.97,430.18z"/>
	<path class="st0" d="M811.9,406.23c0.47,1.28,0.39,2.53-0.18,3.76c-1.98,2.1-4.16,3.43-6.84,1.24c-2.09-1.71-2.56-4.02-0.72-6.04
		C807.03,402.02,809.66,403.3,811.9,406.23z"/>
	<path class="st0" d="M766.95,633.61c-6.2,0.84-8.06-1.11-6.46-6.79c2.27-1.61,4.62-2.75,6.94-0.22
		C769.68,629.03,768.7,631.38,766.95,633.61z"/>
	<path class="st0" d="M768.54,648.96c2.68-2.75,5.66-4.44,9.55-2.51c4.06,2.02,3.89,5.57,3.26,9.27c-2.55,2.9-5.52,4.74-9.43,2.9
		C767.62,656.6,767.8,652.83,768.54,648.96z"/>
	<path class="st0" d="M813.34,544.08c-4.02-1.21-6.39-3.56-5.62-8.09c1.21-3,3.57-4.22,6.66-4.32c5.92,0.78,5.03,5.22,4.95,9.22
		C817.66,542.57,815.81,543.89,813.34,544.08z"/>
	<path class="st0" d="M798.19,630.12c3.64,2.82,5.18,6.16,2.59,10.52c-0.49,0.55-0.98,1.1-1.47,1.64
		c-3.76,2.22-7.06,1.38-10.07-1.49C786.42,632.91,789.74,628.94,798.19,630.12z"/>
	<path class="st0" d="M812.44,462.29c-2.95,1.12-5.57,0.34-8.05-1.35c-2.01-2.74-2.91-5.63-0.94-8.75c2.07-3.27,5.14-3.9,8.69-3.01
		c5.03,4.18,5.44,6.42,2.11,11.83C813.65,461.44,813.04,461.87,812.44,462.29z"/>
	<g>
		<path class="st0" d="M466.73,507.44c2.2,3.08,4.34,4.64,6.71,4.9c0.27,0.04,0.52,0.05,0.77,0.05c2.24,0,4.45-1.08,7.21-3.55
			l0.23-0.24c3.13-3.92,2.67-8.42-1.24-12.02c-3.19-2.95-7.47-3.14-10.9-0.49c-4.45,3.46-5.41,7.25-2.83,11.27L466.73,507.44z
			 M472.57,500.04c1.52-1.17,3.02-1.1,4.45,0.22c2.4,2.21,1.85,3.74,0.85,5.06c-1.69,1.47-2.98,2.16-3.85,2.06
			c-0.85-0.09-1.92-1.03-3.18-2.79C470.01,503.29,469.7,502.26,472.57,500.04z"/>
		<path class="st0" d="M515.1,691.94c-0.38-0.02-0.62-0.05-0.74-0.08l-0.22-0.07l-15.4-0.05l-3.63,2.67l0.04,16.32
			c0.03,14.66,0.07,33.89,0.2,52.7c0,0.19,0,0.34-0.01,0.46c-0.15,0-0.34,0.01-0.61-0.01c-2.33-0.11-4.69-0.14-6.98-0.18l-0.85-0.01
			c-1.07-0.01-2.13-0.03-3.24-0.05H348.59l-9.21,0.08l-0.01-227.95c-0.2-4.22-0.4-8.21,0.29-8.9c0.69-0.69,4.49-0.49,8.89-0.27
			l0.08,0l135.07,0c1.33-0.04,2.7-0.2,4.26-0.39c2.9-0.35,6.18-0.76,7.45,0.38c0.88,0.8,0.52,3.84,0.22,6.33
			c-0.21,1.69-0.39,3.21-0.38,4.65c0.04,7.23-0.02,14.74-0.09,21.22c-0.03,2.69-0.05,5.37-0.07,8.08l0.01,11.57l22.49,0.39
			l2.47-3.12l-0.62-44.06c-0.03-0.92-0.15-1.81-0.28-2.75c-0.26-1.88-0.47-3.37,0.32-4.68l0.68-1.15l-0.21-0.46l0-0.7
			c0.01-1.39-0.06-2.78-0.12-4.12l-0.02-0.37c-0.16-3.14-0.3-6.1,0.33-8.98l0.1-0.43l-0.05-0.45c-1.03-7.8-2.8-16.66-10.86-23.04
			c-2.9-2.31-6.13-4.03-9.87-5.27l-7.69-1.28l-0.29-0.01c-2.3,0.01-4.6,0.01-6.98,0.01l-0.94,0.09l-14.77,0l-0.98-0.08L454.52,478
			l-0.94,0.09l-14.77,0l-0.98-0.08L424.55,478l-0.94,0.09l-14.77,0l-0.98-0.08L394.58,478l-0.94,0.09l-14.77,0l-0.98-0.08
			L364.61,478l-0.94,0.09l-14.77,0l-1.02-0.09l-6.06,0.08l-7.56,1.28l-0.61,0.19c-12.48,5.68-18.72,14.89-18.55,27.35l0,299.59
			l0.22,7.53l0.16,0.38l-0.02,0.5l0.21,0.5c3.84,9.09,9.41,15.12,17,18.44c4.19,2.06,8.44,2.09,12.62,2.12
			c1.4,0.01,2.85,0.02,4.31,0.12h132.97l0.12,0.04l0.21-0.02c1.8-0.2,3.64-0.17,5.64-0.12c3.52,0.07,7.16,0.15,10.87-1.17
			c5.97-2.14,11.2-6.01,16-11.83l0.15-0.18l0.68-1.56c1.43-2.69,2.13-5.5,2.81-8.25l0.14-0.54c0.21-0.83,0.42-1.66,0.65-2.46
			l0.1-0.34l0.08-114.36v-0.26l-0.32-0.57C518.46,692.18,516.3,692.03,515.1,691.94z M347.72,483.01l0.92,0.08l15.23,0.01l0.94-0.09
			l12.82,0l0.98,0.08l15.23,0.01l0.94-0.09l12.83,0l0.97,0.08l15.23,0.01l0.94-0.09l12.82,0l0.98,0.08l15.23,0.01l0.94-0.09l12.82,0
			l0.98,0.08l15.23,0.01l0.94-0.09c2.21,0,4.42,0,6.64-0.01l6.78,1.09c3.08,1.03,5.74,2.46,8.15,4.37
			c5.86,4.64,7.83,11.09,8.95,19.35c-0.67,3.36-0.51,6.64-0.35,9.87c0.03,0.65,0.07,1.3,0.09,1.96l-1.8,0.16l1.45,3.1
			c-0.97,2.42-0.63,4.8-0.35,6.73l0.03,0.21c0.1,0.7,0.19,1.36,0.2,1.93l0.58,42.02l-14.93-0.25l-0.01-6.69
			c0.02-2.66,0.04-5.33,0.07-8c0.06-6.46,0.13-13.98,0.09-21.31c-0.01-1.18,0.16-2.55,0.34-4.07c0.46-3.79,0.97-8.1-1.87-10.61
			c-2.96-2.64-7.25-2.11-11.42-1.61c-1.26,0.16-2.59,0.31-3.7,0.35l-134.83,0c-6.91-0.37-10.39-0.55-12.65,1.71
			c-2.27,2.25-2.1,5.71-1.77,12.56l0.01,229.49c-0.17,1.55,0.57,2.41,1.03,2.79c0.72,0.6,1.65,0.79,2.64,0.56l145.57-0.1
			c1.07,0.02,2.15,0.04,3.21,0.05l0.82,0.01c2.25,0.03,4.58,0.07,6.83,0.18c1.46,0.06,3.13-0.02,4.41-1.26
			c1.47-1.42,1.45-3.53,1.45-4.23c-0.12-17.26-0.16-34.82-0.2-51.8l-0.03-14.67l0.27-0.2h12.88c0.54,0.13,1.03,0.17,1.51,0.2
			c0.1,0.01,0.18,0.01,0.26,0.02l-0.08,111.98c-0.27,0.94-0.51,1.9-0.75,2.88c-0.64,2.57-1.25,5-2.42,7.17l-0.46,1.09
			c-4.16,4.96-8.61,8.23-13.59,10.01c-2.84,1.01-5.87,0.95-9.08,0.88l-0.18,0c-1.93-0.04-3.93-0.08-5.96,0.13H349.82
			c-1.32-0.1-2.78-0.13-4.44-0.09c-3.73-0.02-7.26-0.04-10.54-1.66c-6.34-2.78-11.03-7.83-14.33-15.45
			c-0.03-0.29-0.08-0.56-0.17-0.84l-0.19-6.6V506.9c-0.14-10.38,4.87-17.78,15.33-22.64l6.64-1.16L347.72,483.01z"/>
		<path class="st0" d="M383.58,804.64c0.07,1.62,0.91,2.45,1.4,2.8c0.56,0.4,1.22,0.61,1.96,0.61c0.4,0,0.75-0.06,1-0.1l51.66,0
			c2.66,0.03,5.32,0.06,7.92,0.1c1.01,0.08,1.94-0.25,2.61-0.94c0.65-0.69,0.94-1.62,0.85-2.59v-13.73c0.29-1.39,0.5-3.36-0.74-4.91
			c-1.31-1.64-3.46-1.82-5.15-1.83c-17.94,0.18-36.65,0.18-55.62,0c-1.12,0-3.75,0-5.23,1.85c-1.39,1.72-0.94,4.01-0.74,4.89
			L383.58,804.64z M446.18,789.06c-0.02,0.19-0.06,0.46-0.15,0.85L445.97,803l-4.99-0.06l-52.41-0.02l-0.07-12.46l-0.07-0.57
			c-0.09-0.36-0.13-0.62-0.15-0.8c0.23-0.04,0.59-0.07,1.14-0.07c18.99,0.17,37.73,0.17,55.73,0
			C445.64,789,445.97,789.03,446.18,789.06z"/>
		<path class="st0" d="M386.34,509.63c0.54,0,1.14-0.04,1.77-0.13c2.13-0.29,4.32-0.28,6.45-0.27c1.08,0,2.15,0,3.15-0.03l37.93,0
			c1.31,0.03,2.63,0.04,3.94,0.05l0.56,0.01c2.9,0.03,5.9,0.06,8.81,0.24c1.88,0.1,3.25-0.33,4.21-1.36c1.44-1.54,1.16-3.63,1-4.85
			c-0.02-0.17,0.02-0.59,0.05-0.89c0.11-1.09,0.31-2.91-1-4.35c-0.9-0.97-2.28-1.47-4.12-1.48c-19.33,0.07-38.76,0.05-57.54,0.03
			l-5.65-0.01c-1.29,0-5.21,0-5.57,5.04c-0.16,2.28-0.07,4.84,1.73,6.53C383.12,509.15,384.51,509.63,386.34,509.63z M449.2,503.93
			c0.03,0.24,0.05,0.44,0.07,0.59c0,0,0,0,0,0c-3.19-0.2-6.42-0.23-9.63-0.26l-41.98-0.05c-1.02,0.02-2.04,0.05-3.08,0.02h-0.2
			c-2.26,0-4.6,0-6.93,0.32c-1.51,0.2-1.93-0.02-1.94-0.02h0c-0.02-0.03-0.32-0.46-0.17-2.54c0.01-0.11,0.02-0.25,0.03-0.38
			c0.16,0,0.36,0,0.54,0l11.61,0.01c16.92,0.01,34.42,0.02,51.61-0.03c0.05,0,0.1,0,0.15,0c-0.01,0.13-0.02,0.25-0.03,0.33
			C449.17,502.55,449.11,503.23,449.2,503.93z"/>
		<path class="st0" d="M446.13,630.5c1.21-0.01,3.23-0.03,4.61-1.49c0.93-0.98,1.34-2.3,1.25-4.03c-0.15-3.28-0.16-6.66-0.17-9.92
			c0-0.8,0-1.61-0.01-2.41c0.15,0.25,0.33,0.51,0.55,0.75l1.02,3.11c0.85,2.6,1.82,5.54,2.65,8.43c0.7,2.48,2.1,5.34,6.68,5.51
			c4.77,0.18,6.4-2.83,7.28-5.45c1.33-3.92,2.71-7.82,4.24-12.14l0.08-0.22c0.06-0.16,0.12-0.33,0.17-0.49
			c-0.01,0.8-0.01,1.61-0.02,2.41l0,0.21c-0.02,3.33-0.05,6.58-0.23,9.73c-0.1,1.93,0.32,3.37,1.3,4.43
			c1.3,1.39,3.16,1.59,4.65,1.62h0.18c1.27,0,3.12-0.16,4.45-1.52c1.01-1.05,1.45-2.51,1.36-4.47c-0.15-3.21-0.17-6.48-0.18-9.81
			c0-1.29-0.01-2.58-0.02-3.88l0.01-0.65c0.04-4.42,0.09-8.83,0.15-13.25c0.02-1.35,0.07-4.51-3.2-6.06
			c-2.51-1.18-5.51-1.23-8.24-0.14c-2.78,1.12-4.97,3.28-6.01,5.93c-1.41,3.61-2.77,7.19-4.18,10.91l-1.28,3.39l-0.39-0.94
			l-2.04-5.96c-0.96-2.83-1.93-5.65-2.9-8.48c-1.94-5.63-6.93-5.41-10.22-5.26c-0.28,0.01-0.58,0-0.89-0.01
			c-1.46-0.03-3.47-0.08-4.96,1.4c-1,1-1.47,2.36-1.43,4.15l-0.01,14.87c-0.01,1.47-0.02,2.93-0.02,4.46
			c-0.01,3.22-0.02,6.55-0.15,9.79c-0.07,1.74,0.35,3.06,1.28,4.03C442.9,630.52,445,630.5,446.13,630.5z M480.79,595.41
			c0.23,0.11,0.35,0.17,0.34,1.46l-0.04,3.5l-1.96-1.67c-0.39-0.33-1.42-1.21-2.75-1.21c-0.33,0-0.65,0.06-0.86,0.14
			c-1.66,0.51-2.07,2.08-2.28,2.85c-0.03,0.13-0.07,0.28-0.13,0.43c-1.08,3.16-2.19,6.31-3.31,9.46l-0.55,1.54
			c-1.32,3.75-2.69,7.62-3.99,11.45c-0.66,1.96-0.93,2.09-2.36,2.05c-1.23-0.04-1.54-0.12-2.04-1.88c-0.83-2.89-1.78-5.77-2.71-8.62
			c-0.41-1.24-0.82-2.47-1.22-3.73l-0.27-0.82l-0.49-0.33c-0.01-0.09-0.02-0.2-0.04-0.34c-0.03-0.33-0.07-0.7-0.15-1.08l-0.19-0.55
			c-1.08-2.26-1.94-4.76-2.76-8.1c-0.71-2.89-2.51-3.23-3.22-3.24c-0.92-0.05-2.59,0.33-3.41,3.18l-0.4,1.38l0.87,0.91l-0.07,8.58
			l0,0.22c0.01,1.35,0.02,2.7,0.02,4.06c0.01,3.31,0.02,6.74,0.17,10.13c0,0.1,0,0.19,0,0.26c-0.19,0.02-0.48,0.04-0.91,0.04
			c-0.42,0.01-0.71-0.01-0.9-0.03c0-0.07,0-0.16,0-0.26c0.14-3.36,0.15-6.76,0.16-10.04l0.01-1.49c0-0.96,0.01-1.92,0.02-2.9
			l0.01-14.95c0-0.22,0.01-0.38,0.03-0.49c0.34-0.04,0.92-0.02,1.25-0.01c0.4,0.01,0.78,0.01,1.24,0c3.63-0.16,4.62,0.04,5.26,1.9
			c1.35,3.91,2.68,7.82,4.01,11.74l0.97,2.85l5.26,12.73l4.77-12.55c1.89-5.01,3.49-9.22,5.16-13.49c0.53-1.37,1.7-2.5,3.2-3.1
			C478,594.82,479.55,594.83,480.79,595.41z M479.23,624.76c0.18-3.25,0.21-6.57,0.23-9.97l0-0.16c0.01-1.27,0.02-2.54,0.04-3.85
			v-8.21l-0.07-0.37l1.65-1.73l-0.12,10.35l0.02,4.51c0.02,3.08,0.04,6.27,0.19,9.42c0.02,0.34,0,0.57-0.02,0.7
			c-0.17,0.03-0.45,0.06-0.94,0.06c-0.52,0-0.82-0.05-0.99-0.08C479.22,625.32,479.21,625.1,479.23,624.76z"/>
		<path class="st0" d="M423.77,620.41l-0.19,0.02c-1.29-0.02-2.58-0.64-3.95-1.29c-1.27-0.6-2.58-1.23-4.12-1.57l-2.35-0.52
			l-0.62,2.33c-0.55,2.08-2.22,8.42,4.48,10.43c1.8,0.54,4.54,1.26,7.49,1.26c3.69,0,6.91-1.08,9.87-3.34
			c3.44-2.95,5.28-6.12,5.47-9.43c0.19-3.17-1.15-6.32-3.93-9.32c-2.15-2.58-4.87-3.69-7.57-4.78c-1.01-0.41-2.06-0.83-3.01-1.33
			c-1.1-1.44-0.88-1.66-0.55-1.98c1.09-1.08,2.29-0.98,5.31-0.08c0.12,0.07,0.3,0.2,0.43,0.29c0.81,0.57,2.32,1.62,4.1,1.01
			c1.18-0.41,2.02-1.39,2.5-2.91c1.27-4.04-0.16-7.17-3.83-8.36c-3.82-1.23-7.02-1.49-10.08-0.83c-6.25,1.36-9.83,4.85-10.64,10.38
			c-0.83,5.81,1.59,10.34,6.99,13.11l0.17,0.09c1.4,0.72,2.84,1.46,4.38,2.17l0.26,0.11c2.79,1.29,3.04,1.68,2.87,2.82
			C427.11,619.73,426.93,620.05,423.77,620.41z M421.74,606.39l0.28,0.35l0.4,0.23c1.28,0.74,2.6,1.28,3.88,1.8l0.17,0.07
			c2.18,0.88,4.24,1.71,5.61,3.36l0.1,0.1c1.87,2.02,2.77,3.93,2.66,5.71c-0.1,1.9-1.34,3.87-3.62,5.83
			c-3.29,2.51-7.11,2.86-12.76,1.18c-0.98-0.3-1.5-0.58-1.54-1.62c0.08,0.04,0.16,0.08,0.25,0.12l0.27,0.13
			c1.74,0.84,3.71,1.78,6.3,1.78c0.02,0,0.04,0,0.07,0l0.49-0.05c2.48-0.28,7.11-0.79,7.88-5.95c0.77-5.12-3.3-6.99-5.74-8.11
			l-0.26-0.12c-1.48-0.68-2.95-1.43-4.34-2.15c-3.47-1.78-4.85-4.31-4.33-7.96c0.5-3.38,2.58-5.3,6.75-6.21
			c2.19-0.47,4.5-0.26,7.49,0.71c0.45,0.14,0.82,0.26,0.83,0.88c-0.29-0.17-0.62-0.32-0.98-0.43c-2.93-0.87-6.94-2.07-10.33,1.3
			C419.52,599.05,418.19,602.02,421.74,606.39z"/>
		<path class="st0" d="M490.74,629.1c2.08,0.82,5.27,1.91,8.83,1.91c3.52,0,6.75-1.09,9.62-3.24l0.08-0.06
			c3.36-2.79,5.19-5.9,5.43-9.25c0.23-3.25-1.03-6.42-3.73-9.38c-2.21-2.62-4.99-3.75-7.7-4.85c-1.07-0.43-2.09-0.84-3.01-1.34
			c-0.97-1.24-0.75-1.82-0.19-2.44c1.9-0.5,3.47-0.34,4.94,0.51c0.98,0.57,3.58,2.07,5.72,0.64c2.09-1.41,1.7-4.25,1.44-6.13
			l-0.07-0.48l-0.23-0.42c-3.35-5.94-8.8-5.17-12.88-4.6c-0.46,0.07-0.92,0.13-1.36,0.18c-5.35,0.63-8.95,4.12-10.12,9.81
			c-1.03,5.01,0.81,9.45,5.17,12.51c1.21,0.85,2.48,1.4,3.8,1.98l0.1,0.04c0.74,0.33,1.45,0.63,2.1,0.99l0.21,0.11
			c0.24,0.13,0.49,0.26,0.73,0.38c2.42,1.26,2.63,1.62,2.51,2.63c-0.14,1.1-0.32,1.44-3.55,1.8l-0.07,0.01
			c-1.41-0.08-2.84-0.71-4.35-1.38c-1.11-0.49-2.36-1.04-3.73-1.43l-2.75-0.77l-0.41,2.91c-0.04,0.3-0.09,0.62-0.15,0.93
			C486.73,623.15,486.04,627.25,490.74,629.1z M507.1,619.23c0.58-4.71-3.02-6.57-5.15-7.67c-0.21-0.12-0.42-0.23-0.63-0.34
			l-0.23-0.12c-0.81-0.45-1.64-0.81-2.44-1.16l-0.18-0.08c-1.08-0.47-2.1-0.91-2.91-1.48c-2.75-1.94-3.78-4.36-3.15-7.41
			c0.73-3.51,2.69-5.48,5.82-5.85c0.51-0.06,1.03-0.13,1.55-0.2c3.99-0.56,5.88-0.59,7.35,1.5c-2.74-1.46-5.82-1.65-9.16-0.57
			l-0.54,0.17l-0.4,0.38c-3.18,2.97-3.28,6.64-0.28,10.09l0.17,0.19l0.47,0.33c1.36,0.78,2.82,1.37,4.03,1.85
			c2.31,0.94,4.31,1.76,5.78,3.5c1.79,1.97,2.63,3.9,2.5,5.74c-0.14,1.94-1.35,3.87-3.56,5.7c-3.66,2.73-7.72,2.92-13.57,0.63
			c-0.53-0.21-0.75-0.29-0.74-0.96l0.35,0.15c1.94,0.86,3.95,1.74,6.41,1.81l0.62-0.05C501.73,625.1,506.45,624.55,507.1,619.23z"/>
		<path class="st0" d="M555.14,591.58c-0.43-9.15-2.44-9.56-12.36-10.14l-0.2-0.02l-0.22,0.02c-4.15,0.4-8.36,0.4-12.6,0l-17.2-0.01
			l-0.18,0.01c-4.15,0.4-8.36,0.4-12.6,0l-17.2-0.01l-0.18,0.01c-4.15,0.4-8.36,0.4-12.53,0l-0.07-0.01l-16.14,0.01l-0.2,0
			c-4.83,0.4-9.73,0.4-14.64,0l-16.19-0.01l-0.18,0.01c-4.14,0.4-8.32,0.41-12.37,0.02c-3.23-0.49-5.59,0.05-7.2,1.66
			c-1.66,1.66-2.21,4.19-1.69,7.74c0.14,0.9,0.07,1.93-0.01,3.1c-0.04,0.61-0.08,1.21-0.09,1.86l-0.01,30.89l0,43.15l0.08,3.14
			c0.02,1.08,0.05,2.16,0.05,3.27c0.02,9.59,1.15,10.69,10.97,10.69h5.12l-10.71,24.96l-2.08,4.68l-0.02,0.5
			c-0.02,0.67-0.39,1.41-0.86,2.35c-0.51,1-1.1,2.19-1.31,3.59l-1.2,0.65l1.23,1.85l0.02,0.23l-3.63,4.29l3.81-2.63l0.18,1.67
			l2.3-1.66l0.06,0.06l3.14-2.18l-0.08-0.12l1.06-0.77l0.86-0.68l0.44-0.19h-0.2l7.76-6.17l0.24-0.23c1.82-2.01,4-3.8,6.73-5.5
			l0.24-0.18c10.89-9.31,20.11-16.96,29.74-24.05l0.84-0.66c0.3-0.01,0.71,0.03,1.13,0.08c0.46,0.06,1,0.12,1.58,0.12l6.81-0.01
			c26.8-0.04,54.52-0.08,81.75,0.06c2.53,0,5.13-0.14,6.81-2.05c1.23-1.39,1.61-3.33,1.22-6.1c-0.26-1.88-0.16-3.86-0.05-6.05
			l0.02-0.48c0.04-0.84,0.09-1.7,0.1-2.64c-0.05-2.21-0.1-4.5-0.08-6.74l0-0.16c0.1-4.69,0.39-21.95,0-47
			c-0.12-7.47,0.14-14.94,0.77-22.21l0.1-1.16l-0.82-0.82C555.16,591.59,555.15,591.58,555.14,591.58z M406.14,590.13
			c-0.3-2.04-0.06-3.12,0.28-3.46c0.14-0.14,0.77-0.57,3.06-0.24c4.44,0.44,8.94,0.44,13.31,0.01l15.79,0.01
			c5.06,0.41,10.19,0.41,15.17,0l15.77-0.01c4.42,0.43,8.9,0.43,13.23,0l16.75,0c4.42,0.43,8.9,0.43,13.23,0l16.76,0
			c4.38,0.42,8.82,0.42,13.2,0.01c3.38,0.2,6.3,0.38,6.91,0.91c0.43,0.37,0.53,2.87,0.62,5.29l0,0.11c0.04,0.74,0.35,1.27,0.63,1.61
			c-0.56,7.02-0.79,14.26-0.69,21.5c0.38,24.83,0.1,42.08,0,46.78l0,0.24c-0.02,2.24,0.02,4.44,0.08,6.84
			c-0.02,0.93-0.07,1.88-0.12,2.82c-0.12,2.16-0.25,4.61,0.09,7c0.23,1.69-0.03,2.11-0.03,2.11c-0.1,0.09-0.62,0.36-3.02,0.35
			c-28.5-0.16-57.32-0.11-85.19-0.06l-3.41,0.01c-0.23,0-0.48-0.03-0.75-0.06l-0.26-0.03c-1.44-0.16-4.11-0.46-6.04,1.94
			c-9.58,7.1-18.66,14.64-29.33,23.76c-2.95,1.85-5.39,3.85-7.44,6.11l-5.29,4.21c0-0.04,0.01-0.08,0.01-0.12l15.45-35.81h-12.72
			c-2.54,0-5.18,0-5.63-0.29c-0.33-0.49-0.34-3.06-0.34-5.32l0-0.11c0-1.39-0.04-2.8-0.08-4.21c-0.03-0.75-0.05-1.5-0.06-2.21
			l0.01-73.93c0.01-0.51,0.05-1.02,0.09-1.58C406.26,593.04,406.36,591.61,406.14,590.13z"/>
		<path class="st0" d="M331.37,346.74c1.86-1.92,2.02-4.63,1.93-7.02l-0.02-0.81c-0.05-2.26-0.12-5.35-2.19-7.32
			c-1.35-1.29-3.39-1.91-6.03-1.83c-7.99,0.18-16.05,0.14-23.84,0.1c-6.31-0.04-12.64-0.04-18.98-0.02
			c-7.78,0.03-15.83,0.06-23.76-0.09c-2.74-0.05-4.77,0.61-6.18,2.03c-1.91,1.92-2.1,4.67-2.03,7.16c0.01,0.28,0.02,0.57,0.02,0.86
			c0.04,3.38,0.11,9.05,7.99,9.05h0.16c19.75-0.2,41.56-0.2,66.71-0.01C327.98,348.81,330.01,348.13,331.37,346.74z M255.85,335.27
			c0.2-0.2,0.76-0.54,2.33-0.54v-1l0.03,1c0.08,0,0.16,0,0.24,0c8.01,0.15,16.05,0.12,23.82,0.09l0.46,0
			c3.03-0.01,6.04-0.02,9.06-0.02l0.43,0c3,0.01,5.99,0.02,8.99,0.04c7.83,0.04,15.93,0.08,23.99-0.1c1.29-0.03,2.1,0.13,2.48,0.48
			c0.55,0.52,0.58,1.97,0.63,3.79l0.02,0.85c0.06,1.82-0.12,2.96-0.53,3.38c-0.2,0.21-0.81,0.56-2.59,0.56
			c-25.16-0.19-47.01-0.19-66.79,0.01h-0.16c-2.9,0-2.91-0.47-2.96-4.13l-0.02-0.96C255.22,336.88,255.42,335.71,255.85,335.27z"/>
		<path class="st0" d="M315.4,461.67v-0.54c0.03-3.59,0.07-7.18,0.11-10.76l0.01-0.69l-0.43-1.98c-0.43-2.66-0.15-5.38,0.16-8.27
			c0.28-2.71,0.58-5.5,0.27-8.39v-15.02c-0.01-1.24-0.01-2.48-0.01-3.73c0-3.01,0-6.11-0.14-9.2c-0.04-0.89,0.08-1.21,0.07-1.22
			c0.06-0.03,0.41-0.18,1.41-0.14c2.85,0.1,5.79,0.05,8.37,0c1.2-0.02,2.39-0.04,3.58-0.05h0.69l0.58-0.35
			c1.03-0.61,1.97-1.2,2.84-1.78l91.8,22.85l0.01-2.07c1.22,0.82,2.75,1.33,4.58,1.48l0.31,0.04l3.03-0.47l1.11-0.83
			c1.63-0.67,2.38-2,2.88-2.89l0.07-0.12c0.12-0.22,0.31-0.55,0.4-0.63l0.83-0.73l0.19-18.07l-0.01-0.19c-0.4-4.15-0.4-8.35,0-12.59
			l0.01-16.67c0.89-0.06,1.79-0.13,2.7-0.2l0.75-0.07l0.61-0.48c0.15-0.12,0.31-0.25,0.48-0.38l0.19-0.14
			c0.12-0.09,0.25-0.19,0.34-0.27l0.84-0.65l0.06-0.61c4.9-0.08,7.64-3.39,9.86-6.09c0.52-0.63,1.05-1.27,1.6-1.86l0.53-0.57
			l0.12-0.77c0.27-1.8,0.83-3.66,1.32-5.29c0.96-3.19,1.94-6.48,1.64-10.23l-0.02-0.2l-0.12-0.42c-2.3-6.48-6.61-11.76-13.16-16.13
			l-3.88-2.58v1.4c-1.22-0.26-2.49-0.41-3.84-0.46c-0.01-4.79-0.01-9.59-0.01-14.44l-0.01-0.18c-0.4-4.2-0.4-8.4,0-12.53l0.01-0.21
			c0.01-5.15,0.03-10.31,0.05-15.55l0-0.53l-0.04-0.85c-0.18-4.31-0.49-11.53-9.48-11.75h-0.21l-0.44,0.08
			c-1.22,0.31-2.22,0.72-3.04,1.26c-0.71,0.44-1.31,0.98-1.82,1.59l-1.98-3.89l-94.24,38.49l-0.07,0.83
			c-2.32-0.55-4.76-0.96-7.37-0.96c-18.64,0.05-37.31,0.03-55.38,0.01c-4.12,0-7.46,0.7-10.58,2.24c-1.68,0.96-3.35,1.92-5.09,2.94
			l-0.31,0.22c-3.08,2.66-6.73,6.31-8.69,11.45l-2.56-0.39l-0.43,0.08c-0.94,0.18-1.96,0.21-3.1,0.23
			c-1.92,0.04-3.92,0.08-6.05,0.94c-9.31,3.7-10.76,11.54-10.94,19.49c0.01,5.33,0.03,10.65,0.05,16.04l0.01,0.17
			c0.4,4.14,0.4,8.34,0,12.49l-0.03,0.35l0.07,0.35c0.62,3.26,1.64,7.01,4.48,10.06c3.84,4.82,9.08,4.9,13.29,4.96
			c1.53,0.02,2.97,0.04,4.32,0.25l0.8,0.13c2.58,5.65,6.63,12.05,14.63,15.36l0.15,0.06c4.41,1.46,8.92,1.43,13.13,1.17
			c1.6-0.09,1.75,0.03,2.13,1.62c0.71,2.98,1.68,5.88,2.61,8.69l0.25,0.74c0.35,1.04,0.69,2.07,1.05,3.19l0.14,0.32
			c1.42,2.73,2.14,5.73,2.91,8.99c0.36,1.54,0.72,3.05,1.19,4.64c0.31,0.89,0.63,1.78,0.96,2.67l0.17,0.45
			c1.38,3.77,2.81,7.66,3.6,11.67l-0.31,0.65l1.28,1.72c0.12,0.62,0.24,1.25,0.35,1.86l0.1,0.51l0.12,0.45
			c0.64,2.05,1.28,4.1,1.93,6.14l1.55,4.9c1.64,4.23,4.99,6.42,8.35,8.15l0.44,0.23l0.51,0.05c1.73,0.15,3.05,0.21,4.28,0.21
			c4.83,0,10.83-0.95,14.29-8.33L315.4,461.67z M438.94,327.73c1.67,0.15,3.16,0.51,4.55,1.1l0.39,0.17
			c5.08,3.56,8.46,7.74,10.33,12.79c0.15,2.67-0.63,5.28-1.46,8.06l-0.03,0.1c-0.49,1.64-1,3.34-1.32,5.12
			c-0.33,0.38-0.65,0.76-0.97,1.14l-0.32,0.38c-2.31,2.79-3.84,4.63-7.11,4.21c-1.3-0.17-2.15,0.37-2.54,0.7
			c-0.71,0.6-1.02,1.38-1.15,2.07c-0.15,0.01-0.29,0.02-0.44,0.03C438.24,349.51,438.26,338.36,438.94,327.73z M426.24,275.65
			c0-0.03,0-0.06,0-0.1c0-2.46,0.92-3.03,1.43-3.35c0.32-0.21,0.74-0.39,1.24-0.54c3.55,0.18,4,1.61,4.22,6.95l0.04,0.79
			c-0.02,5.28-0.04,10.55-0.04,15.74c-0.43,4.37-0.43,8.85,0,13.23c0,4.9,0,9.82,0.01,14.67c-0.9,12.08-0.94,24.84-0.13,41.39
			c0.04,0.63,0.08,1.26,0.11,1.82c0.01,0.65,0.01,1.3,0.01,1.95l0,16.8c-0.42,4.4-0.43,8.86,0,13.26l-0.17,15.83
			c-0.29,0.4-0.52,0.81-0.69,1.12c-0.11,0.19-0.36,0.65-0.41,0.71l-0.43,0.12l-0.71,0.53l-1.25,0.22c-2.33-0.27-3.2-1.39-3.2-4.07
			v-1.45c0.01-44.29,0.02-90.09-0.03-135.14l0.19-0.12L426.24,275.65z M310.34,403.33c0.13,2.77,0.13,5.64,0.13,8.42v0.54
			c0,1.26,0,2.52,0.01,3.76l0,15.19l0.01,0.21c0.27,2.43,0.01,4.88-0.26,7.47c-0.31,2.92-0.66,6.24-0.09,9.75
			c0.09,0.37,0.17,0.74,0.25,1.11l0.09,0.41l-0.1,10.35c-2.66,5.15-7.39,5.26-12.86,4.81c-2.66-1.42-4.61-2.86-5.5-5.14l-1.56-4.95
			c-0.63-1.99-1.27-3.99-1.89-5.98l-0.01-0.05c-0.17-0.92-0.35-1.84-0.53-2.76l-0.12-0.56l-0.69-0.92
			c-0.85-4.46-2.38-8.67-3.87-12.76c-0.38-1.02-0.75-2.04-1.07-2.93c-0.41-1.4-0.75-2.86-1.09-4.26c-0.78-3.29-1.58-6.68-3.25-9.95
			c-0.37-1.15-0.76-2.29-1.14-3.44l-0.12-0.36c-0.89-2.67-1.81-5.44-2.45-8.17c-0.94-3.97-3.26-5.71-7.29-5.46
			c-3.69,0.22-7.6,0.27-11.13-0.88c-5.4-2.26-9.22-6.52-12.38-13.82l0.31-59.19c1.42-4.61,4.73-7.95,7.49-10.35l4.66-2.69
			c2.29-1.13,4.9-1.66,8.23-1.66c18.07,0.02,36.75,0.04,55.39-0.01c2.49,0,4.97,0.49,7.18,1.06c0.22,1.36,0.77,2.56,1.66,3.58
			c1.33,1.54,2.99,2.17,4.27,2.42c0.12,0.13,0.22,0.23,0.3,0.29c0.31,0.3,0.82,0.72,1.54,1.06c0.35,0.49,0.76,0.94,1.23,1.32
			c3.52,2.86,4.12,6.54,4.09,13.22c-0.04,9.77,0.02,19.64,0.08,28.91l0.06,11.27v0.31c0.02,2.48,0.05,4.94,0.09,7.41l-0.27,1.91
			c-0.7,3.15-2.4,5.77-5.36,8.24l-7.92,6.63c-0.45,0.01-0.9,0.01-1.35,0.02c-2.66,0.05-5.41,0.1-8.11,0
			c-1.47-0.04-3.6,0.07-5.11,1.6C310.74,399.48,310.24,401.11,310.34,403.33z M418.79,272.05l1.4,2.76
			c-0.33,0.74-0.49,1.64-0.49,2.74c0.05,45.86,0.04,92.11,0.03,136.83l-0.01,1.64l-81.8-20.37c3.8-3.53,6.15-7.54,7.12-12.28
			l0.39-2.84l0.01-0.26c-0.04-2.61-0.07-5.21-0.1-7.81l-0.06-11.51c-0.06-8.94-0.12-19.06-0.08-28.89
			c0.03-6.89-0.47-14.07-6.74-19.51c-0.01-0.03-0.01-0.06-0.02-0.08c-0.06-0.3-0.13-0.62-0.22-0.89l-0.12-0.38l1.49,0.3l0.18,0.54
			c0.05,0.14,0.09,0.28,0.11,0.42l0.15,0.86l0.65,0.57c5.66,5,6.1,12.01,6.07,18.18c-0.04,9.78,0.02,20.01,0.08,28.84l0.02,3.76
			c0.02,2.5,0.03,5.01,0.04,7.5l0,0.56c0.03,2.5,0.06,4.98,0.1,7.46l-0.39,2.96c-0.62,3.01-1.82,5.66-3.67,8.11l-2.28,3.02
			l77.08,19.19l0.02-3.2c0.01-38.65,0.02-86.74-0.03-131.87v-3.72l-83.02,33.91c-0.87-0.54-1.86-0.67-2.46-0.71l0.04-0.48
			L418.79,272.05z M351.52,383.96l0.44-3.13l0.02-0.65c-0.04-2.46-0.07-4.91-0.1-7.36l0-0.69c-0.01-2.51-0.02-5.02-0.04-7.53
			l-0.02-3.76c-0.06-8.82-0.12-19.04-0.08-28.79c0.04-7.04-0.48-15.07-7.17-21.41c-0.02-0.07-0.04-0.14-0.07-0.22l-0.14-0.42
			l68.35-27.91c0.05,43.08,0.04,88.31,0.03,124.95l-63.81-15.89C350.13,388.96,351,386.55,351.52,383.96z M221.42,357.15
			c-0.02-5.29-0.04-10.59-0.05-15.83c0.17-7.54,1.49-12.39,7.79-14.89c1.32-0.52,2.84-0.55,4.32-0.58l0.19,0
			c0.99-0.03,2-0.05,3.06-0.2l-0.28,55.1c-0.73-0.03-1.46-0.04-2.15-0.05c-3.97-0.06-7.11-0.1-9.51-3.16l-0.11-0.12
			c-1.97-2.09-2.75-4.86-3.24-7.32C221.84,365.79,221.83,361.41,221.42,357.15z"/>
		<path class="st0" d="M511.5,640.32c-0.95-0.24-2.13-0.55-3.29-0.79c-10.62-2.21-20.95-4.74-25.91-5.95
			c-1.22-0.3-2.26-0.55-3.06-0.74c-1.62-0.39-3.34-0.68-4.87,0.3c-1.54,0.96-2.04,2.7-2.29,3.93c-2.1,10.31-4.14,19.29-6.25,27.45
			c-0.36,1.43-0.61,3.08,0.27,4.51c0.97,1.58,2.68,1.96,4.19,2.3c14.9,3.32,28.48,6.51,41.5,9.76c0.48,0.11,1.2,0.27,1.98,0.27
			c0.98,0,1.85-0.24,2.57-0.71c1.3-0.83,2.11-2.23,2.43-4.16c0.73-4.4,2.83-13.72,3.87-17.47l0.19-0.7c0.39-1.39,0.93-3.3,1.43-6
			c0.87-4.63,0.77-6.71-0.38-8.27c-1.38-1.87-3.32-2.12-5.84-2.44c-0.61-0.08-1.3-0.17-2.11-0.29c-1.43-0.21-2.83-0.57-4.32-0.95
			L511.5,640.32z M485.46,652.99c0.34,0.34,0.52,0.58,0.61,0.72c-0.25,0.19-0.84,0.54-2.21,1.01l-0.09,0.04
			c-3.86,1.32-7.87,3.48-11.92,6.41c1.52-6.18,3.03-12.86,4.57-20.29C480.27,646.76,483.24,650.73,485.46,652.99z M474.59,665.37
			c7.67-4.77,15.04-7.52,16.06-6.58c0.04,0.04,0.08,0.09,0.13,0.14l0.14,0.16c0.65,0.77,1.74,2.05,3.71,2.65
			c1.61,0.49,2.85,0.22,3.59,0.06c0.47-0.1,0.64-0.13,0.86-0.09c0.26,0.05,0.59,0.44,1.77,2.13c0.44,0.64,0.97,1.37,1.61,2.24
			c1.17,1.57,1.76,2.23,2.39,2.93c0.59,0.65,1.26,1.38,2.85,3.45c0.74,0.96,1.48,1.97,2.23,3.01c-11.47-2.83-23.67-5.7-37.16-8.72
			C473.29,666.34,473.91,665.87,474.59,665.37z M509.94,665.66c-1.17-1.54-2.22-2.76-3.1-3.79c-0.85-0.99-2.14-2.49-2.15-2.87
			c0.17-0.39,2.02-1.16,3.5-1.78c1.59-0.65,3.47-1.44,5.67-2.55c1.9-0.96,3.73-1.99,5.48-3.09c-0.44,2.3-0.92,4-1.26,5.26
			l-0.24,0.85c-0.86,3.12-2.4,9.84-3.37,14.74C513.1,670.08,511.58,667.81,509.94,665.66z M499.99,654.52
			c-1.2,0.38-2.49,0.67-3.84,0.24c-1.19-0.39-1.96-1.21-2.33-1.61c-1.8-1.91-6.06-6.82-12.39-14.65c5.89,1.44,15.55,3.78,25.77,5.91
			c1.05,0.22,2.13,0.5,3.09,0.74c1.58,0.4,3.22,0.82,4.92,1.08c0.77,0.12,1.45,0.21,2.06,0.29
			C508.68,651.1,502.77,653.64,499.99,654.52z"/>
		<path class="st0" d="M624.49,327.07l-0.02,0.02l0.5,0.53c0.04,0.05,0.09,0.09,0.13,0.14l2.35,2.48c1.45,1.53,2.89,3.07,4.42,4.67
			l0.22,0.19c2.58,2,4.99,4.43,7.67,7.71l7.04,7.2l1.61,1.56c1.29,1.25,2.63,2.55,3.89,3.86c0.92,0.97,2.2,2.08,3.82,2.08
			c0.21,0,0.41-0.02,0.63-0.06c1.61-0.3,2.48-1.54,2.94-2.41c1.75-1.32,3.49-2.64,5.22-3.95l0.16-0.12l0.32-0.36
			c2.11-2.78,4.8-5.15,7.61-7.54l0.36-0.31l0.21-0.4c0.38-0.7,1.31-1.43,2.22-2.15c1.83-1.44,4.35-3.42,3.75-6.75
			c-0.47-2.64-2.71-4.54-4.68-6.22c-0.68-0.58-1.39-1.18-1.94-1.74c-0.02-0.03-0.03-0.06-0.03-0.06c0,0,0,0,0,0
			c-0.07-0.16-0.15-0.31-0.22-0.44l-0.23-0.42l-0.38-0.31c-2.54-2.02-4.64-4.61-6.75-7.31l-0.45-0.44
			c-2.61-2.01-4.72-4.18-6.46-6.64l-0.43-0.47c-3.09-2.58-5.55-4.87-7.45-7.65l-0.47-0.67l-0.76-0.26c-1.01-0.36-2.28-0.5-3.5,0.22
			l-1.29-1.51l0.89,1.78c-0.51,0.39-1,0.96-1.46,1.73l-5.05,4.75c-4.48,4.21-9.12,8.57-13.73,12.77c-0.49,0.44-0.88,0.9-1.16,1.36
			l-5.08,1.09l4.47,1.65C623.52,325.64,623.97,326.42,624.49,327.07z M650.89,330.46c-0.23,0-0.44-0.02-0.68,0
			c0.03-0.24,0.03-0.45,0.04-0.68C650.45,330.02,650.66,330.25,650.89,330.46z M661.05,347.77c-0.48,0.36-0.96,0.73-1.44,1.09
			l-0.02-0.47c-0.15-3.03-0.34-6.8-0.64-10.4c-0.07-0.88-0.06-1.39-0.03-1.66c0.2-0.01,0.56,0,1.27,0.13
			c3.52,0.6,7.21,0.81,10.18,0.98l0.13,0.01c0.25,0.02,0.51,0.03,0.76,0.05c-0.67,0.59-1.3,1.26-1.81,2.06
			c-2.7,2.29-5.51,4.78-7.82,7.77L661.05,347.77z M654.25,326.74c-1.13-1.15-1.57-3.86-2.34-8.77l-0.13-0.84
			c-0.16-1.03-0.21-2.18-0.26-3.29c-0.05-1.16-0.1-2.4-0.29-3.66c0.96,0.91,2.04,1.87,3.3,2.91c1.92,2.65,4.28,5.08,7.04,7.24
			c2.03,2.58,4.23,5.28,6.94,7.54c0.19,0.37,0.41,0.69,0.67,0.97c0.74,0.78,1.59,1.51,2.47,2.25c0.16,0.13,0.32,0.27,0.48,0.41
			c-2.45-0.77-4.88-1.24-7.26-1.69l-1.45-0.28C658.17,328.48,655.38,327.88,654.25,326.74z M645.01,321.79
			c-0.2,0.04-0.62,0.08-1.41,0.03c-1.26-0.08-2.54-0.25-3.89-0.43l-0.38-0.05c-2.09-0.29-4.46-0.61-6.92-0.61
			c3.79-3.5,7.55-7.04,10.85-10.15l1-0.94l0.01,0.27c0.16,3.58,0.33,7.09,0.71,10.58C645.06,321.2,645.04,321.6,645.01,321.79z
			 M638.66,328.09c1.67,0.12,3.06,0.22,4.48,0.41c0.63,0.09,1.77,0.24,2.17,0.43c0.02,0.13,0.04,0.42-0.04,0.94
			c-0.16,1.09-0.21,3.14,1.17,4.54c0.63,0.63,1.74,1.33,3.52,1.09c1.47-0.2,1.83,0.06,1.83,0.06c0.32,0.34,0.35,2.17,0.37,3.05
			l0.01,0.53c0.06,2.39,0.27,4.79,0.47,7.19c0.08,0.84,0.15,1.72,0.22,2.61c-0.33-0.32-0.66-0.64-0.99-0.96l-8.38-8.47
			c-2.79-3.42-5.39-6.04-8.19-8.23c-1.27-1.34-2.53-2.68-3.79-4.01C633.97,327.75,636.34,327.92,638.66,328.09z M671.98,325.89
			L671.98,325.89L671.98,325.89L671.98,325.89z"/>
		<path class="st0" d="M475.28,331.39c0.01,0.58,0.18,2.52,1.73,5.19c-0.21,0.06-0.42,0.12-0.64,0.18
			c-4.28,1.2-8.78,2.02-13.38,2.43l-0.89,0.08l-0.1,4.78l0.9,0.11c3.75,0.46,7.62,1.01,11.85,1.66c1.97,0.31,3.66,0.6,5.23,0.87
			l0.18,0.03c3.17,0.54,5.91,1.01,9.77,1.39l10.33,1.02l-0.27-2.99c-0.19-2.17-1.48-3.44-2.44-4.39c-0.36-0.36-0.82-0.8-0.88-1.05
			l-0.14-0.55l-0.39-0.5c-0.81-1-1.94-2.4-2.47-3.19c0.79-0.45,2.35-1.15,3.46-1.65l0.14-0.06c1.42-0.64,2.84-1.29,4.34-1.98
			c1.53-0.7,3.05-1.41,4.59-2.09c2.79-1.23,5.64-2.64,8.47-4.19l0.72-0.39l-1.39-4.38l-0.82,0.09c-12.9,1.49-22.48,2.89-28.46,4.17
			C478.39,327.3,475.19,328.51,475.28,331.39z M488.51,335.19c-0.55,2.27,0.88,4.07,3.48,7.28c0.12,0.31,0.25,0.59,0.41,0.85
			l-2-0.19c-3.09-0.3-5.46-0.67-7.96-1.09l-0.86-1.68l1.88-0.63l-0.3-2.04l0-0.11c-0.02-0.31-0.08-1.04-0.61-1.7
			c-1.24-1.57-1.81-2.86-2.08-3.68c1.55-0.63,5.87-1.81,17.95-3.52c-1.08,0.5-2.17,1-3.31,1.51
			C491.2,331.94,489.05,332.91,488.51,335.19z M481.68,341.9c-0.24-0.04-0.48-0.08-0.73-0.12l-0.14-0.02
			c-0.76-0.13-1.55-0.27-2.39-0.41c0.77-0.22,1.43-0.42,2.02-0.61L481.68,341.9z"/>
		<path class="st0" d="M455.57,319.83c4.91-3.18,8.46-5.32,10.14-6.32c1.65-1,3.09-1.83,4.5-2.66c2.85-1.66,5.32-3.08,8.67-5.39
			c1.96-1.34,3.93-2.69,5.99-4.11l2.47-1.7l-2.12-2.12c-1.52-1.54-3.33-1.68-4.69-1.79c-0.51-0.04-1.14-0.09-1.33-0.23l-0.46-0.34
			l-0.71-0.14c-1.24-0.25-2.98-0.59-3.88-0.85c0.32-0.87,1.1-2.47,1.65-3.62c0.66-1.38,1.31-2.76,1.96-4.15l0.04-0.1
			c0.72-1.54,1.45-3.08,2.2-4.62c1.36-2.78,2.64-5.69,3.8-8.66l0.3-0.77l-3.88-2.46l-0.57,0.6c-8.96,9.48-15.39,16.71-19.12,21.49
			c-3.99,5.11-5.66,8.09-3.72,10.23c0.27,0.31,1.67,1.75,4.65,2.85c-0.02,0.02-0.03,0.05-0.05,0.07l-0.32,0.48
			c-2.51,3.68-5.43,7.2-8.68,10.45l-0.64,0.64l3.01,3.72L455.57,319.83z M469.44,296.51c1.05,2.09,3.29,2.55,7.33,3.33
			c0.29,0.16,0.58,0.29,0.86,0.4c-0.27,0.18-0.54,0.37-0.8,0.55l-0.85,0.58c-3.22,2.21-5.71,3.66-8.35,5.19
			c-0.61,0.35-1.24,0.72-1.91,1.11c0.6-0.89,1.15-1.75,1.71-2.68l1.1-1.82l-1.56-1.33l-0.07-0.07c-0.19-0.2-0.69-0.73-1.57-0.92
			c-1.97-0.4-3.23-1.02-3.95-1.47c0.79-1.48,3.35-5.17,11.45-14.21c-0.5,1.06-1.01,2.13-1.53,3.21
			C469.42,292.26,468.38,294.4,469.44,296.51z"/>
		<path class="st0" d="M479.48,387.96v-0.57c0-1.32,0-3.16,0.08-4.13c0.89,0.14,2.52,0.58,3.69,0.89l0.17,0.05
			c1.5,0.4,3.01,0.78,4.52,1.16l0.35,0.09c1.54,0.39,3.09,0.78,4.62,1.2c1.54,0.42,4.78,1.26,9.22,2.08l0.81,0.15l1.67-4.28
			l-0.69-0.44c-10.95-6.96-19.28-11.89-24.74-14.68c-5.78-2.94-9.03-4.01-10.75-1.69c-0.25,0.33-1.4,1.99-1.91,5.1
			c-0.08-0.03-0.16-0.07-0.24-0.1l-0.38-0.16c-4.11-1.77-8.12-3.97-11.92-6.53l-0.75-0.5l-3.08,3.66l0.62,0.65
			c3.73,3.87,6.61,7.04,8.16,8.75c1.35,1.48,2.48,2.77,3.53,3.97c2.15,2.46,4.02,4.58,6.96,7.49c1.67,1.65,3.35,3.31,5.12,5.05
			l2.15,2.12l1.67-2.5c1.22-1.81,1.01-3.61,0.86-5c-0.05-0.48-0.11-1.09-0.02-1.29L479.48,387.96z M484.69,379.34
			c-4.16-1.11-6.45-1.72-8.33-0.29c-1.86,1.42-1.88,3.72-1.88,7.85c-0.1,0.31-0.17,0.62-0.22,0.92l-1.43-1.41
			c-2.74-2.71-4.61-4.84-6.58-7.1c-0.5-0.57-1.01-1.16-1.56-1.78c1.02,0.43,2,0.82,2.96,1.17l1.97,0.72l1.1-1.88
			c0.16-0.23,0.53-0.77,0.59-1.68c0.02-2.02,0.38-3.37,0.69-4.17c1.61,0.49,5.72,2.31,16.13,8.54
			C486.98,379.94,485.84,379.65,484.69,379.34z"/>
		<path class="st0" d="M650.75,585.23l3.23-2.52l1.05-0.91c0.86-0.75,1.74-1.49,2.66-2.24c7.31-5.93,7.52-7.49,1.95-15.19
			c-1.33-1.65-2.67-3.31-4.03-4.95c-2.93-3.57-6.58-8.01-9.79-12.38c-0.96-1.32-2.76-3.78-5.42-3.87c-2.59-0.1-4.46,2.09-5.06,2.8
			c-0.39,0.44-1.09,0.87-1.82,1.31c-0.45,0.27-0.9,0.54-1.42,0.91l-1.23,0.95c-4.57,4.18-9.05,7.72-13.75,10.85l-5.08,4.04
			l-0.1,0.09c-3.67,3.35-6.66,5.69-9.72,7.57l-0.18,0.11c-0.98,0.73-2.31,1.91-2.53,3.74c-0.25,2.12,1.21,3.87,1.7,4.44
			c3.28,3.94,6.45,8.12,9.52,12.17l0.12,0.16c1.26,1.67,2.53,3.34,3.81,5.01l0.39,0.5l0.56,0.25c0.23,0.1,0.48,0.31,0.79,1.1
			l0.16,0.4l0.28,0.33c0.89,1.02,1.67,1.9,2.41,2.62c-7.52-2.59-14.89-5.91-22.02-9.13c-2.59-1.17-5.19-2.33-7.79-3.47l-1.22-0.54
			l-1.11,0.71c-1.61,1.01-2.18,2.5-2.61,3.6c-0.12,0.32-0.24,0.65-0.41,0.93l-0.1,0.19c-1.06,2.47-2.05,4.83-2.94,7.01
			c-2.71,6.68-5.21,13.45-7.44,20.14l-0.39,1.19l-3.13,1.26l18.51,8.6l6.6,2.77c6.67,2.8,13.34,5.6,20.01,8.38
			c0.76,0.32,1.49,0.57,2.3,0.84l0.33,0.11c0.24,0.08,0.48,0.16,0.73,0.25l1.89,0.67l3.1-4.97l0.27-0.58
			c1.5-4.79,3.45-9.32,5.79-13.48l5.52-13.68v-0.48c0.01-3.86-3.09-4.7-4.5-5.08c-0.27-0.07-0.6-0.17-0.74-0.24
			c-1.98-1.03-4-1.98-5.89-2.84c1.62-0.22,3.36-1.37,6.15-3.52c1-0.77,2.05-1.52,3.08-2.25l0.45-0.31c0.23-0.16,0.46-0.33,0.69-0.49
			l0.09,0.08l0.64-0.6c0.01-0.01,0.03-0.03,0.04-0.04l0.54-0.4l-0.05-0.06c4-3.71,8.51-7,12.89-10.2l0.71-0.52l0.02,0.03l1.48-1.13
			L650.75,585.23z M645.72,567.36c-0.57,0-1.14,0.01-1.7,0.02l-0.82,0.01c-0.18,0-0.36,0.01-0.52,0.01c-1.9,0-2.29-0.25-2.29-0.25
			c-0.02-0.05-0.21-0.64,0.38-2.57c1.12-3.65,1.76-7.44,2.38-11.14c0.07-0.44,0.15-0.88,0.22-1.32c2.78,3.67,5.72,7.25,8.35,10.46
			l0.92,1.13c1.03,1.26,2.05,2.5,3,3.69c0.27,0.37,0.53,0.72,0.76,1.05C653.29,567.7,649.88,567.36,645.72,567.36z M632.89,576.28
			c0.33-0.22,0.64-0.46,0.92-0.71c-0.04,0.53-0.16,0.79-0.15,0.8c-0.05,0.02-0.28,0.04-0.73-0.08
			C632.91,576.29,632.9,576.28,632.89,576.28z M636.4,552.51l-0.3,1c-1.37,4.48-3.08,10.06-4.41,15.5c-0.76,3.1-1.45,3.69-4.44,3.62
			c-5.37-0.08-10.75,0.29-15.95,0.66l-0.35,0.02c-0.82,0.06-1.64,0.11-2.46,0.17c2.13-1.56,4.31-3.38,6.77-5.62l4.78-3.79
			c4.85-3.25,9.49-6.91,14.11-11.14l0.91-0.7c0.31-0.22,0.64-0.41,1.05-0.66c0.23-0.13,0.47-0.28,0.72-0.43
			C636.68,551.59,636.54,552.05,636.4,552.51z M609.7,580.65c3.6,0.07,7.68,0.16,11.73-0.16c0.9-0.07,1.4-0.02,1.65,0.03
			c0.01,0.3-0.02,0.94-0.27,2.25c-0.22,1.21-0.47,2.41-0.73,3.68c-0.65,3.18-1.32,6.44-1.51,9.83c-0.59-1.07-1.33-1.88-2.27-2.45
			c-1.16-1.51-2.32-3.03-3.47-4.55l-0.57-0.75c-1.98-2.6-4.01-5.27-6.09-7.9C608.68,580.63,609.19,580.64,609.7,580.65z
			 M631.14,594.29c-0.27,0.19-0.53,0.38-0.8,0.57l-0.08,0.06c-1.04,0.74-2.11,1.5-3.19,2.33c-0.23,0.17-0.44,0.34-0.65,0.5
			c1.57-5.62,2.71-11.01,3.47-14.78c0.32-1.62,0.64-1.91,0.65-1.92c0,0,0.07-0.04,0.29-0.04c0.25,0,0.57,0.06,0.86,0.11
			c2.59,0.67,4.23-0.21,4.97-0.79c1.4-1.08,2.15-2.87,2.16-5.16c0-0.46,0.05-0.7,0.09-0.81c0.15-0.05,0.56-0.13,1.55-0.1
			c4.42,0.1,8.86,0.08,13.17,0.06c0.86,0,1.72-0.01,2.57-0.01c-0.46,0.38-0.96,0.79-1.51,1.24l-0.19,0.15
			c-0.72,0.58-1.41,1.18-2.11,1.77l-1.57,1.36l-5.23,4.01c-4.33,3.16-9.24,6.74-13.56,10.79l-3.39-2.74L631.14,594.29z
			 M603.46,619.76c-0.35,0.21-0.59,0.3-0.73,0.34c-0.1-0.14-0.28-0.45-0.46-1c-0.02-0.06-0.04-0.11-0.06-0.17
			c0.26,0.14,0.52,0.27,0.8,0.39c0.25,0.11,0.5,0.2,0.75,0.27C603.66,619.65,603.56,619.7,603.46,619.76z M591.9,610.41
			c1.08,2.39,1.33,3.07,1.21,3.63c-0.16,0.73-0.89,1.5-2.11,2.24c-1.69,0.62-3.76,1.42-6.18,2.34c-1.49,0.38-3.21,0.74-5.13,1.07
			c1.87-5.4,3.9-10.77,6.02-15.98c0.6-1.49,1.22-2.98,1.86-4.47c0.52,1.62,1.09,3.24,1.69,4.84c1.01,2.66,1.89,4.65,2.54,6.1
			L591.9,610.41z M586.29,623.41c2.88-0.76,5.14-1.62,6.92-2.62l2.31-0.84c0.66-0.24,1.07-0.29,1.29-0.29c0.2,0,0.24,0.02,0.23,0.02
			c0.01,0.01,0.21,0.19,0.48,0.99c0.72,2.17,1.88,3.57,3.46,4.16c1.53,0.57,3.23,0.32,5.04-0.76c0.38-0.22,0.61-0.31,0.73-0.35
			c0.12,0.13,0.39,0.48,0.79,1.32c1.92,4.13,4.17,8.27,6.16,11.92c0.27,0.5,0.54,0.99,0.81,1.49c-5.78-2.42-11.57-4.84-17.36-7.27
			l-6.51-2.74l-7.88-3.66C584,624.29,585.18,623.83,586.29,623.41z M615.49,621.09c1.18-0.36,2.37-0.7,3.6-1.03
			c3.05-0.84,6.19-1.71,9.21-3.09l-3.08,7.71c-1.89,3.39-3.54,7-4.92,10.75c-0.09-0.2-0.17-0.4-0.26-0.6l-0.42-0.98
			c-1.57-3.66-3.19-7.44-5.21-10.98c-0.32-0.57-0.49-0.96-0.58-1.2C614.11,621.54,614.62,621.35,615.49,621.09z M613.18,613.69
			c-4.35,0.97-6.98,1.56-8.21,1.03c-1.93-0.83-2.86-2.67-4.4-5.73l-0.43-0.85c-1.81-3.54-3.85-7.14-6.11-10.73l1.17,0.52
			c7.22,3.25,14.69,6.62,22.31,9.24c1,0.46,2,0.92,3.01,1.38l0.3,0.14c1.75,0.8,3.55,1.62,5.3,2.49
			C622.26,611.78,618.12,612.58,613.18,613.69z"/>
		<path class="st0" d="M716.99,609.15l-10.79-2.99l-27.16-6.88c-0.74-0.16-1.47-0.32-2.21-0.47l-1.05-0.22
			c-3.84-0.8-7.8-1.63-11.37-3.16l-0.42-0.19l-0.47-0.02c-2.47-0.11-4.06,1.25-4.7,4c-0.59,2.52-1.32,5.09-2.02,7.57l-0.94,3.33
			l-0.04,0.17c-0.93,5.29-2.17,10.09-3.83,14.75l-0.32,1.64c-0.18,1.07-0.34,1.97-0.56,2.88c-2.04,8.83-1.32,10.24,7.11,12.66
			l1.53,0.46c1.4,0.42,2.81,0.84,4.34,1.31l26.62,6.58l7.84,4.31l-1.38-2.63l14.07,3.02l0.44-2.16l0.45,0.45l-0.39-0.77
			c0.2-0.88,0.37-1.75,0.56-2.66c0.5-2.5,1.02-5.09,2.08-7.41l0.09-0.19l0.11-0.48c0.77-4.94,2.05-10.05,3.93-15.67l0.06-0.2
			c0.24-1.1,0.46-2.19,0.68-3.3l0.04-0.21c0.5-2.47,0.97-4.81,1.77-7c0.25-0.68,1-2.73-0.05-4.47
			C720.07,609.62,718.31,609.34,716.99,609.15z M693.86,625.5c-0.18,0.34-0.33,0.7-0.43,1.09c-0.05,0.17-0.08,0.35-0.11,0.52
			c-0.53-0.35-1.07-0.6-1.63-0.76C692.41,626.07,693.13,625.79,693.86,625.5z M685.3,628.27c-0.35,0.25-0.6,0.36-0.74,0.41
			c-0.09-0.09-0.26-0.27-0.48-0.65C684.49,628.17,684.89,628.25,685.3,628.27z M680.48,623.59c0.04,0.05,0.07,0.11,0.11,0.16
			c-0.07-0.04-0.14-0.07-0.21-0.11L680.48,623.59z M707.84,614.7l-2.12,0.82c-6.02,2.33-12.25,4.75-18.37,7.19
			c-0.65,0.26-1.13,0.44-1.44,0.52c-1.19-2.96-3.22-4.87-5.19-6.71l-0.68,0.73l0.58-0.82c-0.93-0.87-1.81-1.7-2.54-2.59
			c-2.98-3.66-6.24-7.41-8.85-10.42c-0.43-0.5-0.87-1-1.3-1.49c2.37,0.65,4.71,1.13,6.86,1.58l0.12,0.02c1.02,0.21,2.04,0.42,3,0.64
			l15.8,3.95l11.21,2.9l7.24,2.01C710.73,613.58,709.29,614.14,707.84,614.7z M708.49,644.59c-0.49-0.76-0.98-1.54-1.47-2.32
			l-0.08-0.12c-1.59-2.51-3.24-5.11-4.97-7.73c-1.89-2.85-3.84-5.79-3.72-6.53c0.28-0.73,3.64-2.4,6.6-3.87
			c2.06-1.03,4.13-2.07,6.2-3.11l3.97-2c-0.23,1.06-0.44,2.08-0.62,3.03c-0.21,1.03-0.41,2.04-0.63,3.06
			c-1.89,5.69-3.21,10.92-4.02,15.99C709.26,642.08,708.86,643.24,708.49,644.59z M655.89,631.29c0.04-0.19,0.09-0.39,0.14-0.6
			c0.22-0.93,0.39-1.87,0.55-2.77l0.26-1.45c1.67-4.73,2.96-9.71,3.91-15.11l0.89-3.15c0.25-0.87,0.5-1.74,0.74-2.62l6.63,9.5
			c1.52,2.18,3.05,4.37,4.58,6.57L655.89,631.29z M661.15,635.93l0.78-0.35c4.37-1.97,9.31-4.21,13.94-6.75
			c1.54-0.85,2.13-0.73,2.23-0.7c0.12,0.04,0.54,0.25,1.17,1.54c0.71,1.44,1.91,3.42,4.17,3.94c1.65,0.37,3.42-0.18,5.27-1.64
			c0.87-0.69,1.38-0.83,1.56-0.8c0.06,0.01,0.66,0.15,1.77,1.82c2.58,3.85,5.48,7.54,8.28,11.1l0.28,0.36
			c1.09,1.38,2.18,2.76,3.25,4.15l-10.51-2.26l-0.66-0.36l-27.22-6.75c-1.77-0.55-3.52-1.08-5.28-1.6l-0.39-0.12
			c-0.03-0.01-0.06-0.02-0.08-0.02l-0.54-0.16l0,0.01c-0.22-0.06-0.44-0.12-0.65-0.18C659.4,636.73,660.28,636.33,661.15,635.93z"/>
		<path class="st0" d="M811.24,385.31l-0.1-0.24l-0.34-0.48c-3.82-4.32-7.01-9.17-10.5-14.61l-1.69-2.59l-0.22,0.22
			c-3.18-4.03-6.18-8.31-8.94-12.74l-0.46-0.74l-0.82-0.3c-2.89-1.03-4.79,0.68-5.82,1.61c-0.25,0.22-0.48,0.43-0.68,0.57
			c-3.44,2.36-6.88,4.75-10.32,7.14l-4.38,3.04l-5.19,3.86l0.12,1.38c0.2,2.41,1.57,3.95,2.7,5.22c0.66,0.75,1.23,1.39,1.37,2.02
			l0.12,0.5l6.13,8.5c0.76,1.04,1.53,2.08,2.31,3.11l0.63,0.85c1.98,2.62,4.44,5.89,6.48,9.12c1.07,1.68,2.4,3.46,4.32,4.2
			l0.82,4.52l1.97-4.25c1.32-0.24,2.63-0.99,3.99-2.27c1.14-0.83,2.27-1.64,3.41-2.46c0.65-0.47,1.3-0.94,1.96-1.41l1.62-1.17
			c0.97-0.71,1.93-1.42,2.93-2.16c1.9-1.4,3.79-2.8,5.69-4.16c0.12-0.09,0.26-0.17,0.38-0.25l0.16-0.1
			C809.83,390.66,812.69,388.92,811.24,385.31z M781.84,370.7l-0.01,0.85c0,0.16-0.01,0.29-0.01,0.41
			c-0.13-0.03-0.29-0.06-0.48-0.11c-3.15-0.81-6.28-1.5-9.76-2.25l-0.54-0.12l3.16-2.22c2.84-1.98,5.68-3.95,8.51-5.9
			C781.9,364.53,781.87,367.65,781.84,370.7z M780.98,379.35c-0.35,1.71-0.03,3.29,0.91,4.44c0.5,0.62,1.67,1.66,3.78,1.66
			c0.14,0,0.25,0.01,0.33,0.01c0.01,0.38-0.02,0.99-0.04,1.37c-0.08,1.33-0.26,2.7-0.45,4.08c-0.24,1.86-0.49,3.76-0.53,5.79
			c-1.93-2.92-4.06-5.75-5.82-8.07l-0.69-0.92c-0.74-0.99-1.48-1.98-2.2-2.97l-5.57-7.7c-0.21-0.68-0.52-1.28-0.87-1.81
			c2.93,1.19,6.14,2.15,9.7,2.91c1.29,0.28,1.52,0.48,1.54,0.49C781.1,378.74,781.01,379.2,780.98,379.35z M792.09,391.82l0.01-0.19
			c0.07-1.31,0.13-2.55,0.3-3.73c0.05-0.35,0.1-0.62,0.15-0.83c0.24,0.06,0.55,0.15,0.93,0.27c2.73,0.84,5.52,1.51,8.23,2.16
			l0.73,0.18c-0.79,0.58-1.58,1.16-2.36,1.74l-1.43,1.06c-0.63,0.47-1.26,0.94-1.89,1.4c-1.19,0.86-2.37,1.71-3.55,2.56
			c-0.56,0.4-1.12,0.8-1.68,1.21C791.91,395.64,792,393.71,792.09,391.82z M788.63,375.31c0.38-3.84,0.3-7.72,0.22-11.46l-0.01-0.38
			c0-0.12-0.01-0.25-0.01-0.37c2.35,3.42,4.82,6.7,7.37,9.79c2.28,3.55,4.54,7.02,7,10.3c-3.46-1.18-7.38-2.51-11.27-3.66
			C788.79,378.58,788.39,377.74,788.63,375.31z"/>
		<path class="st0" d="M594.12,443.77l-0.68,0.2l-0.48,0.53c-1.76,1.96-3.57,3.41-5.53,4.43l-0.66,0.35l-0.37,0.67
			c-0.49,0.9-1.45,1.58-2.55,2.37c-0.92,0.65-1.83,1.3-2.71,2.17l-0.47,0.47l-5.34,1.46l5.77,1.65l2.35,3.49l3.23,3.99
			c1.07,1.32,2.14,2.63,3.22,3.94c1.07,1.31,2.14,2.62,3.21,3.94l3.45,4.22c0.48,0.54,0.96,1.07,1.46,1.6
			c1.37,1.47,2.66,2.86,3.38,4.52l0.3,0.7l0.64,0.42c0.83,0.53,1.68,0.8,2.53,0.8c1.73,0,2.98-1.11,3.66-1.71l0.12-0.11
			c0.14-0.14,0.27-0.27,0.41-0.38c0.8-0.64,1.59-1.3,2.37-1.95l1.93-1.6c1.61-1.34,3.22-2.67,4.88-4.01
			c6.13-4.96,8.14-6.95,5.18-12.07l1.06,0.06l-4.13-4.5c-4.74-5.17-8.61-9.98-11.84-14.69l-0.25-0.35l-0.34-0.24
			c-1.09-0.79-1.88-2.05-2.74-3.39c-0.18-0.29-0.36-0.58-0.55-0.86l-0.92-1.41l-1.55,0.2c-0.65,0.08-1.25,0.25-1.79,0.46l-0.53-0.77
			l0.28,0.88c-1.53,0.68-2.64,1.78-3.58,2.72C595.68,442.8,594.94,443.53,594.12,443.77z M598.1,453.64
			c0.05,0.84,0.04,1.37,0.03,1.69c-0.29-0.03-0.74-0.1-1.41-0.27l-1.13-0.31c-1.7-0.46-3.57-0.98-5.63-1.18
			c0.13-0.17,0.27-0.35,0.39-0.54c2.09-1.18,4.02-2.73,5.87-4.71c0.7-0.28,1.32-0.66,1.86-1.06
			C597.97,449.49,597.97,451.6,598.1,453.64z M604.65,447.95c3.28,4.74,7.16,9.54,11.85,14.66c0.5,0.67,0.96,1.29,1.36,1.85
			c-3.19-1.26-6.58-2.25-10.28-3.03c-2.39-0.49-2.79-1-2.65-3.44C605.09,454.77,605.19,451.39,604.65,447.95z M593.32,460.97
			c3.71,0.2,4.69,0.38,4.85,3.74c0.14,1.48,1.48,2.49,2.64,2.58c1.52,0.13,1.83,0.5,1.83,0.5c0.24,0.31,0.03,1.77-0.11,2.66
			l-0.02,0.14c-0.11,0.75-0.22,1.52-0.24,2.31c-0.03,1.19-0.04,2.39-0.04,3.58c-0.19-0.21-0.38-0.41-0.57-0.61l-0.38-0.41
			c-0.32-0.35-0.64-0.69-0.92-1.01l-3.39-4.16c-2.08-2.54-4.16-5.09-6.24-7.64l-1.88-2.31C590.34,460.81,591.92,460.9,593.32,460.97
			z M608.99,469.88c-0.01-0.39-0.01-0.7-0.01-0.94c0.15,0.04,0.33,0.09,0.53,0.15c2.41,0.77,4.88,1.16,7.32,1.5
			c-0.43,0.35-0.9,0.73-1.39,1.13l-0.42,0.34c-1.78,1.44-3.56,2.91-5.32,4.37l-0.67,0.55C609.06,474.65,609.07,472.26,608.99,469.88
			z"/>
		<path class="st0" d="M574.81,442.15c5.14-3.04,10.1-5.55,15.14-7.67l0.12,0.14l0.74-0.48c0.02-0.01,0.03-0.02,0.05-0.03l0.54-0.22
			l-0.05-0.11c0.09-0.06,0.18-0.13,0.27-0.19l0.3,0.05l0.77-0.49c2.46-1.54,4.75-2.82,6.94-3.88l-0.5,1.78l6.6-4.54l14.35-7.18
			l0.29-0.32c0.31-0.33,0.62-0.47,1.09-0.49l0.69-0.03l0.58-0.38c3.26-2.17,7.05-4.12,11.66-6.02l0.34-0.18
			c1.19-0.78,1.92-1.75,2.15-2.9c0.34-1.71-0.54-3.02-1.12-3.89l-0.12-0.19c-0.09-0.14-0.17-0.25-0.22-0.36
			c-2.23-4.65-4.55-9.35-6.8-13.89l-0.08-0.16c-0.9-1.81-1.79-3.61-2.71-5.48c-1.22-2.32-2.46-4.65-3.7-6.96
			c-2.65-4.94-5.66-10.53-8.35-16.08c-1.22-2.5-2.75-4.03-4.67-4.67c-0.44-0.14-0.88-0.24-1.34-0.28l-0.12-0.23l0.04,0.22
			c-1.54-0.13-3.23,0.29-5.09,1.26c-5.35,2.66-10.71,5.33-16.13,8.04l-0.31,0.19c-1.8,1.35-3.19,2.04-4.63,2.31l-0.64,0.12
			l-0.5,0.41c-1.61,1.32-3.57,2.2-5.7,3.16c-0.71,0.31-1.4,0.64-2.12,0.98l-4.87,2.38c-3.4,1.66-6.79,3.32-10.18,4.99l-0.11,0.05
			c-1.94,1-3.87,2-5.82,3.01c-3.2,1.67-6.41,3.34-9.64,5c-7.62,3.92-8.15,5.4-4.74,13.21l0.09,0.2c5.07,9.12,9.99,18.89,15.07,29.92
			l9.33,17.71l2.4-2.12c2.93-2.58,6.71-4.08,10.42-5.56L574.81,442.15z M587.64,430.02c-5.05,2.14-10.04,4.67-15.22,7.74
			c-1.84,0.73-3.72,1.48-5.56,2.39c0.02-0.13,0.04-0.25,0.06-0.36c0.01-0.07,0.02-0.16,0.04-0.24c2.69-4.52,4.6-9.35,6.44-14.02
			l0.17-0.43c1.16-2.91,2.35-5.93,3.72-8.76l0.43-0.89c1.08-2.26,2.1-4.4,2.69-4.68c0.63-0.29,3.27,0.44,5.4,1.03
			c3.92,1.08,6.16,0.03,7.72-3.62c1.08-2.52,2.11-4.9,2.79-5.24c0.64-0.33,3.04,0.2,5.82,0.81c0.18,0.04,0.36,0.09,0.54,0.15
			c0.32,0.1,0.65,0.19,0.95,0.25l24.38,5.3c-2.75,1.31-5.24,2.68-7.54,4.16c-1.31,0.19-2.46,0.74-3.42,1.64l-8.37,4.2
			c-1.79,0.9-3.57,1.79-5.36,2.69l-0.62,0.4l-0.18,0.09c-3.8,1.38-7.6,3.28-11.95,5.96c-0.66,0.11-1.25,0.4-1.75,0.86
			c-0.12,0.09-0.24,0.17-0.36,0.25l-1.88-2.19L587.64,430.02z M582.87,405c3.29,0.66,5.44-0.4,6.94-3.43
			c1.56-3.15,3.17-6.38,4.81-9.65c-0.45,1.48-0.58,3.02,0.12,4.44c0.31,0.63,0.74,1.15,1.25,1.57c-3.24,0.31-4.61,2.55-7.07,8.27
			c-0.14,0.33-0.4,0.94-0.5,1.03c-0.09,0.02-0.4,0-1.29-0.24c-2.77-0.77-4.8-1.23-6.4-1.23c-1.45,0-2.56,0.37-3.55,1.22l0.74-1.92
			l-2.52-0.82c-1.23-0.4-2.47-0.77-3.72-1.12C575.31,403.66,579.16,404.27,582.87,405z M603.52,364.56
			c-1.47,2.4-3.13,5.13-4.58,7.91c-4.62,8.89-9.25,18.17-13.58,26.88c-0.47,0.96-0.48,0.96-1.49,0.75c-5.06-1-10.29-1.76-14.91-2.43
			c-1.46-0.21-2.92-0.42-4.37-0.64c-5.77-0.87-11.57-1.73-17.35-2.59l-3.9-0.57c0.31-0.16,0.63-0.32,0.95-0.48
			c3.22-1.65,6.43-3.32,9.65-4.99c1.84-0.96,3.68-1.92,5.53-2.87l15.31-7.51c0.64-0.31,1.29-0.6,1.98-0.91l0.15-0.07
			c2.08-0.94,4.22-1.9,6.19-3.41c2.47-0.6,4.43-1.87,5.88-2.94c5.17-2.58,10.34-5.16,15.54-7.74
			C604.17,363.49,603.84,364.02,603.52,364.56z M558.46,405.02l0.41,0.09c4.11,0.93,8.34,1.9,12.47,3.11
			c-0.52,1.33-1.03,2.67-1.54,4l-0.65,1.69c-2.81,7.31-5.72,14.86-8.68,22.23c-0.06,0.15-0.13,0.29-0.2,0.43l-3.43-6.51
			c-4.96-10.76-9.78-20.36-14.73-29.32C547.53,402.54,553.07,403.79,558.46,405.02z M610.06,368.06c0.16-0.37,0.35-0.77,0.51-1.22
			c2.32,4.63,4.76,9.19,7.13,13.62l1.23,2.3c0.82,1.53,1.64,3.06,2.42,4.56l0.22,0.44c0.82,1.66,1.64,3.33,2.46,4.99
			c1.47,2.96,3.1,6.26,4.74,9.62c-0.47-0.17-0.91-0.27-1.27-0.36l-0.55-0.15c-1.27-0.36-2.54-0.73-3.81-1.1l-2.12-0.61
			c-6.38-1.85-12.98-3.76-19.63-5.27c-1.45-0.32-1.97-0.63-2.13-0.75c0.01-0.2,0.09-0.82,0.75-2.25c2.45-5.4,4.75-11.01,6.79-15.95
			l0.76-1.85c0.76-1.85,1.52-3.7,2.3-5.55C609.92,368.38,609.98,368.23,610.06,368.06z"/>
		<path class="st0" d="M800.75,439.8l0.48-1.88l-1.71-0.93c-4.12-2.24-7.95-4.84-11.48-7.79l-34.27-23.67l-1.13,0.33
			c-3.38,0.97-4.86,3.55-6.06,5.64c-0.62,1.09-1.21,2.11-1.96,2.73l-0.16,0.13l-0.31,0.38c-1.23,1.77-2.46,3.52-3.69,5.28
			l-0.17,0.25c-1.3,1.84-2.59,3.68-3.88,5.53l-0.12,0.17l-0.2,0.43c-0.44,1.24-1.07,2.21-1.92,2.96l-0.3,0.27l-0.35,0.61
			c-0.09,0.15-0.18,0.3-0.26,0.46c-0.24,0.42-0.47,0.85-0.76,1.28c-5.16,7.83-4.95,9.25,2.36,15.26l0.29,0.19
			c0.37,0.21,0.75,0.41,1.12,0.62l-25.85,2.54l-0.21-16.04l-16.72-0.63l-0.19,0.02c-4.86,0.52-9.79,0.52-14.63,0l-0.25-0.03
			l-0.09,0.01l44.77-16.86c5.02-1.9,10.03-3.79,15.09-5.7l0.22-0.1c4.87-2.51,9.98-4.18,14.77-5.6l1.38-0.42l0.92-3.85l-0.56-1.26
			c-1.93-4.37-3.92-8.89-5.12-13.54l-8.81-22.75c-1.91-4.94-3.83-9.87-5.76-14.8c-3.36-8.57-4.59-9.23-13.28-7.14l-0.23,0.06
			l-0.47,0.23c-3.41,2.07-7.23,3.21-11.31,4.43l-0.54,0.18c-5.78,2.53-11.01,4.74-16.5,6.07l-0.2,0.05l-0.43,0.2
			c-3.71,2.09-7.89,3.51-11.93,4.89l-0.15,0.05c-1.17,0.39-2.33,0.79-3.55,1.22c-4.69,1.78-9.4,3.57-14.11,5.38
			c-0.67,0.26-1.34,0.52-2.01,0.79l-2.27,0.89c-1.8,0.71-3.6,1.41-5.41,2.13c-0.9,0.36-1.92,0.65-3.06,0.98
			c-2.84,0.81-6.06,1.72-7.8,4.19c-2.03,2.91-0.46,5.92,0.79,8.34c0.58,1.11,1.23,2.37,1.34,3.34l0.08,0.68l0.41,0.54
			c0.79,1.05,1.23,2.36,1.46,4.4l0.07,0.54l0.28,0.46c1.46,2.41,2.37,5.09,3.33,7.93l0.07,0.2c0.33,0.97,0.66,1.95,1.02,2.92
			l5.25,14.18l0.86,1.97c1.58,3.59,3.08,7,4.01,10.6l-0.75,0.51l1.33,2.06c0.41,0.65,0.84,1.3,1.26,1.94
			c-4.71,0.2-9.44-0.03-14.24-0.33l-0.1,0l-0.13,0c-0.94,0.03-1.88,0.08-2.82,0.13l-0.13,0.01c-1.98,0.11-3.85,0.21-5.68,0.06
			c-0.84-0.07-3.41-0.29-5.15,1.32c-1.55,1.44-1.73,3.6-1.71,5.32c0.1,8.31,0.07,16.77,0.03,24.96l-0.01,1.29
			c-0.02,3.31-0.03,6.62-0.04,9.94v0.44l0.15,0.42c0.13,0.35,0.06,1.02-0.01,1.72c-0.16,1.65-0.43,4.41,2.14,6.46l0.84,0.66
			c0.14,0.52,0.37,0.99,0.7,1.41c1.25,1.62,3.3,1.81,4.74,1.81c0.12,0,0.24,0,0.3-0.01c3.42-0.05,6.89-0.06,10.28-0.07l1.43,0
			l-0.15,0.28c-0.78,1.78-2.38,3.08-4.14,4.51l-0.25,0.2c-0.65,0.53-1.32,1.08-2.03,1.73c-0.47,0.47-0.94,0.94-1.41,1.42l-0.17,0.17
			c-2.21,2.26-4.31,4.4-6.76,6.05l-0.19,0.12l-0.38,0.38c-1.36,1.67-2.73,3.24-4.49,4.15l-1.17,0.6l-0.56,4.77l1.2,0.87
			c2,1.43,3.59,3.37,5.29,5.45l0.1,0.12c0.52,0.63,1.04,1.26,1.63,1.95l6.7,7.21c1.04,1.12,2.07,2.24,3.1,3.37l4.15,4.51l0.12,0.11
			c3.31,2.95,6.27,6.17,8.78,9.58l0.28,0.38l0.4,0.25c1.39,0.87,2.45,2.22,3.56,3.65c0.21,0.28,0.43,0.55,0.67,0.85l0.09,0.11
			c2.78,3,5.57,5.99,8.36,8.98l0.11,0.11c7.96,8.54,16.2,17.37,24.17,26.17c1.31,1.45,2.96,2.93,5.18,2.93l1.02-0.01v-0.11
			c1.24-0.27,2.4-1.03,3.52-2.28l7.08-6.69c1.02-1.02,2.05-2.05,3.08-3.07c0.41-0.41,0.82-0.82,1.23-1.22
			c10.05,10.36,20.1,20.73,30.25,31.2c1.03,0.94,2.09,1.41,3.16,1.41c1.81,0,3.09-1.34,3.77-2.04c0.15-0.16,0.29-0.31,0.44-0.45
			l10.85-9.98l0.12-0.12c4.78-5.26,9.79-10.17,14.87-14.58l0.89-0.73c0.32-0.25,0.62-0.51,0.95-0.79l0.16-0.14
			c1.09-1.11,2.31-2.64,2.15-4.62c-0.11-1.38-0.89-2.64-2.21-3.6c-3.08-2.53-5.73-5.6-8.14-8.54l-0.14-0.17l-0.39-0.31
			c-2.41-1.64-4.27-3.93-6.26-6.37c-0.58-0.71-1.16-1.42-1.81-2.17l-11.85-11.91c1.07-0.69,2.26-1.68,2.6-3.34
			c0.29-1.49-0.2-3.03-1.49-4.73l-0.14-0.18l-0.4-0.33c-1.57-1.11-2.73-2.34-3.55-3.78l-0.11-0.19l-0.34-0.37
			c-2.55-2.42-5.4-5.22-8.13-8.34l21.89-1.61l0.14-0.02c4.4-0.72,9.53-1.46,14.58-1.29l17.55-2.15l-0.46-12.16l-0.44-0.42
			c0.01-0.05,0.02-0.11,0.03-0.18l0.07-0.34l-4.08-43.27c-0.17-1.23-0.25-2.49-0.31-3.67c-0.12-2.18-0.26-4.62-1-7.03
			c0.55-1.22,1.41-2.38,2.34-3.63C798.55,444.48,800.06,442.49,800.75,439.8z M795.12,505.79c-0.47-0.41-0.95-0.72-1.3-0.95
			c-0.17-0.11-0.35-0.22-0.51-0.34l-3.81-2.88c-7.58-5.72-16.17-12.21-24.59-18.3c-0.75-0.54-1.12-0.89-1.3-1.08
			c0.13-0.18,0.39-0.48,0.88-0.91c2.42-2.15,4.67-4.46,6.84-6.69l1.4-1.43c0.85,0.41,1.68,0.62,2.5,0.62c0.18,0,0.45-0.01,0.65-0.06
			c0.01,0,0.02,0,0.03,0c2.26-0.3,3.82-2.08,5.05-3.77c1.59-2.2,3.04-4.43,4.63-6.9l0.15-0.24c1.56-2.41,3.17-4.89,4.91-7.23
			c0.04,0.57,0.07,1.15,0.11,1.72l0.02,0.37c0.07,1.21,0.15,2.47,0.32,3.61l4,42.46C795.03,504.19,794.93,504.95,795.12,505.79z
			 M754.7,539.79l-0.97-0.98c-2.07-2.07-4.13-4.14-6.19-6.22c-0.07-0.07-0.14-0.14-0.21-0.21c-0.75-0.76-1.42-1.43-2.05-1.96
			c-0.01-0.01-0.02-0.02-0.03-0.03c-0.21-0.18-0.43-0.34-0.64-0.49c-0.04-0.03-0.08-0.05-0.12-0.08c-0.18-0.12-0.36-0.23-0.54-0.33
			c-0.07-0.04-0.14-0.06-0.2-0.1c-0.15-0.07-0.31-0.14-0.46-0.19c-0.09-0.03-0.19-0.05-0.28-0.08c-0.14-0.04-0.27-0.07-0.41-0.09
			c-0.11-0.02-0.22-0.02-0.32-0.03c-0.09-0.01-0.17-0.02-0.26-0.02c-0.06,0-0.15,0-0.25,0.01c-0.02,0-0.03,0-0.05,0
			c-0.35,0.03-0.66,0.11-0.97,0.22c-0.15,0.05-0.3,0.11-0.44,0.18c-0.06,0.03-0.11,0.06-0.17,0.09c-0.17,0.09-0.33,0.19-0.5,0.31
			c-0.03,0.02-0.06,0.05-0.09,0.07c-0.82,0.62-1.58,1.55-2.45,2.75c-7.35-1.08-14.71-2.68-21.83-4.23
			c-5.54-1.21-11.26-2.46-17.04-3.47c-0.37-0.07-0.49-0.11-0.48-0.08c-0.09-0.15-0.18-0.83-0.21-1.06
			c-1.27-9.79-2.71-20.07-3.87-28.33l-0.81-5.8l1.79-0.04c3.17-0.08,6.44-0.16,9.61-0.01c0.47,0.02,1.02,0.01,1.6-0.06
			c0.14-0.02,0.29-0.05,0.44-0.07c0.05-0.01,0.09-0.01,0.14-0.02c0.15-0.03,0.29-0.07,0.44-0.12c0.05-0.02,0.1-0.03,0.16-0.04
			c0.13-0.04,0.26-0.1,0.39-0.15c0.07-0.03,0.14-0.06,0.21-0.09c0.12-0.06,0.23-0.12,0.34-0.19c0.08-0.04,0.15-0.09,0.22-0.13
			c0.12-0.08,0.23-0.17,0.34-0.26c0.04-0.04,0.09-0.06,0.14-0.1l9.93,10.4l0.22,0.23l1.62,1.7l0.01-0.01l1.02,1.05
			c1.04,1.06,2.04,2.19,3.02,3.33c0.08,0.1,0.17,0.2,0.26,0.3c0.42,0.49,0.82,0.98,1.23,1.48c0.12,0.15,0.25,0.3,0.37,0.45
			c0.2,0.25,0.4,0.49,0.6,0.73c0.35,0.43,0.7,0.86,1.04,1.28l0.07,0.08c2.17,2.67,4.38,5.39,6.86,7.92
			c0.06,0.06,0.11,0.12,0.17,0.18c0.39,0.4,0.79,0.78,1.2,1.17c0.13,0.13,0.26,0.26,0.4,0.39c0.35,0.33,0.72,0.64,1.08,0.96
			c0.2,0.18,0.4,0.36,0.61,0.53c0.31,0.26,0.64,0.52,0.97,0.77c0.23,0.18,0.46,0.37,0.69,0.55c3.64,4.68,7.69,8.72,11.19,12.05
			c1.11,1.83,2.57,3.39,4.46,4.78c0.1,0.15,0.17,0.27,0.23,0.37c-0.28,0.19-0.69,0.44-0.88,0.54
			C754.92,539.66,754.81,539.72,754.7,539.79z M758.24,579.8c-0.08-0.64-0.09-1.05-0.08-1.29c0.29-0.01,0.67,0.01,1.08,0.09
			c5.07,0.75,10.33,1.2,14.96,1.6c1.87,0.16,3.74,0.33,5.63,0.51c-4.62,4.14-9.11,8.59-13.32,13.23l-7.62,7.02
			c0-1.34,0-2.68,0.01-3.98C758.94,591.65,758.98,585.63,758.24,579.8z M710.58,578.34l-0.01-0.44c-0.08-4.39-0.16-8.4-0.22-12.13
			c0.05,0.08,0.1,0.15,0.14,0.23c0.09,0.15,0.19,0.31,0.29,0.45c0.12,0.19,0.25,0.37,0.38,0.55c0.08,0.11,0.16,0.22,0.24,0.32
			c0.16,0.2,0.31,0.4,0.48,0.59c0.07,0.08,0.13,0.16,0.2,0.23c0.18,0.21,0.37,0.41,0.56,0.61c0.05,0.06,0.1,0.11,0.16,0.17
			c0.21,0.21,0.42,0.42,0.63,0.62c0.04,0.04,0.08,0.08,0.12,0.11c0.23,0.22,0.46,0.43,0.7,0.64c0.02,0.02,0.05,0.05,0.07,0.07
			c0.52,0.46,1.05,0.9,1.57,1.34l0.09,0.07c0.73,0.62,1.43,1.21,2.08,1.83c0.03,0.03,0.06,0.06,0.09,0.09l-4.38,4.37l-3.34,3.16
			C710.62,580.17,710.6,579.15,710.58,578.34z M637.82,476.55c0.01-3.18,0.02-6.37,0.04-9.56c0.03-6.82,0.07-14.43,0.02-21.9
			c0.99,1.38,2.08,2.71,3.64,3.6c3.28,1.85,6.07,4.28,9.08,6.92c1.97,1.73,4.01,3.52,6.24,5.14c0.35,0.25,0.59,0.44,0.75,0.59
			c-0.15,0.16-0.36,0.37-0.68,0.65c-5.23,4.6-10.4,9.41-15.68,14.35c-1.08,1.01-2.16,2.01-3.23,3.02
			C638.07,478.54,638.09,477.56,637.82,476.55z M759.34,436.23c-0.31-0.18-0.65-0.34-1.01-0.46c0.04-0.05,0.08-0.11,0.12-0.16
			c0.17-0.25,0.31-0.51,0.42-0.78C759.03,435.3,759.19,435.77,759.34,436.23z M769.66,443.48c0.09,0,0.19-0.01,0.28-0.01
			c-0.01,0.01-0.02,0.03-0.03,0.04c-0.03,0.04-0.05,0.08-0.08,0.12C769.77,443.57,769.72,443.53,769.66,443.48z M762.29,442.61
			c-0.15-0.11-0.33-0.5-0.4-1.25c0.51,0.55,1.09,0.98,1.74,1.32C762.83,442.81,762.42,442.71,762.29,442.61z M744.52,563.35
			l0.21,1.51c-0.25-0.29-0.54-0.55-0.86-0.78c0.06-0.05,0.12-0.1,0.17-0.15C744.23,563.74,744.39,563.55,744.52,563.35z
			 M745.96,572.45c-0.02-0.02-0.38-0.43-0.07-2.21c0.01-0.09,0.03-0.18,0.04-0.27c0.56,1.07,1.41,2.01,2.77,2.68
			c-0.13,0-0.26,0.01-0.39,0.01c-0.14,0-0.28,0.01-0.52,0.01C746.7,572.78,746.1,572.6,745.96,572.45z M738.94,538.45
			c-0.05,0.84-0.02,1.63,0.02,2.33l0.03,0.59c0.28,6.25,0.63,12.47,1.05,18.49c-3.34-0.32-6.73-0.53-10.01-0.73l-0.88-0.05
			c-1.08-0.06-2.16-0.13-3.24-0.2c-0.48-0.03-0.96-0.07-1.45-0.11l-0.8-0.07c-1.51-0.13-3.21-0.28-5.01-0.28c-0.16,0-0.32,0-0.47,0
			l10.99-10.57L738.94,538.45z M689.9,524.22c-0.02-4.87-1.97-6.99-5.12-7.98c1.15-0.02,2.29-0.27,3.18-1.13
			c1.28-1.23,1.31-2.87,1.21-4.6c-0.28-5.2-0.47-10.53-0.63-15.35l0.14,1c1.22,8.72,2.61,18.6,3.87,28.29
			c0.22,1.64,0.63,4.68,4.78,5.4c5.65,0.99,11.34,2.23,16.84,3.42c4.91,1.07,9.92,2.16,15.01,3.1l-3.55-0.44
			c-5.26-0.66-10.52-1.31-15.78-1.96c-1.84-0.23-3.25,0.16-4.17,1.16c-0.53,0.56-0.79,1.19-0.91,1.81
			c-0.76-2.35-2.55-4.17-6.86-4.49c-3.23-0.24-6.56-0.49-7.28-1.22C689.93,530.51,689.91,527.16,689.9,524.22z M755.44,574.14
			c-0.32,0.18-0.62,0.4-0.9,0.68c-0.12,0.12-0.24,0.25-0.34,0.38c-0.26-0.37-0.56-0.71-0.89-1c-0.21-0.19-0.43-0.36-0.66-0.51
			C753.57,573.83,754.51,573.98,755.44,574.14z M745.33,488.38c1.37,0,2.67-0.55,3.85-1.63c5.01-4.49,10.04-8.96,15.07-13.43
			l3.9-3.47c0.2,0.09,0.39,0.2,0.57,0.32c-0.05,0.05-0.09,0.09-0.14,0.14l-0.99,1.01c-2.07,2.12-4.21,4.31-6.41,6.27
			c-1.19,1.05-2.77,2.69-2.67,4.9c0.06,1.1,0.51,2.02,1.16,2.83c-0.88-0.33-1.79-0.55-2.72-0.62c-3.58-0.25-6.03,2.9-8.03,5.47
			c-0.75,0.96-1.46,1.87-2.15,2.54c-0.1,0.09-0.32,0.31-0.47,0.43c-0.15-0.09-0.35-0.25-0.44-0.32c-0.66-0.49-1.36-1.09-2.1-1.73
			l-0.08-0.07c-2.74-2.35-5.84-5.02-9.09-4.53c-0.84,0.13-1.62,0.43-2.36,0.83c0.28-0.62,0.43-1.3,0.36-2.06
			c-0.18-1.85-1.61-3.02-2.68-3.74c-4.42-2.95-8.89-6.01-13.21-8.97l-0.48-0.33l2.77,1.62c7.49,4.38,15.23,8.91,22.79,13.39
			C742.6,487.74,743.85,488.38,745.33,488.38z M727.01,486.08c-2.1,2.12-4.1,4.37-6.05,6.56l-0.63,0.71l-9.97-10.45l0.35-8.35
			l2.49,1.71c4.55,3.12,9.25,6.35,13.92,9.46c0.05,0.03,0.1,0.07,0.14,0.1C727.19,485.9,727.11,485.98,727.01,486.08z
			 M662.54,459.72c1.21,0.89,2.42,1.78,3.62,2.67c-0.5-0.2-1.02-0.32-1.56-0.37c-0.17-0.01-0.36-0.02-0.53-0.02
			c-0.44,0-0.88,0.05-1.33,0.15c0.08-0.34,0.11-0.7,0.1-1.07C662.82,460.59,662.71,460.14,662.54,459.72z M681.44,461.76
			c0,0.22,0.01,0.43,0.04,0.65c-0.84-0.3-1.75-0.46-2.72-0.36c-0.6,0.06-1.17,0.22-1.73,0.46c2-1.44,4-2.89,6.01-4.33
			C681.98,459.33,681.46,460.51,681.44,461.76z M673.57,465.48c-0.85,1.12-1.52,1.51-1.84,1.51c-0.36,0-1.06-0.43-1.98-1.63
			c-0.33-0.43-0.66-0.81-0.99-1.16c2.44,1.31,4.37,0.84,6.06-0.16C674.4,464.46,673.98,464.94,673.57,465.48z M710.02,540.07
			c0-0.35-0.05-0.7-0.11-1.06c3.17,0.39,6.34,0.78,9.51,1.17l9.29,1.16l-17.6,16.92l-0.14,0.13c-0.07,0.07-0.14,0.14-0.21,0.21
			l-0.02-0.02l0.01,0.03c-0.18,0.17-0.35,0.35-0.51,0.53C710.14,552.15,710.07,546.08,710.02,540.07z M752.24,424.11l0.04,0.13
			c0.25,0.91,0.51,1.82,0.75,2.72l0.07,0.29c0.5,1.9,1.24,4.71,1.17,5.54c-0.71,0.36-3.38,0.7-5.59,0.98l-0.72,0.09
			c-1.15,0.15-2.31,0.26-3.48,0.37c-2.6,0.24-5.47,0.51-8.3,1.27c0.12-0.18,0.24-0.37,0.37-0.56l0.16-0.24
			c0.3-0.46,0.57-0.93,0.84-1.41l0.1-0.19c0.05-0.1,0.11-0.2,0.17-0.3c1.25-1.18,2.2-2.62,2.9-4.4l7.38-10.54
			c0.93-0.84,1.62-1.81,2.21-2.78C750.57,418.27,751.42,421.23,752.24,424.11z M755.27,440.45c0.3-0.03,0.55-0.04,0.75-0.04
			c0.48,0,0.66,0.06,0.67,0.05c0.03,0.05,0.13,0.27,0.16,0.85c0.12,2.39,0.93,4.18,2.42,5.29c1.53,1.14,3.54,1.42,5.97,0.84
			c1.42-0.34,1.51-0.36,2.04,1.74c1.17,4.65,2.57,9.29,3.93,13.77l0.17,0.57c0.31,1.02,0.61,2.03,0.92,3.05
			c-0.99-0.77-2.16-1.45-3.57-1.85c-0.11-0.1-0.23-0.19-0.35-0.29c-0.6-0.5-1.2-1-1.81-1.49c-0.28-0.22-0.55-0.44-0.83-0.65
			c-0.47-0.37-0.94-0.75-1.42-1.11c-0.49-0.38-0.99-0.74-1.49-1.11c-0.26-0.19-0.52-0.39-0.79-0.58c-4.03-2.93-8.19-5.63-12.26-8.27
			l-0.23-0.15c-1.59-1.03-3.19-2.07-4.77-3.11c-1.72-1.99-3.83-3.13-5.89-4.23l-0.28-0.15c-0.27-0.14-0.54-0.29-0.8-0.44
			c-0.55-0.45-1.08-0.89-1.57-1.31C742.39,441.57,748.65,441.11,755.27,440.45z M742.45,452.45c1.51,1,3.03,1.98,4.55,2.97
			l0.22,0.14c4.14,2.68,8.37,5.43,12.42,8.41c0.07,0.05,0.13,0.1,0.2,0.15c1.32,0.97,2.62,1.97,3.89,2.99l-6.52,5.8
			c-3.8,3.38-7.59,6.76-11.38,10.14c-0.47,0.42-0.54,0.48-1.5-0.09c-8.82-5.23-17.8-10.48-26.5-15.56l-7.07-4.14l-0.08-2.67
			c-0.05-1.67-0.11-3.34-0.16-5.01L742.45,452.45z M705.39,451.75l0.02,1.65l0.34,10.89c-0.69,1.96-0.67,4,0.09,6.06l-0.31,7.52
			l-0.34-0.36l0.02,1.33c-0.12-0.09-0.25-0.2-0.35-0.27l-0.13-0.1c-0.14-0.1-0.27-0.2-0.38-0.31c-3.78-3.51-7.66-7-11.09-10.08
			c-1.85-1.66-3.7-3.33-5.59-5.04c-0.24-0.22-0.92-0.84-1.17-1.2c0.1-0.14,0.31-0.4,0.75-0.77c4.3-3.62,8.47-7.47,12.5-11.2
			c1.53-1.42,3.07-2.84,4.63-4.27c0.13-0.13,0.32-0.25,0.51-0.39l0.19-0.14c0.08-0.06,0.17-0.12,0.25-0.18l0.07,6.15l-0.02,0
			L705.39,451.75z M701.13,439.19c-1.91,1.36-3.83,2.72-5.74,4.07c-6.95,4.92-14.82,10.51-22.49,16.07
			c-1.28,0.93-1.28,0.93-2.46,0.04c-8.52-6.39-17.59-12.75-25.58-18.36l-2.38-1.67c-0.04-0.04-0.1-0.1-0.16-0.15l-0.02-0.02
			c1.13-0.02,2.24-0.08,3.34-0.13l0.12-0.01c0.87-0.05,1.75-0.1,2.53-0.12c6.91,0.43,13.69,0.74,20.71-0.16
			c3.27,0.74,6.49,0.44,9.34,0.17c5.08,0.52,10.23,0.52,15.29,0L701.13,439.19z M645.09,481.98l1.64-1.29
			c5.01-3.94,10.2-8.01,15.05-12.33c1.12-1,1.91-1.35,2.31-1.35c0.02,0,0.04,0,0.06,0c0.18,0.02,0.7,0.18,1.62,1.39
			c1.82,2.39,3.82,3.6,5.96,3.6c2.11,0,4.07-1.18,5.83-3.5c0.94-1.26,1.52-1.44,1.72-1.47c0.82-0.07,2.48,1.36,3.03,1.83
			c4.71,4.08,9.41,7.92,14.39,11.99l4.5,3.68c-2.42-0.02-4.82,0.04-7.01,0.1c-1.42,0.04-2.84,0.07-4.22,0.09
			c-1.4,0-2.81,0-4.19,0.01c-8.5,0-16.99,0-25.55-0.01l-8.37,0.06c-3.39,0.01-6.85,0.02-10.28,0.07c-0.05,0-0.09,0-0.13,0
			C642.66,483.89,643.88,482.93,645.09,481.98z M661.62,489.77c7.26,0,14.51,0,21.76,0.01l0.15,4.36
			c0.16,4.85,0.36,10.89,0.67,16.66c0.01,0.16,0.02,0.3,0.02,0.43c-0.12-0.01-0.25-0.02-0.39-0.04c-10-1.09-20.43-1.97-29.62-2.74
			l-9.67-0.83c-0.39-0.04-0.89-0.08-1.45-0.08c-0.24,0-0.49,0.01-0.74,0.03c2.41-1.79,4.47-3.89,6.53-5.98
			c0.51-0.52,1.01-1.04,1.45-1.48c0.59-0.54,1.21-1.05,1.96-1.66c1.9-1.53,4.05-3.26,5.36-5.93c0.29-0.24,0.72-0.47,1.22-0.74
			C659.72,491.32,660.76,490.75,661.62,489.77z M647.33,516.02l5.77,0.81c9.18,1.29,18.68,2.63,28,3.75
			c3.45,0.42,3.81,0.77,3.82,3.66c0.05,11.01,1.35,12.37,12.64,13.21c2.42,0.18,2.62,0.41,2.75,3c0.53,10.8,1.25,21.8,1.89,31.51
			c0.25,3.72,0.49,7.46,0.73,11.2c-7.4-8.13-14.87-16.17-23.13-25.02l-8.29-8.91c-0.21-0.27-0.42-0.53-0.55-0.66
			c-1.19-1.52-2.53-3.23-4.44-4.53c-2.66-3.54-5.74-6.88-9.08-9.86l-2.35-2.56c-1.59-1.74-3.19-3.48-4.8-5.22l-6.63-7.13
			c-0.54-0.64-1.06-1.27-1.59-1.92c-0.62-0.76-1.27-1.56-1.96-2.36C642.53,515.34,644.94,515.68,647.33,516.02z M723.46,572.17
			c-1.31-1.7-2.86-3.01-4.37-4.28c-1.05-0.88-2.06-1.73-2.94-2.68c0.6,0.1,1.15,0.12,1.61,0.13c0.23,0.01,0.46,0.02,0.65,0.04
			c2.03,0.23,4.06,0.47,6.09,0.71l1.42,0.17c4.35,0.51,8.84,1.03,13.27,1.47c1.5,0.15,1.78,0.47,1.78,0.47c0,0,0.17,0.28,0,1.24
			c-0.48,2.79-0.05,4.95,1.31,6.44c1.32,1.43,3.31,2.04,5.94,1.83c1.29-0.11,1.68,0.16,1.77,0.24c0.21,0.19,0.58,0.83,0.67,2.99
			c0.22,5.91,0.73,11.96,1.17,17.3l0.27,3.5C742.56,591.86,733.01,582.01,723.46,572.17z M775.76,572.89l-1.38-0.27
			c-7.2-1.42-14.65-2.89-22.04-4.02c-1.93-0.3-2.13-0.67-2.4-2.61l-0.44-3.17c-0.54-3.87-1.08-7.75-1.65-11.62
			c-0.54-3.69-1.1-7.37-1.66-11.05l-0.32-2.13c1.44,1.45,2.88,2.89,4.32,4.33l10.35,10.36l5.95,6c0.42,0.49,0.83,0.99,1.24,1.5
			l0.41,0.5c2.04,2.5,4.15,5.09,7.01,7.13c1.61,1.97,3.36,4.01,5.35,5.99C778.9,573.51,777.33,573.2,775.76,572.89z M742.56,517.48
			c-4.1-3.2-7.44-7.33-10.68-11.33c-1.58-1.94-3.34-4.12-5.2-6.18c0.46-0.51,0.92-0.99,1.38-1.45c0.91-0.88,1.76-1.88,2.58-2.86
			l-0.76-0.65l0.85,0.54c1.55-1.83,3.31-3.91,4.64-4.11c0.96-0.13,3.73,2.24,5.05,3.38c0.72,0.63,1.58,1.36,2.41,2
			c2.64,2,4.99,1.84,7.4-0.51c0.95-0.93,1.8-2.01,2.66-3.12c1.1-1.42,2.75-3.59,3.71-3.5c1.86,0.12,4.09,1.84,6.24,3.5
			c0.92,0.71,1.99,1.53,3.05,2.23c5.8,3.84,11.59,7.7,17.42,11.59l3.17,2.11c1.99,1.33,4,2.67,6,4l-9.17,1.14
			c-5.38-0.16-10.69,0.61-15.17,1.33L742.56,517.48z M789.88,448.66c-3.3,3.66-5.93,7.75-8.48,11.7l-0.17,0.26
			c-0.89,1.37-1.8,2.78-2.73,4.15c-0.2-0.91-0.39-1.82-0.58-2.73l-0.05-0.22c-1.01-4.73-2.05-9.62-3.36-14.39
			c-0.11-0.39-0.18-0.7-0.23-0.94c0.21-0.04,0.5-0.08,0.88-0.12c1.71-0.18,3.51-0.33,5.05-0.45l0.15-0.01
			c3.97-0.32,8.04-0.64,12.08-1.61C791.47,445.61,790.53,447,789.88,448.66z M779.64,438.33c-4.51,0-8.15,0.06-11.44,0.19
			c-2.45,0.1-2.95-0.27-3.76-2.75c-2.03-6.22-4.37-12.42-6.64-18.47c-0.5-1.31-0.99-2.62-1.48-3.94l25.65,17.75l3.06,2.06
			c2.24,1.87,4.62,3.62,7.1,5.23c-1.58-0.01-3.16-0.02-4.73-0.03C784.83,438.35,782.24,438.33,779.64,438.33z M709.8,379.05
			c-0.96,1.68-1.7,3.21-1.07,4.9c0.19,0.51,0.47,0.94,0.83,1.3c-1.68-0.09-3.74,0.52-5.18,3.56c-0.34,0.73-0.67,1.53-1,2.33
			c-0.79,1.91-1.76,4.28-2.85,4.87c-0.7,0.37-2.96-0.83-4.33-1.56l-0.24-0.13c-0.76-0.4-1.54-0.81-2.3-1.13
			c-1.19-0.51-2.22-0.72-3.12-0.72c-1.63,0-2.8,0.7-3.66,1.58c0.03-0.51-0.03-1.04-0.22-1.57c-0.75-2.13-3.09-2.91-4.63-3.43
			c-2.18-0.73-4.4-1.49-6.68-2.29c0.43,0.11,0.85,0.22,1.28,0.33c5.6,1.43,11.39,2.91,17.08,4.6c4.13,1.22,6.88,0.21,9.19-3.36
			c3.68-5.67,7.47-11.4,11.23-17.03C712.68,373.93,711.24,376.51,709.8,379.05z M672.57,428.78c0.15-0.35,0.31-0.71,0.47-0.98
			c5.04-8.65,10.89-18.74,16.54-28.89c0.58-1.05,0.79-1.43,1.19-1.43c0.23,0,0.51,0.12,0.96,0.31c0.64,0.27,1.36,0.65,2.15,1.07
			c2.67,1.43,5.99,3.2,9.04,1.54c2.67-1.43,3.91-4.45,5.1-7.38c0.27-0.67,0.58-1.44,0.9-2.1c0.08-0.16,0.31-0.65,0.33-0.71
			c0.09-0.01,0.36,0.03,1.13,0.3c7.34,2.59,14.82,5.07,22.48,7.61c2.72,0.9,5.44,1.8,8.14,2.7c0.3,0.11,0.61,0.22,0.92,0.34
			c1.13,0.44,2.66,1.01,4.4,0.86c0.21,0.14,0.43,0.24,0.65,0.31c-3.44,1.14-7.13,2.55-10.71,4.38c-3.09,1.17-6.19,2.33-9.28,3.5
			l-55.79,21.01C671.84,430.42,672.24,429.51,672.57,428.78z M745.02,394.26c-0.22-0.06-0.45-0.12-0.63-0.19l-1.68-0.68
			c-8.79-3.55-18.75-7.57-28.44-11.1c-0.17-0.06-0.32-0.12-0.45-0.17c0.08-0.16,0.19-0.35,0.32-0.57
			c3.61-6.34,7.11-12.87,10.5-19.19l0.16-0.3c1.66-3.1,3.33-6.21,5-9.29c0.06-0.11,0.12-0.21,0.19-0.32l0.14-0.23
			c0.17-0.28,0.38-0.63,0.58-1.03c1.25,3.18,2.49,6.37,3.72,9.55L745,387.99c0.64,2.45,1.45,4.8,2.43,7.28
			C746.55,394.66,745.6,394.42,745.02,394.26z M724.87,346.33c-0.58,0.82-1.13,1.62-1.65,2.41l-6.58,9.82
			c-6.43,9.57-12.21,18.21-17.95,27.05c-1.13,1.76-1.53,1.9-3.57,1.29c-5.47-1.63-11.07-3.06-16.49-4.45l-0.78-0.2
			c-2.28-0.58-4.54-1.16-6.82-1.76l-8.02-2.09c-4.56-1.19-9.13-2.38-13.77-3.59c0.59-0.19,1.22-0.37,1.84-0.55l0.1-0.03
			c1.16-0.33,2.38-0.69,3.53-1.14l5.65-2.22c1.07-0.42,2.15-0.84,3.21-1.26l0.78-0.31c3.69-1.42,7.39-2.83,11.09-4.23l2.95-1.12
			c1.14-0.41,2.27-0.8,3.42-1.18l0.17-0.06c4.14-1.41,8.42-2.87,12.45-5.09c5.75-1.43,11.24-3.75,16.84-6.19l0.13-0.04
			c4.06-1.21,8.25-2.46,12.12-4.74C724,346.54,724.45,346.43,724.87,346.33z M650.17,383.04l0.18,0.05c0.2,0.05,0.4,0.1,0.58,0.17
			c11.39,4.24,20.77,7.59,29.52,10.54c0.59,0.2,0.99,0.35,1.26,0.46c-0.1,0.19-0.24,0.44-0.45,0.77c-3.6,5.58-6.38,11.61-9.08,17.43
			l-0.13,0.29c-1.88,4.05-3.82,8.24-6.01,12.19c-0.05,0.1-0.11,0.2-0.17,0.3l-0.1,0.16c-0.16,0.27-0.36,0.59-0.55,0.96
			c-1.01-3.2-2.34-6.23-3.64-9.19l-0.81-1.86l-5.2-14.05c-0.37-0.99-0.7-1.98-1.04-2.98c-0.89-2.66-1.91-5.66-3.5-8.44
			c-0.21-1.56-0.66-3.76-1.99-5.77c-0.1-0.52-0.25-1.03-0.43-1.52C649.2,382.79,649.76,382.93,650.17,383.04z"/>
	</g>
</g>
</svg>
