
<svg xmlns="http://www.w3.org/2000/svg" 
	 viewBox="0 0 1080 1080" style="enable-background:new 0 0 1080 1080;" xml:space="preserve" stroke="#fff" fill="#FDB715">
<g>
	<path d="M561.53,769.09c-4.35,0-8.71,0-13.06,0c-5.64,0-11.27,0-16.91,0c-4.35,0-8.71,0-13.06,0c-5.64,0-11.27,0-16.91,0
		c-4.35,0-8.71,0-13.06,0c-5.64,0-11.27,0-16.91,0c-4.35,0-8.71,0-13.06,0c-5.64,0-11.27,0-16.91,0c-4.35,0-8.71,0-13.06,0
		c-5.35-0.38-10.85,0.51-15.93-1.99c-7.79-3.41-12.59-9.56-15.8-17.17c0.01-0.33-0.05-0.64-0.18-0.95c-0.07-2.35-0.13-4.71-0.2-7.06
		c0-5.61,0-11.22,0-16.82c0-4.38,0-8.76,0-13.14c0-5.6,0-11.21,0-16.81c0-4.38,0-8.76,0-13.14c0-5.6,0-11.21,0-16.81
		c0-4.38,0-8.76,0-13.14c0-5.6,0-11.21,0-16.81c0-4.38,0-8.76,0-13.14c0-5.6,0-11.21,0-16.81c0-4.38,0-8.76,0-13.14
		c0-5.6,0-11.21,0-16.81c0-4.38,0-8.76,0-13.14c0-5.6,0-11.21,0-16.81c0-4.38,0-8.76,0-13.14c0-5.6,0-11.21,0-16.81
		c0-4.38,0-8.76,0-13.14c0-5.6,0-11.21,0-16.81c0-4.38,0-8.76,0-13.14c0-5.6,0-11.21,0-16.81c0-4.38,0-8.76,0-13.14
		c-0.17-12.35,6.31-20.17,17.08-25.08c2.39-0.42,4.77-0.83,7.16-1.25c1.98-0.03,3.95-0.05,5.93-0.08c0.32,0.03,0.64,0.06,0.96,0.09
		c5,0,10,0,15,0c0.32-0.03,0.64-0.06,0.96-0.09c4.35,0,8.7,0,13.05,0c0.32,0.03,0.64,0.06,0.96,0.09c5,0,10,0,15,0
		c0.32-0.03,0.64-0.06,0.96-0.09c4.35,0,8.7,0,13.05,0c0.32,0.03,0.64,0.06,0.96,0.09c5,0,10,0,15,0c0.32-0.03,0.64-0.06,0.96-0.09
		c4.35,0,8.7,0,13.05,0c0.32,0.03,0.64,0.06,0.96,0.09c5,0,10,0,15,0c0.32-0.03,0.64-0.06,0.96-0.09c4.35,0,8.7,0,13.05,0
		c0.32,0.03,0.64,0.06,0.96,0.09c5,0,10,0,15,0c0.32-0.03,0.64-0.06,0.96-0.09c2.3,0,4.6,0,6.91-0.01c2.39,0.39,4.79,0.77,7.18,1.16
		c3.31,1.1,6.3,2.63,9.1,4.85c6.98,5.53,8.86,13.24,9.93,21.41c-1.02,4.65-0.22,9.33-0.24,13.99c0,0,0.08,0,0.08,0
		c-0.22,0.02-0.43,0.05-0.65,0.07c0.15,0.32,0.3,0.64,0.45,0.96c-1.73,2.87-0.49,5.87-0.39,8.81c0.2,14.37,0.4,28.75,0.6,43.12
		c-0.38,0.48-0.77,0.97-1.15,1.45c-6.26-0.11-12.52-0.21-18.79-0.32c0-3.04-0.01-6.08-0.01-9.12c0.07-9.77,0.22-19.55,0.16-29.32
		c-0.03-4.42,2.01-10.44-0.68-12.83c-2.92-2.6-8.84-0.76-13.45-0.62c-5.01,0-10.03,0-15.04,0c-4.98,0-9.96,0-14.94,0
		c-5.01,0-10.03,0-15.04,0c-4.98,0-9.96,0-14.94,0c-5.01,0-10.03,0-15.04,0c-4.98,0-9.96,0-14.94,0c-5.01,0-10.03,0-15.04,0
		c-4.98,0-9.96,0-14.94,0c-5.01,0-10.02,0-15.04,0c-12.38-0.64-12.38-0.64-11.78,11.78c0,5.01,0,10.03,0,15.04
		c0,4.97,0,9.94,0,14.91c0,5.01,0,10.03,0,15.04c0,4.97,0,9.94,0,14.91c0,5.01,0,10.03,0,15.04c0,4.97,0,9.94,0,14.91
		c0,5.01,0,10.03,0,15.04c0,4.97,0,9.94,0,14.91c0,5.02,0,10.03,0,15.05c0,4.97,0,9.94,0,14.91c0,5.01,0,10.03,0,15.04
		c0,4.97,0,9.94,0,14.91c0,5.02,0,10.03,0,15.05c0,4.97,0,9.94,0,14.91c0,5.01,0,10.03,0,15.04c0,1.65,0.01,3.3,0.01,4.95
		c-0.11,0.67,0.13,0.93,0.8,0.68c3.64-0.03,7.29-0.07,10.93-0.1c5.04,0,10.07,0,15.11,0c4.95,0,9.9,0,14.86,0
		c5.04,0,10.08,0,15.12,0c4.95,0,9.9,0,14.86,0c5.04,0,10.08,0,15.12,0c4.95,0,9.9,0,14.86,0c5.04,0,10.08,0,15.12,0
		c4.95,0,9.9,0,14.86,0c5.05,0,10.09,0,15.14,0c3.65,0.07,7.3,0.07,10.95,0.24c2.21,0.11,3.26-0.39,3.24-2.97
		c-0.16-22.58-0.18-45.15-0.24-67.73c0.65-0.48,1.3-0.96,1.95-1.44c4.68,0,9.36,0,14.04,0c1.33,0.43,3.04-0.18,3.93,1.44
		c-0.03,37.87-0.05,75.74-0.08,113.61c-1.06,3.66-1.62,7.48-3.47,10.89c-0.16,0.4-0.32,0.8-0.48,1.2
		c-4.06,4.92-8.83,8.89-14.92,11.07C572.27,769.78,566.84,768.51,561.53,769.09z M512.55,442.22c0.67,0,1.33,0,2,0
		c4.47,0.08,8.96,0.02,13.42,0.3c2.95,0.19,2.81-1.57,2.57-3.41c-0.23-1.8,1.3-4.53-2.58-4.52c-21.07,0.07-42.13,0.04-63.2,0.02
		c-1.92,0-2.9,0.33-3.07,2.71c-0.27,3.86,0.53,5.82,4.95,5.22c3.26-0.44,6.62-0.23,9.93-0.32c0.66,0,1.33,0,1.99,0
		c0.34,0,0.68,0,1.03,0c0.66,0,1.31,0,1.97,0c0.34,0,0.68,0,1.03,0c0.67,0,1.33,0,2,0c7.32,0,14.64,0,21.96,0c0.66,0,1.33,0,1.99,0
		c0.34,0,0.68,0,1.03,0c0.66,0,1.31,0,1.97,0C511.86,442.22,512.21,442.22,512.55,442.22z M547.63,441.51
		c3.47,4.86,6.34,5.13,10.93,1.04c2.56-3.2,1.66-6.19-0.98-8.62c-2.26-2.08-5.11-2.34-7.67-0.36
		C547.3,435.59,545.39,438.01,547.63,441.51z M466.54,740.93c1.69,0,3.38,0,5.07,0c5.64,0,11.27,0,16.91,0c4.35,0,8.71,0,13.06,0
		c5.64,0,11.27,0,16.91,0c2.68,0.03,5.35,0.06,8.03,0.1c0.72,0.06,0.89-0.35,0.82-0.96c0-4.69,0-9.38,0-14.08
		c0.66-2.84-0.02-4-3.37-3.96c-18.55,0.18-37.11,0.17-55.66,0c-3.29-0.03-4.15,1.03-3.45,3.96c0.03,4.68,0.06,9.37,0.09,14.05
		C465,741.18,465.71,741.17,466.54,740.93z"/>
	<path d="M607.43,467.36c-3.89,3.47-7.74,1.57-11.59-0.1c-0.1-2.95-1.34-5.95,0.39-8.81c0.06-0.34,0.13-0.69,0.19-1.03
		c0,0-0.08,0-0.08,0c2.85-0.77,5.39-3.15,8.7-1.37C609,458.18,609.86,462.01,607.43,467.36z"/>
	<path d="M514.49,258.68c-1.02,13.7-0.8,27.4-0.13,41.1c0.04,0.64,0.08,1.29,0.11,1.94c0.01,0.66,0.01,1.32,0.01,1.99v16.97
		c-0.42,4.33-0.42,8.65,0,12.98c-0.06,5.62-0.12,11.25-0.18,16.88c-1.1,0.98-1.24,2.8-2.89,3.29c-0.3,0.22-0.6,0.45-0.91,0.68
		c-0.7,0.11-1.4,0.21-2.1,0.32c-4.04-0.34-5.77-2.65-5.77-6.59c0.01-45.73,0.02-91.45-0.03-137.18c0-2.57,0.82-4.35,2.56-5.44
		c0.64-0.42,1.42-0.73,2.32-0.96c7.04,0.17,6.82,5.34,7.05,10.21c-0.02,5.32-0.04,10.64-0.05,15.96c-0.43,4.33-0.42,8.65,0,12.98
		C514.48,248.76,514.48,253.72,514.49,258.68z"/>
	<path d="M631.58,605.29c-0.05,3.15-0.48,6.35-0.05,9.43c0.67,4.74-1.42,5.33-5.53,5.31c-29.53-0.16-59.05-0.1-88.58-0.05
		c-1.72,0-3.69-0.84-5.12,0.94l0.07,0.04c-10.31,7.61-20.12,15.83-29.85,24.15c-2.66,1.65-5.11,3.58-7.21,5.91
		c-2.93,2.33-5.86,4.66-8.79,6.99c-0.98,0.7-1.97,1.4-2.95,2.1l0.06,0.09c-0.37-2.83,2.16-4.81,2.22-7.52
		c0.63-1.41,1.25-2.82,1.88-4.23c1.72-4.03,3.44-8.07,5.16-12.1c2.26-5.24,4.52-10.48,7.07-16.38c-3.43,0-6.18,0-8.92,0
		c-8.46,0-8.45,0-8.47-8.22c0-2.14-0.09-4.29-0.13-6.43c0-4.38,0-8.76,0-13.14c0-5.6,0-11.21,0-16.81c0-4.38,0-8.76,0-13.14
		c0-5.29,0.01-10.58,0.01-15.87c0-5.01,0-10.01,0-15.02c0.04-1.78,0.34-3.6,0.08-5.34c-0.71-4.81,0.8-7.34,6.05-6.55
		c4.33,0.42,8.66,0.42,12.99,0c5.33,0,10.67,0.01,16,0.01c4.99,0.41,9.98,0.41,14.97,0c5.33,0,10.67-0.01,16-0.01
		c4.33,0.42,8.66,0.42,12.99,0c5.66,0,11.33,0,16.99,0c4.33,0.42,8.66,0.42,12.99,0c5.66,0,11.33,0,16.99,0
		c4.33,0.42,8.66,0.42,12.99,0c9.77,0.58,9.77,0.58,10.07,8.7c0.01,0.21,0.38,0.4,0.72,0.74c1.7-1.19,3.43-2.4,5.16-3.61
		c0.71-0.4,1.53-0.68,2.1-1.23c3.13-3.04,4.75-1.9,6.8,1.55c4.02,6.75,8.66,13.12,13.05,19.65c-0.26,2.04,2.94,2.99,1.69,5.35
		c-6.19-1.03-12.34-2.51-18.56-2.95c-4.61-0.33-5.03-1.49-3.48-5.57c2.07-5.45,3.28-11.23,4.86-16.87
		c-4.08,7.16-7.49,14.5-9.87,22.15c-1.44,4.65-3.82,5.08-7.95,4.73c-8.05-0.69-16.15-0.81-24.23-1.17
		c5.39,1.85,10.86,2.68,16.35,3.34c6.91,0.83,7.21,0.88,4.96,7.49c-1.71,5.02-1.2,10.89-5.46,14.98c-0.65-0.5-1.67-0.87-1.91-1.52
		c-2.56-6.99-8.22-7.07-14.21-6.56c-0.66,0.06-1.33,0.01-1.99,0.01c-8.72,0-8.72,0-9.25,8.58c-1.19,0.91-2.33,0.58-3.71,0.25
		c-9.66-2.31-19.37-4.39-29.03-6.71c-2.35-0.56-3.54-0.62-4.13,2.29c-1.88,9.24-3.93,18.45-6.28,27.57
		c-0.74,2.87,0.12,3.21,2.58,3.75c13.89,3.1,27.75,6.33,41.55,9.77c2.8,0.7,3.38-0.48,3.94-2.58c1.19-4.46,1.48-9.15,3.36-13.44
		c0.63-0.02,1.26-0.03,1.89-0.05c10.33,0.11,20.66,0.23,30.99,0.34C631.48,600.72,631.53,603.01,631.58,605.29z M521.75,531.37
		c0,4.97-0.01,9.94-0.01,14.91c-0.05,4.78,0.01,9.56-0.18,14.33c-0.11,2.68,1.37,2.9,3.41,2.89c2.02-0.01,3.52-0.2,3.39-2.91
		c-0.21-4.76-0.14-9.54-0.19-14.31c0-2.66,0-5.33,0-7.99c0.23-0.82,0.08-1.55-0.51-2.17c0.56-1.94,1.39-1.71,1.8-0.04
		c0.73,2.96,1.61,5.85,2.94,8.6c0.21,0.98-0.01,2.11,1.01,2.8c1.31,4.09,2.72,8.15,3.9,12.27c0.66,2.32,1.59,3.59,4.36,3.69
		c3.01,0.11,4-1.31,4.82-3.75c2.54-7.51,5.27-14.94,7.84-22.44c0.41-1.19,0.35-2.55,2.04-1.12c-0.59,0.62-0.74,1.35-0.51,2.17
		c0,2.67,0,5.33,0,8c-0.07,4.61-0.01,9.23-0.27,13.84c-0.15,2.73,1.04,3.38,3.47,3.41c2.48,0.03,3.61-0.7,3.48-3.39
		c-0.22-4.61-0.16-9.23-0.21-13.84c0.05-4.63,0.1-9.26,0.16-13.9c0.02-1.54-0.1-2.97-1.77-3.76c-3.94-1.86-9.2,0.21-10.85,4.44
		c-2.56,6.56-5.02,13.16-7.69,20.17c-1.11-2.68-1.98-4.79-2.86-6.91c-1.64-4.82-3.27-9.63-4.93-14.44c-1.34-3.88-4.6-3.72-7.77-3.58
		C524.47,528.41,521.68,527.66,521.75,531.37z M586.52,561.31c5.55-4.58,6.04-9.98,1.38-15.1c-2.74-3.25-6.96-3.87-10.42-5.84
		c-1.95-2.24-2.21-4.44,0.11-6.61c2.58-0.84,5.11-0.84,7.52,0.55c4.04,2.32,3.81-0.23,3.44-2.98c-2.84-5.04-7.53-3.66-11.76-3.16
		c-4.47,0.53-7.08,3.52-7.97,7.83c-0.86,4.18,0.76,7.57,4.16,9.96c1.73,1.22,3.88,1.82,5.76,2.86c2.28,1.26,5.16,2.22,4.74,5.63
		c-0.43,3.49-3.32,3.7-6.01,4.01c-3.15-0.09-5.76-2.05-8.84-2.91c-0.39,2.8-1.34,5.47,1.88,6.74
		C575.96,564.42,581.39,565.15,586.52,561.31z M512.88,546.13c-2.7-3.26-6.92-3.82-10.33-5.8c-1.44-1.77-2.62-3.77-0.66-5.7
		c2.32-2.3,5.1-1.51,7.9-0.67c1.17,0.35,2.93,2.84,3.82,0c0.62-1.97,0.65-4.3-2.21-5.23c-2.89-0.93-5.8-1.42-8.78-0.77
		c-4.55,0.99-7.97,3.33-8.69,8.29c-0.69,4.83,1.35,8.33,5.66,10.54c1.47,0.76,2.94,1.51,4.44,2.2c2.45,1.13,5.08,2.2,4.57,5.59
		c-0.51,3.41-3.36,3.58-6.02,3.88c-3.21,0.04-5.69-2.25-8.75-2.93c-0.87,3.32-1.08,6.24,2.78,7.4c5.19,1.55,10.32,1.99,15-1.58
		C517.3,556.48,517.73,551.35,512.88,546.13z"/>
	<path d="M621.67,475.47c-1.05,2.79-2.91,4.56-5.94,3.29c-3.43-1.44-3.69-4.18-2-7.25C618.91,469.26,620.61,470.11,621.67,475.47z"
		/>
	<path d="M515.36,301.78c-0.67-13.7-0.89-27.4,0.12-41.1c2.71-0.07,5.35,0.29,7.86,1.38c0,0,0-0.14,0-0.15
		c5.58,3.72,9.91,8.47,12.19,14.88c0.43,5.25-2.19,9.91-2.93,14.93c-3.08,3.3-5.32,7.83-11.06,7.07c-1.07-0.14-0.94,1.1-1.02,1.89
		c-0.34,0.27-0.69,0.53-1.03,0.8C518.12,301.59,516.74,301.68,515.36,301.78z"/>
	<path d="M421.7,307.68c-0.06-13.38-0.19-26.75-0.14-40.13c0.03-6.75-0.5-13.18-6.22-17.9c-0.42-0.35-0.44-1.19-0.64-1.8
		c-0.39-0.08-0.79-0.15-1.18-0.23c-0.59,0.11-0.85-0.13-0.8-0.72c-0.57-2.14-4.48,0.29-4.18-3.04c-3.33-0.95-6.66-1.8-10.19-1.79
		c-18.46,0.05-36.92,0.03-55.38,0.01c-3.25,0-6.39,0.46-9.33,1.91c-1.67,0.96-3.34,1.92-5.01,2.89c-3.84,3.31-7.11,7.01-8.53,12.03
		c-0.1,20.02-0.21,40.04-0.31,60.06c2.87,6.8,6.81,12.67,13.98,15.64c3.98,1.32,8.11,1.3,12.2,1.05c2.79-0.17,4.05,0.75,4.71,3.54
		c0.99,4.19,2.52,8.24,3.83,12.36c2.29,4.38,2.89,9.28,4.25,13.95c1.86,5.27,4,10.44,4.98,15.98l-0.01,0.02
		c0.24,0.32,0.48,0.64,0.72,0.96c0.19,0.97,0.38,1.95,0.56,2.92c1.16,3.7,2.33,7.39,3.49,11.08c1.32,3.4,4.12,5.26,7.18,6.84
		c6.52,0.56,12.74,0.45,16.06-6.67c0.03-3.73,0.07-7.47,0.11-11.2c-0.13-0.61-0.26-1.21-0.4-1.82c-0.91-5.66,1.02-11.27,0.4-16.93
		v-15.13c-0.03-4.28,0.06-8.57-0.14-12.84c-0.14-3.06,1.11-4.09,4.07-3.98c3.95,0.15,7.9-0.02,11.86-0.05
		c2.3-1.37,4.52-2.83,6.49-4.5c3.53-2.99,6.26-6.66,7.31-11.76c0.12-0.88,0.24-1.76,0.36-2.63
		C421.76,313.09,421.73,310.39,421.7,307.68z M404.03,281.83c-22.25-0.17-44.5-0.21-66.75,0.01c-6.02,0.06-5.55-3.55-5.65-7.52
		c-0.11-4.08,0.72-6.66,5.66-6.57c11.11,0.21,22.23,0.07,33.35,0.07c11.11,0.01,22.23,0.19,33.34-0.06
		c5.91-0.14,5.56,3.55,5.69,7.54C409.81,279.4,409,281.86,404.03,281.83z"/>
	<path d="M598.56,598.14c-1.88,4.29-2.17,8.97-3.36,13.44c-0.56,2.1-1.14,3.27-3.94,2.58c-13.81-3.44-27.67-6.67-41.55-9.77
		c-2.46-0.55-3.32-0.88-2.58-3.75c2.35-9.13,4.4-18.34,6.28-27.57c0.59-2.9,1.79-2.85,4.13-2.29c9.66,2.32,19.37,4.4,29.03,6.71
		c1.37,0.33,2.52,0.66,3.71-0.25c0.94,1.6,2.45,1.92,4.17,2.05c7.06,0.56,7.64,1.34,6.25,8.07c-0.11,0.79-0.22,1.59-0.33,2.38
		C599.53,592.48,598.48,595.19,598.56,598.14z M559.3,576.54c-0.39,0.38-0.78,0.76-1.17,1.14c2.28,3.18,4.38,6.51,6.9,9.49
		c2.07,2.45,2.32,3.64-1,5.22c-5.34,2.55-10.37,5.72-15.53,8.63c0.2,0.36,0.41,0.72,0.61,1.08c5.1-2.55,10.29-4.94,15.27-7.72
		c3.09-1.73,5.34-1.91,7.21,1.5c0.52,0.95,0.99,3.01,2.77,1.42c4.65-4.14,6.76-0.66,8.96,2.8c0.68,1.07,1.3,2.29,3.22,2.31
		c0.1-2.06-1.21-3.59-2.35-4.67c-3.9-3.69-1.7-5.03,1.87-6.7c4.55-2.12,9.22-4.16,13.07-7.65c-7.46,2.56-14.73,5.51-21.9,8.69
		c-2.27,1-3.58,0.98-5.31-1.17C567.94,585.95,563.53,581.31,559.3,576.54z M591.4,609.75c-1.72-5.11-1.84-5.24-5.1-6.36
		C587.5,605.88,588.99,607.84,591.4,609.75z M555.89,572.5c-0.89,0.22-1.03,0.66-0.78,1.09c0.3,0.52,0.69,1.27,1.14,1.34
		c0.99,0.17,0.82-0.61,0.52-1.17C556.51,573.26,556.12,572.83,555.89,572.5z M593.47,610.88c-0.47-0.39-0.8-0.85-1.18-0.92
		c-0.5-0.09-0.84,0.33-0.52,0.86c0.24,0.38,0.64,0.67,0.96,1C592.96,611.53,593.19,611.24,593.47,610.88z"/>
	<path d="M661.03,550.59c1.25-2.36-1.95-3.31-1.69-5.35c1.95-4.64,3.89-9.28,5.84-13.92c0.69-1.22,0.83-2.77,2.15-3.61
		c9.96,4.35,19.73,9.14,30.03,12.68c3.43,1.6,6.92,3.09,10.27,4.84c1.44,0.75,3.9,0.46,3.89,3.09c-1.73,4.31-3.47,8.63-5.2,12.94
		c-2.49,4.44-4.47,9.1-5.99,13.96c-0.69,1.1-1.37,2.19-2.06,3.29c-1.07-0.38-2.17-0.7-3.22-1.14c-8.87-3.7-17.74-7.43-26.61-11.15
		c-3.55-2.31-7.57-3.56-11.5-5.01c-0.9-0.61-1.79-1.21-2.69-1.82c0.42-0.41,0.85-0.82,1.27-1.22c0.74-0.09,1.88,0.63,1.9-0.93
		l-0.07,0.05c5.7-0.2,10.84-2.62,16.18-4.19c2.84-0.83,4.29-0.5,5.22,2.3c0.8,2.42,2.23,3.59,4.85,2.03c2.5-1.49,3.82-0.6,5.06,2.06
		c2.64,5.66,5.77,11.09,8.7,16.62c0.36-0.18,0.72-0.36,1.09-0.54c-2.42-5.34-4.47-10.89-7.36-15.96c-2.12-3.73-0.67-4.43,2.53-5.4
		c5.22-1.59,10.67-2.61,15.44-5.56c-5.55,0.7-11,1.78-16.41,2.99c-10.44,2.33-10.4,2.34-15.87-6.85c-2.83-4.76-5.81-9.43-8.73-14.14
		c0.18,3.05,1.58,5.46,2.41,8.05c1.28,3.96,6.73,7.92,3.96,11.37c-2.47,3.08-8.19,3.75-12.78,4.49c0.8-1.48,3.39-3.14-0.41-4.18
		L661.03,550.59z"/>
	<path d="M633.2,598.18c-0.59,0.08-1.18,0.17-1.77,0.25c-10.33-0.11-20.66-0.23-30.99-0.34c0.31-2.85,0.61-5.69,0.92-8.54
		c1.23-1.89,4.55-2.16,4.12-5.33c0,0-0.04,0.05-0.04,0.05c4.33,4.39,9.43,1.99,14.94,1.53c-2.52-1.73-1.29-3.55-0.69-5.36
		c4.48-2.66,8.96-5.32,13.43-7.97C633.14,581.04,633.17,589.61,633.2,598.18z M627.84,593.77c0.44,0.37,0.88,0.75,1.33,1.12
		c0.65-0.88,0.27-1.4-0.6-1.77c-0.43-0.66-1.09-1.71-1.75-1.05C625.94,592.96,627.45,593.2,627.84,593.77z M626.36,591.9
		c-0.2-4.63-3.55-4.46-5.98-5.44C621.39,589.23,623.73,590.33,626.36,591.9z"/>
	<path d="M600.7,587.35c1.39-6.72,0.81-7.51-6.25-8.07c-1.72-0.14-3.23-0.45-4.17-2.05c0.53-8.58,0.53-8.58,9.25-8.58
		c0.66,0,1.33,0.05,1.99-0.01c5.98-0.52,11.65-0.43,14.21,6.56c0.24,0.65,1.25,1.02,1.91,1.52c0.46,0.47,0.92,0.94,1.38,1.41
		c0,0.43-0.01,0.85-0.01,1.28c-1.11-0.03-1.77,0.73-2.45,1.43c-3.06,3.12-5.77,3.36-9.34,0.17c-3.98-3.57-8.71-6.31-13.11-9.4
		c-0.48-0.34-0.95-0.68-1.43-1.02c-0.67,0.97,0.01,1.37,0.75,1.73c2.03,1.83,4.24,3.5,6.04,5.53c1.94,2.19,5.48,2.92,5.97,6.43
		c0,0,0.04-0.05,0.04-0.05C603.07,584.03,602.69,586.91,600.7,587.35z"/>
	<path d="M601.36,589.55c-0.31,2.85-0.61,5.69-0.92,8.54c-0.63,0.02-1.26,0.03-1.89,0.05c-0.08-2.95,0.97-5.66,1.82-8.41
		C600.7,589.66,601.03,589.6,601.36,589.55z"/>
	<path d="M644.46,470.7c-2.43-4.59-0.35-9.56-1.24-14.28c0.06-2.32,0.37-4.68,0.11-6.96c-0.39-3.41,0.57-4.47,4.22-4.4
		c12.62,0.22,25.25,0.01,37.88-0.04c0.11,0.53,0.23,1.05,0.34,1.58c-0.13,0.26-0.13,0.51,0,0.77c-0.49,3.05-0.36,6.09-0.05,9.14
		c-0.08,5.97-0.16,11.95-0.24,17.92c-1.04,0.11-2.08,0.22-3.12,0.33c-4.97,0-9.94-0.01-14.91-0.01c-5.02,0.01-10.05,0.01-15.07,0.02
		c-2.32-0.1-4.64-0.2-6.96-0.29c0.01-0.67,0.02-1.34,0.03-2.01c1.9-2.43,6.14-2.23,7.37-6.98
		C649.48,467.55,646.97,469.13,644.46,470.7z M680.15,469.68c0.4,0.26,0.8,0.53,1.2,0.79c0.61,1.03,1.2,2.09,2.69,2.21
		c0.22-1.69-1.27-1.99-2.07-2.78c-0.32-0.33-0.64-0.65-0.95-0.98c-0.41-0.29-0.82-0.59-1.23-0.88c-0.67-0.52-1.33-1.89-2.18-0.68
		c-0.54,0.77,0.75,1.1,1.39,1.46C679.38,469.11,679.77,469.4,680.15,469.68z M680.89,448.93c-0.52,0.49-1.05,0.98-1.57,1.46
		c-2.76,1.81-5.57,3.53-8.26,5.43c-6.64,4.71-6.56,4.65-13.45-0.07c-3.71-2.54-7.01-5.83-12.7-8c2.69,2.96,4.23,4.98,6.1,6.62
		c1.94,1.71,5.38,2,6.24,4.48c1.08,3.11-4.01,3.3-4.05,6.36c1.41,0.4,2.81,0.02,3.64-0.98c3.57-4.26,9.42,2.18,12.75-2.81
		c0.63,0.53,1.23,1.11,1.9,1.58c0.89,0.61,1.52,1.84,3.31,1.25c-0.43-0.69-0.66-1.51-1.2-1.88c-2.98-2.02-2.71-3.68,0.14-5.69
		c2.29-1.61,4.25-3.68,6.36-5.54c0.5-0.48,1.01-0.96,1.51-1.43c0.42-0.23,0.85-0.46,1.27-0.69c0.58-0.48,1.87-0.96,1.24-1.69
		c-0.95-1.11-1.4,0.34-1.97,0.9C681.74,448.47,681.32,448.7,680.89,448.93z"/>
	<path d="M623.34,442.56c1.48,3.16,1.25,6.15-0.87,8.96c-3.65,2.68-7.42,3.22-10.53-0.51c-3.12-3.74-1.87-7.35,1.38-10.48
		c0,0,0.2-0.09,0.2-0.09c0.45-0.28,0.9-0.56,1.35-0.84c2.79-0.34,5.35,0.14,7.55,2.01C622.73,441.91,623.03,442.23,623.34,442.56z"
		/>
	<path d="M315.8,258.57c0.77,0.12,1.53,0.23,2.3,0.35c-0.1,20.02-0.21,40.04-0.31,60.05c-5.52-0.85-11.79,1.1-16.07-4.34
		c-2.36-2.51-3.32-5.64-3.94-8.92c0.42-4.32,0.42-8.65,0-12.97c-0.02-5.32-0.04-10.64-0.05-15.97c0.16-7.32,1.38-13.99,9.36-17.16
		C309.98,258.45,312.93,259.14,315.8,258.57z"/>
	<path d="M727.34,238.75c2.17,3.16,4.98,5.7,7.9,8.14c1.95,2.75,4.3,5.11,6.97,7.17c2.17,2.78,4.38,5.51,7.15,7.73
		c0.16,0.28,0.27,0.61,0.49,0.84c2.14,2.26,5.64,4.26,6.1,6.81c0.56,3.11-4.17,4.42-5.71,7.26c-2.87,2.44-5.69,4.91-7.98,7.93
		c-1.9,1.44-3.8,2.88-5.71,4.32c-0.12-0.12-0.24-0.24-0.36-0.36c-0.28-4.96-0.45-9.93-0.87-14.88c-0.27-3.22,0.14-4.9,4.15-4.2
		c4.67,0.81,9.48,0.86,14.23,1.24c-3.88-1.85-7.91-2.47-11.91-3.26c-11.97-2.36-11.7-2.43-13.62-14.45
		c-0.65-4.03,0.34-8.58-2.73-12.11c-0.19-0.27-0.42-0.5-0.67-0.7C725.31,239.18,725.92,238.25,727.34,238.75z"/>
	<path d="M705.78,261.55c-1.13-1.18-1.64-2.15-0.06-3.59c6.42-5.84,12.71-11.82,19.04-17.76c0.25,0.2,0.48,0.44,0.67,0.7
		c0.28,4.95,0.37,9.91,0.91,14.83c0.37,3.37-0.76,4.32-4.03,4.1c-4.99-0.33-9.96-1.83-15.56-0.63c5.37,1.98,10.56,1.66,15.58,2.33
		c2.88,0.39,4.77,0.72,4.27,4.2c-0.19,1.31,0.03,3.05,1.88,2.8c5.16-0.72,4.96,2.56,5.05,6.05c0.1,3.96,0.61,7.9,0.84,11.86
		c0.08,1.29,0.14,2.33,1.83,2.13c0.12,0.12,0.24,0.24,0.36,0.36c-1.02,2.42-2.22,1.73-3.6,0.29c-1.8-1.88-3.7-3.66-5.56-5.48
		c-2.3-2.35-4.61-4.7-6.91-7.05c-2.4-2.95-5-5.7-8.01-8.04C710.23,266.28,708.01,263.92,705.78,261.55z"/>
	<path d="M773.26,245.74c1.03,0.67,2.07,1.34,3.1,2c3.48,5.97,2.57,8.74-3.99,12.16c-8.4-1.49-10.39-6.58-5.14-13.13
		C769.18,246.13,771.13,245.41,773.26,245.74z"/>
	<path d="M634.35,572.01c-0.41,0.15-0.83,0.3-1.24,0.45c-4.48,2.66-8.96,5.32-13.44,7.97c-0.22-0.35-0.44-0.69-0.66-1.04
		c0-0.43,0.01-0.85,0.01-1.28c2.92-1.32,2.26-4.44,3.2-6.7c1.56-3.76,2.66-7.73,3.71-11.67c0.81-3.03,1.68-5.17,5.58-3.67
		c2.53,0.97,3.95-0.47,4.23-3.15c0.36-3.46,2.28-3.93,5.51-3.33c5.98,1.1,12.07,1.58,18.1,2.44c1.51,0.22,1.08-1.32,1.89-1.65
		c3.8,1.04,1.2,2.69,0.41,4.18c0,0-0.05-0.12-0.05-0.12c-0.41,0.25-0.82,0.51-1.23,0.76c-0.95,0.77-2.48,0.72-3.01,2.1
		c0,0,0.07-0.05,0.07-0.05c-0.93-0.29-1.54,0.05-1.9,0.93c-0.42,0.41-0.85,0.82-1.27,1.22c-6.27,2.54-11.41,6.89-17.01,10.53
		C636.1,570.37,635,570.88,634.35,572.01z"/>
	<path d="M483.56,660.1c-0.11,0.12-0.22,0.24-0.33,0.37c0.13-0.09,0.26-0.19,0.39-0.28C483.62,660.19,483.56,660.1,483.56,660.1z"/>
	<path d="M626.3,413c0.34,3.06-1.37,4.89-3.81,6.26c-3.88-0.56-5.93-2.49-5-6.66c1-0.82,2-1.65,3-2.47
		C623.1,409.73,624.82,411.14,626.3,413z"/>
	<path d="M592.31,259.78c-3.39,1.85-6.26,3.2-8.29,4.1c-2.99,1.33-5.94,2.74-8.93,4.08c-6.7,3-6.7,2.99-1.98,8.82
		c0.48,2.02,3.05,2.74,3.25,5.07c-2.53-0.25-4.93-0.48-7.33-0.72c-5.76-0.56-9.03-1.34-15.04-2.27c-2.72-0.42-6.82-1.03-11.92-1.67
		c4.21-0.37,8.87-1.12,13.83-2.51c1.27-0.36,2.49-0.73,3.67-1.13c-0.04-0.27-0.01-0.48-0.1-0.59c-2.35-2.96-2.82-5.31-2.84-6.12
		C556.58,265.23,564.66,262.98,592.31,259.78z"/>
	<path d="M560.37,207.62c-1.41,3.6-2.74,6.47-3.72,8.47c-1.44,2.94-2.79,5.92-4.22,8.87c-3.2,6.6-3.21,6.6,4.15,8.03
		c1.67,1.25,4.1,0.14,5.75,1.79c-2.09,1.44-4.08,2.8-6.07,4.16c-4.77,3.27-7.77,4.78-12.98,7.92c-2.36,1.42-5.89,3.59-10.2,6.38
		c2.99-2.99,6.08-6.56,8.98-10.81c0.74-1.09,1.44-2.16,2.09-3.23c-0.21-0.18-0.32-0.36-0.46-0.39c-3.7-0.76-5.57-2.26-6.11-2.86
		C536.51,234.77,541.25,227.85,560.37,207.62z"/>
	<path d="M581.46,321.76c-3.8-0.7-6.88-1.45-9.02-2.03c-3.16-0.85-6.35-1.61-9.51-2.45c-7.09-1.89-7.09-1.9-7.09,5.61
		c-0.9,1.87,0.64,4.05-0.66,5.99c-1.81-1.78-3.53-3.48-5.24-5.17c-4.12-4.06-6.17-6.72-10.26-11.23c-1.85-2.04-4.65-5.1-8.21-8.8
		c3.5,2.36,7.6,4.71,12.32,6.75c1.21,0.52,2.4,1,3.57,1.43c0.14-0.24,0.29-0.38,0.3-0.52c0.04-3.78,1.15-5.9,1.64-6.55
		C550.25,303.51,557.95,306.85,581.46,321.76z"/>
	<path d="M661.59,554.44c-0.13,0.71-0.62,0.82-1.23,0.76C660.78,554.95,661.19,554.69,661.59,554.44z"/>
	<path d="M697.6,533.77c-0.41-1.07-1-1.98-2.09-2.47c-4.48-5.82-8.82-11.76-13.52-17.41c-1.71-2.06-1.44-3.2,0.41-4.58
		c3.65-2.25,6.94-4.97,10.09-7.85c1.65-1.31,3.3-2.63,4.95-3.94c4.96-3.31,9.59-7.02,13.98-11.04c0.35-0.27,0.71-0.54,1.06-0.81
		c1.22-0.84,2.68-1.48,3.61-2.56c2.8-3.27,4.41-2.04,6.57,0.9c4.4,5.98,9.23,11.64,13.89,17.43c4.75,6.58,4.74,6.57-1.61,11.71
		c-1.27,1.03-2.49,2.11-3.73,3.17c-0.98,0.75-1.96,1.51-2.94,2.26c-0.32,0.26-0.63,0.52-0.95,0.78l0.02-0.02
		c-5.18,3.79-10.42,7.51-15.09,11.95l0.03-0.05c-1.6,1.16-3.23,2.27-4.79,3.47C702.03,538.89,702.04,538.9,697.6,533.77z
		 M720.4,483.75c-0.39-0.09-0.79-0.18-1.18-0.27c-2.12,7.2-4.47,14.35-6.26,21.63c-0.97,3.96-2.49,5.6-6.91,5.52
		c-7.46-0.13-14.95,0.68-22.42,1.09c0,0.63-0.01,1.26-0.01,1.89c5.49,0,11.01,0.33,16.48-0.1c4.64-0.36,4.7,1.57,4.03,5.21
		c-1.02,5.6-2.62,11.16-2.17,16.97c1.8-5.84,3.14-11.76,4.34-17.7c0.56-2.78,1.51-4.62,4.88-3.77c2.87,0.73,4-1.07,4.01-3.54
		c0.02-3.03,1.64-3.46,4.19-3.4c6.15,0.13,12.31,0.04,18.46,0.04c-5.14-1.84-10.44-2.04-15.71-1.91c-4.58,0.11-6.42-0.99-4.88-6.06
		C718.81,494.31,719.39,488.97,720.4,483.75z"/>
	<path d="M832.31,281.76c-0.43-1.67-0.87-3.35-1.3-5.02c0.46-1.24,0.93-2.48,1.39-3.73c5.79-4.2,9.24-3.2,12.94,3.76
		C843.19,284.96,838.75,286.66,832.31,281.76z"/>
	<path d="M738.23,575.47c-7.57-2.13-7.56-2.13-5.78-9.84c0.33-1.42,0.55-2.86,0.82-4.3c1.75-4.91,3.01-9.94,3.91-15.07
		c1.01-3.64,2.11-7.26,2.97-10.93c0.31-1.33,0.71-2.13,2.16-2.07c4.83,2.07,10,2.86,15.07,3.99c5.27,1.32,10.55,2.63,15.82,3.95
		c3.75,0.97,7.51,1.94,11.26,2.91c3.6,1,7.21,2.01,10.81,3.01c1.89,0.27,3.4,0.38,2.36,3.25c-1.26,3.46-1.76,7.2-2.58,10.82
		c-1.75,5.24-3.17,10.57-4.02,16.04c-1.56,3.37-2.01,7.03-2.82,10.6c-5.61-1.21-11.23-2.41-16.84-3.62l0.01,0.02
		c-0.29-0.16-0.57-0.32-0.86-0.48c-4.42-1.09-8.83-2.19-13.25-3.28c-4.56-1.13-9.13-2.25-13.69-3.38
		C741.79,576.53,740.01,576,738.23,575.47z M785.26,583.31c0.28,0.53,0.53,1.08,0.87,1.57c0.04,0.06,0.67-0.1,0.78-0.29
		c0.53-0.98-0.44-1.34-0.89-1.92c-2.4-3.75-4.76-7.54-7.22-11.26c-6.09-9.2-6.1-9.18,3.8-14.11c4.34-2.16,8.67-4.35,13-6.52
		c-0.19-0.37-0.37-0.75-0.56-1.12c-9.29,3.61-18.61,7.18-27.87,10.87c-1.85,0.74-3.8,1.53-4.66-0.71c-1.5-3.91-5.05-5.89-7.5-8.89
		c-4.07-5-8.36-9.82-12.56-14.72c-0.34,0.27-0.67,0.54-1.01,0.8c4.85,6.96,9.7,13.91,14.65,21.02c-7.69,4.18-15.18,8.26-22.67,12.33
		c0.2,0.36,0.4,0.72,0.59,1.08c6.53-3.06,13.22-5.83,19.52-9.3c3.47-1.91,5.35-1.15,6.85,1.92c1.39,2.84,3,3.53,5.65,1.44
		c2.87-2.26,4.82-1.6,6.95,1.6C776.75,572.72,781.14,577.92,785.26,583.31z"/>
	<path d="M713.24,448.51c0.08-0.66,0.15-1.33,0.23-1.99c2.18-1.13,3.76-2.93,5.28-4.79c3.31-2.22,5.95-5.18,8.74-7.97
		c2.45-2.27,5.51-3.96,6.94-7.21c1.36-1.54,3.79-1.75,4.74-3.8c8.5,0,16.99,0,25.49,0.01c0.29,7.8,0.49,15.6,0.91,23.39
		c0.14,2.53-0.1,3.34-3.14,3.02c-13.06-1.41-26.16-2.42-39.24-3.56c-1.93-0.17-3.87-0.26-4.68,2.31
		c14.13,1.95,27.91,4.01,41.75,5.68c4.05,0.49,6,1.42,6.02,6.13c0.04,9.77,0.35,9.98,10.33,10.73c3.85,0.29,4.88,1.7,5.06,5.37
		c0.7,14.41,1.74,28.81,2.66,43.33c2.92-1.28,2.65-3.47,2.61-5.68c-0.24-12.62-0.46-25.25-0.55-37.87
		c-0.01-1.34-1.48-4.07,2.04-3.64c8.22,1.01,16.44,2.04,24.67,3.06c-7.13,6.86-14.27,13.72-21.4,20.58
		c-1.23,1.18-1.83,1.63-0.59,3.95c2.3,4.32,6.64,6.16,9.33,9.77c-2.03,2.03-4.07,4.05-6.1,6.08c-2.36,2.23-4.72,4.45-7.08,6.68
		c-2.24,2.54-3.89,2.01-6.12-0.44c-10.77-11.87-21.75-23.54-32.66-35.28c-1.46-1.82-2.8-3.75-4.84-5.02
		c-2.69-3.64-5.75-6.95-9.13-9.96c-2.39-2.6-4.78-5.21-7.18-7.81c-2.23-2.4-4.46-4.8-6.7-7.21
		C718.27,453.62,716.21,450.63,713.24,448.51z"/>
	<path d="M756.39,297.13c5.4-1.92,10.93-3.5,15.97-6.33c5.87-1.42,11.4-3.79,16.91-6.2c4.18-1.25,8.38-2.48,12.15-4.77
		c7.43-1.79,7.44-1.8,10.35,5.63c2.89,7.39,5.76,14.8,8.64,22.2c1.95,5.02,3.89,10.05,5.84,15.07c1.29,5,3.39,9.7,5.46,14.41
		c-0.13,0.54-0.26,1.09-0.39,1.63c-5.21,1.55-10.35,3.27-15.2,5.77c-9.92,3.74-19.83,7.49-29.75,11.23
		c-4.71,1.75-9.43,3.51-14.14,5.26c-8.62,3.26-17.23,6.51-25.85,9.77c-0.36,0-0.71-0.01-1.07-0.01c-0.93-1.45-1.87-2.89-2.8-4.34
		c0,0,0.15-0.1,0.15-0.1c-1.08-5.16-3.33-9.88-5.41-14.67c-1.73-4.68-3.47-9.37-5.2-14.05c-1.43-3.87-2.46-7.9-4.62-11.47
		c-0.23-2.02-0.69-3.96-1.95-5.62c-0.41-3.56-4.5-7.2-2.57-9.96c1.74-2.48,6.37-2.94,9.73-4.28c3.22-1.28,6.45-2.53,9.67-3.8
		C747,300.7,751.7,298.91,756.39,297.13z M746.6,366.18c1.96-0.61,2.25-2.64,3.11-4.12c5.58-9.57,11.13-19.16,16.52-28.84
		c1.32-2.37,2.4-3.44,5.31-2.2c2.95,1.25,6.52,4.07,9.04,2.71c2.45-1.32,3.53-5.37,4.93-8.34c1.07-2.26,2.2-2.52,4.56-1.69
		c10.14,3.58,20.38,6.89,30.59,10.3c1.65,0.55,3.24,1.5,5.11,0.91c0.08-2.61-2.1-2.48-3.43-3.02c-9.98-4.02-19.95-8.06-30.05-11.75
		c-2.96-1.08-2.88-1.81-1.45-4.33c5.39-9.48,10.44-19.16,15.65-28.74c0.84-1.54,2.22-2.96,0.17-5.06c-0.88,1.28-1.71,2.45-2.5,3.64
		c-8.19,12.27-16.47,24.48-24.5,36.85c-1.75,2.7-3.32,3.24-6.38,2.33c-7.94-2.36-16-4.29-24.01-6.39
		c-7.59-1.98-15.18-3.96-22.95-5.98c0.08,3.52,2.68,3.36,4.32,3.97c9.77,3.63,19.57,7.18,29.45,10.51c3,1.01,4.2,1.72,2.11,4.96
		c-6.05,9.39-9.72,20.02-15.13,29.76C746.29,363.04,745.05,364.42,746.6,366.18z M826.82,334.84c-0.17,0.1-0.37,0.21-0.57,0.33
		c0.1,0.11,0.23,0.32,0.3,0.3c0.22-0.05,0.41-0.2,0.62-0.3C827.07,335.06,826.96,334.96,826.82,334.84z"/>
	<path d="M843.25,306.76c1.36-1.01,2.71-2.02,4.07-3.03c4.87-3.38,9.73-6.78,14.61-10.13c1.29-0.88,2.25-2.59,4.25-1.88
		c3.29,5.29,6.9,10.34,10.86,15.15c0,0,0.01-0.01,0.01-0.01c3.31,5.17,6.65,10.31,10.73,14.92c0.8,2-0.84,2.44-2.01,3.27
		c-2.92,2.08-5.78,4.24-8.67,6.36c-2.37,1.71-4.75,3.41-7.12,5.12c-3.28,3.2-5.24,1.73-7.36-1.61c-2.9-4.58-6.32-8.82-9.52-13.21
		c-1.94-2.69-3.89-5.38-5.83-8.07C846.66,310.93,843.49,309.7,843.25,306.76z M885.51,323.63c0.14-0.33,0.28-0.67,0.42-1
		c-5.28-1.75-10.52-3.61-15.85-5.2c-3.55-1.06-5.5-2.55-5.07-6.85c0.53-5.36,0.13-10.81,0.13-16.22c-2.01,4.17-1.91,8.48-1.96,12.74
		c-0.03,2.88-1.06,3.34-3.61,2.69c-4.52-1.16-9.1-2.08-13.66-3.1c4.17,2.18,8.55,3.55,13.01,4.5c2.5,0.54,3.93,1.36,3.37,4.16
		c-0.35,1.75,0.37,3.11,2.24,3.11c3.07,0,2.92,1.94,2.79,4.03c-0.27,4.5-1.6,8.96-0.64,14.22c2.17-4.77,1.49-9.35,2.11-13.66
		c0.52-3.56,1.62-3.41,4.31-2.59C877.18,321.71,881.37,322.59,885.51,323.63z"/>
	<path d="M697.33,396.6c5.27,7.16,5.26,7.15-1.87,12.91c-3.08,2.49-6.1,5.03-9.16,7.54c-1.09,0.9-2,2.38-3.77,1.25
		c-1.18-2.7-3.38-4.61-5.25-6.77c-3.27-4.01-6.55-8.02-9.82-12.04c-1.05-1.29-2.1-2.59-3.15-3.88c-0.86-1.28-1.72-2.57-2.57-3.83
		c1.95-1.93,4.45-2.84,5.7-5.12c2.4-1.25,4.43-2.97,6.23-4.98c3.07-0.89,4.28-4.59,7.65-5.03c1.17,1.79,2.18,3.7,3.97,5
		c3.63,5.29,7.72,10.22,12.05,14.95L697.33,396.6z M683.59,416.2c0.6-0.02,1.2-0.03,1.79-0.05c0-3.56,0.09-7.13-0.03-10.68
		c-0.09-2.8,0.14-4.41,3.79-3.25c3.51,1.12,7.29,1.37,10.95,2.01c-4.56-2.28-9.31-3.8-14.17-4.82c-3.54-0.74-4.84-2.31-4.64-6.02
		c0.25-4.78,0.3-9.66-1.51-14.31c-0.37,3.32-0.52,6.63-0.32,9.92c0.2,3.44-0.03,5.15-4.51,3.98c-3.4-0.89-7.13-2.21-11.51-1
		c2,0.57,3.44,0.87,4.8,1.39c4.12,1.57,10.91-1.34,11.27,6.62c0.01,0.11,0.23,0.31,0.36,0.32c6.08,0.52,3.84,4.81,3.75,8.16
		C683.54,411.05,683.59,413.62,683.59,416.2z"/>
	<path d="M714.18,412.44c0.03-12.07,0.17-24.15,0.02-36.22c-0.04-3.22,0.85-4.39,4.14-4.12c2.95,0.24,5.94-0.1,8.91-0.18
		c6.93,0.43,13.85,0.74,20.76-0.2c3.05,0.79,6.13,0.5,9.21,0.2c5.07,0.54,10.13,0.54,15.19,0c4.72,0.18,9.45,0.35,14.17,0.53
		c0.07,5.46,0.14,10.92,0.21,16.38c0.12,3.8,0.24,7.6,0.36,11.4c-0.75,1.75-0.65,3.48,0.09,5.21c-0.19,4.64-0.39,9.28-0.58,13.92
		c0.05,2.35-0.79,3.38-3.45,3.26c-4.78-0.21-9.59,0.05-14.38,0.11c-1.4,0-2.8,0-4.19,0.01c-8.5,0-16.99,0-25.49-0.01
		c-0.61,0.02-1.23,0.03-1.84,0.05c-5.6,0.02-11.21,0-16.81,0.08c-2.38,0.04-3.95-0.48-3.14-3.34c7.24-5.8,14.71-11.35,21.62-17.51
		c3.23-2.88,5.41-2.54,7.64,0.39c2.7,3.55,5.31,3.39,7.8,0.11c2.92-3.86,5.34-2.65,8.38-0.02c6.81,5.9,13.87,11.52,21.06,17.44
		c0.71-2.76-1.27-3.41-2.35-4.41c-5.48-5.09-11.08-10.04-16.62-15.06c-1.97-1.78-3.33-3.3-0.4-5.77
		c5.85-4.93,11.38-10.23,17.03-15.39c1.24-1.14,3.45-1.76,2.43-4.33c-10.28,7.31-20.55,14.53-30.71,21.9
		c-2.02,1.46-3.23,1.66-5.43,0.01c-9.16-6.86-18.55-13.41-27.92-19.99c-0.84-0.59-1.65-2.34-3.33-0.82
		c1.69,2.06,2.94,4.77,5.05,5.97c5.85,3.31,10.24,8.34,15.57,12.21c2.49,1.81,2.81,2.89,0.25,5.14c-7.46,6.54-14.62,13.4-21.9,20.13
		C713.06,417.55,715.02,414.73,714.18,412.44z"/>
	<path d="M800.42,509.31c-2.69-3.6-7.03-5.45-9.33-9.77c-1.24-2.33-0.64-2.77,0.59-3.95c7.14-6.86,14.27-13.72,21.4-20.58
		c1.34-1.4,2.68-2.79,4.02-4.19c3.5-4.91,3.61-4.92,7.52-0.95c2.89,2.93,5.8,5.83,8.7,8.74c2.62,2.62,5.23,5.23,7.85,7.85
		c2.01,2.03,4.03,4.07,6.04,6.1c2.67,3.13,5.03,6.55,8.5,8.93c2.6,3.18,5.3,6.27,8.49,8.89c2.17,1.58,1.31,3.06-0.14,4.53
		c-0.6,0.5-1.21,0.99-1.81,1.49c-5.34,4.64-10.36,9.59-15.12,14.82c-3.61,3.32-7.21,6.63-10.82,9.95c-1.13,1.04-2.07,2.83-3.97,1.07
		C821.7,531.25,811.06,520.28,800.42,509.31z M792.97,496.83c1.66,1.82,3.2,1.41,4.58,1.56c6.91,0.79,13.82,1.66,20.75,2.34
		c2.98,0.29,4.56,1.39,4,4.63c-0.62,3.56,0.53,5.69,4.58,5.35c4.12-0.34,5,2.02,5.14,5.62c0.27,6.96,0.91,13.91,1.47,20.85
		c0.08,0.93-0.72,2.43,1.8,2.76c-0.16-8.19,0.36-16.26-0.66-24.33c-0.37-2.92,0.06-4.55,3.84-3.99c6.89,1.01,13.86,1.45,20.8,2.12
		c1.06,0.1,2.39,0.81,2.74-1.35c-10.39-1.99-20.74-4.22-31.19-5.82c-3.33-0.51-4.13-2.07-4.5-4.73c-0.69-4.92-1.37-9.85-2.09-14.77
		c-0.81-5.52-1.66-11.04-2.49-16.56c-1.82,2.05-1.49,4.2-1.4,6.26c0.28,6.3,0.64,12.6,1.08,18.89c0.11,1.58,0.26,2.49-1.91,2.27
		c-4.95-0.5-9.93-0.74-14.89-1.06C800.96,496.64,797.27,496.01,792.97,496.83z"/>
	<path d="M637.42,318.67c5.03-2.47,10.06-4.93,15.1-7.4c2.84-1.36,5.84-2.41,8.31-4.45c2.14-0.4,3.95-1.48,5.67-2.76
		c5.35-2.67,10.71-5.34,16.06-8c3.48-1.81,5.91-1.37,7.82,2.56c3.8,7.81,8.04,15.41,12.09,23.1c3.19,6.48,6.43,12.94,9.54,19.45
		c0.6,1.26,2.46,2.68,0.19,4.16c-4.19,1.72-8.23,3.7-12.01,6.21c-1.1,0.05-2.04,0.46-2.8,1.27c-4.7,2.35-9.39,4.71-14.09,7.06
		c-0.35,0.24-0.7,0.48-1.05,0.72l0.04-0.14c-4.27,1.55-8.24,3.69-12.08,6.09c-0.36-0.05-0.66,0.05-0.9,0.32
		c-0.34,0.24-0.68,0.48-1.03,0.71c0,0,0.08-0.09,0.08-0.09c-5.53,2.28-10.84,5-15.98,8.05c-3.93,1.56-7.86,3.13-11.09,5.98
		c-2.62-4.96-5.23-9.93-7.85-14.89c-4.68-10.16-9.66-20.18-15.09-29.97c-2.9-6.63-2.9-6.62,3.63-9.98
		C627.14,324.02,632.28,321.33,637.42,318.67z M619.74,331.55c-0.12,0.5-0.23,1-0.35,1.5c10.98,4.05,22.76,5.43,34.12,9.09
		c-3.93,10.17-7.79,20.35-11.84,30.45c-0.57,1.42-1.89,2.78,0.15,3.58c1.73,0.68,1.26-1.39,1.76-2.23
		c4.38-7.3,6.63-15.54,10.31-23.17c3.72-7.73,3.51-8.07,11.44-5.86c2.75,0.76,3.71,0.24,4.76-2.2c3.31-7.68,3.4-7.65,11.48-5.88
		c0.49,0.11,0.96,0.28,1.45,0.38c8.65,1.88,17.3,3.76,26.32,5.72c-0.84-2.63-2.68-2.71-4.2-3.14c-8.45-2.4-16.86-5.01-25.42-6.94
		c-4.51-1.02-4.86-2.66-3.12-6.48c3.48-7.66,6.55-15.51,9.81-23.27c0.68-1.61,1.66-3.15,0.35-5.45c-2.38,4.03-4.74,7.66-6.74,11.49
		c-4.62,8.89-9.1,17.86-13.56,26.84c-0.94,1.89-1.9,2.55-4.21,2.09c-6.35-1.25-12.78-2.09-19.18-3.05
		C635.3,333.84,627.52,332.7,619.74,331.55z"/>
	<path d="M817.1,470.82c-13.64-1.87-26.92-5.55-40.45-7.92c-2.12-0.37-2.48-1.39-2.73-3.27c-1.6-12.31-3.36-24.6-5.07-36.89
		c4.8-0.06,9.6-0.33,14.38-0.11c2.66,0.12,3.49-0.91,3.45-3.26c4.19,4.39,8.38,8.78,12.57,13.17c0.96,0.99,1.91,1.98,2.87,2.97
		c6.36,6.52,11.08,14.55,18.54,20.06c3.42,4.44,7.34,8.42,11.4,12.28c1.07,1.85,2.53,3.33,4.27,4.56c3.11,4.06-1.52,4.37-3,6.2
		c-2.9-2.91-5.82-5.81-8.7-8.74C820.71,465.9,820.6,465.91,817.1,470.82z"/>
	<path d="M787.17,400.24c-0.12-3.8-0.24-7.6-0.37-11.4c11.72-1.15,23.44-2.3,35.16-3.45c8.31,5.5,16.89,10.62,24.47,17.17
		c-6.69,5.95-13.39,11.89-20.06,17.86c-1.48,1.33-2.78,1.19-4.45,0.2C810.36,413.77,798.76,407.02,787.17,400.24z"/>
	<path d="M787.26,405.44c6.7,4.58,13.36,9.21,20.11,13.71c2.14,1.43,1.99,2.49,0.28,4.2c-2.92,2.94-5.61,6.11-8.4,9.19
		c-4.19-4.39-8.38-8.78-12.57-13.17C786.87,414.72,787.06,410.08,787.26,405.44z"/>
	<path d="M821.96,385.39c-1.78-2.21-4.34-3.3-6.72-4.64c-6.25-5.14-6.25-5.13-1.78-11.91c0.45-0.68,0.83-1.41,1.24-2.11
		c1.24-1.09,2.07-2.44,2.62-3.99c2.58-3.69,5.17-7.37,7.75-11.06c2.78-2.27,3.11-6.75,7.13-7.91c10.01,6.93,20.02,13.85,30.03,20.78
		c1.05,0.71,2.11,1.42,3.16,2.13c3.67,3.07,7.61,5.73,11.81,8.02c-1.08,4.18-4.9,6.78-6.26,10.79c-5.18,5.62-8.69,12.43-13.15,18.57
		c-2.14,2.96-3.74,3.74-6.56,1.47c-1.35-1.39-2.82-2.59-4.81-2.97C838.85,396.01,830.27,390.88,821.96,385.39z M873.99,376.42
		c-8.94,0-17.89-0.24-26.82,0.11c-3.72,0.15-5.12-1.02-6.24-4.47c-2.81-8.6-6.15-17.03-9.28-25.52c-0.53,5.48,1.36,10.34,2.65,15.31
		c2.35,9.03,2.39,8.78-7.18,10.01c-5.2,0.67-10.66,0.56-15.51,3.14c7.47-0.24,14.88-0.77,22.27-1.51c2.66-0.27,4.19,0.42,4.33,3.23
		c0.17,3.51,2.21,4.56,5.31,3.82c3.17-0.75,4.28,0.57,5.04,3.56c1.72,6.8,3.89,13.48,5.87,20.21c0.4-0.1,0.81-0.2,1.21-0.3
		c-1.52-6.81-2.82-13.68-4.66-20.41c-0.84-3.06-0.59-3.84,2.78-4.21C860.53,378.66,867.44,378.72,873.99,376.42z"/>
	<path d="M758.32,606.21c-0.56-0.89-1.12-1.79-1.69-2.68c0.2-1.57,0.74-3.02,1.69-4.3c5.71-2.06,7.9-0.19,6.93,5.91
		C763.21,607.18,760.94,607.83,758.32,606.21z"/>
	<path d="M693.83,365.69c0.86-0.98,1.72-1.95,2.58-2.93c3.21-0.55,5.29,0.74,6.3,3.81c-0.14,3.43-1.99,5.1-5.37,5.17
		C694.86,370.49,693.1,368.81,693.83,365.69z"/>
	<path d="M851.23,405.52c2.82,2.27,4.42,1.49,6.56-1.47c4.45-6.14,7.97-12.95,13.15-18.57c1.37,3.59,0.97,7.42,1.51,11.12
		c1.34,14.27,2.69,28.53,4.03,42.8c-0.14,0.77-0.25,1.54,0.4,2.17c0.11,2.95,0.23,5.91,0.34,8.86c-4.97,0.62-9.95,1.23-14.92,1.85
		c-5.06-0.17-10.05,0.51-15.03,1.32c-8.87,0.66-17.74,1.31-26.61,1.97c-7.46-5.51-12.18-13.54-18.53-20.06
		c1.01-1.09,1.97-2.22,3.03-3.26c2.84-2.78,5.46-7.25,8.68-7.76c2.76-0.43,6.34,3.55,9.36,5.85c1.7,1.29,2.67,1.13,4.15-0.31
		c2.72-2.63,5.01-7.54,8.27-7.32c3.63,0.24,7.06,3.88,10.51,6.15c8.91,5.89,17.78,11.84,26.84,17.87c1.17-3.06-1-3.72-2.32-4.71
		c-9.41-7.1-18.8-14.24-28.35-21.15c-2.79-2.01-3.46-3.39-0.62-5.89C845.02,412.01,848.06,408.69,851.23,405.52z"/>
	<path d="M872.21,487.36c-2.67-3.5-4.8-7.43-8.06-10.47c-2.64-2.45,0.03-4.03,0.88-5.92c1.54-2.04,3.08-4.09,4.62-6.14
		c0.56-0.45,0.77-0.94,0.2-1.54c-0.24,0.35-0.48,0.7-0.71,1.04c-3.45,0.53-4.03,3.42-4.96,6.02c-3.38,0.02-3.84,3.6-3.36,4.78
		c0.98,2.4,1.24,5.7,4.46,6.84c1.95,0.69,3.02,2.35,2.46,4.24c-0.51,1.74-2.47,1.23-3.93,1.32c-9.9,0.56-9.9,0.56-9.9-9.3
		c0-3.82,0.27-7.66-0.06-11.44c-0.38-4.31,0.93-6.27,5.47-5.34c0.94,0.19,1.98-0.07,2.97-0.12c9.79,0.39,9.79,0.39,9.97,10
		c0.01,0.33,0.07,0.65,0.11,0.98c0.01,4.41,0.01,8.83,0.02,13.24C872.33,486.15,872.27,486.75,872.21,487.36z"/>
	<path d="M890.76,341.74c0.47,1.28,0.39,2.53-0.18,3.76c-1.98,2.1-4.16,3.43-6.84,1.24c-2.09-1.71-2.56-4.02-0.72-6.04
		C885.89,337.53,888.52,338.81,890.76,341.74z"/>
	<path d="M845.81,569.12c-6.2,0.84-8.06-1.11-6.46-6.79c2.27-1.61,4.62-2.75,6.94-0.22C848.54,564.54,847.56,566.89,845.81,569.12z"
		/>
	<path d="M847.4,584.47c2.68-2.75,5.66-4.44,9.55-2.51c4.06,2.02,3.89,5.57,3.26,9.27c-2.55,2.9-5.52,4.74-9.43,2.9
		C846.48,592.11,846.66,588.34,847.4,584.47z"/>
	<path d="M892.2,479.59c-4.02-1.21-6.39-3.56-5.62-8.09c1.21-3,3.57-4.22,6.66-4.32c5.92,0.78,5.03,5.22,4.95,9.22
		C896.52,478.08,894.67,479.4,892.2,479.59z"/>
	<path d="M877.05,565.63c3.64,2.82,5.18,6.16,2.59,10.52c-0.49,0.55-0.98,1.1-1.47,1.64c-3.76,2.22-7.06,1.38-10.07-1.49
		C865.28,568.42,868.6,564.45,877.05,565.63z"/>
	<path d="M891.3,397.8c-2.95,1.12-5.57,0.34-8.05-1.35c-2.01-2.74-2.91-5.63-0.94-8.75c2.07-3.27,5.14-3.9,8.69-3.01
		c5.03,4.18,5.44,6.42,2.11,11.83C892.51,396.95,891.9,397.38,891.3,397.8z"/>
	<g>
		<path d="M501.09,354.72l-4.34-1.08l-87.19-21.71l5.28-4.42c3.42-2.86,5.39-5.94,6.2-9.68l0.31-2.24
			c-0.04-2.53-0.07-5.05-0.09-7.58l0-0.29c-0.02-3.78-0.04-7.54-0.06-11.29c-0.06-9.47-0.12-19.25-0.08-28.89
			c0.03-7.17-0.76-11.71-5.01-15.17c-0.52-0.43-0.87-0.92-1.12-1.4c-0.71-0.21-1.21-0.58-1.51-0.86c-0.2-0.18-0.45-0.45-0.68-0.81
			c-1.06-0.1-2.56-0.39-3.7-1.72c-0.91-1.05-1.29-2.41-1.14-4.04l0.19-2.12l90.7-37.04l3.16,6.22c-0.33,0.2-0.93,0.58-0.93,2.46
			c0.05,45.73,0.04,92.22,0.03,137.18L501.09,354.72z M423.79,328.25l70.31,17.51c0.01-43.29,0.02-87.93-0.03-131.87L419,244.55
			l1.35,0.27l0.64,1.92c0.08,0.24,0.15,0.49,0.2,0.76c6.43,5.69,6.95,13.32,6.92,20.06c-0.04,9.6,0.02,19.37,0.08,28.82
			c0.02,3.76,0.05,7.52,0.06,11.28l0,0.26c0.03,2.61,0.06,5.21,0.1,7.82l0,0.27l-0.44,3.13
			C427.22,322.49,425.86,325.51,423.79,328.25z"/>
	</g>
	<line x1="502.48" y1="206.66" x2="500.16" y2="207.62"/>
</g>
</svg>
