<?xml version="1.0" encoding="utf-8"?>
<!-- Generator: Adobe Illustrator 27.0.0, SVG Export Plug-In . SVG Version: 6.00 Build 0)  -->
<svg version="1.1" id="Layer_1" xmlns="http://www.w3.org/2000/svg" xmlns:xlink="http://www.w3.org/1999/xlink" x="0px" y="0px"
	 viewBox="0 0 1080 1080" style="enable-background:new 0 0 1080 1080;" xml:space="preserve">
<g>
	<path d="M619.75,747c-0.5,6.34-1.85,12.13-9.01,14.3c-0.39,0.12-0.52,1.06-0.77,1.61c-84.64,0-169.28,0-253.92,0
		c0.15-2.26-1.9-1.9-3.07-2.49c-5.43-2.7-8.48-7.76-8.09-13.63c33.03,0.03,66.06,0.06,99.09,0.09c0.51,6.23,5.65,6.79,9.85,6.85
		c20.08,0.32,40.16,0.3,60.24,0.03c4.56-0.06,9.33-1.28,10.9-6.82C556.55,746.97,588.15,746.98,619.75,747z"/>
	<path d="M610.67,581.73c0.07,11.14,0.2,22.28,0.21,33.43c0.03,32.44-0.04,64.89,0.07,97.33c0.01,4.11-0.88,7.53-4.21,10.1
		c-2.5,1.06-5.11,1.26-7.81,1.25c-75.94-0.03-151.88-0.03-227.82,0c-2.7,0-5.3-0.26-7.82-1.25c-3.2-2.65-4.23-6.07-4.22-10.17
		c0.07-48.94,0.03-97.87,0.05-146.81c0-8.4,3.04-11.4,11.45-11.4c48.77,0.02,97.54,0.05,146.32,0.08c-0.26,2.81,0.35,5.52,0.92,8.24
		c-48.64,0.02-97.28,0.1-145.92-0.02c-4.1-0.01-5.29,0.97-5.27,5.19c0.16,42.81,0.1,85.61,0.1,128.42c0,1.16-0.02,2.34,0.11,3.49
		c0.16,1.34,1.14,1.42,2.22,1.18c0.16,0.03,0.33,0.08,0.49,0.08c77.12,0.04,154.25,0.05,231.37,0.18c3.41,0.01,3.7-1.44,3.7-4.19
		c-0.09-36.98-0.1-73.95-0.13-110.93C606.55,584.54,608.61,583.13,610.67,581.73z"/>
	<path d="M594.05,458.89c-8.67,2.37-17.33,4.77-26.01,7.08c-7.82,2.08-13.06-0.7-15.29-8.48c-5.5-19.2-10.88-38.44-16.15-57.71
		c-1.87-6.84,1.29-12.32,8.16-14.27c33.32-9.43,66.66-18.79,100.02-28.07c6.46-1.8,11.94,1.01,13.91,7.28
		c2.34,7.45,4.14,15.07,6.18,22.61c-1.89-0.41-3-2.02-4.53-2.95c-5.03-3.07-8.8-8.16-14.98-9.4c2.05-3.01,4.11-6.02,6.14-9.04
		c0.52-0.78,1.52-1.65,0.45-2.56c-1.21-1.03-2.16-0.15-2.85,0.88c-2.65,3.96-6.16,7.34-8.01,11.84c-1.45,1.78-2.98,3.5-4.35,5.35
		c-9.15,12.32-17.88,24.95-27.89,36.61c-3.41,0.36-6.53-0.48-9.66-1.84c-17.25-7.51-34.54-14.93-51.86-22.27
		c-1.68-0.71-4.02-3.42-5.44-0.15c-1.33,3.08,2.24,2.67,3.63,3.3c13.82,6.2,27.66,12.39,41.67,18.13c4.74,1.94,4.22,3.54,1.46,6.85
		c-9.28,11.13-18.36,22.42-27.41,33.73c-0.94,1.18-3.6,2.4-1.45,4.41c2.39,2.23,3.45-0.42,4.6-1.84
		c8.55-10.44,17.04-20.92,25.57-31.37c6.04-7.4,6.05-7.39,15.33-4.59c-1.31,4.42-4.95,7.25-7.44,10.86
		c-4.18,6.08-3.77,9.26,2.01,13.71c0.77,0.59,1.42,1.32,2.13,1.98C599.37,452.26,596.71,455.57,594.05,458.89z"/>
	<path d="M729.91,526.73c-6.16-4.14-12.33-8.29-18.49-12.43c2.2-3.7,4.57-7.29,7.49-10.48c0.57,0.01,1.06-0.08,1.07-0.81
		c0,0-0.04,0.04-0.04,0.04c1.75,0.51,3.25-0.4,4.81-0.88c11.45-3.51,22.92-6.95,34.32-10.63c3.12-1.01,4.1-0.41,4.14,2.91
		c0.1,7.98,0.53,15.96,0.79,23.94c0.24,7.31,0.42,14.63,0.71,21.94c0.06,1.44-0.79,3.71,2.07,3.51c2.46-0.18,2.1-2.11,2.11-3.74
		c0-1-0.06-2-0.09-2.99c-0.36-14.64-0.62-29.27-1.17-43.9c-0.12-3.22,0.87-4.66,3.86-5.8c8.69-3.33,9.52-4.57,9.16-13.6
		c-0.13-3.2,0.86-4.67,3.83-5.82c14.42-5.6,28.75-11.42,43.09-17.21c1.4-0.56,3.7-0.86,2.49-3.3c-1.09-2.2-2.63-0.44-3.81,0.01
		c-13.99,5.33-28.01,10.59-41.87,16.24c-4.18,1.7-5,0.5-5.34-3.4c-1.25-14.42-2.73-28.81-4.12-43.22c4.71-1.7,9.48-3.18,14.43-4.02
		c12.82,8.63,25.63,17.26,38.46,25.88c9.16,6.16,10.16,11.14,4.08,20.3c-18.22,27.42-36.43,54.84-54.65,82.26
		c-5.57,8.37-10.9,9.47-19.21,3.97c-4.71-3.12-9.4-6.28-14.1-9.43c1.75-4.39,1.89-8.57-2.48-11.49
		C737.05,521.65,733.25,523.34,729.91,526.73z M724.82,508.49c-0.17-1.43-1.01-2.32-2.53-2.42c-1.68-0.11-3.03,0.51-3.15,2.35
		c-0.1,1.57,0.98,2.4,2.47,2.52C723.29,511.07,724.5,510.41,724.82,508.49z"/>
	<path d="M363.29,722.6c2.52,0.99,5.12,1.25,7.82,1.25c75.94-0.03,151.88-0.03,227.82,0c2.7,0,5.31-0.19,7.81-1.25
		c3.52,8.26,8.95,15.46,13.02,23.42c-31.6-0.02-63.2-0.03-94.8-0.05c-26.99-0.02-53.99-0.04-80.99-0.06
		c-33.03-0.03-66.06-0.06-99.09-0.09c4.96-7.62,11.56-13.93,16.98-21.19C362.35,723.95,362.81,723.27,363.29,722.6z"/>
	<path d="M789.34,413.08c-4.95,0.84-9.72,2.32-14.43,4.02c-1.14-0.15-2.13,0.21-3.03,0.9c-5.58,1.05-11.01,2.63-16.33,4.6
		c-8.63,1.3-10.46,0.14-12.85-8.3c-3.3-11.69-6.63-23.37-9.84-35.08c-1.72-6.31,0.03-9.46,6.27-11.24
		c21.76-6.21,43.54-12.37,65.33-18.47c6.26-1.75,9.56,0.12,11.32,6.29c3.47,12.16,6.88,24.33,10.25,36.52
		c1.92,6.96,0.26,9.92-6.55,11.92C809.44,407.19,799.39,410.13,789.34,413.08z M811.27,353.38c-3.09-0.26-3.5,1.71-4.37,2.91
		c-6.7,9.13-13.32,18.31-19.96,27.49c-5.32,7.36-6.31,7.65-14.4,4.16c-10.55-4.55-21.08-9.12-31.66-13.61
		c-1.42-0.6-3.62-2.41-4.4-0.61c-1.03,2.36,2.06,2.44,3.47,3.08c8.65,3.89,17.35,7.69,26.13,11.29c3.17,1.3,3.77,2.44,1.41,5.24
		c-5.9,7-11.59,14.18-17.27,21.37c-0.91,1.15-3.37,2.57-1.68,3.97c2.09,1.72,2.98-1.2,3.99-2.42c5.85-7.04,11.65-14.13,17.3-21.34
		c1.95-2.49,3.72-3.89,7.06-2.36c3.41,1.56,6.63,0.8,8.7-2.54c1.78-2.87,3.89-2.75,6.73-1.72c8.61,3.12,17.29,6.03,25.97,8.92
		c1.56,0.52,3.22,1.96,4.99,0.25c-0.32-1.86-2.01-1.67-3.1-2.07c-8.13-2.97-16.31-5.81-24.46-8.71c-6.14-2.19-6.15-2.22-2.55-7.37
		c4.67-6.69,9.37-13.36,14.05-20.04C808.5,357.44,809.74,355.61,811.27,353.38z"/>
	<path d="M692.18,541.59c3.54-0.91,7.07-1.89,10.63-2.72c4.65-1.08,8.11,0.47,9.45,4.96c4,13.38,7.79,26.83,11.42,40.31
		c1.2,4.44-0.96,8.04-5.38,9.31c-22.71,6.5-45.44,12.91-68.2,19.23c-4.34,1.21-7.83-0.69-9.09-4.9
		c-4.05-13.54-7.88-27.15-11.55-40.8c-1.18-4.38,1.3-7.72,6.25-9.21c9.87-2.96,19.78-5.8,29.66-8.69c3.77-0.47,7.36-1.57,10.84-3.07
		c1.18,0.01,2.31-0.14,3.25-0.96C683.87,544.54,688.02,543.06,692.18,541.59z M694.78,558.88c-3.86,5.21-7.7,10.43-11.57,15.64
		c-4.6,6.18-5.59,6.47-12.45,3.54c-11.18-4.77-22.33-9.58-33.52-14.31c-1.24-0.53-3.1-2.04-3.84-0.09
		c-0.73,1.93,1.72,1.98,2.95,2.53c8.83,3.91,17.64,7.86,26.56,11.54c3.33,1.38,4.02,2.53,1.47,5.53
		c-6.04,7.1-11.81,14.43-17.61,21.73c-0.79,0.99-2.98,2.17-1.09,3.6c1.72,1.31,2.5-0.88,3.36-1.93
		c6.12-7.47,12.25-14.93,18.26-22.48c1.74-2.19,3.44-3.41,6.31-2.03c3.67,1.76,6.94,0.93,9.13-2.49c1.89-2.95,4.03-2.52,6.8-1.54
		c9.1,3.23,18.26,6.25,27.41,9.35c1.07,0.36,2.61,1.25,3.14-0.03c0.82-1.98-1.4-1.86-2.42-2.23c-9.07-3.31-18.15-6.57-27.28-9.7
		c-2.77-0.95-3.42-2.01-1.55-4.52c2.58-3.46,4.89-7.12,7.32-10.7c4.31-5.49,8.67-10.94,11.78-17.18c-0.48-0.33-0.95-0.65-1.43-0.98
		C702.59,547.7,698.69,553.29,694.78,558.88z"/>
	<path d="M692.18,541.59c-4.16,1.47-8.31,2.95-12.73,3.46c-4.91-14.08-9.75-28.17-14.78-42.21c-1.18-3.3-1.47-4.96,3.05-5.2
		c13.56-0.71,27.09-1.88,40.63-2.87c2.79-0.15,5.57-0.28,8.36-0.47c1.04-0.07,2.07-0.39,1.82-1.72c-0.16-0.87-0.96-1.33-1.87-1.25
		c-2.44,0.22-4.88,0.49-7.32,0.74c-2.49,0.02-4.99-0.04-7.47,0.08c-15.43,0.76-30.85,1.68-46.28,2.31
		c-6.86,0.28-9.12-1.67-11.1-8.24c-1.48-4.92-3.01-9.83-4.51-14.74c1.06-1.27,2.13-2.53,3.17-3.81
		c6.37-7.82,11.61-16.52,18.61-23.84c16.41,11.54,32.82,23.08,49.25,34.6c1.76,1.23,3.65,2.28,5.47,3.4
		c5.65,4.31,9.1,9.37,5.72,16.76c-0.7,1.51-2.59,2.42-2.25,4.46c0,0,0.04-0.04,0.04-0.04c-0.65-0.12-0.9,0.29-1.07,0.81
		c-2.92,3.19-5.29,6.78-7.49,10.48C705,523.4,698.59,532.49,692.18,541.59z"/>
	<path d="M661.74,443.84c-7,7.32-12.24,16.02-18.61,23.84c-1.04,1.28-2.11,2.54-3.17,3.81c-1.08,0.24-2.16,0.47-3.24,0.71
		c-2.6-0.01-4.72-1.04-6.8-2.6c-9.25-6.95-18.58-13.78-27.89-20.65c-0.71-0.66-1.37-1.39-2.13-1.98c-5.78-4.45-6.2-7.63-2.01-13.71
		c2.49-3.62,6.13-6.45,7.44-10.86c1.84-0.91,3.14-2.27,3.54-4.36c10.01-11.66,18.74-24.29,27.89-36.61
		c1.37-1.84,2.89-3.57,4.35-5.35c1.42-0.37,2.84-0.74,4.26-1.11c6.18,1.24,9.94,6.33,14.98,9.4c1.54,0.94,2.65,2.54,4.53,2.95
		c4.56,4.92,10.67,7.92,15.46,12.55c-4.15,2.26-8.27,4.58-12.47,6.76c-2.14,1.11-3.88,2.43-4.22,5c-3.83,1.11-7.7,2.07-11.47,3.37
		c-2.96,1.02-4.44,1.05-4.47-2.89c-0.07-9.47-0.55-18.93-0.95-28.39c-0.07-1.53,0.67-3.39-1.26-4.57c-2.25,1.38-1.22,3.56-1.21,5.36
		c0.02,2.98,0.51,5.95,0.57,8.93c0.14,7.15,0.27,14.31,0.14,21.46c-0.07,4.07,0.46,6.02,5.23,3.9c4.37-1.95,8.97-3.55,13.78-4.24
		c0.94,1.75,1.69,3.64,2.85,5.24c4.65,6.4,5.34,12.5-0.91,18.32C664.12,439.7,662.41,441.38,661.74,443.84z M609.97,436.24
		c-3.07,0.65-6.15,1.3-9.22,1.96c-0.85,0.18-1.7,0.57-1.61,1.56c0.13,1.42,1.37,1.39,2.27,1.1c2.82-0.91,5.99-0.7,8.48-2.66
		c7.35-0.28,14.2-2.96,21.26-4.59c3.39-0.79,4.07,0.12,4.01,3.2c-0.11,5.95,0.02,11.91,0.06,17.87c-0.41,3.95-1.18,7.88-0.58,11.87
		c0.14,0.95,0.38,2.18,1.67,2.07c1.27-0.1,1.3-1.3,1.3-2.29c-0.01-1.98-0.08-3.97-0.13-5.95c0.97-8.05,0.09-16.18,1.18-24.25
		c0.37-2.71,0.86-4.73,3.39-5.92c3.09-0.27,5.36-1.57,5.76-4.91c0.12-1,0.66-2.46-0.98-2.84c-1.26-0.29-1.64,0.74-1.91,1.73
		c-0.56,2.08-2.15,3.2-3.89,4.19C630.59,430.68,620.18,433.05,609.97,436.24z"/>
	<path d="M517.82,562.54c-0.57-2.72-1.18-5.43-0.92-8.24c1.43-2.83,3.7-4.45,6.78-5.29c11.95-3.26,23.87-6.65,35.8-9.99
		c0.77,7.63,1.8,8.58,9.49,8.76c4.78,0.11,9.57,0.25,14.35,0.37c-1.15,1.96-2.3,3.92-3.44,5.88c-2.56,2.37-4.71,5.04-5.99,8.33
		c-1.09,1.24-2.24,2.43-3.24,3.73c-4.48,5.85-5.65,6.16-12.55,3.3c-5.82-2.41-11.66-4.77-17.49-7.16
		c-5.54-2.51-11.07-5.03-16.62-7.52c-1.04-0.47-2.33-1.11-2.92,0.44c-0.48,1.23,0.76,1.65,1.62,2.02c4.68,2,9.14,4.55,14.16,5.7
		c4.66,2.15,9.23,4.53,14,6.39c3.46,1.35,3.29,2.71,1.18,5.24c-6.07,7.28-11.99,14.67-17.89,22.09c-0.76,0.96-3.03,2.01-0.94,3.53
		c1.54,1.12,2.25-0.71,3.04-1.67c6.2-7.6,12.42-15.18,18.54-22.84c1.72-2.15,3.31-3.52,6.25-2.07c3.87,1.91,7.15,0.75,9.5-2.74
		c1.66-2.46,3.58-2.32,6.03-1.42c3.73,1.37,7.57,2.44,11.36,3.63c5.55,2,11.1,3.99,16.65,5.99c0.17-0.46,0.34-0.92,0.51-1.38
		c-4.65-3.55-10.22-4.87-15.96-5.79c-3.17-2.9-7.42-3.37-11.2-4.89c-2.06-0.83-3.77-1.53-2.21-4.15c2.41-2.44,4.48-5.1,5.59-8.41
		c2.25-1.56,3.52-3.86,4.7-6.22c5.96-0.08,11.93-0.28,17.87,0.52c0.4,2.26,0.84,4.5,2.03,6.51c0.66,6.09,2.67,11.81,4.8,17.5
		c0.73,3.01,1.01,6.02,0,9.02c-2.06,1.4-4.12,2.81-6.18,4.21c-1.72-0.5-3.25,0.27-4.83,0.72c-19.45,5.48-38.91,10.94-58.35,16.48
		c-3.08,0.88-6.11,1.5-9.28,0.78c-2.79-2.13-3.92-5.17-4.82-8.41C524.13,584.5,520.95,573.52,517.82,562.54z"/>
	<path d="M602.03,448.95c9.3,6.87,18.64,13.7,27.89,20.65c2.07,1.56,4.2,2.59,6.8,2.59c0.14,0.99,0.2,1.99,0.42,2.96
		c1.3,5.75,1.31,5.76-4.34,5.76c-14.49,0.01-28.97-0.02-43.46,0.07c-1.52,0.01-4.17-1.19-4.1,1.92c0.06,2.84,2.48,2.05,4.19,2.06
		c15.32,0.04,30.64,0.16,45.96,0c3.42-0.04,4.9,1.01,6.03,4.27c2.96,8.58,4.43,9.62,13.41,9.52c3.33-0.04,4.63,1.22,5.66,4.11
		c5.14,14.42,10.46,28.77,15.71,43.15c-3.48,1.5-7.07,2.6-10.84,3.07c-12.54-9.49-25.47-18.42-38.47-27.26
		c-0.02-2.99-0.07-5.97-0.07-8.96c0.01-5.85-1.84-7.73-7.65-7.94c-5.8-0.21-11.63,0.35-17.4-0.7c-5.2-3.81-10.37-7.64-15.6-11.41
		c-6.74-4.86-7.84-10.51-3.22-17.52c3.63-5.51,7.39-10.94,11.09-16.4C596.71,455.57,599.37,452.26,602.03,448.95z"/>
	<path d="M722.18,498.59c3.38-7.39-0.07-12.45-5.72-16.76c13.03-19.74,26.05-39.48,39.08-59.23c5.33-1.97,10.76-3.55,16.34-4.6
		c0.55,6.45,1.14,12.89,1.65,19.34c0.95,11.91,1.92,23.81,2.76,35.73c0.32,4.58-0.58,8.82-5.66,10.43
		C754.51,488.6,738.34,493.57,722.18,498.59z"/>
	<path d="M601.78,504.22c5.77,1.06,11.6,0.49,17.4,0.7c5.81,0.21,7.65,2.09,7.65,7.94c0,2.99,0.04,5.97,0.07,8.96
		c-0.26,6.62-0.51,13.24-0.79,19.85c-0.22,5.29-2.11,7.1-7.35,7.09c-4.97-0.01-9.93-0.04-14.9-0.07c-5.94-0.8-11.91-0.6-17.87-0.52
		c-0.89-0.01-1.78-0.02-2.67-0.03c-4.78-0.13-9.57-0.26-14.35-0.37c-7.69-0.18-8.72-1.13-9.49-8.76c0.23-8.95,0.44-17.9,0.71-26.84
		c0.21-6.88,1.92-8.42,8.76-8.32C579.89,504,590.83,504.1,601.78,504.22z M602.39,530.74c0.07,0.21,0.22,0.35,0.44,0.4
		c6.16,5.13,12.71,9.66,19.3,14.13c0.36-0.52,0.73-1.05,1.09-1.57c-6.39-4.59-12.77-9.18-19.16-13.77c-0.13-0.24-0.33-0.38-0.6-0.43
		c-0.39-0.28-0.78-0.55-1.17-0.83c-0.24-0.26-0.48-0.52-0.72-0.78c4.39-5.48,10.85-8.54,15.75-13.42c2.47-1.4,4.96-2.78,6.94-6.38
		c-3.91,1.44-6.13,3.45-8.31,5.54c-5.32,4.11-10.65,8.22-15.97,12.33c-1.04,0.66-2.85,1.28-2.24,2.56c0.41,0.86,2.4,0.97,3.68,1.4
		C601.75,530.19,602.07,530.47,602.39,530.74z M575.98,534.95c2.56-1.14,5.24-1.99,7.49-3.79c1.95-1.56,3.66-2.66,6.57-0.8
		c1.62,1.04,5.1,1.64,6.73-0.31c-13.74-3.39-20.71-16.58-32.45-22.82c-0.7,2.28,1.18,2.75,2.14,3.6c4.48,3.95,9.09,7.76,13.62,11.66
		c6.45,5.55,5.13,4.29-0.22,8.38c-1.48,1.13-3.88,1.53-3.81,4.14c-5.67,0.79-8.98,5.2-13.04,8.46
		C567.78,541.32,572.68,539.36,575.98,534.95z"/>
	<path d="M665.96,438.11c6.25-5.81,5.56-11.92,0.91-18.32c-1.16-1.59-1.91-3.48-2.85-5.23c-0.12-0.98-0.25-1.95-0.37-2.93
		c0.34-2.57,2.08-3.89,4.22-5c4.19-2.18,8.31-4.5,12.47-6.76c9.62-4.89,19.24-9.78,28.86-14.66c5.53-2.8,7.51-2.23,10.36,3.2
		c4.02,7.64,8.02,15.3,11.91,23c2.32,4.59,1.56,6.92-3,9.31c-13.98,7.32-27.98,14.59-42.01,21.81c-4.77,2.46-7.15,1.75-9.53-3.3
		c-1.76-3.73-3.29-5.97-7.22-2.21C668.88,437.82,667.23,437.77,665.96,438.11z M725.91,415.7c1.24,0.35,2.5,0.76,3.57-0.57
		c-0.94-1.45-2.31-0.88-3.52-0.9c-6.63-1.57-13.57-0.98-20.15-2.94c1.25-7.1,5.34-13.08,7.72-19.74c0.56-1.55,1.96-2.97,0.73-5.95
		c-3.63,8.38-6.9,15.91-10.17,23.45c-4.21,8.18-4.21,8.15-13.24,6.35c-2.59-0.52-5.22-0.82-7.84-1.22c-4.38-1.37-8.78-2.61-13.45-2
		c4.2,1.95,8.61,2.86,13.12,3.41c9.43,2.38,9.43,2.38,5,11.12c-0.45,0.89-0.98,1.74-1.38,2.65c-1.67,3.8-4.41,7.15-5.44,11.65
		c2.67-0.51,2.85-2.42,3.58-3.79c2.82-5.28,4.86-11.14,8.49-15.77c3.24-4.14,9.75-4.16,13.72-7.98c0.29-0.28,1.27,0.16,1.93,0.24
		C714.36,414.38,720.13,415.04,725.91,415.7z"/>
	<path d="M536.98,477.79c-0.03,7.46-5.85,13.27-13.31,13.28c-7.44,0.01-13.44-5.87-13.46-13.21c-0.03-7.46,6.35-13.85,13.67-13.67
		C531.22,464.36,537.02,470.38,536.98,477.79z"/>
	<path d="M744.96,554.95c0.03,7.43-5.76,13.34-13.18,13.46c-7.29,0.12-13.43-5.79-13.61-13.11c-0.19-7.38,6.17-13.9,13.51-13.84
		C738.9,541.53,744.93,547.65,744.96,554.95z"/>
	<path d="M729.91,526.73c3.34-3.4,7.15-5.09,11.53-2.16c4.37,2.92,4.23,7.1,2.48,11.49c-3.46,3.24-7.29,4.82-11.59,1.78
		C728.28,534.98,728.28,530.97,729.91,526.73z"/>
	<path d="M539.93,511.12c-0.05,4.58-3.82,8.15-8.42,7.99c-4.4-0.15-7.68-3.69-7.63-8.2c0.05-4.54,3.37-7.9,7.84-7.95
		C536.41,502.92,539.98,506.47,539.93,511.12z"/>
	<path d="M709.76,534.31c0.14-3.59,1.97-5.78,5.48-5.79c3.44-0.01,5.62,2.05,5.59,5.61c-0.02,3.27-2.02,5.35-5.22,5.51
		C712.13,539.8,710.12,537.8,709.76,534.31z"/>
	<path d="M507.08,494.31c-0.16,3.92-2.14,6.1-5.53,6.17c-3.11,0.06-5.36-1.81-5.55-5.17c-0.2-3.54,1.71-5.81,5.16-6.04
		C504.69,489.03,506.49,491.33,507.08,494.31z"/>
	<path d="M610.67,572.71c-2.13-5.69-4.13-11.41-4.8-17.5c4.1,1.72,5.2,5.11,5.07,9.17C610.86,567.15,610.77,569.93,610.67,572.71z"
		/>
	<path d="M488.5,481.55c-1.81-0.34-2.86-1.28-2.74-3.02c0.12-1.69,1.15-2.68,2.92-2.58c1.77,0.1,2.64,1.22,2.58,2.91
		C491.2,480.63,489.96,481.33,488.5,481.55z"/>
	<path d="M724.82,508.49c-0.32,1.92-1.53,2.58-3.21,2.45c-1.49-0.12-2.57-0.95-2.47-2.52c0.12-1.84,1.47-2.46,3.15-2.35
		C723.81,506.17,724.65,507.06,724.82,508.49z"/>
	<path d="M718.91,503.82c0.17-0.52,0.42-0.93,1.07-0.81C719.97,503.75,719.48,503.84,718.91,503.82z"/>
	<path d="M602.38,530.74c-0.32-0.28-0.64-0.55-0.96-0.83c0.29-0.41,0.57-0.83,0.86-1.25c0.39,0.28,0.78,0.55,1.17,0.83
		C603.1,529.91,602.74,530.33,602.38,530.74z"/>
	<path d="M604.06,529.93c-0.41,0.4-0.83,0.8-1.24,1.2c-0.22-0.05-0.37-0.18-0.44-0.39c0.36-0.41,0.72-0.83,1.08-1.24
		C603.73,529.55,603.93,529.69,604.06,529.93z"/>
	<path d="M725.91,415.7c0.02-0.49,0.03-0.98,0.05-1.47c1.22,0.02,2.59-0.55,3.52,0.9C728.4,416.46,727.15,416.05,725.91,415.7z"/>
	<path d="M515.05,615.4c9.34-1.64,18.68-3.27,28.02-4.92c5.64-0.99,7.69,0.36,8.72,5.95c1.53,8.34,2.98,16.7,4.46,25.05
		c1.02,5.77-0.12,7.64-5.78,8.7c-13.9,2.62-27.81,5.11-41.72,7.68c-1.3,0.24-2.56,0.65-3.84,0.97c-6.88,0.18-7.79-0.57-9.07-7.36
		c-0.36-1.93-0.83-3.84-1.26-5.76c-0.13-0.54-0.26-1.07-0.4-1.61c-0.86-4.97-1.71-9.95-2.57-14.92c-1.19-8.2-0.37-9.31,7.89-10.85
		C504.69,617.38,509.87,616.38,515.05,615.4z M545.43,615.46c-2.09,1.92-4.53,3.58-5.45,7.27c3-2.02,4.78-4.13,6.19-6.6
		c0.78-0.68,2.4-1.55,1.39-2.41C546.53,612.85,546.03,614.67,545.43,615.46z M511,643.16c-3.95,3.91-7.9,7.82-11.85,11.73
		c0.47,0.44,0.94,0.89,1.41,1.33c3.47-3.62,6.93-7.24,10.4-10.87c0.64-0.52,1.34-0.97,1.92-1.56c3.02-3.06,5.47-7.55,10.97-4.04
		c0.47,0.3,1.84-0.05,2.27-0.55c3.3-3.85,6.61-2.2,10.19-0.44c4.77,2.35,9.7,4.39,14.56,6.56c0.95,0.42,1.93,1.13,3.36-0.41
		c-6.6-3.11-12.79-6.24-19.16-8.94c-3.37-1.43-3.47-2.74-1.1-5.22c2.22-2.32,4.14-4.92,6.19-7.4c-0.36-0.31-0.72-0.62-1.08-0.93
		c-3.57,3.96-7.23,7.84-10.67,11.91c-2.59,3.07-5.24,3.51-8.74,1.51c-6.93-3.97-13.97-7.76-21.03-11.49
		c-1.31-0.69-2.47-2.37-5.43-0.93c5.54,3.13,10.47,5.97,15.45,8.71C516.37,636.38,516.38,636.35,511,643.16z"/>
	<path d="M491.62,629.19c0.86,4.97,1.71,9.95,2.57,14.92c-2.38,0.66-4.76,1.29-7.12,1.99c-12.94,3.82-10.42,3.02-16.88-6.72
		c-2.86-7.14-7.07-13.48-11.25-19.85c2.57,7.61,6.34,14.56,10.42,21.34c0.56,2.05-0.36,2.91-2.34,3.31c-2.7,0.55-5.34,1.37-8,2.07
		c-4.38,0.84-8.95,1.04-12.78,3.87c4.41,0.23,8.59-0.81,12.7-2.21c1.3-0.21,2.62-0.36,3.91-0.64c4.38-0.96,9-3.32,12.01,2.52
		c0.28,0.53,1.64,1.04,2.19,0.82c5.48-2.23,6.74,2.31,8.83,5.42c3.34,5,6.59,10.05,9.87,15.08c0.45-0.29,0.91-0.58,1.36-0.88
		c-2.41-3.82-4.85-7.61-7.23-11.45c-6.01-9.73-6-9.74,4.7-13.08c0.42,1.92,0.89,3.83,1.25,5.76c1.28,6.79,2.19,7.54,9.07,7.36
		c-1.34,3.39-2.61,6.81-4.05,10.15c-2.26,5.24-4.45,6.13-9.77,3.94c-13.2-5.43-26.36-10.93-39.55-16.38
		c-1.68-0.69-3.41-1.25-5.12-1.88c-3.34-2.38-3.97-5.26-2.29-9.1c3.47-7.9,6.6-15.94,9.95-23.89c2.06-4.9,4.38-5.93,9.42-3.93
		C472.91,621.48,482.25,625.37,491.62,629.19z"/>
	<path d="M545.43,615.46c0.6-0.79,1.1-2.61,2.12-1.74c1.01,0.86-0.6,1.73-1.38,2.41C545.91,615.92,545.66,615.7,545.43,615.46z"/>
</g>
</svg>
