<?xml version="1.0" encoding="utf-8"?>
<!-- Generator: Adobe Illustrator 27.0.0, SVG Export Plug-In . SVG Version: 6.00 Build 0)  -->
<svg version="1.1" id="Layer_1" xmlns="http://www.w3.org/2000/svg" xmlns:xlink="http://www.w3.org/1999/xlink" x="0px" y="0px"
	 viewBox="0 0 1080 1080" style="enable-background:new 0 0 1080 1080;" xml:space="preserve">
<g>
	<path d="M348,691.5c0-2.25,0-4.5,0-6.75c1.59-4.82,4.06-8.98,8.05-12.3c5.18-4.32,10.05-9.01,15.23-13.33
		c1.95-1.63,2.55-3.37,2.52-5.8c-0.1-9.62-0.13-19.24-0.02-28.87c0.34-28.8,19.94-51.25,48.45-55.44c3.88-0.57,7.86-0.56,11.68-0.81
		c0-25.82,0-51.33,0-77.45c-6.97,6.95-13.49,13.46-20.03,19.96c-5.21,5.18-8.78,5.16-14.02-0.08c-15.2-15.19-30.41-30.38-45.58-45.6
		c-2.18-2.18-4.19-4.53-6.28-6.8c0-1.75,0-3.5,0-5.25c1.39-1.56,2.71-3.18,4.18-4.66c19.25-19.29,38.64-38.43,57.74-57.85
		c18.34-18.65,40.4-27.65,66.53-27.53c42.62,0.21,85.23,0.15,127.85,0.02c25.57-0.08,47.24,8.8,65.24,26.99
		c18.46,18.66,37.1,37.13,55.64,55.71c2.35,2.36,4.55,4.87,6.82,7.32c0,1.75,0,3.5,0,5.25c-1.11,1.3-2.15,2.68-3.35,3.89
		c-16.33,16.37-32.67,32.73-49.04,49.06c-4.54,4.53-8.41,4.52-12.95,0.03c-6.13-6.07-12.19-12.2-18.3-18.28
		c-0.64-0.64-1.42-1.14-2.52-2c0,13.45,0,26.32,0.01,39.18c0,0.48,0.18,0.96,0.31,1.62c11.84-2.1,22.7,0,32.24,7.41
		c9.5,7.38,14.18,17.41,15.13,29.35c2.29,0,4.16,0.09,6.03-0.01c13.44-0.75,14.34,3.23,15.26,14.56
		c1.99,24.53,4.27,49.04,6.41,73.56c1.39,15.93,2.83,31.86,4.06,47.8c0.51,6.56-3,10.27-9.43,10.28
		c-40.87,0.04-81.74,0.05-122.61-0.01c-6.33-0.01-9.81-4.11-9.28-10.47c0.33-3.94,0.63-7.88,0.98-12.24c-6.83,0-13.3-0.07-19.76,0.1
		c-0.7,0.02-1.69,1.25-2.01,2.11c-2.66,7.19-7.78,11.44-15.2,13.02c-21.65,4.63-43.53,7.66-65.63,8.99
		c-38.5,2.31-76.61-0.62-114.44-8.11C357.91,706.09,350.74,701.7,348,691.5z M606.1,579.91c-0.81,9.25-1.61,18.08-2.35,26.92
		c-0.39,4.67-2.51,7.09-6.15,6.88c-3.62-0.21-5.44-2.76-5.07-7.62c0.73-9.59,1.52-19.18,2.47-28.75c0.61-6.11,3.8-8.79,9.95-8.83
		c3.58-0.02,7.16,0,10.8,0c1.04-12.66,6.06-22.78,16.13-30.03c2.09-1.5,2.75-3.05,2.74-5.52c-0.07-36.63-0.05-73.25-0.05-109.88
		c0-1.37-0.13-2.8,0.18-4.11c0.72-3.06,2.75-4.8,5.94-4.54c2.98,0.24,4.75,2.05,5.06,5.08c0.11,1.11,0.06,2.25,0.06,3.37
		c0,16.25-0.02,32.5,0.04,48.75c0,1.29,0.06,2.98,0.83,3.8c8.47,9.01,17.09,17.88,25.5,26.61c16.01-15.99,31.29-31.26,46.67-46.63
		c-0.21-0.25-0.57-0.74-0.99-1.17c-19.8-19.8-39.56-39.64-59.44-59.35c-6.45-6.39-14.06-11.18-22.44-14.69
		c-8.1-3.4-16.51-5.42-25.31-5.72c-3.66,40.43-38.74,64.61-69.29,64.74c-14.91,0.06-28.67-3.77-40.96-12.26
		c-18.35-12.66-28.31-30.42-30.9-52.47c-0.97,0-1.58-0.05-2.19,0.01c-18.5,1.67-34.39,8.99-47.56,22.11
		c-12.22,12.18-24.4,24.39-36.6,36.59c-7.42,7.42-14.85,14.83-21.79,21.77c15.45,15.46,30.76,30.77,46.24,46.26
		c7.78-7.83,15.81-16.06,24.04-24.09c1.87-1.82,2.59-3.55,2.57-6.12c-0.12-16.75-0.08-33.5-0.04-50.25
		c0.01-3.92,2.07-6.26,5.34-6.39c3.38-0.13,5.71,2.37,5.88,6.33c0.04,1,0.01,2,0.01,3c0,40.63,0,81.25,0,121.88
		c0,1.45,0,2.91,0,4.15c4.88,0,9.27,0.29,13.61-0.06c12.18-0.98,19.72,7.2,18.94,17.8c-0.02,0.21,0.19,0.43,0.48,1.03
		c1.66,0,3.5-0.02,5.34,0c27.66,0.31,51.6,21.95,53.94,49.56c0.98,11.55,0.54,23.22,0.52,34.84c-0.01,2.91,0.97,4.75,3.05,6.7
		c7.09,6.62,13.93,13.51,20.9,20.25c0.47,0.46,1.3,0.78,1.96,0.78c7.11,0.06,14.22,0.03,21.63,0.03c0.24-2.1,0.5-3.92,0.67-5.75
		c1.16-13.07,2.24-26.14,3.5-39.2c0.37-3.85,2.92-5.97,6.11-5.67c3.23,0.31,5.3,2.96,4.98,6.71c-1.2,14.32-2.49,28.63-3.73,42.94
		c-0.67,7.79-1.32,15.58-2,23.5c39.81,0,79.11,0,118.62,0c-3.61-41.27-7.21-82.29-10.8-123.29
		C670.59,579.91,638.5,579.91,606.1,579.91z M506.31,658.36c0-13.25,0.36-25.47-0.12-37.66c-0.37-9.23-3.57-17.83-8.73-25.57
		c-6.76-10.13-15.73-16-28.47-15.47c-9.73,0.4-19.5-0.18-29.23,0.21c-3.87,0.15-7.94,1.18-11.47,2.79
		c-8.88,4.06-14.11,11.67-17.93,20.32c-7.76,17.55-4.35,36.11-5.23,54.54c4.63,0.57,8.83,1.05,13.01,1.61
		c4.11,0.54,6.15,2.83,5.74,6.33c-0.39,3.38-3.18,5.31-7.18,4.78c-11.01-1.46-22.01-3.05-33.04-4.41c-1.37-0.17-3.22,0.31-4.27,1.19
		c-5.74,4.82-11.28,9.87-16.91,14.82c-2.55,2.24-3.87,4.94-2.95,8.32c0.95,3.48,3.4,5.22,6.93,5.98
		c19.32,4.15,38.82,6.93,58.53,8.39c40.64,3.02,80.85,0.15,120.69-8.39c3.36-0.72,5.8-2.38,6.78-5.68c1.04-3.49-0.23-6.34-2.91-8.69
		c-4.61-4.03-9.46-7.84-13.69-12.24c-3.44-3.59-6.95-4.1-11.63-3.28c-25.91,4.55-52.05,6.42-78.35,5.74
		c-4.12-0.11-6.49-2.24-6.46-5.68c0.03-3.44,2.45-5.52,6.57-5.55c4.25-0.02,8.51,0.23,12.74,0.03
		C474.67,660.06,490.6,659.18,506.31,658.36z M598.66,374.46c-0.58-0.07-1.18-0.14-1.78-0.21c-3.64-0.47-5.4,0.29-6.28,4.73
		c-5.64,28.4-33.46,46.34-61.68,40.22c-8.85-1.92-16.67-5.93-23.4-11.99c-2.68-2.41-2.89-5.53-0.78-7.99
		c1.93-2.26,5.06-2.56,7.76-0.72c0.72,0.49,1.37,1.09,2.05,1.64c22.21,17.96,55.78,7.74,64.17-19.57c0.6-1.94,0.88-3.98,1.32-6.04
		c-26.97,0-53.37,0-80.08,0c0.35,1.78,0.66,3.23,0.93,4.69c0.68,3.76-0.84,6.49-4.07,7.31c-3.13,0.79-5.94-1.05-6.89-4.7
		c-0.62-2.4-1.02-4.85-1.54-7.36c-2.49,0-4.8,0-7.11,0c1.07,28.92,29.04,54.12,59.33,53.48
		C577.68,427.16,597.91,396.67,598.66,374.46z M645.82,568.31c12.24,0,24.05,0,35.85,0c0.78-16.3-18.67-30.66-33.97-25.16
		c-0.84,0.3-1.79,1.72-1.8,2.64C645.76,553.14,645.82,560.5,645.82,568.31z M526.68,654.56c0-11.99,0.39-23.7-0.12-35.37
		c-0.44-10.08-5.03-18.69-12.03-25.89c-2.51-2.59-5.5-4.71-8.27-7.05c-0.23,0.22-0.47,0.45-0.7,0.67
		c7.17,10.39,11.38,21.87,12.03,34.41c0.53,10.08,0.39,20.19,0.54,30.29c0.02,1.31,0,2.62,0,4.27
		C521.4,655.37,524.08,654.96,526.68,654.56z M406.28,586.75c-10.46,6.25-17.34,15.18-19.87,26.93c-1.19,5.55-1.2,11.39-1.36,17.11
		c-0.21,7.84-0.05,15.69-0.05,23.69c3.07,0.46,5.74,0.87,8.93,1.35C394.27,631.95,391.04,607.69,406.28,586.75z M466.44,568.31
		c0.4-6.17-0.64-7.33-6.24-7.35c-2.87-0.01-5.74-0.02-8.61,0c-5.4,0.03-6.59,1.5-5.81,7.35
		C452.58,568.31,459.39,568.31,466.44,568.31z M634.2,568.29c0-5.57,0-10.96,0-16.36c-0.46-0.13-0.92-0.26-1.38-0.39
		c-2.16,5.39-4.32,10.78-6.71,16.75C629.6,568.29,631.9,568.29,634.2,568.29z"/>
	<path d="M540.01,545.16c-6.07,4.4-11.8,8.61-17.59,12.75c-5.44,3.89-10.58,4.04-15.2,0.55c-4.36-3.29-5.68-8.32-3.72-14.47
		c1.82-5.7,3.57-11.43,5.65-17.03c1.02-2.74,0.39-4.19-1.98-5.77c-4.88-3.25-9.54-6.83-14.27-10.3c-5.54-4.07-7.36-8.73-5.59-14.14
		c1.84-5.61,6.09-8.35,13.1-8.38c5.99-0.02,11.99-0.13,17.98,0.06c2.42,0.08,3.54-0.7,4.22-3.01c1.73-5.86,3.65-11.66,5.57-17.46
		c2.09-6.34,6.22-9.65,11.85-9.62c5.62,0.03,9.69,3.34,11.78,9.72c1.91,5.8,3.83,11.6,5.57,17.46c0.63,2.13,1.61,2.97,3.91,2.91
		c6.24-0.16,12.49-0.09,18.73-0.04c6.68,0.05,10.88,2.9,12.66,8.46c1.69,5.28-0.09,10.01-5.37,13.92
		c-5.12,3.78-10.26,7.54-15.47,11.19c-1.6,1.12-1.93,2.14-1.26,4.03c2.11,5.99,4.02,12.06,5.94,18.12
		c1.98,6.27,0.48,11.41-4.16,14.65c-4.58,3.2-9.56,2.91-14.9-0.93C551.7,553.68,545.97,549.49,540.01,545.16z M566.48,550.41
		c-0.61-2.32-0.86-3.5-1.23-4.65c-2.03-6.29-4.12-12.57-6.14-18.86c-1.92-5.98-0.98-8.78,4.18-12.55
		c5.54-4.06,11.11-8.08,16.65-12.14c0.71-0.52,1.31-1.22,2.52-2.36c-2.02-0.11-3.22-0.22-4.42-0.23
		c-6.62-0.02-13.25,0.02-19.87-0.02c-6.03-0.03-8.54-1.87-10.44-7.64c-1.72-5.21-3.36-10.45-5.06-15.67
		c-0.71-2.18-1.48-4.34-2.59-7.62c-0.85,2.24-1.31,3.34-1.68,4.46c-2.1,6.4-4.15,12.82-6.29,19.2c-1.8,5.36-4.36,7.23-9.94,7.26
		c-7,0.05-13.99,0-20.99,0.03c-0.99,0-1.98,0.18-4.1,0.4c5.81,4.22,10.62,7.73,15.45,11.23c10.88,7.89,10.87,7.89,6.72,20.67
		c-1.87,5.76-3.7,11.54-5.54,17.31c1.76-0.25,2.86-0.96,3.93-1.73c5.36-3.88,10.7-7.79,16.08-11.65c4.75-3.41,7.82-3.43,12.62,0
		c4.88,3.48,9.7,7.04,14.56,10.56C562.45,547.54,564.02,548.65,566.48,550.41z"/>
	<path d="M641.02,622.49c1.38-4.24,2.66-8.27,4.02-12.27c1.67-4.92,5.02-7.55,9.51-7.59c4.5-0.04,7.9,2.58,9.63,7.44
		c1.46,4.08,1.8,9.65,4.69,11.82c2.74,2.05,8.15,0.53,12.39,0.6c4.92,0.08,8.52,2.44,9.95,6.48c1.51,4.27,0.14,8.44-3.91,11.54
		c-2.87,2.2-5.95,4.14-8.69,6.49c-0.84,0.72-1.45,2.51-1.19,3.58c0.85,3.5,2.23,6.87,3.26,10.33c1.41,4.7,0.15,8.83-3.32,11.41
		c-3.61,2.69-7.9,2.59-12.15-0.35c-1.74-1.21-3.43-2.5-5.15-3.74c-1.71-1.24-3.43-2.47-5.41-3.89c-3.43,2.46-6.82,4.95-10.26,7.37
		c-4.5,3.18-8.71,3.38-12.45,0.65c-3.69-2.69-4.82-6.87-3.2-12.06c0.93-2.97,1.7-6.02,2.94-8.86c1.1-2.52,0.31-3.85-1.79-5.2
		c-2.73-1.75-5.31-3.73-7.89-5.7c-4.15-3.16-5.48-7.11-3.98-11.46c1.42-4.12,4.95-6.52,9.85-6.58
		C632.11,622.45,636.35,622.49,641.02,622.49z M677.44,633.74c-4.12,0-7.09,0.01-10.05,0c-5.65-0.03-7.83-1.62-9.62-6.95
		c-0.95-2.85-1.92-5.7-3.2-9.48c-1.23,3.81-2.09,6.54-2.99,9.25c-1.86,5.59-4,7.16-9.84,7.18c-2.93,0.01-5.86,0-9.85,0
		c2.55,1.91,4.2,3.16,5.87,4.38c7.48,5.46,7.85,6.59,5.06,15.31c-0.65,2.03-1.21,4.09-2.08,7.03c2.15-1.56,3.45-2.5,4.75-3.44
		c1.31-0.95,2.61-1.92,3.95-2.84c3.65-2.53,6.68-2.57,10.35-0.04c2.72,1.87,5.37,3.84,8.91,6.38c-1.09-3.37-1.84-5.7-2.6-8.05
		c-2.38-7.38-1.82-9.1,4.38-13.59C672.49,637.43,674.48,635.93,677.44,633.74z"/>
	<path d="M456.01,587.25c3.99-0.01,7.34,2.29,8.85,6.3c1.01,2.68,1.95,5.41,2.62,8.18c0.63,2.59,1.83,3.75,4.65,3.48
		c2.84-0.27,5.74-0.12,8.61-0.03c4.11,0.12,7.26,2.38,8.61,6.04c1.39,3.75,0.35,7.73-2.91,10.46c-1.91,1.6-3.84,3.3-6.03,4.41
		c-3.74,1.88-4.02,4.38-2.47,7.86c1.01,2.26,1.63,4.71,2.28,7.11c1.07,3.93-0.29,7.15-3.33,9.64c-2.91,2.4-7.17,2.65-10.51,0.53
		c-2.94-1.87-5.62-4.17-8.59-5.99c-0.87-0.53-2.61-0.52-3.49,0.01c-2.56,1.52-4.87,3.48-7.32,5.19c-3.96,2.75-8.06,2.91-11.49,0.51
		c-3.43-2.4-4.67-6.4-3.4-10.98c1.03-3.68,3.62-7.85,2.66-10.9c-0.91-2.89-5.56-4.59-8.51-6.88c-3.62-2.81-4.93-6.68-3.68-10.57
		c1.3-4.05,4.68-6.39,9.46-6.46c3-0.04,6.01,0.2,8.98-0.12c1.11-0.12,2.59-1.22,3.04-2.26c1.28-2.96,2.03-6.15,3.15-9.18
		C448.69,589.58,452.03,587.25,456.01,587.25z M444.72,638.09c7.62-8.03,14.87-8.11,22.02,0.01c-0.67-4.67-2.56-9.08-1.46-12.52
		c1.12-3.5,5.2-6.06,8.55-9.63c-10.75,2.71-16-2.23-17.95-12.54c-1.26,11.12-7.56,14.65-17.96,13.37
		C448.43,621.48,449.45,628.65,444.72,638.09z"/>
</g>
</svg>
