
<svg version="1.1" id="Layer_1" xmlns="http://www.w3.org/2000/svg" 
	 viewBox="0 0 1080 1080" style="enable-background:new 0 0 1080 1080;" xml:space="preserve" stroke="#fff" fill="#FDB715">
<g>
	<path d="M528.49,545.68c-5.72,1.75-10.82,3.95-16.14,4.82c-18.76,3.07-36.83-7.71-43.59-25.52c-6.69-17.61-0.09-37.89,16-47.96
		c9.31-5.83,18.96-11.11,28.48-16.6c0.84-0.48,2.01-1.1,2.78-0.86c3.52,1.12,5.62-1.16,7.92-2.98c21.96-17.31,41.4-36.9,55.87-61.08
		c1.79-2.99,2.32-5.37,0.84-8.89c-4.34-10.27,0.5-21.95,10.55-26.92c9.98-4.93,21.93-1.63,27.82,8.13
		c6.71,11.12,13.05,22.46,19.56,33.7c0.68,1.17,1.42,2.31,2.09,3.4c16.28-4.01,26.59-0.61,32.54,10.59
		c5.68,10.7,2.99,21.59-8.02,31.85c0.53,1.01,1.07,2.11,1.67,3.16c6.37,11.04,12.81,22.03,19.1,33.11
		c6.12,10.78,3.2,23.37-6.74,29.66c-9.91,6.27-22.09,3.63-29.58-6.13c-0.97-1.27-3.28-2.12-4.98-2.13
		c-20.54-0.09-40.51,3.62-60.03,9.78c-9,2.84-17.83,6.23-27.18,9.53c1.18,1.71,1.9,2.83,2.7,3.91
		c11.32,15.26,22.65,30.51,33.96,45.77c5.6,7.56,4.99,13.35-1.98,19.68c-1.94,1.76-3.87,3.55-5.84,5.28
		c-6.63,5.83-14.09,5.1-19.41-2c-12.38-16.5-24.7-33.03-37.04-49.55C529.33,546.74,528.79,546.06,528.49,545.68z M641.91,493.64
		c-17.62-30.53-35.32-61.19-53.3-92.34c-16.66,27.34-38.68,48.86-63.57,67.74c8.4,14.57,16.71,28.8,24.8,43.16
		c1.53,2.71,2.74,3.33,5.75,2.04c16.45-7.05,33.41-12.64,51.05-15.76C618.15,496.45,629.82,495.27,641.91,493.64z M602.94,368.07
		c-7.17-0.07-11.28,3.02-12.8,7.81c-1.26,3.97,0.12,7.3,2.06,10.64c13,22.47,25.96,44.96,38.94,67.44
		c8.73,15.13,17.45,30.27,26.21,45.39c3.12,5.39,7.69,7.7,12.63,6.55c7.7-1.79,10.98-9.79,6.79-17.14
		c-8.96-15.72-18.07-31.36-27.12-47.03c-12.85-22.27-25.72-44.52-38.52-66.82C608.79,370.83,605.71,368.12,602.94,368.07z
		 M514.44,471.73c-8.68,5.1-17.19,9.62-25.17,14.92c-11.48,7.62-15.6,22.85-10.26,35.62c5.32,12.73,18.74,20.36,32.15,17.82
		c12.49-2.37,21.76-11.23,33.19-16.55C534.27,506.1,524.49,489.15,514.44,471.73z M537.27,539.57c0.86,1.24,1.52,2.28,2.25,3.26
		c10.45,14,20.9,27.99,31.36,41.98c6.32,8.45,6.22,8.32,14.04,1.39c2.63-2.33,2.43-3.89,0.47-6.47
		c-9.2-12.13-18.21-24.39-27.29-36.61c-2.66-3.58-5.32-7.17-8.09-10.9C545.67,534.72,541.59,537.07,537.27,539.57z M659.49,437.74
		c5.9-2.89,7.64-12.11,4.14-17.88c-3.63-5.98-11.11-8.3-17.32-4.98C650.71,422.5,655.1,430.13,659.49,437.74z"/>
	<path d="M601.32,638.67c9.03,0,17-0.02,24.98,0c9.4,0.03,14.1,4.68,14.11,14.02c0.02,19.51,0.02,39.01,0,58.52
		c-0.01,9.33-4.75,14.06-14.1,14.06c-26.63,0.01-53.26,0.01-79.88,0c-9.41,0-14.02-4.62-14.03-14.04c-0.01-11.87,0-23.74,0-35.92
		c-5.85,0.96-11.41,2.39-17.04,2.68c-13.95,0.73-27.93,0.87-41.89,1.41c-1.97,0.08-4.23,0.58-5.81,1.67
		c-20.16,13.91-40.2,27.98-60.32,41.94c-1.48,1.03-3.31,2.03-5.02,2.13c-3.64,0.2-5.62-3.26-4.61-7.62
		c3.26-14.11,6.56-28.21,9.83-42.32c0.71-3.04,1.13-6.18,2.16-9.1c1-2.83-0.15-3.92-2.46-5.12c-17.24-8.99-32.13-20.73-42.32-37.62
		c-15.63-25.89-13.31-55.33,6.22-79.2c15.8-19.32,36.62-30.99,59.95-38.64c5.56-1.82,11.29-3.19,16.99-4.55
		c4.27-1.02,7.03,0.44,7.75,3.67c0.7,3.12-1.37,5.7-5.55,6.59c-15.5,3.32-30.21,8.71-43.89,16.75c-12.77,7.5-23.9,16.86-31.9,29.51
		c-14.08,22.25-12.05,47.85,5.31,68.85c9.74,11.78,21.89,20.37,35.54,26.99c6.84,3.32,7.13,3.86,5.43,11.27
		c-3.24,14.09-6.51,28.18-9.94,43.01c1.56-0.99,2.57-1.58,3.51-2.24c16.6-11.58,33.23-23.13,49.78-34.78
		c2.52-1.77,4.98-2.26,8.05-1.99c20.18,1.77,40.16,0.57,60.25-4.44c0-4.27-0.04-8.5,0.01-12.73c0.09-7.77,4.84-12.69,12.62-12.76
		c12.5-0.11,25,0.02,37.5-0.1c1.62-0.01,3.62-0.42,4.77-1.42c13.36-11.54,22.93-25.35,24.98-43.41c1.57-13.79-2.41-26.19-9.89-37.61
		c-5.19-7.93-11.78-14.56-19.28-20.29c-2.49-1.9-3.57-4.2-2.27-7.16c1.27-2.89,4.91-3.93,7.63-1.92
		c36.28,26.81,47.61,70.32,16.88,107.19C604.24,635.3,603.1,636.6,601.32,638.67z M586.26,714.78c13.13,0,26.25-0.09,39.38,0.06
		c3.25,0.04,4.35-0.91,4.33-4.24c-0.13-19.13-0.13-38.26,0-57.39c0.02-3.19-1.09-4.09-4.13-4.08c-26.38,0.08-52.76,0.08-79.13,0
		c-2.89-0.01-3.9,0.86-3.88,3.87c0.12,19.26,0.12,38.51,0,57.77c-0.02,3.09,0.91,4.11,4.05,4.07
		C560.01,714.69,573.14,714.78,586.26,714.78z"/>
	<path d="M383.7,464.83c-6.54-0.13-17.93-11.32-17.63-16.64c0.12-2.19,1.25-4.55,2.55-6.4c3.83-5.46,1.51-11.18-5.1-12.06
		c-6.04-0.8-8.77-3.87-8.84-9.98c-0.03-3.13-0.06-6.25,0.01-9.38c0.12-5.42,2.95-8.58,8.27-9.35c7.48-1.08,9.72-6.43,5.23-12.51
		c-3.23-4.38-3.04-8.54,0.71-12.49c2.32-2.45,4.71-4.84,7.16-7.16c3.96-3.75,8.1-3.95,12.49-0.71c6.09,4.49,11.43,2.26,12.52-5.22
		c0.75-5.18,3.86-8.11,8.97-8.26c3.62-0.11,7.25-0.12,10.87,0.01c4.87,0.17,8.16,3.26,8.81,8.06c1.05,7.74,6.31,9.95,12.63,5.31
		c4.07-2.99,8.27-2.93,11.94,0.42c2.77,2.53,5.43,5.19,7.96,7.95c3.38,3.7,3.45,7.8,0.45,11.92c-4.63,6.36-2.46,11.58,5.29,12.7
		c4.74,0.69,7.79,3.68,8.07,8.39c0.23,3.86,0.21,7.76,0.01,11.62c-0.25,4.86-3.4,7.99-8.26,8.64c-7.45,0.98-9.71,6.4-5.22,12.49
		c3.15,4.27,3.07,8.37-0.46,12.23c-2.45,2.67-5.02,5.24-7.69,7.69c-3.85,3.53-7.96,3.6-12.22,0.44c-6.05-4.49-11.5-2.2-12.48,5.24
		c-0.64,4.85-3.76,7.99-8.64,8.26c-3.86,0.21-7.76,0.22-11.62-0.02c-4.73-0.3-7.69-3.34-8.38-8.08c-1.13-7.74-6.29-9.84-12.73-5.32
		C386.67,463.79,384.61,464.41,383.7,464.83z M365.34,418.98c15.58,5.6,19.44,14.98,12.29,28.62c1.8,2.05,3.5,3.98,5.16,5.88
		c10.83-8.01,24.79-2.42,27.62,8.28c0.95,3.61,2.61,4.26,5.66,3.87c0.97-0.12,1.96-0.11,2.91-0.15
		c3.37-15.91,18.84-19.53,28.85-12.25c1.86-1.83,3.69-3.63,5.57-5.47c-3.96-5.47-4.88-11.41-2.32-17.71
		c2.62-6.45,7.86-9.71,14.53-10.92c0-1.24-0.12-2.13,0.02-2.97c0.54-3.35-0.58-4.98-4.14-5.86c-5.44-1.35-8.94-5.34-10.77-10.59
		c-2.13-6.1-1.01-11.78,2.62-16.73c-1.93-1.98-3.72-3.81-5.56-5.7c-5.49,3.95-11.39,4.92-17.71,2.34
		c-6.45-2.64-9.7-7.85-10.86-14.21c-2.89,0-5.33,0-7.71,0c-2.09,12.87-15.82,20.57-28.93,11.87c-0.87,0.83-1.69,1.8-2.69,2.52
		c-1.11,0.8-2.38,1.39-3.27,1.89c8.52,13.87,4.02,24.74-11.28,30.02C365.34,414.1,365.34,416.56,365.34,418.98z"/>
	<path d="M725.26,554.14c-0.55,13.76-5.72,27.46-12.89,40.49c-6.87,12.47-15.28,23.78-26.71,32.48
		c-9.94,7.57-20.86,11.95-33.54,8.05c-3.3-1.01-6.49-2.63-9.44-4.45c-6.22-3.85-8.13-11.22-4.71-17.68
		c2.39-4.52,4.99-8.94,7.65-13.31c4.11-6.74,11.53-8.68,18.52-4.97c6.84,3.62,7.29,3.91,11.46-2.61c5.3-8.26,10.06-16.9,14.5-25.66
		c2.76-5.45,2.3-5.69-2.94-8.73c-6.37-3.7-9.92-9.18-7.52-15.04c2.98-7.27,7.15-14.24,11.88-20.55c3.28-4.38,9.99-4.34,15.22-1.59
		C719.72,527.4,725.27,538.51,725.26,554.14z M714.73,554.65c0.07-12.65-4.06-20.09-12.24-24.44c-2.26-1.2-4.01-1.16-5.37,1.21
		c-2.24,3.9-4.49,7.79-6.73,11.69c-1.32,2.29-0.82,4.03,1.55,5.25c0.89,0.46,1.74,0.98,2.6,1.5c7,4.21,9.23,10.24,6.45,17.9
		c-4.64,12.81-11.35,24.44-20.17,34.83c-5.18,6.1-11.33,7.16-18.41,3.27c-0.98-0.54-1.96-1.11-2.93-1.66
		c-2.08-1.19-3.81-0.93-5.07,1.24c-2.31,4-4.65,7.98-6.93,12.01c-1.11,1.96-0.65,3.61,1.3,4.78c4.96,2.96,10.15,4.66,16.06,3.52
		c7.28-1.42,13.09-5.42,18.41-10.25c7.85-7.13,14.11-15.54,19.26-24.75C709.16,578.86,714.17,566.42,714.73,554.65z"/>
	<path d="M488.81,612.98c-20.13,0-40.26,0-60.38-0.01c-1.37,0-3.1,0.38-4.04-0.29c-1.65-1.19-3.82-3-3.91-4.66
		c-0.09-1.65,1.86-3.7,3.38-5.04c0.83-0.73,2.63-0.48,3.99-0.48c40.76-0.02,81.51-0.02,122.27,0c1.24,0,2.53,0.03,3.71,0.36
		c2.66,0.73,4.27,2.84,3.53,5.32c-0.53,1.8-2.45,3.41-4.13,4.55c-0.96,0.66-2.67,0.26-4.04,0.26
		C529.06,612.99,508.94,612.98,488.81,612.98z"/>
	<path d="M471.74,574.04c-14.49,0-28.99,0.01-43.48-0.01c-1.37,0-3.12,0.35-4.02-0.34c-1.62-1.23-3.73-3.11-3.77-4.76
		c-0.04-1.65,1.95-3.69,3.54-4.93c0.98-0.77,2.88-0.45,4.37-0.45c28.99-0.02,57.97-0.02,86.96-0.01c0.62,0,1.25-0.02,1.87,0.01
		c3.85,0.19,6.1,2.07,6.18,5.13c0.09,3.2-2.27,5.31-6.3,5.33C501.98,574.07,486.86,574.04,471.74,574.04z"/>
	<path d="M660.72,386.43c-4.82-0.02-7.42-3.89-5.51-7.43c4.03-7.47,8.31-14.81,12.73-22.05c1.56-2.55,4.24-3.12,6.89-1.46
		c2.61,1.63,3.33,4.18,1.87,6.82c-4.05,7.32-8.22,14.57-12.57,21.71C663.33,385.31,661.44,385.94,660.72,386.43z"/>
	<path d="M707.71,447.97c-4,0-8,0.1-11.99-0.03c-3.5-0.11-5.68-2.25-5.67-5.2c0.01-2.94,2.19-5.13,5.72-5.18
		c7.87-0.13,15.74-0.13,23.62-0.01c3.73,0.06,5.96,2.33,5.83,5.43c-0.13,2.97-2.26,4.88-5.88,4.98c-3.87,0.11-7.75,0.02-11.62,0.02
		C707.71,447.98,707.71,447.97,707.71,447.97z"/>
	<path d="M689.79,409.57c-0.87-0.81-2.99-1.87-3.4-3.38c-0.46-1.7-0.02-4.84,1.15-5.59c7.22-4.6,14.66-8.87,22.23-12.88
		c2.24-1.19,5.11-0.16,5.87,2.39c0.54,1.81,0.28,5.21-0.88,5.96c-7.29,4.71-14.92,8.89-22.46,13.21
		C691.9,409.51,691.32,409.41,689.79,409.57z"/>
	<path d="M566.16,681.97c0-5.5-0.07-11,0.02-16.5c0.09-5.19,3.88-7.52,8.37-4.99c9.68,5.46,19.3,11.02,28.86,16.69
		c4.27,2.53,4.33,7.01,0.06,9.55c-9.66,5.75-19.39,11.37-29.21,16.84c-4.25,2.37-8-0.09-8.09-5.08
		C566.09,692.97,566.16,687.47,566.16,681.97z M590.78,681.93c-4.87-2.81-9.24-5.33-13.91-8.02c0,5.73,0,10.65,0,16.01
		c1.29-0.69,2.26-1.17,3.2-1.72C583.46,686.23,586.85,684.23,590.78,681.93z"/>
	<path d="M447.19,415.45c-0.07,17.7-14.37,31.84-32.04,31.7c-17.51-0.14-31.64-14.3-31.68-31.76
		c-0.04-17.55,14.35-31.96,31.92-31.97C432.97,383.43,447.26,397.82,447.19,415.45z M415.37,436.65c11.9,0,21.37-9.51,21.31-21.41
		c-0.06-11.73-9.41-21.16-21.13-21.3c-11.72-0.14-21.49,9.5-21.58,21.31C393.89,427.04,403.49,436.65,415.37,436.65z"/>
</g>
</svg>
