<svg xmlns="http://www.w3.org/2000/svg" 
	 viewBox="0 0 1080 1080" style="enable-background:new 0 0 1080 1080;" xml:space="preserve" stroke="#fff" fill="#FDB715">
<g>
	<path d="M654.26,485.94c0,28.3,0,56.14,0,84.2c25.01,2.73,44.89,14.13,58.92,34.99c10.04,14.93,14.46,31.61,12.6,49.49
		c-4.09,39.38-34.31,68.74-72.73,71.26c-42.61,2.79-80.39-30.3-82.96-71.67c-11.81,0-23.63,0-36.05,0c0,1.09,0,2.28,0,3.46
		c0,10-0.19,20.01,0.06,30c0.2,7.66-2.9,13.51-8.59,18.26c-7.84,6.56-17.1,10.37-26.81,12.9c-38.47,10.02-76.86,9.99-115-1.79
		c-7.8-2.41-15.12-5.91-21.42-11.26c-5.53-4.7-8.43-10.46-8.4-17.97c0.15-36.38,0.19-72.77-0.02-109.15
		c-0.05-9.38,3.49-16.72,10.29-22.71c10.12-8.91,22.31-13.84,35.22-16.6c12.54-2.68,25.33-4.22,38.38-6.31c0-11.11,0-23.06,0-35.29
		c-23.26-2.74-41.76-13.58-54.57-33.39c-8.91-13.8-12.45-29.06-10.88-45.41c3.28-34.26,30.8-62.22,66.74-64.91
		c37.35-2.79,73.76,25.57,76.97,65.67c17.81,0,35.64,0,53.77,0c0.09-0.87,0.26-1.82,0.26-2.76c0.02-6.63-0.01-13.25,0.02-19.88
		c0.05-11.65,7.58-19.13,19.33-19.15c15.38-0.03,30.76-0.08,46.14,0.06c2.69,0.02,4.33-0.83,5.84-3.01
		c3.13-4.52,6.55-8.84,9.85-13.24c3.95-5.26,9.18-7.87,15.79-7.84c13.51,0.05,27.01-0.03,40.52,0.03
		c10.77,0.05,18.55,7.69,18.57,18.39c0.06,31.76,0.07,63.51,0,95.27c-0.02,10.67-7.84,18.3-18.62,18.34
		c-16.26,0.06-32.51,0.02-48.77,0.02C657.35,485.94,655.99,485.94,654.26,485.94z M641.95,485.94c-17.9,0-35.39,0.03-52.88-0.01
		c-11.43-0.03-18.96-7.62-19.01-19.09c-0.03-9.25-0.01-18.5-0.01-27.75c0-2.32,0-4.65,0-6.98c-18.35,0-36.18,0-53.92,0
		c-6.3,37.87-28.31,59.77-65.97,65.95c0,11.95,0,23.79,0,35.81c1.36,0.13,2.58,0.22,3.79,0.38c10.64,1.41,21.38,2.27,31.88,4.4
		c13.68,2.77,26.67,7.62,37.52,16.9c7.11,6.08,10.92,13.56,10.78,23.24c-0.28,19.62-0.08,39.25-0.08,58.87c0,1.33,0,2.67,0,4.16
		c12.24,0,24.08,0,36.25,0c1.87-18.94,9.21-35.39,22.71-48.89c13.5-13.5,29.95-20.86,48.96-22.73
		C641.95,542.06,641.95,514.22,641.95,485.94z M582.07,414.06c0,17.58-0.01,34.8,0.01,52.02c0.01,5.86,2,7.85,7.89,7.85
		c38.74,0.01,77.48,0.01,116.21,0c5.91,0,7.94-1.99,7.95-7.8c0.02-16.37,0.01-32.73,0-49.1c0-0.96-0.14-1.91-0.22-2.98
		C669.97,414.06,626.27,414.06,582.07,414.06z M624.11,656.97c-17.4-17.36-13.7-39.57-2.24-51.62
		c12.97-13.63,33.99-15.25,48.61-3.52c7.54,6.05,12.07,13.94,13.29,23.54c1.57,12.34-2.77,22.67-11.7,31.58
		c13.94,5.27,23.97,14.37,30.64,27.29c15.63-20.9,17.55-59.01-9.57-84.47c-25.86-24.27-66.41-23.63-91.5,1.35
		c-26.21,26.09-23.01,63.79-8.11,83.05C600.2,671.28,610.22,662.17,624.11,656.97z M443.1,606.02c18.03-0.22,34.88-1.99,51.14-7.52
		c8.68-2.96,17.06-6.57,23.53-13.39c5.72-6.03,6.03-12.56-0.06-18.12c-4.53-4.13-9.89-7.69-15.44-10.3
		c-14.9-6.99-30.97-9.45-47.27-10.38c-21-1.2-41.71,0.56-61.76,7.3c-8.56,2.88-16.8,6.56-23.12,13.35
		c-5.52,5.92-5.8,12.34,0.06,17.87c4.1,3.87,8.96,7.29,14.05,9.71C403.11,603.53,423.44,605.64,443.1,606.02z M365.96,597.77
		c0,6.44,0.14,12.29-0.05,18.13c-0.12,3.59,1.01,6.62,3.9,8.42c5.05,3.14,10.1,6.69,15.66,8.53c37,12.2,74.37,12.17,111.72,1.8
		c6.62-1.84,12.87-5.32,18.91-8.74c2.47-1.4,5.27-4.46,5.56-7.04c0.77-6.82,0.26-13.78,0.26-21.01
		C487.09,624.66,400.66,624.51,365.96,597.77z M365.96,673.04c0,4.75,0.32,9.23-0.08,13.64c-0.47,5.2,1.74,8.95,5.88,11.25
		c5.75,3.19,11.63,6.56,17.87,8.39c35.39,10.4,71.02,10.41,106.52,0.68c7.1-1.94,13.79-5.72,20.28-9.35c2.43-1.36,4.92-4.55,5.3-7.2
		c0.81-5.59,0.25-11.38,0.25-17.4c-24.45,13.56-50.85,16.8-77.77,16.82C417.18,689.9,390.64,686.7,365.96,673.04z M365.96,636.86
		c0,5.37,0.15,10.23-0.05,15.06c-0.15,3.59,1.04,6.58,3.91,8.43c4.48,2.9,9.03,5.87,13.94,7.88c15.44,6.33,31.79,8.55,48.33,9.4
		c22.49,1.15,44.79-0.23,66.32-7.33c6.66-2.2,12.89-5.86,19.01-9.4c2.02-1.17,4.1-3.94,4.34-6.17c0.61-5.74,0.2-11.6,0.2-17.61
		C482.87,660.95,398.68,658.02,365.96,636.86z M648.98,666.02c-3.46,0-5.97-0.06-8.47,0.01c-16.34,0.45-31.4,11.14-37.33,26.36
		c-0.75,1.93-0.82,3.23,0.96,4.85c24.5,22.28,63.8,22.23,88.02-0.11c1.64-1.51,1.65-2.73,0.91-4.53
		c-2.72-6.59-6.66-12.26-12.14-16.86C671.38,667.7,660.18,665.21,648.98,666.02z M582.07,401.65c44.28,0,88.08,0,132.05,0
		c0-10.01,0.08-19.74-0.04-29.48c-0.05-4.17-2.56-6.24-7.2-6.25c-13.13-0.03-26.25,0.03-39.38-0.05c-3.03-0.02-5.23,1.04-7.01,3.48
		c-4.28,5.85-8.81,11.51-12.97,17.44c-1.71,2.44-3.61,3.2-6.5,3.18c-17.25-0.13-34.5-0.08-51.75-0.05c-4.94,0.01-7.1,2.18-7.2,7.04
		C582.04,398.45,582.07,399.94,582.07,401.65z M647.96,605.98c-13.23,0.06-23.96,10.95-23.86,24.22
		c0.1,13.06,10.87,23.75,23.95,23.77c13.24,0.02,24.07-10.81,24.05-24.04C672.08,616.7,661.21,605.92,647.96,605.98z M422.24,407.93
		c-2.95,11.53-2.89,22.89-0.45,34.26c0.15,0.71,1.5,1.66,2.29,1.67c13.84,0.1,27.68,0.07,41.71,0.07
		c2.88-11.54,2.87-22.89,0.42-34.26c-0.15-0.71-1.5-1.66-2.29-1.66C450.07,407.9,436.23,407.93,422.24,407.93z M479.25,443.92
		c6.4,0,13.37,0.06,20.34-0.09c0.75-0.02,1.91-1.1,2.14-1.9c3.07-10.69,3.07-21.42-0.02-32.1c-0.23-0.78-1.43-1.82-2.2-1.83
		c-6.97-0.14-13.94-0.08-20.26-0.08C479.25,420.06,479.25,431.83,479.25,443.92z M408.75,407.93c-6.33,0-13.3-0.06-20.27,0.08
		c-0.77,0.02-1.96,1.05-2.19,1.83c-3.09,10.68-3.1,21.42-0.02,32.1c0.23,0.8,1.39,1.88,2.14,1.89c6.97,0.15,13.94,0.09,20.33,0.09
		C408.75,431.83,408.75,420.06,408.75,407.93z M462.02,395.76c-4.4-10.52-10.18-19.52-18.03-27.58c-7.8,8.23-13.7,17.15-17.93,27.58
		C438.15,395.76,449.84,395.76,462.02,395.76z M461.88,456.23c-12.09,0-23.82,0-35.82,0c4.33,10.44,10.13,19.42,17.96,27.44
		C451.82,475.41,457.74,466.5,461.88,456.23z M460.79,368.74c2.81,4.61,5.66,8.85,8.06,13.33c2.39,4.46,4.33,9.16,6.37,13.54
		c6.83,0,13.46,0,20.24,0C488.97,383.19,473.28,371.02,460.79,368.74z M426.39,483.19c-4.3-8.6-8.61-17.25-12.97-25.88
		c-0.28-0.56-0.97-1.29-1.48-1.29c-6.4-0.09-12.8-0.06-19.86-0.06C400.71,469.83,412.04,478.79,426.39,483.19z M495.84,456.08
		c-7.39,0-14.09,0-19.98,0c-5.02,9.33-9.79,18.2-14.66,27.24C476.02,478.72,487.33,469.78,495.84,456.08z M392.71,395.72
		c6.75,0,13.43,0,19.45,0c4.95-9.2,9.75-18.12,14.42-26.8C415.24,370.54,397.48,384.39,392.71,395.72z"/>
	<path d="M605.9,450.14c0,3.85,0,7.54,0,11.52c-3.77,0-7.55,0-11.58,0c0-3.74,0-7.52,0-11.52
		C598.07,450.14,601.76,450.14,605.9,450.14z"/>
	<path d="M618.27,450.09c3.92,0,7.61,0,11.56,0c0,3.84,0,7.62,0,11.63c-3.81,0-7.59,0-11.56,0
		C618.27,457.9,618.27,454.21,618.27,450.09z"/>
	<path d="M653.93,450.19c0,3.97,0,7.67,0,11.55c-3.86,0-7.55,0-11.54,0c0-3.72,0-7.5,0-11.55
		C646.08,450.19,649.86,450.19,653.93,450.19z"/>
	<path d="M444.38,557.96c9.62,0,19.24-0.04,28.86,0.01c10.78,0.06,18.85,7.92,18.76,18.19c-0.09,10.07-8.14,17.77-18.78,17.8
		c-19.49,0.05-38.99,0.05-58.48,0c-10.77-0.03-18.85-7.94-18.76-18.19c0.09-10.06,8.15-17.74,18.78-17.79
		C424.64,557.92,434.51,557.96,444.38,557.96z M444.03,581.96c9.5,0,19.01,0.02,28.51-0.01c4.71-0.01,7.47-2.29,7.45-6.03
		c-0.02-3.73-2.77-5.96-7.51-5.96c-19.01-0.02-38.01-0.02-57.02,0c-4.72,0-7.46,2.27-7.45,6.02c0.02,3.74,2.76,5.95,7.5,5.97
		C425.02,581.98,434.52,581.96,444.03,581.96z"/>
	<path d="M677.93,378.17c0,4,0,7.69,0,11.57c-3.87,0-7.56,0-11.54,0c0-3.74,0-7.53,0-11.57
		C670.11,378.17,673.89,378.17,677.93,378.17z"/>
	<path d="M701.93,389.75c-3.89,0-7.59,0-11.54,0c0-3.81,0-7.59,0-11.61c3.78,0,7.56,0,11.54,0
		C701.93,381.94,701.93,385.63,701.93,389.75z"/>
	<path d="M437.82,420.14c0,3.85,0,7.55,0,11.52c-3.77,0-7.55,0-11.58,0c0-3.74,0-7.52,0-11.52
		C429.99,420.14,433.68,420.14,437.82,420.14z"/>
	<path d="M450.08,431.69c0-3.94,0-7.54,0-11.45c3.81,0,7.59,0,11.66,0c0,3.65,0,7.43,0,11.45
		C457.98,431.69,454.2,431.69,450.08,431.69z"/>
</g>
</svg>
