<?xml version="1.0" encoding="utf-8"?>
<!-- Generator: Adobe Illustrator 27.0.0, SVG Export Plug-In . SVG Version: 6.00 Build 0)  -->
<svg version="1.1" id="Layer_1" xmlns="http://www.w3.org/2000/svg" xmlns:xlink="http://www.w3.org/1999/xlink" x="0px" y="0px"
	 viewBox="0 0 300 300" style="enable-background:new 0 0 300 300;" xml:space="preserve">
<style type="text/css">
	.st0{fill:#FDB715;}
</style>
<g>
	<path class="st0" d="M200.64,77.07c-11.56-2.08-23.06,5.84-25.64,17.64c-1.36,6.24,0.06,12.84,3.9,18.1
		c3.87,5.3,9.71,8.58,16.46,9.22c0.31,0.03,0.57,0,0.79-0.02c0.01,0,0.03,0,0.04-0.01c0.26,0.24,0.6,0.36,0.94,0.36
		c0.29,0,0.59-0.09,0.84-0.28c0.04-0.03,0.08-0.06,0.11-0.09c11.11-0.86,19.17-7.78,21.1-18.17c1.18-6.35-0.04-12.54-3.43-17.45
		C212.36,81.46,207.13,78.24,200.64,77.07z M216.39,103.31c-1.74,9.35-8.84,15.29-19,15.88c-0.11,0.01-0.21,0.02-0.31,0.05
		c-0.26-0.07-0.5-0.09-0.72-0.09c-0.21,0-0.38,0.02-0.51,0.04c-0.07,0.01-0.15,0.01-0.21,0.02c-5.92-0.56-11.04-3.43-14.42-8.06
		c-3.36-4.6-4.6-10.36-3.42-15.81c2.25-10.33,12.28-17.26,22.34-15.44c5.73,1.03,10.32,3.84,13.28,8.12
		C216.37,92.28,217.42,97.71,216.39,103.31z"/>
	<path class="st0" d="M100.29,111.31c0.24,0.16,0.52,0.24,0.79,0.24c0.46,0,0.91-0.22,1.19-0.64c0.79-1.18,0.68-2.42,0.59-3.33
		c-0.02-0.25-0.05-0.49-0.05-0.74c0.02-11.42,0.02-22.84,0.02-34.26c0-6.5,0-13.01,0.01-19.5c0-4.37,3.7-8.07,8.08-8.08
		c2.65-0.01,5.3,0,7.96,0c4.05,0.01,8.25,0.01,12.38-0.02c2.89-0.02,5.82-0.09,8.65-0.14c3.82-0.08,7.79-0.16,11.66-0.15
		c4.76,0.01,9.6,0.07,14.29,0.13c6.82,0.09,13.86,0.17,20.8,0.11c0.04,0,0.07,0,0.11,0c4.85,0,8.13,2.87,8.8,7.7
		c0.6,4.35,0.54,8.6-0.16,12.65c-0.14,0.78,0.39,1.52,1.16,1.65c0.78,0.14,1.52-0.39,1.65-1.16c0.76-4.33,0.82-8.89,0.18-13.54
		c-0.86-6.2-5.42-10.18-11.63-10.18c-0.04,0-0.09,0-0.13,0c-6.91,0.06-13.94-0.03-20.75-0.11c-4.69-0.06-9.54-0.12-14.31-0.13
		c-3.92-0.01-7.88,0.07-11.73,0.15c-2.82,0.06-5.75,0.12-8.61,0.14c-4.12,0.04-8.3,0.03-12.35,0.02c-2.66-0.01-5.32-0.01-7.97,0
		c-5.92,0.01-10.93,5.02-10.93,10.93c-0.01,6.5-0.01,13.01-0.01,19.51c0,11.42,0,22.84-0.02,34.26c0,0.33,0.03,0.67,0.06,1.01
		c0.06,0.73,0.09,1.15-0.12,1.48C99.46,109.98,99.63,110.87,100.29,111.31z"/>
	<path class="st0" d="M197.14,130.98c-0.79,0-1.43,0.64-1.43,1.43v15.69c0,13.46,0,26.91,0,40.36c0,6.33-3.37,9.7-9.72,9.73
		c-3.24,0.01-6.47,0.05-9.72,0.09c-5.2,0.06-10.57,0.12-15.84,0.09c-1.94-0.01-3.87-0.04-5.82-0.07c-4.77-0.07-9.71-0.14-14.56,0.01
		c-4.37,0.14-8.82,0.11-13.13,0.09c-3.64-0.02-7.4-0.05-11.12,0.03l-0.79,0.02c-4.1,0.1-7.98,0.19-10.49-3.54
		c-1.24-1.84-1.73-3.22-1.71-4.77c0.05-2.79,0.04-5.62,0.03-8.36c-0.01-1.16-0.01-2.31-0.01-3.47c0-0.79-0.64-1.43-1.43-1.43
		s-1.43,0.64-1.43,1.43c0,1.16,0.01,2.32,0.01,3.47c0.01,2.72,0.02,5.54-0.03,8.3c-0.04,2.72,1.08,4.77,2.19,6.42
		c2.89,4.28,6.99,4.83,10.9,4.83c0.69,0,1.36-0.01,2.03-0.04l0.78-0.02c3.67-0.08,7.42-0.05,11.04-0.03
		c4.34,0.03,8.82,0.06,13.24-0.09c4.78-0.15,9.69-0.09,14.43-0.01c1.94,0.03,3.89,0.06,5.84,0.07c5.3,0.04,10.68-0.03,15.89-0.09
		c3.23-0.04,6.47-0.08,9.7-0.09c7.98-0.04,12.56-4.62,12.57-12.59c0-13.46,0-26.91,0-40.36v-15.69
		C198.56,131.62,197.93,130.98,197.14,130.98z"/>
	<path class="st0" d="M200.94,70.45c-3.39-0.51-6.79-0.39-10.07,0.32c-0.29-1.91-0.24-3.87-0.19-5.92c0.05-1.94,0.1-3.94-0.14-6.02
		c-0.08-0.72-0.69-1.27-1.42-1.27h-76.25c-5.05,0-5.69,0.64-5.69,5.69v52.68c-3.72,0-7.42-0.01-11.08-0.01
		c-6.54-0.01-13.07-0.01-19.61-0.01c-1.19,0-4.82,0-7.21,2.59c-2.12,2.3-2.06,5.37-2.03,6.72c0.11,5.55-0.01,11.21-0.13,16.69
		c-0.16,7.43-0.33,15.12,0.09,22.7l1.43-0.08l-1.43,0.09c0.06,1.21,0.22,4.04,2.32,6.16c1.53,1.54,3.71,2.37,6.3,2.38
		c6.43,0.04,12.97,0.03,19.3,0.02c4.05-0.01,8.1-0.01,12.15-0.02c-0.21,0.88-0.16,1.72-0.11,2.44c0.03,0.36,0.05,0.71,0.04,1.01
		l-0.01,0.25c-0.07,2.19-0.11,3.4,0.76,4.3c0.86,0.89,2.02,0.88,4.11,0.87h0.49c24.26-0.02,48.52-0.01,72.78-0.02
		c0.24-0.01,0.51,0.01,0.77,0.02c0.29,0.01,0.59,0.03,0.91,0.03c0.8,0,1.66-0.09,2.53-0.49c0.31-0.14,0.56-0.39,0.7-0.7
		c0.56-1.21,0.51-2.39,0.46-3.44c-0.01-0.26-0.02-0.52-0.02-0.78c0.01-7.76,0.01-15.52,0.01-23.28c0-7.54,0-15.08,0.01-22.61
		c0-0.3-0.01-0.6-0.03-0.9c-0.03-0.7-0.04-1.31,0.12-1.84c7.75,1.9,15.53,0.26,23.19-4.96c7.63-5.19,11.61-12.72,12.18-23.04
		C226.85,87.64,218.25,73.06,200.94,70.45z M71.38,120.44c1.54-1.67,4.22-1.67,5.11-1.67c6.54,0,13.07,0,19.61,0.01
		c14.64,0.01,29.77,0.03,44.65-0.06c2.47,0,4.39,0.66,5.59,1.97c1.15,1.25,1.66,3.11,1.46,5.37c-0.04,0.49-0.08,0.97-0.11,1.46
		c-0.01,0-0.01,0-0.01,0.01c-0.57,0.27-1.28,0.24-2.09,0.21c-0.3-0.01-0.59-0.02-0.9-0.03c-20.87,0.01-41.73,0.01-62.6,0.01H70.14
		c-0.01-0.86-0.01-1.73-0.03-2.59C70.08,124.07,70.04,121.89,71.38,120.44z M70.14,130.56h11.94c20.87,0,41.74,0,62.6-0.01l0,0
		c0.26,0,0.51,0.01,0.76,0.02c0.29,0.01,0.59,0.03,0.91,0.03c0.39,0,0.78-0.02,1.19-0.09c-0.07,2.49-0.05,4.97,0.01,7.35H70.06
		C70.11,135.45,70.13,133.01,70.14,130.56z M95.12,170.33c-6.32,0.01-12.86,0.01-19.27-0.02c-1.82-0.01-3.31-0.54-4.3-1.54
		c-1.34-1.35-1.44-3.34-1.5-4.3v-0.01c-0.41-7.47-0.24-15.1-0.08-22.48c0.01-0.41,0.01-0.84,0.03-1.25h77.64
		c0.08,3.23,0.06,6.5,0.06,9.68c-0.01,4.33-0.04,8.8,0.17,13.22c0.09,1.96-0.5,3.65-1.72,4.9c-1.24,1.27-3.04,1.94-5.04,1.9
		c-5.47-0.12-10.98-0.16-16.46-0.16c-3.62,0-7.23,0.01-10.78,0.03C107.62,170.32,101.37,170.33,95.12,170.33z M187.82,130
		c0.01,0.26,0.02,0.51,0.02,0.77c-0.01,7.54-0.01,15.08-0.01,22.62c0,7.76,0,15.52-0.01,23.28c0,0.3,0.01,0.6,0.03,0.9
		c0.03,0.59,0.05,1.11-0.04,1.58c-0.46,0.09-0.99,0.06-1.58,0.04c-0.3-0.01-0.62-0.04-0.9-0.03c-24.26,0.01-48.52,0-72.78,0.02
		h-0.49c-0.8,0-1.62,0.01-2-0.06c-0.06-0.41-0.03-1.3,0-2.17l0.01-0.25c0.01-0.46-0.01-0.89-0.04-1.31
		c-0.06-0.91-0.09-1.49,0.19-1.99c0.04-0.09,0.09-0.17,0.11-0.26c1.19,0,2.38,0,3.57-0.01c8.91-0.04,18.12-0.08,27.16,0.13
		c0.09,0,0.17,0,0.26,0c2.7,0,5.14-0.98,6.89-2.77c1.76-1.8,2.66-4.3,2.53-7.03c-0.2-4.35-0.19-8.78-0.16-13.08
		c0.01-3.66,0.03-7.43-0.09-11.17c-0.14-4.15-0.2-8.58,0.19-12.94c0.27-3.09-0.49-5.7-2.2-7.56c-1.76-1.91-4.45-2.9-7.7-2.89
		c-10.19,0.06-20.5,0.07-30.69,0.07V63.24c0-1.14,0-2.33,0.13-2.7c0.38-0.13,1.56-0.13,2.71-0.13h74.93
		c0.09,1.47,0.05,2.94,0.01,4.37c-0.06,2.21-0.11,4.48,0.28,6.75c-3.07,1.01-5.99,2.56-8.65,4.62
		c-6.39,4.95-10.51,12.26-11.31,20.05c-0.67,6.54,0.48,12.28,3.52,17.57c0.21,0.38,0.36,0.74,0.44,1.1c0.31,1.3-0.03,2.41-0.16,2.84
		c-0.92,2.89-1.52,5.88-2.4,8.8c-0.84,2.79-0.98,3.46-0.58,3.89c0.89,0.96,3.57-0.15,5.34-0.89c2.01-0.84,7.24-3.47,8.43-4.2
		c0.61-0.37,0.84-0.26,1.56,0.21c0.22,0.14,0.45,0.29,0.71,0.41c1.02,0.49,2.04,0.9,3.07,1.26
		C187.75,128.2,187.79,129.14,187.82,130z M223.31,99.88c-0.51,9.37-4.09,16.18-10.93,20.83c-8.8,5.99-17.35,6.85-26.16,2.65
		c-0.12-0.06-0.24-0.14-0.37-0.23c-0.79-0.51-2.42-1.58-4.6-0.26c-2.55,1.54-5.37,2.81-8.11,4.03c-0.18,0.08-0.36,0.16-0.54,0.24
		c0.07-1.81,0.62-3.58,1.19-5.44c0.34-1.09,0.69-2.23,0.94-3.39c0.39-1.82,0.67-3.77-0.59-5.97c-2.73-4.75-3.76-9.93-3.15-15.85
		c0.72-7.02,4.45-13.61,10.21-18.08c4.58-3.55,10-5.42,15.57-5.42c1.24,0,2.49,0.09,3.75,0.29
		C216.15,75.63,223.93,88.75,223.31,99.88z"/>
	<path class="st0" d="M103.7,160.82h-5.54c-6.35,0-12.92-0.01-19.39,0.02c-0.15,0-0.36-0.02-0.54-0.04
		c-0.78-0.09-1.95-0.22-3.02,0.7c-0.59,0.51-0.66,1.42-0.14,2.02c0.29,0.33,0.68,0.49,1.08,0.49c0.33,0,0.66-0.11,0.94-0.35
		c0.1-0.09,0.3-0.08,0.82-0.02c0.26,0.03,0.56,0.06,0.87,0.06c6.45-0.03,13.02-0.03,19.37-0.02h5.54c0.79,0,1.43-0.64,1.43-1.43
		C105.13,161.46,104.49,160.82,103.7,160.82z"/>
	<path class="st0" d="M129.33,165.68c0.85,0,1.69-0.15,2.47-0.48c0.44-0.19,0.83-0.41,1.19-0.65c1.61,0.8,2.97,1.11,4.1,1.11
		c2.86,0,4.32-1.97,4.92-3.07c0.89-1.65,1.07-3.59,0.49-5.31c-0.56-1.7-1.8-3.06-3.47-3.82c-2.27-1.04-4.5-0.72-6.11,0.81
		c-0.05-0.03-0.11-0.05-0.16-0.08c-1.94-1-4.6-2.37-7.47,0.43c-2.03,1.99-3.25,5.69-1.83,8.03
		C124.61,164.54,127,165.68,129.33,165.68z M137.83,156.06c0.94,0.44,1.64,1.19,1.96,2.14c0.33,0.98,0.22,2.09-0.3,3.04
		c-0.4,0.74-1.31,2.42-4.55,1.06c0.59-1.25,0.71-2.74,0.3-4.35c-0.14-0.52-0.31-1.01-0.47-1.48c0-0.01-0.01-0.01-0.01-0.01
		C135.55,155.63,136.58,155.48,137.83,156.06z M127.29,156.68c0.6-0.59,1.12-0.84,1.68-0.84c0.68,0,1.43,0.36,2.48,0.9
		c0.16,0.08,0.31,0.16,0.46,0.24c0.05,0.15,0.11,0.31,0.16,0.46c0.15,0.43,0.29,0.84,0.4,1.23c0.33,1.29,0.29,3.02-1.79,3.9
		c-1.58,0.66-3.95-0.02-4.78-1.39C125.38,160.31,125.96,157.98,127.29,156.68z"/>
	<path class="st0" d="M76.02,156.78c2.94,0.31,5.88,0.39,8.8,0.39c1.62,0,3.23-0.03,4.82-0.05c2.67-0.04,5.43-0.09,8.13-0.01
		c0.81,0.04,1.45-0.6,1.47-1.39c0.02-0.79-0.6-1.45-1.39-1.47c-2.76-0.08-5.55-0.04-8.25,0.01c-4.37,0.07-8.88,0.14-13.28-0.33
		c-0.79-0.08-1.49,0.49-1.57,1.27C74.66,156,75.23,156.7,76.02,156.78z"/>
	<path class="st0" d="M149.33,195.2c1.52-0.04,2.84-0.63,3.63-1.59c0.06-0.08,0.14-0.16,0.21-0.25c0.56-0.64,1.59-1.82,1.14-3.47
		c0.01-0.22-0.02-0.45-0.11-0.66c-1.29-2.99-3.02-3.92-4.24-4.18c-1.02-0.21-2.6-0.15-4.27,1.4c-1.1,1.02-1.74,2.33-1.79,3.68
		c-0.05,1.3,0.44,2.57,1.39,3.59c0.87,0.94,2.3,1.49,3.85,1.49C149.19,195.2,149.26,195.2,149.33,195.2z M146.75,190.24
		c0.02-0.6,0.32-1.19,0.87-1.69c0.52-0.49,1.02-0.73,1.48-0.73c0.09,0,0.18,0.01,0.26,0.03c0.74,0.16,1.49,0.97,2.09,2.25
		c0,0.17,0.02,0.34,0.09,0.51c0.05,0.14,0.02,0.26-0.51,0.87c-0.09,0.11-0.19,0.21-0.27,0.32c-0.26,0.32-0.84,0.53-1.51,0.55
		c-0.76,0.04-1.53-0.21-1.87-0.58C146.95,191.3,146.73,190.77,146.75,190.24z"/>
	<path class="st0" d="M158.6,49.69c-3.89,0.49-7.9,0.32-11.78,0.16c-2.09-0.09-4.26-0.18-6.4-0.17c-0.79,0-1.43,0.64-1.42,1.44
		c0,0.79,0.64,1.42,1.43,1.42h0.01c2.07-0.01,4.21,0.08,6.27,0.16c1.99,0.09,4.02,0.17,6.07,0.17c2.06,0,4.12-0.09,6.2-0.34
		c0.79-0.1,1.34-0.81,1.24-1.59C160.11,50.16,159.38,49.59,158.6,49.69z"/>
	<path class="st0" d="M195.87,82.77c0.85,0,1.66,0,2.51,0c0,0.13,0,0.24,0,0.35c0,1.06,0.01,2.12-0.01,3.18
		c-0.01,0.28,0.09,0.35,0.34,0.36c1.34,0.1,2.64,0.39,3.89,0.89c1.02,0.41,1.01,0.41,0.63,1.42c-0.21,0.54-0.42,1.09-0.64,1.68
		c-0.29-0.14-0.56-0.26-0.82-0.38c-1.61-0.72-3.27-1.09-5.04-0.89c-1.39,0.16-2.54,0.73-3.18,2.07c-0.52,1.1-0.33,2.59,0.49,3.49
		c0.78,0.86,1.81,1.34,2.82,1.84c1.46,0.71,2.97,1.35,4.35,2.19c3.13,1.9,4.15,5.71,2.41,8.93c-0.89,1.66-2.34,2.73-4.14,3.31
		c-0.36,0.11-0.73,0.22-1.1,0.3c-0.21,0.05-0.28,0.15-0.28,0.36c-0.01,1.14-0.02,2.28-0.04,3.42c0,0.13,0,0.26,0,0.42
		c-0.84,0-1.64,0-2.49,0c0-1.34,0-2.68,0-4.03c-0.64-0.07-1.24-0.13-1.83-0.21c-1.39-0.19-2.67-0.7-3.92-1.32
		c-0.29-0.14-0.35-0.31-0.24-0.61c0.28-0.73,0.52-1.47,0.8-2.24c0.47,0.22,0.91,0.43,1.34,0.64c1.57,0.74,3.23,1.09,4.97,0.99
		c0.94-0.06,1.82-0.31,2.61-0.84c1.96-1.31,2.25-4.01,0.63-5.72c-0.8-0.84-1.79-1.37-2.82-1.85c-1.21-0.56-2.44-1.1-3.62-1.73
		c-1.19-0.63-2.18-1.52-2.89-2.67c-1.12-1.82-0.99-3.72-0.15-5.58c0.82-1.81,2.32-2.86,4.18-3.44c0.31-0.1,0.63-0.19,0.95-0.26
		c0.21-0.04,0.26-0.14,0.26-0.34c0.01-1.12,0.02-2.24,0.04-3.36C195.87,83.03,195.87,82.91,195.87,82.77z"/>
</g>
</svg>
