<?xml version="1.0" encoding="utf-8"?>
<!-- Generator: Adobe Illustrator 27.0.0, SVG Export Plug-In . SVG Version: 6.00 Build 0)  -->
<svg version="1.1" id="Layer_1" xmlns="http://www.w3.org/2000/svg" xmlns:xlink="http://www.w3.org/1999/xlink" x="0px" y="0px"
	 viewBox="0 0 435.15 95.32" style="enable-background:new 0 0 435.15 95.32;" xml:space="preserve">
<style type="text/css">
	.st0{display:none;fill:#FFFFFF;}
	.st1{fill:#FFFFFF;}
	.st2{fill:none;}
	.st3{fill:url(#SVGID_1_);}
	.st4{fill:url(#SVGID_00000070079739142560849600000016043107839099330952_);}
	.st5{fill:url(#SVGID_00000180328805802940145830000011878296520486885819_);}
	.st6{fill:#1C3461;}
	.st7{fill:url(#SVGID_00000123420302982395540640000013848729256798947213_);}
	.st8{fill:url(#SVGID_00000119817481086450463800000014517359748719222446_);}
	.st9{fill:url(#SVGID_00000110448975593551379490000007622181933484976810_);}
	.st10{fill:url(#SVGID_00000079449250855186008390000013102367989527996062_);}
	.st11{fill:url(#SVGID_00000100377082783966009810000009323471444426044069_);}
	.st12{fill:url(#SVGID_00000135679806344516702210000017802843671562813363_);}
	.st13{fill:url(#SVGID_00000096046806850033941200000000272379109104140945_);}
	.st14{fill:url(#SVGID_00000066480569352316524670000008366716535377704352_);}
	.st15{fill:url(#SVGID_00000096756681654040803370000005668180632016125367_);}
	.st16{fill:url(#SVGID_00000178202250779557027800000006981168816964297108_);}
	.st17{fill:url(#SVGID_00000166656820913466141190000013782081290001923229_);}
	.st18{fill:url(#SVGID_00000041273642777701626930000003801869212188486071_);}
	.st19{fill:url(#SVGID_00000049917861402535016190000013345692446154134671_);}
	.st20{fill:url(#SVGID_00000036220887950447269070000014867296467159251602_);}
	.st21{fill:url(#SVGID_00000163033806689546945130000000875030021836068003_);}
	.st22{fill:url(#SVGID_00000079448934196046800660000012556581145703300757_);}
	.st23{fill:url(#SVGID_00000067229104682783411200000000723742897483231931_);}
	.st24{fill:url(#SVGID_00000019657463163416426340000010128646788258626748_);}
	.st25{fill:url(#SVGID_00000101085743006011419030000015653512498564339874_);}
	.st26{fill:url(#SVGID_00000080918971806560784300000008548180716061752487_);}
	.st27{fill:url(#SVGID_00000160877855300489183710000013911777536174927522_);}
	.st28{fill:url(#SVGID_00000078027353808303463290000011354748508301861522_);}
	.st29{fill:url(#SVGID_00000179628001197801846730000002142166896702675853_);}
	.st30{fill:url(#SVGID_00000137123090770766563390000015064891970731210908_);}
	.st31{fill:url(#SVGID_00000067238070017569374470000009195510662474550942_);}
	.st32{fill:url(#SVGID_00000071530370066466750780000000782663680309253253_);}
	.st33{fill:url(#SVGID_00000071542839267229516630000006419933259102645888_);}
</style>
<rect class="st0" width="435.15" height="95.32"/>
<g>
	<g>
		<path class="st1" d="M77.88,13.91l-1.04-0.45c-0.38-0.17-0.79-0.25-1.2-0.25c-0.37,0-0.74,0.07-1.09,0.21
			c-0.07,0.03-0.12,0.07-0.19,0.1c-0.27-0.28-0.59-0.51-0.95-0.66l-1.04-0.45c-0.39-0.17-0.8-0.25-1.2-0.25
			c-0.65,0-1.27,0.22-1.79,0.6l-0.18-0.08c-0.38-0.17-0.79-0.25-1.21-0.25c-0.37,0-0.74,0.07-1.09,0.21
			c-0.29,0.11-0.55,0.28-0.79,0.47c-0.37-0.15-0.75-0.23-1.13-0.23c-1.16,0-2.26,0.67-2.75,1.8l-0.69,1.59
			c-0.31,0.72-0.33,1.52-0.06,2.25c-0.32,0.28-0.59,0.63-0.77,1.05l-0.43,0.98c-0.32,0.72-0.32,1.5-0.07,2.2l-1.09,0.2
			c-0.9,0.17-1.67,0.73-2.09,1.54l-3.05,5.7c-0.38-0.12-0.64-0.12-0.84-0.12c-0.88,0-1.71,0.38-2.28,1.05
			c-0.49,0.58-0.75,1.32-0.72,2.08c0.05,1.12,0.65,1.8,1.07,2.17l-9.13,17.09c-0.02,0.04-0.14,0.26-0.14,0.26l-9.23-17.46
			c1.11-1.02,1.3-2.72,0.4-3.96c-0.59-0.81-1.5-1.24-2.43-1.24c-0.33,0-0.67,0.06-0.99,0.17c-2.55-3.12-6.39-4.98-10.52-4.98
			c-2.69,0-5.28,0.78-7.51,2.26c-1.28,0.85-1.71,2.54-0.99,3.9l9.84,18.62l6.09,11.53c0.03,0.05,0.06,0.11,0.09,0.16l5.65,10.69
			c0.06,0.24,0.15,0.47,0.27,0.69l1.97,3.56c0.02,0.03,0.05,0.06,0.07,0.09c0.1,0.16,0.21,0.31,0.34,0.46
			c0.05,0.05,0.09,0.11,0.14,0.15c0.01,0.01,0.01,0.01,0.02,0.02c1.81,1.71,4.18,2.65,6.67,2.65c3.06,0,5.96-1.46,7.78-3.91
			c0.02-0.03,0.05-0.04,0.07-0.07c0.47-0.64,0.84-1.35,1.14-2.1l8.45-15.92c0.04-0.06,0.07-0.12,0.1-0.18l17.67-33.3
			c0.54-1.02,0.45-2.26-0.23-3.18c-0.17-0.23-0.37-0.42-0.59-0.59c0.01-0.02,0.01-0.04,0.02-0.06c0,0,0,0,0.01,0
			c1.16,0,2.26-0.68,2.75-1.81l0.45-1.04C80.08,16.34,79.39,14.58,77.88,13.91z"/>
	</g>
	<g>
		<g>
			<path class="st2" d="M37.89,62.67c-0.02,0-0.04,0.01-0.06,0.01C37.84,62.68,37.86,62.67,37.89,62.67z"/>
			<path class="st2" d="M37.19,75.21l-1.92-3.64l-0.09-0.18c0.01,0.09,0.03,0.18,0.05,0.27"/>
			<path class="st2" d="M48.12,72.59c-0.22,0.61-0.52,1.17-0.89,1.68L48.12,72.59z"/>
			
				<linearGradient id="SVGID_1_" gradientUnits="userSpaceOnUse" x1="1543.792" y1="-1922.937" x2="1554.792" y2="-1922.937" gradientTransform="matrix(1 0 0 1 -1520.188 1970.167)">
				<stop  offset="0" style="stop-color:#FFFFFF"/>
				<stop  offset="1" style="stop-color:#000000"/>
			</linearGradient>
			<path class="st3" d="M26.05,53.7c-1.19-2.27-1.86-4.86-1.86-7.6c0-4.5,1.81-8.58,4.75-11.53c0.54-0.54,1.12-1.05,1.73-1.51
				c-0.63,0.43-1.22,0.9-1.78,1.42c-3.25,2.98-5.29,7.28-5.29,12.05c0,1.3,0.15,2.57,0.44,3.79l1.23,2.34l0.47,0.89l0,0l0.13,0.24
				l1.98,3.75c1.48,1.63,3.3,2.95,5.33,3.87c0.09,0,0.18,0,0.27,0c0.39,0,0.77-0.03,1.15-0.09C30.92,59.91,27.87,57.18,26.05,53.7z"
				/>
			<g>
				
					<linearGradient id="SVGID_00000130607107352690982900000009124504759497547690_" gradientUnits="userSpaceOnUse" x1="1537.9844" y1="-1942.7839" x2="1549.4711" y2="-1922.8883" gradientTransform="matrix(1 0 0 1 -1520.188 1970.167)">
					<stop  offset="0" style="stop-color:#1C5F8F"/>
					<stop  offset="0.3214" style="stop-color:#1C5D8D"/>
					<stop  offset="0.542" style="stop-color:#1C5786"/>
					<stop  offset="0.7323" style="stop-color:#1D4C7A"/>
					<stop  offset="0.9045" style="stop-color:#1C3D6A"/>
					<stop  offset="1" style="stop-color:#1C325F"/>
				</linearGradient>
				<path style="fill:url(#SVGID_00000130607107352690982900000009124504759497547690_);" d="M23.21,47.88
					c0-0.35,0.17-0.54,0.4-0.66c-0.01-0.23-0.02-0.46-0.02-0.69c0-0.36,0.01-0.7,0.03-1.05c-0.25,0.21-0.68,0.23-0.98,0.34
					c-0.54,0.19-0.64-0.54-0.66-0.81c-0.05-0.78,0.84-0.53,1.11-1.02c0.32,0.06,0.51,0.26,0.62,0.48c0.49-3.94,2.38-7.45,5.16-9.99
					l-0.3-0.57c0,0-0.09-0.07-0.12-0.12c-1.79-3.3-5.29-5.54-9.31-5.54c-2.16,0-4.17,0.65-5.85,1.76l9.85,18.64l0.12,0.23l0.76,1.44
					c-0.12-0.53-0.22-1.06-0.3-1.61C23.33,48.71,23.21,48.11,23.21,47.88z M27.59,33.36c0.47,0.12,0.54,0.63,0.79,0.95
					c0,0.22-1.05,1.15-1.24,1.08c-0.41-0.15-0.53-0.59-0.73-0.94C26.34,34.32,27.4,33.31,27.59,33.36z M25.95,31.24
					c0.39,0.16,0.58,0.56,0.75,0.93c0.06,0.14-0.97,1.05-1.2,1.05c-0.33-0.19-0.57-0.54-0.76-0.9
					C24.67,32.17,25.77,31.17,25.95,31.24z M23.89,29.8c0.36,0.01,0.87,0.2,0.87,0.57c0,0.38-0.5,0.58-0.75,0.84
					c-0.45-0.15-0.81-0.44-0.84-0.8C23.14,30.06,23.53,29.79,23.89,29.8z M21.51,29.23c0.09-0.23,0.4-0.26,0.64-0.25
					c0.38,0.02,0.71,0.17,1.02,0.48c-0.37,0.43-0.73,0.8-1.27,0.3C21.74,29.6,21.38,29.54,21.51,29.23z M13.83,30.57
					c0,0,0.9-0.42,1.22-0.41c0.47,0.01,1.83,1,1.52,1.26c-0.89,0.73-1.32,0.57-1.7,0.63C14.52,31.93,14.04,30.9,13.83,30.57z
					 M16.04,34.14c-0.28-0.23-0.42-0.61-0.53-1.01c-0.04-0.14,1.2-0.94,1.38-0.86c0.4,0.18,0.48,0.63,0.58,1.02
					C17.52,33.48,16.38,34.17,16.04,34.14z M16.77,35.61c0.01-0.68,0.7-0.87,1.17-1.05c0.49-0.2,0.46,0.67,0.81,0.87
					c-0.3,0.7-1.21,1.02-1.48,1.09L16.77,35.61z M18.09,37.81c0-0.63,0.66-0.88,1.1-0.99c0.57-0.15,0.49,0.68,0.87,0.97
					c-0.27,0.57-0.8,0.8-1.25,0.92C18.24,38.86,18.08,38.12,18.09,37.81z M19.46,40.22c-0.09-0.17,0.93-0.9,1.36-0.93
					c0.39,0.1,0.58,0.61,0.56,0.93c-0.05,0.74-0.79,0.71-1.26,0.85C19.59,41.23,19.62,40.55,19.46,40.22z M20.65,42.64
					c0-0.73,0.73-0.75,1.18-0.93c0.57-0.22,0.36,0.62,0.85,0.77c-0.34,0.66-0.91,0.81-1.36,0.96C20.8,43.63,20.65,42.91,20.65,42.64
					z"/>
				
					<linearGradient id="SVGID_00000117652821296158759850000010709150163761220008_" gradientUnits="userSpaceOnUse" x1="1543.9086" y1="-1932.5763" x2="1557.1749" y2="-1909.598" gradientTransform="matrix(1 0 0 1 -1520.188 1970.167)">
					<stop  offset="0" style="stop-color:#1C5F8F"/>
					<stop  offset="0.1184" style="stop-color:#1C5786"/>
					<stop  offset="0.4713" style="stop-color:#1D4370"/>
					<stop  offset="0.7773" style="stop-color:#1C3763"/>
					<stop  offset="1" style="stop-color:#1C325F"/>
				</linearGradient>
				<path style="fill:url(#SVGID_00000117652821296158759850000010709150163761220008_);" d="M38.92,58.13
					c0-0.75,0.76-0.73,1.22-0.92c0.09-0.03,0.15-0.04,0.21-0.03c0.09-0.18,0.17-0.36,0.25-0.54l-5.54-10.47l-1.59-3.02l-0.57-1.07
					l-3.96-7.5c-2.94,2.95-4.75,7.03-4.75,11.53c0,0.31,0.01,0.61,0.03,0.91c0.07-0.02,0.13-0.03,0.19-0.06
					c0.53-0.18,0.42,0.59,0.76,0.85l-0.81,0.57c0.08,0.55,0.18,1.1,0.31,1.63c0.21-0.38,0.76-0.41,1.11-0.54
					c0.48-0.18,0.42,0.57,0.79,0.9c-0.39,0.48-0.92,0.74-1.41,0.89c-0.05,0.01-0.09,0.02-0.13,0.02c0.19,0.59,0.42,1.16,0.68,1.71
					c-0.01-0.06-0.01-0.1-0.01-0.15c-0.02-0.82,0.85-0.6,1.24-1.03c0.51,0.09,0.69,0.62,0.67,0.9c-0.04,0.71-0.77,0.75-1.23,0.92
					c-0.15,0.06-0.28,0.03-0.37-0.04c0.02,0.03,0.03,0.06,0.05,0.1c0.24,0.46,0.5,0.9,0.78,1.33c0.14-0.29,0.98-0.86,1.34-0.83
					c0.48,0.04,0.41,0.59,0.69,0.9c-0.29,0.57-0.84,0.77-1.33,0.9h-0.01c0.19,0.25,0.39,0.49,0.59,0.73
					c0.31-0.3,0.96-0.76,1.13-0.72c0.48,0.1,0.47,0.62,0.67,0.96c0.06,0.1-0.44,0.51-0.87,0.76c0.33,0.33,0.67,0.63,1.02,0.93
					c0.15-0.05,0.29-0.1,0.42-0.14c0.48-0.17,0.41,0.6,0.77,0.8c-0.03,0.06-0.06,0.12-0.09,0.18c1.06,0.74,2.22,1.36,3.45,1.83
					c1.82-0.27,3.42-1.17,4.59-2.48C38.99,58.67,38.91,58.31,38.92,58.13z M27.83,36.76c-0.07-0.72,0.67-0.79,1.09-0.96
					c0.61-0.24,0.45,0.63,0.87,0.79c-0.23,0.66-0.77,0.9-1.2,1.04C28.06,37.81,27.87,37.08,27.83,36.76z M29.5,39.86
					c-0.46,0.15-0.51-0.47-0.69-0.77c-0.13-0.22,0.77-1.07,1.21-1.08c0.53-0.01,0.45,0.62,0.79,0.9
					C30.54,39.51,29.98,39.7,29.5,39.86z M30.83,42.22c-0.49,0.12-0.65-0.56-0.66-0.89c-0.03-0.78,0.84-0.55,1.17-1.02
					c0.51,0.18,0.7,0.74,0.68,1.05C31.97,42,31.27,42.1,30.83,42.22z M31.3,43.8c-0.09-0.26,0.88-1.03,1.29-0.98
					c0.51,0.06,0.65,0.65,0.62,0.96c-0.07,0.73-0.88,0.51-1.29,0.92C31.47,44.57,31.43,44.13,31.3,43.8z M32.72,46.11
					c0-0.74,0.74-0.75,1.19-0.9c0.52-0.18,0.45,0.56,0.76,0.87c-0.24,0.64-0.85,0.72-1.32,0.87C32.76,47.12,32.72,46.38,32.72,46.11
					z M34.52,49.52c-0.49,0.12-0.64-0.59-0.62-0.89c0.05-0.75,0.87-0.52,1.24-0.91c0.53,0.09,0.7,0.65,0.66,0.93
					C35.69,49.3,35,49.4,34.52,49.52z M35.04,51.15c0.06-0.73,0.8-0.71,1.26-0.84c0.44-0.12,0.66,0.63,0.61,0.87
					c-0.11,0.65-0.85,0.58-1.28,0.95C35.14,51.99,35.01,51.48,35.04,51.15z M36.56,53.16c0.03-0.73,0.78-0.74,1.23-0.88
					c0.43-0.13,0.68,0.6,0.64,0.85c-0.09,0.65-0.83,0.61-1.24,1C36.69,54,36.54,53.49,36.56,53.16z M37.75,55.7
					c0.01-0.72,0.75-0.74,1.2-0.91c0.57-0.21,0.43,0.55,0.76,0.85c-0.26,0.58-0.82,0.76-1.29,0.9
					C37.91,56.68,37.75,55.97,37.75,55.7z"/>
			</g>
			<path class="st6" d="M33.18,61.41c-1.45-0.05-2.8-0.5-3.94-1.25l-1.38-2.62C29.34,59.18,31.15,60.5,33.18,61.41z"/>
			
				<linearGradient id="SVGID_00000156562741290338610960000006166570377018679215_" gradientUnits="userSpaceOnUse" x1="1552.3547" y1="-1906.8092" x2="1559.9398" y2="-1914.3942" gradientTransform="matrix(1 0 0 1 -1520.188 1970.167)">
				<stop  offset="0" style="stop-color:#1C325F"/>
				<stop  offset="0.2227" style="stop-color:#1C3763"/>
				<stop  offset="0.5287" style="stop-color:#1D4370"/>
				<stop  offset="0.8816" style="stop-color:#1C5786"/>
				<stop  offset="1" style="stop-color:#1C5F8F"/>
			</linearGradient>
			<path style="fill:url(#SVGID_00000156562741290338610960000006166570377018679215_);" d="M41.86,59.03
				c-0.32,0.75-1.28,2.67-3.28,3.43c-0.96,0.36-1.88,0.37-2.73,0.37c-1.42,0-2.54-0.29-3.18-0.49c-1.14-0.36-2.19-0.9-3.12-1.59
				l-0.31-0.59c1.21,0.79,2.66,1.25,4.21,1.25c3.22,0,5.99-1.98,7.14-4.79L41.86,59.03z"/>
			<line class="st2" x1="35.27" y1="71.56" x2="35.22" y2="71.65"/>
			
				<radialGradient id="SVGID_00000076577322719508508980000004215988820471679136_" cx="1569.2015" cy="-1921.9575" r="13.317" gradientTransform="matrix(1 0 0 1 -1520.188 1970.167)" gradientUnits="userSpaceOnUse">
				<stop  offset="0" style="stop-color:#1C5F8F"/>
				<stop  offset="0.2298" style="stop-color:#1C5C8B"/>
				<stop  offset="0.5029" style="stop-color:#1D5280"/>
				<stop  offset="0.7967" style="stop-color:#1D416E"/>
				<stop  offset="1" style="stop-color:#1C325F"/>
			</radialGradient>
			<path style="fill:url(#SVGID_00000076577322719508508980000004215988820471679136_);" d="M59.17,40.41
				c-1.07-2.73-2.78-4.71-4.11-5.91c-1.08-0.99-1.92-1.47-1.94-1.44c-0.03,0.03,0.78,0.58,1.82,1.67c1.11,1.16,2.5,2.91,3.47,5.28
				c0.39,0.95,1.2,3.21,1.2,6.2c0,1.28-0.16,3.33-0.99,5.62c-0.25,0.69-0.57,1.41-0.95,2.13c-0.06,0.1-0.11,0.21-0.17,0.31
				c-2.89,5.09-7.71,6.95-9.14,7.48c-5.19,1.92-9.91,0.92-10.47,0.92c-0.02,0-0.04,0.01-0.06,0.01c-0.01,0.14,4.25,1.41,9.2,0.11
				c0.82-0.21,6.01-1.66,9.65-6.36l1.24-2.33l1.25-2.36l0.15-0.29c0.72-2.19,0.84-4.02,0.86-4.82
				C60.29,43.37,59.38,40.96,59.17,40.41z"/>
			<g>
				
					<linearGradient id="SVGID_00000138566725311458459010000008122785414926938299_" gradientUnits="userSpaceOnUse" x1="1554.8739" y1="-1896.2135" x2="1567.9659" y2="-1918.8896" gradientTransform="matrix(1 0 0 1 -1520.188 1970.167)">
					<stop  offset="0" style="stop-color:#000000"/>
					<stop  offset="1" style="stop-color:#BCBEC0"/>
				</linearGradient>
				<path style="fill:url(#SVGID_00000138566725311458459010000008122785414926938299_);" d="M47.05,62.79
					c-4.96,1.3-9.21,0.03-9.2-0.11c-0.69,0.15-1.37,0.15-1.98,0.15c-1.49,0-2.63-0.31-3.18-0.49c-1.14-0.36-2.19-0.9-3.12-1.59
					l1.83,3.46l3.79,7.17l0,0l0,0l0.09,0.18l1.92,3.64l0,0c1.2,1.14,2.83,1.83,4.61,1.83c2.23,0,4.21-1.09,5.43-2.76l0,0l0.89-1.68
					l0,0l0.45-0.85l8.11-15.31C53.05,61.13,47.86,62.58,47.05,62.79z"/>
				
					<linearGradient id="SVGID_00000079481300237646543690000002874510070300837787_" gradientUnits="userSpaceOnUse" x1="1563.6273" y1="-1904.3062" x2="1573.5037" y2="-1921.4125" gradientTransform="matrix(1 0 0 1 -1520.188 1970.167)">
					<stop  offset="0" style="stop-color:#000000"/>
					<stop  offset="1" style="stop-color:#BCBEC0"/>
				</linearGradient>
				<path style="fill:url(#SVGID_00000079481300237646543690000002874510070300837787_);" d="M46.36,53.64l-1.64,0.24l0,0l-2.8,5.24
					c-0.03,0-1.4,2.65-3.43,3.38c-0.2,0.07-0.39,0.13-0.59,0.17c0.56,0,5.28,1,10.47-0.92c1.43-0.53,6.24-2.4,9.14-7.48
					c0.06-0.1,0.12-0.21,0.17-0.31c0.39-0.72,0.7-1.44,0.95-2.13L46.36,53.64z"/>
			</g>
			<g>
				
					<linearGradient id="SVGID_00000096772590948743123470000015820982717188898227_" gradientUnits="userSpaceOnUse" x1="1572.3519" y1="-1916.292" x2="1572.3519" y2="-1935.442" gradientTransform="matrix(1 0 0 1 -1520.188 1970.167)">
					<stop  offset="0" style="stop-color:#ED1C24"/>
					<stop  offset="0.15" style="stop-color:#E41D24"/>
					<stop  offset="0.3161" style="stop-color:#D41E24"/>
					<stop  offset="0.4901" style="stop-color:#BD1E22"/>
					<stop  offset="0.6694" style="stop-color:#9D1C1E"/>
					<stop  offset="0.851" style="stop-color:#781717"/>
					<stop  offset="1" style="stop-color:#590D0E"/>
				</linearGradient>
				<path style="fill:url(#SVGID_00000096772590948743123470000015820982717188898227_);" d="M59.61,46.21
					c0,1.28-0.16,3.33-0.99,5.62l-12.27,1.81l-1.64,0.24l1.64-3.07l8.6-16.08c1.11,1.16,2.5,2.91,3.47,5.28
					C58.8,40.96,59.61,43.21,59.61,46.21z"/>
				
					<linearGradient id="SVGID_00000148643864202642624810000007371691688662023347_" gradientUnits="userSpaceOnUse" x1="1579.0553" y1="-1930.3716" x2="1594.733" y2="-1957.658" gradientTransform="matrix(1 0 0 1 -1520.188 1970.167)">
					<stop  offset="0" style="stop-color:#ED1C24"/>
					<stop  offset="0.15" style="stop-color:#E41D24"/>
					<stop  offset="0.3161" style="stop-color:#D41E24"/>
					<stop  offset="0.4901" style="stop-color:#BD1E22"/>
					<stop  offset="0.6694" style="stop-color:#9D1C1E"/>
					<stop  offset="0.851" style="stop-color:#781717"/>
					<stop  offset="1" style="stop-color:#590D0E"/>
				</linearGradient>
				<path style="fill:url(#SVGID_00000148643864202642624810000007371691688662023347_);" d="M59.34,51.46l15.03-28.32l-3,0.57
					l-1.29,2.46l-3.02-1.58l-0.7,1l-1.38-0.68l-0.57,0.11l-0.58,1.12l1.47,0.84l-0.96,1.65l-1.65-0.96l0.93-1.61l-1.28-0.67
					l-2.66,0.5l-4.6,8.6c1.33,1.21,3.04,3.18,4.11,5.91c0.21,0.54,1.11,2.95,1.02,6.23C60.17,47.44,60.06,49.26,59.34,51.46z
					 M67.37,32.7l-1.02-0.59l0.59-1.02l1.02,0.59L67.37,32.7z M70.22,26.02l1.02,0.59l-0.59,1.02l-1.02-0.59L70.22,26.02z
					 M68.4,27.22l1.02,0.59l-0.59,1.02l-1.02-0.59L68.4,27.22z M66.48,25.72l0.99,0.45l-0.48,0.96L66,26.68L66.48,25.72z
					 M64.31,33.19l0.98,0.57l-0.57,0.98l-0.98-0.57L64.31,33.19z M61.32,25.84l0.93,0.54l-0.54,0.93l-0.93-0.54L61.32,25.84z"/>
			</g>
			
				<radialGradient id="SVGID_00000000909272421252749290000014134676708071077554_" cx="1580.3619" cy="-1936.9869" r="1.8075" gradientTransform="matrix(1 0 0 1 -1520.188 1970.167)" gradientUnits="userSpaceOnUse">
				<stop  offset="0" style="stop-color:#1C5F8F"/>
				<stop  offset="0.4263" style="stop-color:#1D4E7C"/>
				<stop  offset="1" style="stop-color:#1C325F"/>
			</radialGradient>
			<polygon style="fill:url(#SVGID_00000000909272421252749290000014134676708071077554_);" points="60.66,34.99 58.36,33.67 
				59.69,31.38 61.98,32.7 			"/>
			
				<radialGradient id="SVGID_00000058586146607918790460000012635510839601051554_" cx="1579.9457" cy="-1940.5591" r="1.2492" gradientTransform="matrix(1 0 0 1 -1520.188 1970.167)" gradientUnits="userSpaceOnUse">
				<stop  offset="0" style="stop-color:#1C5F8F"/>
				<stop  offset="0.4263" style="stop-color:#1D4E7C"/>
				<stop  offset="1" style="stop-color:#1C325F"/>
			</radialGradient>
			<polygon style="fill:url(#SVGID_00000058586146607918790460000012635510839601051554_);" points="60.09,30.86 58.5,29.95 
				59.42,28.36 61,29.28 			"/>
			
				<radialGradient id="SVGID_00000063608448573852260970000010213557222334064024_" cx="1581.9669" cy="-1941.0989" r="0.7699" gradientTransform="matrix(1 0 0 1 -1520.188 1970.167)" gradientUnits="userSpaceOnUse">
				<stop  offset="0" style="stop-color:#1C5F8F"/>
				<stop  offset="0.4263" style="stop-color:#1D4E7C"/>
				<stop  offset="1" style="stop-color:#1C325F"/>
			</radialGradient>
			<polygon style="fill:url(#SVGID_00000063608448573852260970000010213557222334064024_);" points="61.98,29.84 61,29.28 
				61.57,28.3 62.55,28.87 			"/>
			
				<radialGradient id="SVGID_00000000196544979926526720000016833898303739069573_" cx="1585.162" cy="-1940.162" r="1.71" gradientTransform="matrix(1 0 0 1 -1520.188 1970.167)" gradientUnits="userSpaceOnUse">
				<stop  offset="0" style="stop-color:#1C5F8F"/>
				<stop  offset="0.4263" style="stop-color:#1D4E7C"/>
				<stop  offset="1" style="stop-color:#1C325F"/>
			</radialGradient>
			<polygon style="fill:url(#SVGID_00000000196544979926526720000016833898303739069573_);" points="65.43,31.72 63.26,30.47 
				64.51,28.3 66.68,29.56 			"/>
			
				<radialGradient id="SVGID_00000019674818402676736730000016934959887203096221_" cx="1583.5869" cy="-1945.7742" r="0.7228" gradientTransform="matrix(1 0 0 1 -1520.188 1970.167)" gradientUnits="userSpaceOnUse">
				<stop  offset="0" style="stop-color:#ED1C24"/>
				<stop  offset="0.15" style="stop-color:#E41D24"/>
				<stop  offset="0.3161" style="stop-color:#D41E24"/>
				<stop  offset="0.4901" style="stop-color:#BD1E22"/>
				<stop  offset="0.6694" style="stop-color:#9D1C1E"/>
				<stop  offset="0.851" style="stop-color:#781717"/>
				<stop  offset="1" style="stop-color:#590D0E"/>
			</radialGradient>
			<polygon style="fill:url(#SVGID_00000019674818402676736730000016934959887203096221_);" points="64.12,24.12 63.68,25.12 
				62.67,24.68 63.11,23.68 			"/>
			
				<radialGradient id="SVGID_00000054964741476475217710000001536868939287507368_" cx="1586.287" cy="-1946.802" r="1.0544" gradientTransform="matrix(1 0 0 1 -1520.188 1970.167)" gradientUnits="userSpaceOnUse">
				<stop  offset="0" style="stop-color:#ED1C24"/>
				<stop  offset="0.15" style="stop-color:#E41D24"/>
				<stop  offset="0.3161" style="stop-color:#D41E24"/>
				<stop  offset="0.4901" style="stop-color:#BD1E22"/>
				<stop  offset="0.6694" style="stop-color:#9D1C1E"/>
				<stop  offset="0.851" style="stop-color:#781717"/>
				<stop  offset="1" style="stop-color:#590D0E"/>
			</radialGradient>
			<polygon style="fill:url(#SVGID_00000054964741476475217710000001536868939287507368_);" points="67.15,22.96 66.51,24.43 
				65.04,23.79 65.68,22.31 			"/>
			
				<radialGradient id="SVGID_00000056387761426548426430000004393299282861527175_" cx="1586.127" cy="-1949.3933" r="1.4958" gradientTransform="matrix(1 0 0 1 -1520.188 1970.167)" gradientUnits="userSpaceOnUse">
				<stop  offset="0" style="stop-color:#ED1C24"/>
				<stop  offset="0.15" style="stop-color:#E41D24"/>
				<stop  offset="0.3161" style="stop-color:#D41E24"/>
				<stop  offset="0.4901" style="stop-color:#BD1E22"/>
				<stop  offset="0.6694" style="stop-color:#9D1C1E"/>
				<stop  offset="0.851" style="stop-color:#781717"/>
				<stop  offset="1" style="stop-color:#590D0E"/>
			</radialGradient>
			<polygon style="fill:url(#SVGID_00000056387761426548426430000004393299282861527175_);" points="67.43,20.19 66.52,22.27 
				64.44,21.37 65.35,19.28 			"/>
			
				<radialGradient id="SVGID_00000039124996492706872970000011313057289495695786_" cx="1588.2528" cy="-1947.817" r="0.7824" gradientTransform="matrix(1 0 0 1 -1520.188 1970.167)" gradientUnits="userSpaceOnUse">
				<stop  offset="0" style="stop-color:#ED1C24"/>
				<stop  offset="0.15" style="stop-color:#E41D24"/>
				<stop  offset="0.3161" style="stop-color:#D41E24"/>
				<stop  offset="0.4901" style="stop-color:#BD1E22"/>
				<stop  offset="0.6694" style="stop-color:#9D1C1E"/>
				<stop  offset="0.851" style="stop-color:#781717"/>
				<stop  offset="1" style="stop-color:#590D0E"/>
			</radialGradient>
			<polygon style="fill:url(#SVGID_00000039124996492706872970000011313057289495695786_);" points="68.85,22.05 68.37,23.14 
				67.28,22.66 67.75,21.57 			"/>
			
				<radialGradient id="SVGID_00000143593779838207863890000016210992504754162839_" cx="1589.8069" cy="-1946.2319" r="1.1675" gradientTransform="matrix(1 0 0 1 -1520.188 1970.167)" gradientUnits="userSpaceOnUse">
				<stop  offset="0" style="stop-color:#ED1C24"/>
				<stop  offset="0.15" style="stop-color:#E41D24"/>
				<stop  offset="0.3161" style="stop-color:#D41E24"/>
				<stop  offset="0.4901" style="stop-color:#BD1E22"/>
				<stop  offset="0.6694" style="stop-color:#9D1C1E"/>
				<stop  offset="0.851" style="stop-color:#781717"/>
				<stop  offset="1" style="stop-color:#590D0E"/>
			</radialGradient>
			<polygon style="fill:url(#SVGID_00000143593779838207863890000016210992504754162839_);" points="70.78,23.48 70.08,25.11 
				68.45,24.4 69.16,22.77 			"/>
			
				<radialGradient id="SVGID_00000127747264415781447830000013162087118291722416_" cx="1588.627" cy="-1951.0452" r="0.7054" gradientTransform="matrix(1 0 0 1 -1520.188 1970.167)" gradientUnits="userSpaceOnUse">
				<stop  offset="0" style="stop-color:#ED1C24"/>
				<stop  offset="0.15" style="stop-color:#E41D24"/>
				<stop  offset="0.3161" style="stop-color:#D41E24"/>
				<stop  offset="0.4901" style="stop-color:#BD1E22"/>
				<stop  offset="0.6694" style="stop-color:#9D1C1E"/>
				<stop  offset="0.851" style="stop-color:#781717"/>
				<stop  offset="1" style="stop-color:#590D0E"/>
			</radialGradient>
			<polygon style="fill:url(#SVGID_00000127747264415781447830000013162087118291722416_);" points="69.14,18.85 68.71,19.83 
				67.73,19.4 68.16,18.42 			"/>
			
				<radialGradient id="SVGID_00000176023439458828022920000012230170957954114738_" cx="1583.9269" cy="-1948.7053" r="0.7042" gradientTransform="matrix(1 0 0 1 -1520.188 1970.167)" gradientUnits="userSpaceOnUse">
				<stop  offset="0" style="stop-color:#1C5F8F"/>
				<stop  offset="0.4263" style="stop-color:#1D4E7C"/>
				<stop  offset="1" style="stop-color:#1C325F"/>
			</radialGradient>
			<polygon style="fill:url(#SVGID_00000176023439458828022920000012230170957954114738_);" points="64.44,21.19 64.01,22.17 
				63.03,21.74 63.46,20.76 			"/>
			
				<radialGradient id="SVGID_00000155109861908826686750000015528898914975144593_" cx="1585.6169" cy="-1953.162" r="1.1425" gradientTransform="matrix(1 0 0 1 -1520.188 1970.167)" gradientUnits="userSpaceOnUse">
				<stop  offset="0" style="stop-color:#ED1C24"/>
				<stop  offset="0.15" style="stop-color:#E41D24"/>
				<stop  offset="0.3161" style="stop-color:#D41E24"/>
				<stop  offset="0.4901" style="stop-color:#BD1E22"/>
				<stop  offset="0.6694" style="stop-color:#9D1C1E"/>
				<stop  offset="0.851" style="stop-color:#781717"/>
				<stop  offset="1" style="stop-color:#590D0E"/>
			</radialGradient>
			<polygon style="fill:url(#SVGID_00000155109861908826686750000015528898914975144593_);" points="66.57,16.56 65.88,18.15 
				64.28,17.46 64.98,15.87 			"/>
			
				<radialGradient id="SVGID_00000182492460029052109190000009292964269393428369_" cx="1588.4719" cy="-1954.0085" r="0.7453" gradientTransform="matrix(1 0 0 1 -1520.188 1970.167)" gradientUnits="userSpaceOnUse">
				<stop  offset="0" style="stop-color:#ED1C24"/>
				<stop  offset="0.15" style="stop-color:#E41D24"/>
				<stop  offset="0.3161" style="stop-color:#D41E24"/>
				<stop  offset="0.4901" style="stop-color:#BD1E22"/>
				<stop  offset="0.6694" style="stop-color:#9D1C1E"/>
				<stop  offset="0.851" style="stop-color:#781717"/>
				<stop  offset="1" style="stop-color:#590D0E"/>
			</radialGradient>
			<polygon style="fill:url(#SVGID_00000182492460029052109190000009292964269393428369_);" points="69.03,15.87 68.57,16.91 
				67.53,16.45 67.99,15.42 			"/>
			
				<radialGradient id="SVGID_00000119078735032813898600000008302343973417996732_" cx="1591.642" cy="-1954.2786" r="0.7459" gradientTransform="matrix(1 0 0 1 -1520.188 1970.167)" gradientUnits="userSpaceOnUse">
				<stop  offset="0" style="stop-color:#ED1C24"/>
				<stop  offset="0.15" style="stop-color:#E41D24"/>
				<stop  offset="0.3161" style="stop-color:#D41E24"/>
				<stop  offset="0.4901" style="stop-color:#BD1E22"/>
				<stop  offset="0.6694" style="stop-color:#9D1C1E"/>
				<stop  offset="0.851" style="stop-color:#781717"/>
				<stop  offset="1" style="stop-color:#590D0E"/>
			</radialGradient>
			<polygon style="fill:url(#SVGID_00000119078735032813898600000008302343973417996732_);" points="72.2,15.6 71.74,16.64 
				70.7,16.18 71.16,15.15 			"/>
			
				<radialGradient id="SVGID_00000020379401961335187150000016109558610516861111_" cx="1593.417" cy="-1951.853" r="0.7456" gradientTransform="matrix(1 0 0 1 -1520.188 1970.167)" gradientUnits="userSpaceOnUse">
				<stop  offset="0" style="stop-color:#ED1C24"/>
				<stop  offset="0.15" style="stop-color:#E41D24"/>
				<stop  offset="0.3161" style="stop-color:#D41E24"/>
				<stop  offset="0.4901" style="stop-color:#BD1E22"/>
				<stop  offset="0.6694" style="stop-color:#9D1C1E"/>
				<stop  offset="0.851" style="stop-color:#781717"/>
				<stop  offset="1" style="stop-color:#590D0E"/>
			</radialGradient>
			<polygon style="fill:url(#SVGID_00000020379401961335187150000016109558610516861111_);" points="73.97,18.03 73.52,19.06 
				72.48,18.61 72.93,17.57 			"/>
			
				<radialGradient id="SVGID_00000170246552149398459470000015828177945016867730_" cx="1590.7219" cy="-1952.312" r="1.16" gradientTransform="matrix(1 0 0 1 -1520.188 1970.167)" gradientUnits="userSpaceOnUse">
				<stop  offset="0" style="stop-color:#1C5F8F"/>
				<stop  offset="0.4263" style="stop-color:#1D4E7C"/>
				<stop  offset="1" style="stop-color:#1C325F"/>
			</radialGradient>
			<polygon style="fill:url(#SVGID_00000170246552149398459470000015828177945016867730_);" points="71.69,17.41 70.99,19.02 
				69.37,18.31 70.08,16.7 			"/>
			
				<radialGradient id="SVGID_00000123426121362505062260000008189286279916103335_" cx="1591.662" cy="-1949.3569" r="1.8106" gradientTransform="matrix(1 0 0 1 -1520.188 1970.167)" gradientUnits="userSpaceOnUse">
				<stop  offset="0" style="stop-color:#1C5F8F"/>
				<stop  offset="0.4263" style="stop-color:#1D4E7C"/>
				<stop  offset="1" style="stop-color:#1C325F"/>
			</radialGradient>
			<polygon style="fill:url(#SVGID_00000123426121362505062260000008189286279916103335_);" points="73.28,20.1 72.18,22.63 
				69.66,21.52 70.76,19 			"/>
			
				<radialGradient id="SVGID_00000098194158844382672230000013377795286879081403_" cx="1596.1224" cy="-1953.212" r="0.7447" gradientTransform="matrix(1 0 0 1 -1520.188 1970.167)" gradientUnits="userSpaceOnUse">
				<stop  offset="0" style="stop-color:#1C5F8F"/>
				<stop  offset="0.4263" style="stop-color:#1D4E7C"/>
				<stop  offset="1" style="stop-color:#1C325F"/>
			</radialGradient>
			<polygon style="fill:url(#SVGID_00000098194158844382672230000013377795286879081403_);" points="76.67,16.67 76.22,17.71 
				75.18,17.26 75.64,16.21 			"/>
		</g>
		<g>
			<g>
				<polygon class="st1" points="266.4,79.98 418.89,81.16 266.4,82.34 				"/>
			</g>
			<g>
				<polygon class="st1" points="250.88,83.16 98.39,81.98 250.88,80.8 				"/>
			</g>
		</g>
		<g>
			
				<radialGradient id="SVGID_00000050643586627552830430000017678842056947939970_" cx="918.7631" cy="471.6783" r="17.84" gradientTransform="matrix(-6.123234e-17 1 -1 -6.123234e-17 567.5323 -869.8181)" gradientUnits="userSpaceOnUse">
				<stop  offset="0" style="stop-color:#1C5F8F"/>
				<stop  offset="0.1184" style="stop-color:#1C5786"/>
				<stop  offset="0.4713" style="stop-color:#1D4370"/>
				<stop  offset="0.7773" style="stop-color:#1C3763"/>
				<stop  offset="1" style="stop-color:#1C325F"/>
			</radialGradient>
			<path style="fill:url(#SVGID_00000050643586627552830430000017678842056947939970_);" d="M83.9,26.73h6.05l5.9,34.11l5.9-34.11
				h6.05l-8.93,44.44h-6.05L83.9,26.73z"/>
			<path class="st1" d="M117.22,71.17h-5.81V26.73h5.81V71.17z"/>
			<path class="st1" d="M127.88,70.42c-1.61-0.81-2.83-1.99-3.67-3.54c-0.84-1.56-1.25-3.46-1.25-5.7v-2.2h5.81v1.99
				c0,1.61,0.43,2.85,1.3,3.72c0.87,0.87,2.1,1.3,3.72,1.3c1.57,0,2.77-0.43,3.61-1.29c0.84-0.86,1.25-2.1,1.25-3.73v-3.88
				c0-1.08-0.27-2-0.79-2.75c-0.53-0.75-1.19-1.37-1.99-1.85c-0.79-0.48-1.89-1.03-3.3-1.67c-0.04-0.02-0.08-0.03-0.12-0.05
				c-0.04-0.01-0.08-0.03-0.12-0.05l-0.43-0.18c-1.88-0.86-3.41-1.69-4.6-2.51c-1.19-0.82-2.21-1.95-3.04-3.39
				c-0.84-1.45-1.25-3.28-1.25-5.5v-2.57c0-2.2,0.41-4.07,1.24-5.61c0.83-1.54,2.04-2.7,3.65-3.5c1.61-0.79,3.57-1.19,5.87-1.19
				c2.24,0,4.14,0.4,5.7,1.21c1.56,0.81,2.74,1.99,3.54,3.54c0.81,1.56,1.21,3.45,1.21,5.67v2.32h-5.81v-2.08
				c0-1.63-0.4-2.87-1.19-3.73c-0.79-0.86-1.95-1.29-3.45-1.29c-1.61,0-2.84,0.41-3.68,1.22s-1.27,1.98-1.27,3.48v2.78
				c0,1.12,0.27,2.06,0.79,2.83c0.53,0.76,1.19,1.38,1.99,1.85c0.79,0.47,1.89,1.01,3.27,1.62c0.14,0.06,0.27,0.12,0.4,0.18
				c0.12,0.06,0.25,0.12,0.4,0.18c0.1,0.04,0.21,0.09,0.32,0.14s0.22,0.1,0.32,0.14c1.77,0.79,3.2,1.56,4.28,2.28
				c1.08,0.72,2,1.77,2.75,3.13s1.13,3.15,1.13,5.35v4.08c0,2.24-0.41,4.14-1.24,5.7s-2.03,2.74-3.62,3.54
				c-1.59,0.81-3.53,1.21-5.81,1.21C131.46,71.62,129.5,71.23,127.88,70.42z"/>
			<g>
				<rect x="155.09" y="32.23" class="st1" width="5.81" height="38.94"/>
				<polygon class="st1" points="168.78,26.73 147.2,26.73 147.2,32.23 155.09,32.23 155.09,30.37 160.89,30.37 160.89,32.23 
					168.78,32.23 				"/>
			</g>
			<g>
				<polygon class="st1" points="184.92,56.01 177.28,56.01 176.24,61.49 185.96,61.49 				"/>
				<polygon class="st1" points="174.74,56.01 177.28,56.01 181.1,35.84 184.92,56.01 187.91,56.01 187.91,61.49 185.96,61.49 
					187.79,71.17 194.02,71.17 183.76,26.73 178.44,26.73 168.17,71.17 174.41,71.17 176.24,61.49 174.74,61.49 				"/>
			</g>
			
				<radialGradient id="SVGID_00000008141853122183478520000010230232883936004485_" cx="918.7631" cy="347.7383" r="17.84" gradientTransform="matrix(-6.123234e-17 1 -1 -6.123234e-17 567.5323 -869.8181)" gradientUnits="userSpaceOnUse">
				<stop  offset="0" style="stop-color:#ED1C24"/>
				<stop  offset="0.15" style="stop-color:#E41D24"/>
				<stop  offset="0.3161" style="stop-color:#D41E24"/>
				<stop  offset="0.4901" style="stop-color:#BD1E22"/>
				<stop  offset="0.6694" style="stop-color:#9D1C1E"/>
				<stop  offset="0.851" style="stop-color:#781717"/>
				<stop  offset="1" style="stop-color:#590D0E"/>
			</radialGradient>
			<path style="fill:url(#SVGID_00000008141853122183478520000010230232883936004485_);" d="M207.84,26.73h6.05l5.9,34.11l5.9-34.11
				h6.05l-8.93,44.44h-6.05L207.84,26.73z"/>
			<path class="st1" d="M241.16,71.17h-5.81V26.73h5.81V71.17z"/>
			<g>
				<polygon class="st1" points="250.91,32.23 250.91,26.73 247.21,26.73 247.21,71.17 250.91,71.17 250.91,65.67 253.02,65.67 
					253.02,32.23 				"/>
				<path class="st1" d="M267.03,30.98c-0.72-1.38-1.78-2.44-3.16-3.16s-3.07-1.08-5.04-1.08h-5.81v5.5h5.99
					c1.06,0,1.87,0.32,2.45,0.95c0.57,0.63,0.86,1.53,0.86,2.69v26.15c0,1.16-0.29,2.06-0.86,2.69c-0.57,0.63-1.38,0.95-2.45,0.95
					h-5.99v5.5h5.78c1.98,0,3.66-0.36,5.04-1.08s2.45-1.78,3.18-3.18c0.73-1.4,1.1-3.07,1.1-5.03V36.02
					C268.11,34.05,267.75,32.37,267.03,30.98z"/>
			</g>
			<g>
				<rect x="279.42" y="46.35" class="st1" width="11.74" height="5.5"/>
				<rect x="279.42" y="65.67" class="st1" width="13.26" height="5.5"/>
				<rect x="279.42" y="26.73" class="st1" width="13.26" height="5.5"/>
				<polygon class="st1" points="276.64,32.23 276.64,26.73 273.62,26.73 273.62,71.17 276.64,71.17 276.64,65.67 279.42,65.67 
					279.42,51.86 276.64,51.86 276.64,46.35 279.42,46.35 279.42,32.23 				"/>
			</g>
			<path class="st1" d="M302.34,70.32c-1.65-0.87-2.91-2.15-3.78-3.82s-1.3-3.68-1.3-6.02V37.43c0-2.37,0.43-4.38,1.3-6.05
				c0.87-1.67,2.13-2.94,3.78-3.81s3.64-1.3,5.96-1.3c2.32,0,4.31,0.43,5.96,1.3c1.65,0.87,2.91,2.13,3.78,3.81
				c0.87,1.67,1.3,3.69,1.3,6.05v23.05c0,2.34-0.43,4.35-1.3,6.02s-2.13,2.94-3.78,3.82c-1.65,0.87-3.64,1.32-5.96,1.32
				C305.98,71.62,304,71.19,302.34,70.32z M311.13,65.35c0.78-0.42,1.38-1.02,1.79-1.82c0.41-0.79,0.61-1.75,0.61-2.87V37.25
				c0-1.12-0.21-2.08-0.61-2.87c-0.41-0.79-1-1.4-1.79-1.82c-0.78-0.42-1.73-0.63-2.83-0.63c-1.1,0-2.04,0.21-2.83,0.63
				c-0.78,0.42-1.38,1.02-1.79,1.82c-0.41,0.79-0.61,1.75-0.61,2.87v23.41c0,1.12,0.2,2.08,0.61,2.87c0.41,0.79,1,1.4,1.79,1.82
				c0.78,0.42,1.73,0.63,2.83,0.63C309.41,65.97,310.35,65.76,311.13,65.35z"/>
			<path class="st1" d="M328.85,70.42c-1.61-0.81-2.83-1.99-3.67-3.54c-0.84-1.56-1.25-3.46-1.25-5.7v-2.2h5.81v1.99
				c0,1.61,0.43,2.85,1.3,3.72c0.87,0.87,2.1,1.3,3.72,1.3c1.57,0,2.77-0.43,3.61-1.29c0.84-0.86,1.25-2.1,1.25-3.73v-3.88
				c0-1.08-0.27-2-0.79-2.75c-0.53-0.75-1.19-1.37-1.99-1.85c-0.79-0.48-1.89-1.03-3.3-1.67c-0.04-0.02-0.08-0.03-0.12-0.05
				c-0.04-0.01-0.08-0.03-0.12-0.05l-0.43-0.18c-1.87-0.86-3.41-1.69-4.6-2.51s-2.21-1.95-3.04-3.39c-0.84-1.45-1.25-3.28-1.25-5.5
				v-2.57c0-2.2,0.41-4.07,1.24-5.61s2.04-2.7,3.65-3.5c1.61-0.79,3.57-1.19,5.87-1.19c2.24,0,4.14,0.4,5.7,1.21
				c1.56,0.81,2.74,1.99,3.54,3.54c0.81,1.56,1.21,3.45,1.21,5.67v2.32h-5.81v-2.08c0-1.63-0.4-2.87-1.19-3.73s-1.95-1.29-3.45-1.29
				c-1.61,0-2.84,0.41-3.68,1.22s-1.27,1.98-1.27,3.48v2.78c0,1.12,0.27,2.06,0.79,2.83c0.53,0.76,1.19,1.38,1.99,1.85
				c0.79,0.47,1.89,1.01,3.27,1.62c0.14,0.06,0.27,0.12,0.4,0.18s0.25,0.12,0.4,0.18c0.1,0.04,0.21,0.09,0.32,0.14
				s0.22,0.1,0.32,0.14c1.77,0.79,3.2,1.56,4.28,2.28c1.08,0.72,2,1.77,2.75,3.13c0.75,1.37,1.13,3.15,1.13,5.35v4.08
				c0,2.24-0.41,4.14-1.24,5.7s-2.03,2.74-3.62,3.54c-1.59,0.81-3.53,1.21-5.81,1.21C332.42,71.62,330.46,71.23,328.85,70.42z"/>
			
				<radialGradient id="SVGID_00000052791683540201953380000017125792045849698984_" cx="1894.912" cy="-1921.2369" r="17.4941" gradientTransform="matrix(1 0 0 1 -1520.188 1970.167)" gradientUnits="userSpaceOnUse">
				<stop  offset="0" style="stop-color:#000000"/>
				<stop  offset="0.1328" style="stop-color:#131313"/>
				<stop  offset="0.2836" style="stop-color:#343435"/>
				<stop  offset="0.4432" style="stop-color:#4F5052"/>
				<stop  offset="0.6091" style="stop-color:#6A6C6E"/>
				<stop  offset="0.7796" style="stop-color:#898B8E"/>
				<stop  offset="0.9518" style="stop-color:#AFB1B4"/>
				<stop  offset="1" style="stop-color:#BCBEC0"/>
			</radialGradient>
			<polygon style="fill:url(#SVGID_00000052791683540201953380000017125792045849698984_);" points="380.1,26.73 380.1,58.16 
				381.05,60.81 380.1,61.61 380.1,58.16 368.88,26.73 363.81,26.73 363.81,71.14 369.34,71.14 369.34,40.71 368.39,38.13 
				369.34,37.34 369.34,40.71 380.5,71.14 385.63,71.14 385.63,26.73 			"/>
			<g>
				<polygon class="st1" points="409.11,71.17 415.71,71.17 405.28,44.36 401.97,50.84 				"/>
				<polygon class="st1" points="396.3,51.49 397.56,48.82 397.56,26.73 391.75,26.73 391.75,71.17 397.56,71.17 397.56,59.45 
					395.81,62.86 				"/>
				<polygon class="st1" points="400.77,47.43 404.71,42.87 405.28,44.36 414.3,26.73 407.95,26.73 397.56,48.82 397.56,59.45 
					401.97,50.84 				"/>
			</g>
			<path class="st1" d="M424.82,71.17h-5.81V26.73h5.81V71.17z"/>
		</g>
	</g>
</g>
</svg>
