<svg xmlns="http://www.w3.org/2000/svg" 
	 viewBox="0 0 1080 1080" style="enable-background:new 0 0 1080 1080;" xml:space="preserve" stroke="#fff" fill="#FDB715">
<g>
	<path d="M553.5,732c-2.57-0.88-5.27-1.51-7.7-2.68c-11.53-5.57-17.68-14.86-17.75-27.67c-0.15-28.87-0.05-57.74-0.05-86.6
		c0-50.24,0-100.48,0-150.71c0-19.77,12.53-32.32,32.28-32.33c38.49-0.01,76.98-0.01,115.47,0c19.73,0,32.24,12.56,32.25,32.36
		c0.01,59.11,0,118.22,0,177.33c0,1.49,0,2.99,0,4.5c5.79-0.63,11.25-7.33,11.91-14.48c0.13-1.36,0.08-2.75,0.08-4.12
		c0-82.35,0-164.71,0-247.06c0-13.52-7.02-20.53-20.56-20.53c-89.35,0-178.71,0-268.06,0c-1.61,0-3.23,0-5.38,0c0-4.11,0-8.06,0-12
		c93.5,0,187,0,280.5,0c0.8,0.27,1.59,0.59,2.41,0.8c9.62,2.52,16.54,8.3,20.6,17.36c1.05,2.34,1.67,4.88,2.49,7.33
		c0,87,0,174,0,261c-1.8,4.2-3.14,8.68-5.51,12.53c-4.16,6.77-10.8,10.47-18.5,12.49c0,14.3,0.21,28.41-0.06,42.51
		c-0.25,12.96-6.63,22.2-18.41,27.6c-2.23,1.02-4.68,1.58-7.02,2.36C639.5,732,596.5,732,553.5,732z M540.26,474.15
		c0,70.1,0,139.87,0,209.56c52.04,0,103.81,0,155.56,0c0-69.97,0-139.66,0-209.52c-10.23,0-20.29,0-30.3,0
		c-0.26,0.91-0.46,1.63-0.67,2.34c-3.39,11.67-8.41,15.46-20.49,15.46c-18.12,0-36.24,0.01-54.36,0c-9.53,0-14.82-3.75-17.98-12.75
		c-0.57-1.64-1.04-3.31-1.6-5.1C560.45,474.15,550.48,474.15,540.26,474.15z M695.86,462c-0.32-10.69-7.98-17.97-18.58-17.99
		c-28.62-0.04-57.24-0.01-85.85-0.01c-11.25,0-22.5-0.11-33.74,0.04c-9.9,0.13-17.89,8.4-17.36,17.81c0.96,0.05,1.95,0.14,2.93,0.14
		c10.37,0.01,20.74-0.01,31.12,0.01c5.31,0.01,7.19,1.79,7.69,6.99c0.17,1.73,0.43,3.48,0.87,5.16c1.24,4.72,2.76,5.84,7.65,5.84
		c18.25,0,36.49,0,54.74,0c4.94,0,6.45-1.09,7.72-5.76c0.42-1.56,0.7-3.18,0.87-4.78c0.63-5.97,2.23-7.44,8.38-7.45
		C673.4,461.99,684.5,462,695.86,462z M540.34,696.15c-1.86,15.22,5.63,23.85,20.44,23.85c38.46,0,76.92,0.01,115.38,0
		c13.86,0,21.94-9.9,19.38-23.85C643.9,696.15,592.24,696.15,540.34,696.15z"/>
	<path d="M390,348c0,3.85,0,7.7,0,12c-4.1,0-7.93-0.05-11.75,0.01c-10.48,0.15-18.22,7.81-18.22,18.33
		c-0.04,73.1-0.02,146.21-0.02,219.31c0,0.61,0.06,1.22,0.12,2.23c51.87,0,103.65,0,155.65,0c0,4.18,0,7.97,0,12.03
		c-51.84,0-103.53,0-155.08,0c0,7.8-0.83,15.46,0.23,22.84c1.13,7.88,8.72,13.12,16.91,13.21c10.25,0.11,20.49,0.03,30.74,0.03
		c34.12,0,68.23,0,102.35,0c1.49,0,2.99,0,4.78,0c0,3.91,0,7.7,0,11.9c-12.22,0-24.53,0-36.92,0c-1.02,4.08-1.95,7.81-3,11.98
		c13.47,0,26.62,0,39.99,0c0,4.18,0,7.97,0,12.12c-5.85,0-11.56,0-17.28,0c-9.25,0-18.49,0-27.74,0c-7.09,0-8.8,1.73-8.75,8.87
		c0.01,0.87,0,1.73,0,3c17.95,0,35.75,0,53.77,0c0,4.19,0,7.97,0,12.13c-1.96,0-3.8,0-5.64,0c-17.37,0-34.74,0.01-52.11,0
		c-6.09,0-8-1.95-8.01-8.11c-0.01-3.37-0.09-6.75,0.03-10.12c0.25-7.25,3.63-12.71,10.13-15.84c2.45-1.18,3.6-2.64,4.06-5.16
		c0.51-2.81,1.29-5.57,2.05-8.77c-1.64,0-2.98,0-4.31,0c-26.99,0-53.98,0-80.98,0c-17.63,0-27.92-7.88-32.55-24.91
		c-0.06-0.22-0.28-0.4-0.43-0.59c0-87,0-174,0-261c0.27-0.8,0.59-1.59,0.8-2.41c2.37-9.04,7.64-15.81,16.02-19.95
		c2.74-1.35,5.77-2.11,8.67-3.14C379,348,384.5,348,390,348z"/>
	<path d="M414,348c0,3.83,0,7.66,0,11.74c-3.98,0-7.75,0-12,0c0-3.9,0-7.82,0-11.74C406,348,410,348,414,348z"/>
	<path d="M501.41,462c-0.26,0.51-0.35,0.75-0.48,0.96c-3.37,5.64-4.14,10.59,2.28,15.06c2.97,2.07,2.58,5.85-0.06,8.58
		c-5.4,5.56-10.88,11.04-16.43,16.45c-2.87,2.79-6.59,3.14-8.86,0.01c-4.14-5.7-8.63-5.91-14.07-2.47
		c-0.42,0.26-0.91,0.41-1.78,0.78c0,2.41,0.04,4.99-0.01,7.58c-0.08,4.72-2.22,6.99-6.82,7.04c-7.5,0.07-15,0.08-22.5,0
		c-4.39-0.05-6.56-2.34-6.66-6.8c-0.06-2.61-0.01-5.23-0.01-7.76c-0.57-0.27-0.92-0.4-1.23-0.59c-5.55-3.32-10.36-3.85-14.72,2.32
		c-2.12,3-5.89,2.67-8.58,0.05c-5.65-5.49-11.22-11.05-16.7-16.71c-2.61-2.69-2.89-6.43,0.11-8.58c5.92-4.23,5.85-8.88,2.41-14.38
		c-0.26-0.41-0.4-0.89-0.69-1.54c-2.72,0-5.46,0.08-8.2-0.02c-4-0.14-6.31-2.35-6.36-6.33c-0.1-7.75-0.1-15.5,0-23.25
		c0.05-4.01,2.33-6.22,6.31-6.37c2.74-0.1,5.48-0.02,8.24-0.02c0.28-0.61,0.43-1.08,0.68-1.49c3.43-5.48,3.63-10.13-2.34-14.4
		c-3.13-2.24-2.75-5.99,0.05-8.86c5.32-5.46,10.72-10.84,16.17-16.18c3-2.94,6.71-3.31,9.15-0.03c4.07,5.49,8.4,5.87,13.74,2.44
		c0.52-0.33,1.13-0.51,1.96-0.88c0-2.51-0.05-5.13,0.01-7.74c0.09-4.5,2.23-6.81,6.6-6.85c7.62-0.08,15.25-0.09,22.87,0
		c4.18,0.05,6.33,2.35,6.51,6.59c0.01,0.12,0,0.25,0,0.37c0.22,8.34,0.21,8.37,8.32,11.05c0.73,0.24,1.74-0.15,2.56-0.42
		c0.42-0.14,0.72-0.67,1.08-1.02c7.99-7.86,8.61-7.86,16.45-0.01c4.15,4.15,8.35,8.26,12.44,12.48c3.05,3.15,3.4,6.88-0.1,9.41
		c-5.59,4.03-5.36,8.38-2.21,13.43c0.58,0.93,1.83,1.84,2.88,2c2.08,0.32,4.24,0.02,6.36,0.12c3.78,0.18,6.12,2.37,6.18,6.13
		c0.12,7.87,0.12,15.75,0,23.62c-0.05,3.77-2.37,5.97-6.12,6.2c-1.37,0.08-2.75,0.02-4.12,0.02C504.34,462,502.97,462,501.41,462z
		 M503.82,438c-2,0-3.84,0.01-5.69,0c-4.8-0.05-6.17-1.32-7.75-5.91c-1.45-4.22-3.18-8.38-5.15-12.39c-2.23-4.55-2.2-6.26,1.54-9.9
		c1.31-1.27,2.91-2.24,4.38-3.34c-0.56-0.05-1.12-0.1-1.68-0.15c-2.49-2.89-4.97-5.77-7.74-8.99c-1.21,1.38-2.23,2.66-3.37,3.8
		c-3.85,3.86-5.48,3.89-10.23,1.56c-4.12-2.02-8.42-3.71-12.77-5.19c-3.54-1.21-5.48-3.25-5.37-7.08c0.06-2.07,0.01-4.14,0.01-6.12
		c-4.31,0-8.1,0-12,0c0,2.04,0.01,3.79,0,5.54c-0.05,4.81-1.28,6.16-5.89,7.78c-4.33,1.53-8.58,3.33-12.72,5.32
		c-4.14,1.99-6.02,1.93-9.32-1.42c-1.36-1.39-2.43-3.06-3.04-3.85c-3.62,3.33-6.42,5.91-9.42,8.67c1.17,1.09,2.39,2.16,3.53,3.3
		c3.84,3.85,3.88,5.49,1.55,10.24c-2.02,4.12-3.69,8.43-5.18,12.77c-1.22,3.54-3.28,5.47-7.1,5.36c-2.07-0.06-4.14-0.01-6.1-0.01
		c0,4.32,0,8.11,0,12c2.05,0,3.8-0.01,5.54,0c4.8,0.04,6.2,1.33,7.77,5.9c1.45,4.22,3.18,8.38,5.15,12.39
		c2.22,4.53,2.19,6.29-1.52,9.91c-1.3,1.27-2.91,2.23-3.59,2.74c3.39,3.63,5.98,6.41,8.85,9.47c1.1-1.23,2.2-2.59,3.44-3.83
		c3.51-3.5,5.24-3.54,9.63-1.43c4.25,2.04,8.65,3.8,13.11,5.35c3.54,1.23,5.44,3.3,5.33,7.12c-0.06,2.07-0.01,4.14-0.01,6.2
		c4.24,0,7.94,0,12,0c0-2.26,0.04-4.35-0.01-6.44c-0.07-3.47,1.64-5.5,4.84-6.72c4.87-1.86,9.72-3.82,14.45-5.99
		c3.15-1.44,5.8-1.23,8.14,1.3c1.49,1.61,2.83,3.37,3.57,4.26c3.57-3.28,6.36-5.85,9.45-8.69c-1.26-1.13-2.62-2.23-3.85-3.47
		c-3.5-3.51-3.54-5.24-1.43-9.63c2.04-4.25,3.8-8.65,5.35-13.11c1.23-3.54,3.28-5.46,7.11-5.33c2.07,0.07,4.14,0.01,6.21,0.01
		C503.82,445.77,503.82,442.07,503.82,438z"/>
	<path d="M450.01,576c0,6.19,0,11.8,0,17.71c-3.92,0-7.71,0-11.88,0c0-8.24-0.22-16.57,0.12-24.87c0.12-3.01,2.67-4.7,5.8-4.8
		c2.86-0.09,5.73-0.02,8.53-0.02c1.22-2.86,2.45-5.45,3.39-8.14c0.28-0.81,0.06-2.16-0.48-2.83c-1.4-1.74-3.17-3.18-4.68-4.85
		c-2.54-2.82-2.64-6-0.03-8.69c5.48-5.65,11.05-11.21,16.69-16.7c2.7-2.62,6.45-2.96,8.58,0.04c4.36,6.15,9.16,5.67,14.71,2.33
		c0.32-0.19,0.67-0.32,1.25-0.58c0-2.65-0.07-5.39,0.02-8.12c0.13-4.03,2.3-6.37,6.25-6.43c7.73-0.11,15.47-0.03,23.46-0.03
		c0,3.97,0,7.76,0,11.83c-5.72,0-11.42,0-17.74,0c0,1.95,0,3.63,0,5.31c-0.02,5.64-1.05,6.78-6.32,8.58
		c-4.11,1.41-8.13,3.13-12.03,5.06c-4.4,2.17-6.2,2.11-9.65-1.31c-1.31-1.31-2.51-2.73-3.71-4.05c-3.09,3.05-5.81,5.73-9.21,9.09
		c1.72,1.41,3.53,2.73,5.15,4.26c2.4,2.27,2.49,4.88,1.15,7.86c-2.15,4.75-4.15,9.58-6,14.45c-1.21,3.18-3.19,4.96-6.67,4.92
		C454.6,575.98,452.51,576,450.01,576z"/>
	<path d="M677.82,372.25c0,3.98,0,7.68,0,11.56c-25.86,0-51.54,0-77.52,0c0-3.73,0-7.52,0-11.56
		C626,372.25,651.77,372.25,677.82,372.25z"/>
	<path d="M509.86,552.22c0,4.01,0,7.71,0,11.54c-10.76,1.31-16.82,7.32-18.09,18.1c-3.84,0-7.54,0-11.24,0
		C478.66,569.68,491.16,551.78,509.86,552.22z"/>
	<path d="M431.82,624.25c0,4,0,7.7,0,11.57c-11.87,0-23.55,0-35.53,0c0-3.74,0-7.53,0-11.57C408,624.25,419.78,624.25,431.82,624.25
		z"/>
	<path d="M690.15,383.82c0-3.95,0-7.64,0-11.58c3.87,0,7.65,0,11.64,0c0,3.84,0,7.62,0,11.58
		C697.94,383.82,694.25,383.82,690.15,383.82z"/>
	<path d="M372.18,635.75c0-4,0-7.69,0-11.56c3.87,0,7.56,0,11.54,0c0,3.74,0,7.53,0,11.56C380,635.75,376.22,635.75,372.18,635.75z"
		/>
	<path d="M617.99,516.02c36.31-0.13,65.94,29.53,66.01,66.06c0.07,35.96-29.51,65.75-65.43,65.92
		c-36.56,0.16-66.48-29.3-66.55-65.52C551.94,545.68,581.26,516.15,617.99,516.02z M617.9,635.97c29.88,0.03,54.05-24.13,54.1-54.07
		c0.05-29.41-24.16-53.79-53.52-53.9c-29.99-0.11-54.43,23.98-54.47,53.7C563.97,611.67,588.07,635.94,617.9,635.97z"/>
	<path d="M594.08,467.76c0-3.94,0-7.55,0-11.46c15.81,0,31.59,0,47.64,0c0,3.65,0,7.43,0,11.46
		C625.97,467.76,610.2,467.76,594.08,467.76z"/>
	<path d="M641.83,702.26c0,3.95,0,7.65,0,11.54c-15.85,0-31.54,0-47.53,0c0-3.7,0-7.48,0-11.54
		C609.98,702.26,625.75,702.26,641.83,702.26z"/>
	<path d="M444.14,414c16.38,0.05,29.84,13.51,29.85,29.85c0.01,16.75-13.58,30.25-30.34,30.14c-16.33-0.11-29.66-13.62-29.65-30.06
		C414.02,427.39,427.55,413.96,444.14,414z M443.9,461.97c9.95,0.05,18.08-8.07,18.08-18.07c0-9.76-8.12-17.89-17.87-17.89
		c-9.86,0-17.95,7.91-18.09,17.69C425.88,453.66,433.96,461.92,443.9,461.97z"/>
	<path d="M606.39,573.2c9.8-9.82,19.57-19.63,29.36-29.43c5.1-5.11,7.4-5.12,12.46-0.07c5.04,5.03,10.1,10.03,15.09,15.1
		c3.66,3.72,3.71,6.67,0.05,10.34c-17.37,17.42-34.76,34.81-52.18,52.18c-3.69,3.68-6.64,3.66-10.33,0
		c-9.39-9.33-18.74-18.69-28.08-28.08c-3.81-3.83-3.77-6.68,0.1-10.59c5.27-5.32,10.56-10.63,15.89-15.89
		c3.85-3.8,6.66-3.74,10.6,0.09c2.06,2,4.1,4.01,6.16,6.01C605.59,572.94,605.74,572.95,606.39,573.2z M641.83,554.62
		c-10.24,10.25-20.19,20.25-30.17,30.21c-4.34,4.34-7,4.31-11.39-0.08c-2.01-2.01-3.94-4.09-5.45-5.66
		c-3.53,3.29-6.67,6.21-9.19,8.55c7,6.97,14.03,13.96,20.51,20.42c14.59-14.58,29.57-29.54,44.52-44.47
		C648.02,560.91,645.07,557.92,641.83,554.62z"/>
</g>
</svg>
